<?xml version="1.0" encoding="UTF-8" standalone="no"?>
<svg width="164px" height="42px" viewBox="0 0 164 42" version="1.1" xmlns="http://www.w3.org/2000/svg" xmlns:xlink="http://www.w3.org/1999/xlink" xmlns:sketch="http://www.bohemiancoding.com/sketch/ns">
    <!-- Generator: Sketch 3.3.2 (12043) - http://www.bohemiancoding.com/sketch -->
    <title>aventura-mobil-nav-icons-sprite</title>
    <desc>Created with Sketch.</desc>
    <defs></defs>
    <g id="kit" stroke="none" stroke-width="1" fill="none" fill-rule="evenodd" sketch:type="MSPage">
        <g id="aventura-mobil-nav-icons-sprite" sketch:type="MSArtboardGroup">
            <g id="phone-+-Rectangle-17" sketch:type="MSLayerGroup">
                <g id="phone" transform="translate(6.000000, 8.000000)" sketch:type="MSShapeGroup">
                    <path d="M28.1371025,19.4838462 C28.0890459,19.2453846 27.914841,18.9175 27.740636,18.7565385 C27.740636,18.7565385 21.8777385,13.0871154 21.8777385,10.0526923 C21.8777385,7.76346154 21.3911661,7.11961538 21.3911661,7.11961538 C21.3911661,6.87519231 21.1989399,6.67846154 20.9646643,6.67846154 L18.5858657,6.67846154 C18.3515901,6.67846154 18.165371,6.87519231 18.165371,7.11961538 L17.6727915,8.19865385 C17.6727915,8.44307692 17.4865724,8.63980769 17.2522968,8.63980769 L13.3657244,8.63980769 C13.1374558,8.63980769 12.9452297,8.44307692 12.9452297,8.19865385 L12.4526502,7.11961538 C12.4526502,6.87519231 12.2664311,6.67846154 12.0321555,6.67846154 L9.65335689,6.67846154 C9.41908127,6.67846154 9.23286219,6.87519231 9.23286219,7.11961538 C9.23286219,7.11961538 8.74028269,7.76346154 8.74028269,10.0526923 C8.74028269,13.0871154 2.87738516,18.7565385 2.87738516,18.7565385 C2.70918728,18.9175 2.52897527,19.2453846 2.48091873,19.4838462 L1.7360424,23.1621154 C1.68798587,23.3946154 1.83816254,23.5913462 2.0664311,23.5913462 L2.76325088,23.5913462 L3.73639576,24.8492308 C3.8385159,25.1115385 4.13886926,25.3261538 4.40918728,25.3261538 L26.2088339,25.3261538 C26.4791519,25.3261538 26.7795053,25.1115385 26.8816254,24.8492308 L27.8547703,23.5913462 L28.5515901,23.5913462 C28.7798587,23.5913462 28.9300353,23.3946154 28.8819788,23.1621154 L28.1371025,19.4838462" id="Fill-2" fill="#8DC644"></path>
                    <path d="M30.4378092,9.86192308 C30.2876325,8.62788462 29.434629,6.11211538 28.4855124,5.29538462 C28.0530035,4.92576923 27.7766784,4.71115385 27.4823322,4.18057692 C27.2180212,3.69769231 26.9897527,3.20884615 26.5452297,2.88692308 C25.8844523,2.41 25.1155477,2.11788462 24.3526502,1.87346154 C22.2621908,1.19384615 18.255477,0.734807692 15.5342756,0.752692308 C12.8070671,0.752692308 8.36183746,1.19384615 6.26537102,1.87346154 C5.5024735,2.11788462 4.7335689,2.41 4.07879859,2.88692308 C3.62826855,3.20884615 3.4,3.69769231 3.13568905,4.18057692 C2.84134276,4.71115385 2.56501767,4.92576923 2.13250883,5.29538462 C1.18339223,6.11211538 0.330388693,8.62788462 0.180212014,9.86192308 C0.0300353357,11.1376923 3.80848057,11.1853846 5.4844523,11.0303846 C6.27738516,10.9588462 7.24452297,10.8575 7.81519435,10.1659615 C8.12155477,9.79038462 8.12155477,9.12865385 8.15759717,8.67557692 C8.21766784,7.9125 8.08551237,6.21346154 9.07667845,6.01076923 C9.94770318,5.83788462 13.5279152,5.71865385 15.3120141,5.70076923 C17.090106,5.71865385 20.670318,5.83788462 21.5413428,6.01076923 C22.5325088,6.21346154 22.4003534,7.9125 22.460424,8.67557692 C22.4964664,9.12865385 22.4964664,9.79038462 22.8028269,10.1659615 C23.3734982,10.8575 24.340636,10.9588462 25.1335689,11.0303846 C26.8155477,11.1853846 30.5879859,11.1376923 30.4378092,9.86192308" id="Fill-3" fill="#8DC644"></path>
                    <path d="M10.9208481,17.7430769 C10.9208481,15.1438462 13.0413428,13.0394231 15.654417,13.0394231 C18.2734982,13.0394231 20.3939929,15.1438462 20.3939929,17.7430769 C20.3939929,20.3363462 18.2734982,22.4407692 15.654417,22.4407692 C13.0413428,22.4407692 10.9208481,20.3363462 10.9208481,17.7430769 L10.9208481,17.7430769 Z" id="Fill-4" fill="#8DC644"></path>
                    <path d="M10.9208481,17.7430769 C10.9208481,15.1438462 13.0413428,13.0394231 15.654417,13.0394231 C18.2734982,13.0394231 20.3939929,15.1438462 20.3939929,17.7430769 C20.3939929,20.3363462 18.2734982,22.4407692 15.654417,22.4407692 C13.0413428,22.4407692 10.9208481,20.3363462 10.9208481,17.7430769 L10.9208481,17.7430769 Z" id="Stroke-5" stroke="#FFFFFF" stroke-width="2.4" stroke-linecap="round" stroke-linejoin="round"></path>
                </g>
            </g>
            <g id="skype-+-Rectangle-17-Copy" sketch:type="MSLayerGroup" transform="translate(41.000000, 0.000000)">
                <g id="skype" transform="translate(8.000000, 7.000000)" sketch:type="MSShapeGroup">
                    <path d="M25.335689,16.9426923 C25.5219081,16.0544231 25.6240283,15.1303846 25.6240283,14.1825 C25.6240283,7.08230769 20.1035336,1.3175 13.2975265,1.3175 C12.5766784,1.3175 11.8738516,1.38307692 11.1890459,1.50826923 C10.0897527,0.786923077 8.78621908,0.363653846 7.38657244,0.363653846 C3.43992933,0.363653846 0.238162544,3.70211538 0.238162544,7.82153846 C0.238162544,9.19865385 0.598586572,10.4923077 1.22332155,11.5951923 C1.06113074,12.4298077 0.971024735,13.3001923 0.971024735,14.1825 C0.971024735,21.2886538 6.49151943,27.0475 13.2975265,27.0475 C14.0664311,27.0475 14.8233216,26.97 15.5561837,26.8328846 C16.559364,27.3932692 17.7127208,27.7151923 18.9321555,27.7151923 C22.8787986,27.7151923 26.0805654,24.3767308 26.0805654,20.2573077 C26.0805654,19.065 25.8102473,17.9442308 25.335689,16.9426923" id="Fill-6" fill="#00AFF0"></path>
                    <path d="M9.59717314,5.72903846 C8.5639576,6.12846154 7.7590106,6.71269231 7.20636042,7.46384615 C6.65371025,8.215 6.37137809,9.09134615 6.37137809,10.0630769 C6.37137809,11.0825 6.64169611,11.9528846 7.17031802,12.6444231 C7.6869258,13.3240385 8.40176678,13.8665385 9.28480565,14.26 C10.1498233,14.6415385 11.2371025,14.9813462 12.5166078,15.2675 C13.4537102,15.4761538 14.2166078,15.6728846 14.775265,15.8517308 C15.3159011,16.0246154 15.754417,16.2809615 16.0908127,16.6088462 C16.4091873,16.9248077 16.565371,17.3242308 16.565371,17.8309615 C16.565371,18.4748077 16.2710247,18.9994231 15.6522968,19.4346154 C15.0275618,19.8817308 14.1925795,20.1082692 13.1713781,20.1082692 C12.4325088,20.1082692 11.8318021,19.995 11.3812721,19.7744231 C10.9367491,19.5598077 10.5883392,19.2796154 10.3480565,18.9457692 C10.0957597,18.5940385 9.8614841,18.1528846 9.63922261,17.6342308 C9.44699647,17.1513462 9.20070671,16.7817308 8.91837456,16.5313462 C8.62402827,16.2690385 8.25759717,16.1378846 7.83109541,16.1378846 C7.31448763,16.1378846 6.8819788,16.3048077 6.54558304,16.6386538 C6.20318021,16.9725 6.03498233,17.3778846 6.03498233,17.8488462 C6.03498233,18.6059615 6.29929329,19.3869231 6.82190813,20.1738462 C7.3385159,20.9548077 8.02332155,21.5867308 8.85229682,22.0517308 C10.0116608,22.6955769 11.4954064,23.0175 13.2614841,23.0175 C14.7392226,23.0175 16.030742,22.785 17.1120141,22.3140385 C18.2053004,21.8430769 19.0462898,21.1753846 19.6169611,20.3288462 C20.1876325,19.4882692 20.4819788,18.5225 20.4819788,17.4613462 C20.4819788,16.5730769 20.3137809,15.81 19.9773852,15.1959615 C19.6469965,14.5819231 19.1784452,14.0632692 18.5897527,13.6638462 C18.0130742,13.2703846 17.3042403,12.9305769 16.4812721,12.6563462 C15.670318,12.3880769 14.7572438,12.1376923 13.7540636,11.9171154 C12.9671378,11.7263462 12.3964664,11.5773077 12.0540636,11.4759615 C11.7176678,11.3805769 11.3812721,11.2494231 11.0568905,11.0765385 C10.75053,10.9155769 10.4982332,10.7188462 10.3240283,10.4923077 C10.1618375,10.2836538 10.0777385,10.0392308 10.0777385,9.74711538 C10.0777385,9.27019231 10.3300353,8.86480769 10.840636,8.51307692 C11.375265,8.14942308 12.0961131,7.96461538 12.9791519,7.96461538 C13.9282686,7.96461538 14.6250883,8.13153846 15.0335689,8.45942308 C15.4600707,8.79923077 15.8325088,9.27615385 16.1448763,9.88423077 C16.4091873,10.3611538 16.64947,10.695 16.8777385,10.9096154 C17.1240283,11.1361538 17.4844523,11.2553846 17.9409894,11.2553846 C18.439576,11.2553846 18.8660777,11.0705769 19.2024735,10.7009615 C19.5388693,10.3373077 19.7130742,9.92 19.7130742,9.46096154 C19.7130742,8.98403846 19.5809187,8.48923077 19.3226148,7.99442308 C19.070318,7.49961538 18.6678445,7.02865385 18.1272085,6.5875 C17.5865724,6.14634615 16.9017668,5.78865385 16.0908127,5.52634615 C15.2858657,5.26403846 14.3187279,5.13288462 13.2134276,5.13288462 C11.8378092,5.13288462 10.6243816,5.33557692 9.59717314,5.72903846" id="Fill-7" fill="#FFFFFF"></path>
                </g>
            </g>
            <g id="Fill-1-+-Rectangle-17-Copy-2" sketch:type="MSLayerGroup" transform="translate(82.000000, 0.000000)" fill="#4A4A4A">
                <path d="M22.9816254,20.9782692 C22.675265,23.1780769 21.1855124,24.9605769 19.7318021,24.9605769 C18.5123675,24.9605769 17.8636042,24.0484615 17.8636042,22.6057692 L17.8636042,22.5223077 C17.9056537,19.6369231 19.8759717,17.2225 22.3689046,17.2225 C22.8314488,17.2225 23.2519435,17.2940385 23.5583039,17.3715385 L23.1137809,20.1675 L22.9816254,20.9782692 L22.9816254,20.9782692 Z M26.8742049,18.9453846 L27.4929329,15.1359615 C26.5738516,14.6411538 24.6636042,14.2238462 22.9816254,14.2238462 C17.4791519,14.2238462 14.0010601,18.3969231 14.0010601,23.0648077 C14.0010601,23.2734615 14.0130742,23.4761538 14.0250883,23.6728846 C14.2533569,26.4151923 16.0014134,28.0367308 18.2840989,28.0367308 C20.344523,28.0367308 22.0265018,27.0113462 23.2519435,25.1096154 L23.3240283,25.1096154 C23.5162544,27.0828846 24.819788,28.0367308 26.6159011,28.0367308 C30.7427562,28.0367308 33.8784452,24.5432692 33.8784452,18.9692308 C33.8784452,18.7426923 33.8664311,18.5221154 33.854417,18.3015385 C33.5300353,12.2744231 28.8204947,8 22.2968198,8 C13.6946996,8 8,14.7186538 8,22.4567308 C8,23.0648077 8.04204947,23.6490385 8.11413428,24.2153846 C8.91908127,30.6001923 14.0971731,34.4036538 19.9240283,34.4036538 C22.6392226,34.4036538 24.6275618,34.0638462 26.9222615,33.0384615 L26.2734982,30.8803846 C24.7416961,31.6375 22.6392226,32.0548077 20.6869258,32.0548077 C15.6169611,32.0548077 11.844523,29.2230769 11.0876325,24.0961538 C10.9915194,23.4701923 10.9434629,22.8084615 10.9434629,22.1169231 C10.9434629,14.8319231 16.0254417,10.3130769 21.9123675,10.3130769 C27.5469965,10.3130769 30.724735,13.7469231 31.0250883,18.3611538 C31.0371025,18.5996154 31.0491166,18.8380769 31.0491166,19.0825 C31.0491166,23.4821154 28.9826855,25.5686538 27.3427562,25.4911538 C26.2734982,25.4494231 26.0031802,24.43 26.345583,22.1884615 L26.8742049,18.9453846 L26.8742049,18.9453846 Z" id="Fill-1" sketch:type="MSShapeGroup"></path>
            </g>
            <g id="place-+-Rectangle-17-Copy-3" sketch:type="MSLayerGroup" transform="translate(123.000000, 0.000000)">
                <g id="place" transform="translate(12.000000, 8.000000)" sketch:type="MSShapeGroup">
                    <path d="M9.11734982,0.0604038462 C4.33812721,0.0604038462 0.467173145,3.81080769 0.467173145,8.44113462 C0.467173145,10.8823846 1.54303887,13.0821923 3.26226148,14.6113269 L3.36498233,14.7186346 C7.97660777,19.5635769 8.67402827,24.4246154 8.8470318,26.1951923 L8.92812721,26.8873269 L9.18222615,26.9034231 C9.42010601,26.2810385 9.34441696,20.5186154 14.864311,14.7186346 L14.9454064,14.6327885 C16.6808481,13.0982885 17.7675265,10.8931154 17.7675265,8.44113462 C17.7675265,3.81080769 13.8965724,0.0604038462 9.11734982,0.0604038462" id="Fill-8" fill="#DD4B39"></path>
                    <path d="M4.79226148,8.64501923 C4.79226148,6.27351923 6.72773852,4.35271154 9.11734982,4.35271154 C11.5069611,4.35271154 13.4424382,6.27351923 13.4424382,8.64501923 C13.4424382,11.0111538 11.5069611,12.9373269 9.11734982,12.9373269 C6.72773852,12.9373269 4.79226148,11.0111538 4.79226148,8.64501923" id="Fill-10" fill="#FFFFFF"></path>
                </g>
            </g>
        </g>
    </g>
</svg>