<?xml version="1.0" encoding="UTF-8" standalone="no"?>
<svg width="143px" height="143px" viewBox="0 0 143 143" version="1.1" xmlns="http://www.w3.org/2000/svg" xmlns:xlink="http://www.w3.org/1999/xlink" xmlns:sketch="http://www.bohemiancoding.com/sketch/ns">
    <!-- Generator: Sketch 3.3.2 (12043) - http://www.bohemiancoding.com/sketch -->
    <title>aventura-discounts-bg</title>
    <desc>Created with Sketch.</desc>
    <defs></defs>
    <g id="utilities" stroke="none" stroke-width="1" fill="none" fill-rule="evenodd" sketch:type="MSPage">
        <g id="aventura-discounts-bg" sketch:type="MSArtboardGroup">
            <g id="africa-logo-copy-2" sketch:type="MSLayerGroup">
                <path d="M4.26325641e-14,71.4843121 C4.26325641e-14,32.007693 32.007693,-7.10542736e-14 71.4843121,-7.10542736e-14 C110.960931,-7.10542736e-14 142.968624,32.007693 142.968624,71.4843121 C142.968624,110.960931 110.960931,142.968624 71.4843121,142.968624 C32.007693,142.968624 4.26325641e-14,110.960931 4.26325641e-14,71.4843121 L80.2767995,63.9043047" id="Fill-1" fill="#FFFFFF" sketch:type="MSShapeGroup"></path>
                <path d="M25.9897148,26.7979195 C25.6134815,26.3938171 25.6134815,25.7667617 26.0175839,25.376594 C26.4077517,24.9864262 27.0487416,25.0003607 27.4249748,25.3905285 C27.8151426,25.7806963 27.8151426,26.4216862 27.4110403,26.811854 C27.2159564,27.0069379 26.9651342,27.0905453 26.7143121,27.0905453 C26.4495554,27.0905453 26.1987332,26.9930034 25.9897148,26.7979195 L25.9897148,26.7979195 Z M23.3560822,29.6405705 C22.9380453,29.2782718 22.8962416,28.6372819 23.2724748,28.2331795 C23.6487081,27.8151426 24.2757634,27.7872735 24.6938003,28.1495721 C25.1118372,28.5258054 25.1397064,29.1528607 24.7634732,29.5848322 C24.5683893,29.7938507 24.289698,29.9053272 24.0249413,29.9053272 C23.7741191,29.9053272 23.5372315,29.8217198 23.3560822,29.6405705 L23.3560822,29.6405705 Z M20.8757299,32.6504362 C20.4437584,32.3160067 20.3740856,31.6750168 20.7224497,31.2430453 C21.0568792,30.8110738 21.6839346,30.741401 22.1298406,31.0897651 C22.5618121,31.4241946 22.6314849,32.0651846 22.2831208,32.497156 C22.0880369,32.7340436 21.7954111,32.8733893 21.5027852,32.8733893 C21.2798322,32.8733893 21.0568792,32.7897819 20.8757299,32.6504362 L20.8757299,32.6504362 Z M18.5904614,35.7996477 C18.1445554,35.4930872 18.0330789,34.8520973 18.3535738,34.4061913 C18.6601342,33.9602852 19.2871896,33.8488087 19.7470302,34.1553691 C20.2068708,34.4897987 20.3044128,35.1029195 19.9839178,35.5627601 C19.7888339,35.8414513 19.4822735,35.980797 19.1757131,35.980797 C18.9666946,35.980797 18.7716107,35.9250587 18.5904614,35.7996477 L18.5904614,35.7996477 Z M16.5002768,39.0882047 C16.0265017,38.7955789 15.887156,38.1824581 16.1658473,37.7086829 C16.4724077,37.2488423 17.0855285,37.0955621 17.5593037,37.3881879 C18.0191443,37.6808138 18.1724245,38.28 17.8797987,38.7677097 C17.6847148,39.0742701 17.3642198,39.2414849 17.0297903,39.2414849 C16.8486409,39.2414849 16.6674916,39.1996812 16.5002768,39.0882047 L16.5002768,39.0882047 Z M14.6191107,42.5021728 C14.131401,42.2374161 13.9502517,41.6242953 14.2010738,41.1365856 C14.4658305,40.6488758 15.0789513,40.4677265 15.5666611,40.7324832 C16.0543708,40.9833054 16.2355201,41.5964262 15.9707634,42.0841359 C15.7896141,42.4325 15.44125,42.6275839 15.0928859,42.6275839 C14.9256711,42.6275839 14.7723909,42.5857802 14.6191107,42.5021728 L14.6191107,42.5021728 Z M12.9469631,46.0276174 C12.4453188,45.7907299 12.2223658,45.1915436 12.4592534,44.6898993 C12.6822064,44.188255 13.2813926,43.965302 13.7830369,44.2021896 C14.2846812,44.4251426 14.5076342,45.0243289 14.2707466,45.5259732 L14.2846812,45.5259732 C14.1035319,45.8882718 13.7412332,46.1112248 13.365,46.1112248 C13.2256544,46.1112248 13.0723742,46.0833557 12.9469631,46.0276174 L12.9469631,46.0276174 Z M11.4977685,49.6366695 C10.9821896,49.427651 10.7174329,48.8563339 10.9264513,48.3268205 C11.1215352,47.8112416 11.6928523,47.5604195 12.2223658,47.7555034 C12.7379446,47.9645218 12.9887668,48.5358389 12.7936829,49.0514178 C12.6404027,49.4555201 12.2641695,49.6924077 11.8600671,49.6924077 C11.734656,49.6924077 11.6231795,49.6784732 11.4977685,49.6366695 L11.4977685,49.6366695 Z M10.2715268,53.3293289 C9.74201342,53.1621141 9.44938758,52.6047315 9.61660235,52.0612836 C9.78381711,51.5457047 10.3551342,51.2530789 10.8707131,51.4202936 C11.4002265,51.5735738 11.6928523,52.1448909 11.5256376,52.6744044 C11.3862919,53.0924413 10.9961242,53.3711326 10.5641527,53.3711326 C10.4666107,53.3711326 10.3690688,53.3711326 10.2715268,53.3293289 L10.2715268,53.3293289 Z M9.26823826,57.0916611 C8.73872483,56.96625 8.4042953,56.422802 8.54364094,55.879354 C8.68298658,55.335906 9.22643456,55.0154111 9.75594799,55.1547567 C10.2854614,55.2801678 10.6198909,55.8236158 10.4805453,56.3670638 C10.3830034,56.8269044 9.96496644,57.1195302 9.50512584,57.1195302 C9.43545302,57.1195302 9.35184564,57.1195302 9.26823826,57.0916611 L9.26823826,57.0916611 Z M8.50183725,60.9236661 C7.95838926,60.8121896 7.61002517,60.2826762 7.70756711,59.7392282 C7.80510906,59.1957802 8.32068792,58.8474161 8.86413591,58.9449581 C9.40758389,59.0425 9.76988255,59.5580789 9.68627517,60.1015268 C9.58873322,60.5892366 9.17069631,60.9236661 8.68298658,60.9236661 L8.50183725,60.9236661 L8.50183725,60.9236661 Z M7.98625839,64.7696057 C7.42887584,64.7138674 7.03870805,64.1982886 7.10838087,63.6548406 C7.16411913,63.0974581 7.67969799,62.7072903 8.22314597,62.7769631 C8.76659396,62.8466359 9.17069631,63.3482802 9.10102349,63.8917282 C9.03135067,64.407307 8.59937919,64.7835403 8.11166946,64.7835403 L7.98625839,64.7696057 L7.98625839,64.7696057 Z M7.67969799,68.657349 C7.13625,68.6294799 6.71821309,68.1417701 6.74608221,67.5983221 C6.77395134,67.0409396 7.26166107,66.6229027 7.80510906,66.6507718 C8.36249161,66.6786409 8.78052852,67.1663507 8.7526594,67.7097987 C8.7108557,68.2532466 8.27888423,68.657349 7.74937081,68.657349 L7.67969799,68.657349 L7.67969799,68.657349 Z" id="Fill-2" fill="#8DC644" sketch:type="MSShapeGroup"></path>
                <path d="M66.1491275,8.06986577 C66.1073238,7.52641779 66.5253607,7.03870805 67.0827433,7.01083893 C67.6401258,6.9829698 68.113901,7.40100671 68.1417701,7.9444547 C68.1835738,8.48790268 67.7655369,8.97561242 67.2081544,9.00348154 L67.1524161,9.00348154 C66.6229027,9.00348154 66.1769966,8.59937919 66.1491275,8.06986577 L66.1491275,8.06986577 Z M62.0384312,8.52970638 C61.9687584,7.98625839 62.3589262,7.48461409 62.9023742,7.41494128 C63.4597567,7.34526846 63.9474664,7.73543624 64.0310738,8.27888423 C64.1007466,8.82233221 63.7105789,9.33791107 63.1671309,9.40758389 L63.0277852,9.40758389 C62.5261409,9.40758389 62.0941695,9.04528523 62.0384312,8.52970638 L62.0384312,8.52970638 Z M57.9695386,9.26823826 C57.8580621,8.72479027 58.2203607,8.19527685 58.7638087,8.08380034 C59.3072567,7.97232383 59.8228356,8.33462248 59.9343121,8.87807047 C60.031854,9.42151846 59.6834899,9.95103188 59.1400419,10.0625084 L59.1539765,10.0625084 L58.9449581,10.076443 C58.4851174,10.076443 58.0670805,9.74201342 57.9695386,9.26823826 L57.9695386,9.26823826 Z M53.9563842,10.2575923 C53.8170386,9.72807886 54.123599,9.17069631 54.667047,9.03135067 C55.1965604,8.89200503 55.753943,9.2125 55.8932886,9.74201342 C56.0326342,10.2854614 55.7121393,10.8289094 55.1826258,10.968255 C55.0990185,10.9961242 55.0014765,11.0100587 54.9178691,11.0100587 C54.4719631,11.0100587 54.0678607,10.7034983 53.9563842,10.2575923 L53.9563842,10.2575923 Z M50.0129027,11.511703 C49.8317534,10.9821896 50.1243792,10.424807 50.6399581,10.2436577 C51.1694715,10.076443 51.726854,10.3411997 51.9080034,10.8707131 C52.0891527,11.4002265 51.8104614,11.9576091 51.280948,12.1387584 C51.183406,12.1805621 51.0719295,12.1944966 50.960453,12.1944966 C50.5424161,12.1944966 50.1522483,11.9297399 50.0129027,11.511703 L50.0129027,11.511703 Z M46.1530285,13.0166359 C45.9440101,12.501057 46.1948322,11.9158054 46.7104111,11.7067869 C47.2120554,11.4977685 47.8112416,11.7485906 48.0202601,12.2502349 C48.2292785,12.7658138 47.9784564,13.3510654 47.4628775,13.5600839 C47.3374664,13.6158221 47.2120554,13.6436913 47.0866443,13.6436913 C46.6964765,13.6436913 46.3202433,13.4068037 46.1530285,13.0166359 L46.1530285,13.0166359 Z M42.4185654,14.7723909 C42.1816779,14.2846812 42.3767617,13.685495 42.878406,13.4346728 C43.3661158,13.1977852 43.965302,13.4068037 44.2161242,13.8945134 C44.4530117,14.3961577 44.2579279,14.995344 43.7562836,15.2322315 C43.6169379,15.3158389 43.4636577,15.3437081 43.3103775,15.3437081 C42.9480789,15.3437081 42.5857802,15.1346896 42.4185654,14.7723909 L42.4185654,14.7723909 Z M38.7955789,16.7789681 C38.5168876,16.2912584 38.6841023,15.6781376 39.1718121,15.4133809 C39.6455872,15.1346896 40.2587081,15.3019044 40.5373993,15.7756795 C40.8160906,16.2633893 40.6349413,16.8625755 40.1611661,17.1412668 C39.9939513,17.2388087 39.8406711,17.2806124 39.6595218,17.2806124 C39.3111577,17.2806124 38.9767282,17.0994631 38.7955789,16.7789681 L38.7955789,16.7789681 Z M35.3119379,19.0084983 C35.0053775,18.5486577 35.1307886,17.9216023 35.5906292,17.6150419 C36.0504698,17.3084815 36.6635906,17.4478272 36.9840856,17.8937332 C37.290646,18.3535738 37.1513003,18.9806292 36.6914597,19.2871896 C36.524245,19.3986661 36.3291611,19.4544044 36.1480117,19.4544044 C35.8135822,19.4544044 35.5070218,19.2871896 35.3119379,19.0084983 L35.3119379,19.0084983 Z M31.9676426,21.447047 C31.6332131,21.0150755 31.7168205,20.3880201 32.1627265,20.0535906 L32.1766611,20.0535906 C32.6086326,19.7191611 33.2356879,19.8027685 33.5701174,20.2347399 C33.904547,20.680646 33.8209396,21.3077013 33.3889681,21.6560654 C33.2078188,21.7814765 32.9848658,21.8511493 32.7758473,21.8511493 C32.4692869,21.8511493 32.1766611,21.7257383 31.9676426,21.447047 L31.9676426,21.447047 Z" id="Fill-3" fill="#8DC644" sketch:type="MSShapeGroup"></path>
                <path d="M75.2344631,9.00348154 C74.6770805,8.96167785 74.2590436,8.48790268 74.2869128,7.9444547 C74.3147819,7.38707215 74.8024916,6.96903523 75.3459396,6.99690436 C75.9033221,7.03870805 76.3213591,7.51248322 76.2934899,8.06986577 C76.2656208,8.58544463 75.8057802,9.00348154 75.2902013,9.00348154 L75.2344631,9.00348154 L75.2344631,9.00348154 Z M79.1361409,9.3657802 C78.592693,9.29610738 78.2025252,8.79446309 78.272198,8.2510151 C78.3418708,7.70756711 78.8435151,7.31739933 79.3869631,7.37313758 C79.9443456,7.4428104 80.3345134,7.9444547 80.2648406,8.48790268 C80.1951678,9.00348154 79.7771309,9.37971477 79.261552,9.37971477 L79.1361409,9.3657802 L79.1361409,9.3657802 Z M83.0238842,9.97890101 C82.4804362,9.8674245 82.1320721,9.35184564 82.2296141,8.80839765 C82.327156,8.26494966 82.8566695,7.90265101 83.4001174,8.01412752 L83.414052,8.01412752 C83.9435654,8.11166946 84.3058641,8.64118289 84.1943876,9.18463087 C84.1107802,9.65840604 83.6788087,9.99283557 83.2189681,9.99283557 C83.1492953,9.99283557 83.093557,9.99283557 83.0238842,9.97890101 L83.0238842,9.97890101 Z M86.8698238,10.8289094 C86.3263758,10.6895638 86.0198154,10.1461158 86.1452265,9.61660235 C86.2845721,9.07315436 86.8419547,8.7526594 87.3714681,8.89200503 C87.9009815,9.03135067 88.2354111,9.57479866 88.0960654,10.1043121 C87.9706544,10.5641527 87.566552,10.8567785 87.120646,10.8567785 C87.0370386,10.8567785 86.9534312,10.8567785 86.8698238,10.8289094 L86.8698238,10.8289094 Z M90.6600252,11.9297399 C90.1165772,11.7625252 89.8378859,11.1912081 90.0051007,10.6616946 C90.1723154,10.1321812 90.7436326,9.85348993 91.2592114,10.0207047 C91.8026594,10.1879195 92.0813507,10.7592366 91.9141359,11.28875 C91.7747903,11.7067869 91.3846225,11.9854782 90.9665856,11.9854782 C90.8551091,11.9854782 90.7436326,11.9576091 90.6600252,11.9297399 L90.6600252,11.9297399 Z M94.3526846,13.2535235 C93.8371057,13.0584396 93.6002181,12.4731879 93.795302,11.9576091 C93.9903859,11.4420302 94.5756376,11.1912081 95.0912164,11.4002265 C95.6067953,11.609245 95.871552,12.1944966 95.6625336,12.7100755 C95.5092534,13.1002433 95.1190856,13.3371309 94.7289178,13.3371309 C94.6035067,13.3371309 94.4780956,13.3092617 94.3526846,13.2535235 L94.3526846,13.2535235 Z M97.9756711,14.8281292 C97.4740268,14.5912416 97.2650084,13.9920554 97.4879614,13.5043456 C97.724849,12.9887668 98.3240352,12.7797483 98.8256795,13.0166359 C99.3273238,13.2535235 99.5363423,13.8527097 99.2994547,14.354354 C99.1322399,14.7166527 98.7838758,14.9256711 98.3937081,14.9256711 C98.2543624,14.9256711 98.1150168,14.897802 97.9756711,14.8281292 L97.9756711,14.8281292 Z M101.487181,16.6256879 C100.999471,16.3469966 100.818322,15.7478104 101.083079,15.2601007 C101.36177,14.7723909 101.960956,14.5912416 102.448666,14.8699329 C102.936376,15.1346896 103.117525,15.7478104 102.852768,16.2355201 C102.671619,16.5699497 102.323255,16.751099 101.960956,16.751099 C101.793742,16.751099 101.640461,16.7092953 101.487181,16.6256879 L101.487181,16.6256879 Z M104.87328,18.6322651 C104.399505,18.3257047 104.274094,17.7125839 104.56672,17.2527433 C104.859346,16.7789681 105.486401,16.6396225 105.946242,16.9322483 C106.420017,17.2388087 106.545428,17.8519295 106.252802,18.3257047 C106.057718,18.6322651 105.737223,18.7855453 105.402794,18.7855453 C105.221644,18.7855453 105.02656,18.7437416 104.87328,18.6322651 L104.87328,18.6322651 Z M108.120034,20.8478607 C107.674128,20.5273658 107.576586,19.9003104 107.911015,19.4404698 C108.23151,18.9945638 108.844631,18.8970218 109.304471,19.2314513 C109.750378,19.5519463 109.847919,20.1790017 109.527424,20.6249077 C109.332341,20.903599 109.02578,21.0429446 108.705285,21.0429446 C108.510201,21.0429446 108.301183,20.9732718 108.120034,20.8478607 L108.120034,20.8478607 Z M111.241376,23.2724748 C110.809404,22.9101762 110.753666,22.2831208 111.10203,21.8511493 C111.450394,21.4191779 112.091384,21.3634396 112.509421,21.7257383 L112.523356,21.7257383 C112.941393,22.0741023 112.997131,22.7011577 112.634832,23.1331292 C112.453683,23.3700168 112.161057,23.4954279 111.868431,23.4954279 C111.645478,23.4954279 111.422525,23.425755 111.241376,23.2724748 L111.241376,23.2724748 Z M114.181569,25.8782383 C113.777466,25.4880705 113.763532,24.8470805 114.139765,24.4569128 C114.515998,24.0528104 115.156988,24.0249413 115.561091,24.4151091 C115.965193,24.7913423 115.979128,25.4183977 115.602894,25.8225 C115.393876,26.0315185 115.129119,26.142995 114.864362,26.142995 C114.627475,26.142995 114.376653,26.0593876 114.181569,25.8782383 L114.181569,25.8782383 Z M116.968482,28.6512164 C116.578314,28.2471141 116.606183,27.6061242 117.010285,27.2438255 C117.414388,26.8536577 118.055378,26.8815268 118.431611,27.2716946 C118.807844,27.6897315 118.793909,28.3167869 118.389807,28.6930201 C118.194723,28.8741695 117.943901,28.9717114 117.707013,28.9717114 C117.428322,28.9717114 117.163565,28.8602349 116.968482,28.6512164 L116.968482,28.6512164 Z M119.574245,31.605344 C119.225881,31.187307 119.281619,30.5463171 119.699656,30.1840185 C120.131628,29.8495889 120.758683,29.9053272 121.120982,30.3233641 C121.455411,30.7553356 121.399673,31.3823909 120.981636,31.730755 C120.800487,31.8840352 120.563599,31.9676426 120.340646,31.9676426 C120.04802,31.9676426 119.769329,31.8422315 119.574245,31.605344 L119.574245,31.605344 Z M121.984924,34.7127517 C121.650495,34.2668456 121.761971,33.6397903 122.207878,33.3053607 C122.653784,32.9848658 123.280839,33.0824077 123.601334,33.5283138 C123.921829,33.9742198 123.824287,34.6152097 123.378381,34.9357047 C123.211166,35.0611158 123.002148,35.1307886 122.793129,35.1307886 C122.486569,35.1307886 122.180008,34.9775084 121.984924,34.7127517 L121.984924,34.7127517 Z M124.186586,37.959505 C123.89396,37.4996644 124.033305,36.8865436 124.507081,36.5939178 C124.980856,36.2873574 125.593977,36.426703 125.886602,36.8865436 C126.193163,37.3603188 126.039883,37.9873742 125.580042,38.28 C125.412827,38.3775419 125.217743,38.4332802 125.036594,38.4332802 C124.702164,38.4332802 124.381669,38.2660654 124.186586,37.959505 L124.186586,37.959505 Z M126.207097,41.345604 C125.942341,40.8718289 126.109555,40.2587081 126.597265,39.9800168 C127.084975,39.7152601 127.684161,39.8964094 127.948918,40.3841191 C128.227609,40.8718289 128.04646,41.4710151 127.55875,41.7497064 C127.40547,41.8333138 127.25219,41.8611829 127.084975,41.8611829 C126.736611,41.8611829 126.388247,41.6800336 126.207097,41.345604 L126.207097,41.345604 Z M127.990721,44.8571141 C127.753834,44.3554698 127.976787,43.742349 128.464497,43.519396 C128.966141,43.2825084 129.565327,43.4915268 129.802215,43.9931711 C130.039102,44.4948154 129.830084,45.0940017 129.32844,45.3308893 C129.189094,45.4005621 129.035814,45.4284312 128.896468,45.4284312 C128.520235,45.4284312 128.157936,45.2054782 127.990721,44.8571141 L127.990721,44.8571141 Z M129.551393,48.4522315 C129.342374,47.9366527 129.593196,47.351401 130.12271,47.1563171 C130.624354,46.9612332 131.209606,47.2120554 131.418624,47.7276342 C131.613708,48.2432131 131.37682,48.8145302 130.861242,49.0235487 C130.735831,49.0653523 130.610419,49.0932215 130.485008,49.0932215 C130.080906,49.0932215 129.704673,48.8423993 129.551393,48.4522315 L129.551393,48.4522315 Z M130.889111,52.1448909 C130.707961,51.6293121 131.000587,51.057995 131.530101,50.8907802 C132.059614,50.7235654 132.616997,51.0022567 132.798146,51.5457047 C132.965361,52.0612836 132.672735,52.6326007 132.143221,52.7998154 C132.04568,52.8276846 131.948138,52.8555537 131.836661,52.8555537 C131.418624,52.8555537 131.028456,52.5768624 130.889111,52.1448909 L130.889111,52.1448909 Z M131.989941,55.9350923 C131.850596,55.3916443 132.171091,54.8481963 132.714539,54.7227852 C133.244052,54.5834396 133.7875,54.9039346 133.926846,55.433448 C134.066191,55.976896 133.745696,56.520344 133.202248,56.6596896 C133.118641,56.6736242 133.048968,56.6875587 132.951426,56.6875587 C132.50552,56.6875587 132.101418,56.3949329 131.989941,55.9350923 L131.989941,55.9350923 Z M132.83995,59.7670973 C132.742408,59.2236493 133.090772,58.7080705 133.63422,58.6105285 C134.177668,58.499052 134.707181,58.8613507 134.804723,59.4047987 C134.9162,59.9482466 134.553901,60.4638255 134.010453,60.575302 L133.829304,60.5892366 C133.341594,60.5892366 132.923557,60.254807 132.83995,59.7670973 L132.83995,59.7670973 Z M133.45307,63.6687752 C133.383398,63.1113926 133.773565,62.6097483 134.317013,62.5400755 C134.874396,62.4704027 135.37604,62.8605705 135.445713,63.4040185 C135.501451,63.961401 135.125218,64.4630453 134.567836,64.5327181 L134.442424,64.5327181 C133.954715,64.5327181 133.522743,64.1704195 133.45307,63.6687752 L133.45307,63.6687752 Z M133.829304,67.5843876 C133.7875,67.027005 134.205537,66.5532299 134.762919,66.5253607 C135.320302,66.483557 135.780143,66.901594 135.821946,67.4589765 C135.86375,68.0163591 135.445713,68.4761997 134.888331,68.5180034 L134.818658,68.5180034 C134.289144,68.5180034 133.857173,68.113901 133.829304,67.5843876 L133.829304,67.5843876 Z" id="Fill-4" fill="#8DC644" sketch:type="MSShapeGroup"></path>
                <path d="M134.762919,76.5443121 C134.205537,76.516443 133.7875,76.0426678 133.829304,75.4852852 C133.857173,74.9279027 134.330948,74.5098658 134.888331,74.5377349 C135.445713,74.5795386 135.86375,75.0533138 135.821946,75.6106963 C135.794077,76.1402097 135.348171,76.5443121 134.818658,76.5443121 L134.762919,76.5443121 L134.762919,76.5443121 Z M134.317013,80.5156628 C133.773565,80.4599245 133.383398,79.9582802 133.45307,79.4008977 C133.536678,78.8435151 134.024388,78.4533473 134.58177,78.5369547 C135.125218,78.6066275 135.515386,79.1082718 135.445713,79.6517198 C135.37604,80.1533641 134.958003,80.5295973 134.442424,80.5295973 L134.317013,80.5156628 L134.317013,80.5156628 Z M133.648154,84.4591443 C133.104706,84.3616023 132.742408,83.8320889 132.83995,83.2886409 C132.951426,82.745193 133.467005,82.3968289 134.010453,82.4943708 C134.553901,82.5919128 134.930134,83.1214262 134.818658,83.6648742 C134.721116,84.1525839 134.303079,84.4870134 133.829304,84.4870134 L133.648154,84.4591443 L133.648154,84.4591443 Z M132.714539,88.3468876 C132.171091,88.2214765 131.850596,87.6780285 131.989941,87.1345805 C132.129287,86.5911326 132.672735,86.2706376 133.216183,86.4099832 C133.745696,86.5493289 134.080126,87.0927768 133.926846,87.6362248 C133.815369,88.0821309 133.411267,88.3886913 132.951426,88.3886913 C132.881753,88.3886913 132.798146,88.3747567 132.714539,88.3468876 L132.714539,88.3468876 Z M131.530101,92.1788926 C131.014522,92.0116779 130.721896,91.4403607 130.889111,90.9247819 C131.07026,90.3813339 131.627643,90.1026426 132.157156,90.2698574 C132.672735,90.4370721 132.979295,91.0083893 132.798146,91.5239681 C132.6588,91.9559396 132.268633,92.2346309 131.850596,92.2346309 C131.739119,92.2346309 131.641577,92.2067617 131.530101,92.1788926 L131.530101,92.1788926 Z M130.12271,95.9272903 C129.607131,95.7182718 129.356309,95.1469547 129.551393,94.6313758 C129.760411,94.1018624 130.345663,93.8510403 130.861242,94.0600587 C131.37682,94.2551426 131.627643,94.8403943 131.418624,95.3559732 C131.265344,95.7461409 130.889111,95.9830285 130.498943,95.9830285 C130.373532,95.9830285 130.248121,95.969094 130.12271,95.9272903 L130.12271,95.9272903 Z M128.464497,99.5642114 C127.976787,99.3273238 127.753834,98.7420721 127.990721,98.2404279 C128.227609,97.7387836 128.826795,97.5297651 129.32844,97.7527181 C129.830084,97.9896057 130.039102,98.5887919 129.802215,99.0904362 C129.635,99.4527349 129.272701,99.6617534 128.896468,99.6617534 C128.757122,99.6617534 128.617777,99.6338842 128.464497,99.5642114 L128.464497,99.5642114 Z M126.597265,103.117525 C126.109555,102.838834 125.928406,102.239648 126.193163,101.751938 C126.471854,101.264228 127.07104,101.083079 127.55875,101.36177 C128.04646,101.626527 128.227609,102.225713 127.948918,102.713423 C127.767768,103.047852 127.433339,103.242936 127.07104,103.242936 C126.91776,103.242936 126.750545,103.187198 126.597265,103.117525 L126.597265,103.117525 Z M124.507081,106.517559 C124.033305,106.210998 123.89396,105.611812 124.186586,105.138037 C124.493146,104.664262 125.106267,104.524916 125.580042,104.831477 C126.039883,105.124102 126.179228,105.737223 125.886602,106.210998 C125.691518,106.517559 125.371023,106.670839 125.036594,106.670839 C124.855445,106.670839 124.674295,106.629035 124.507081,106.517559 L124.507081,106.517559 Z M122.193943,109.792181 C121.748037,109.457752 121.650495,108.830696 121.97099,108.398725 C122.305419,107.938884 122.932475,107.841342 123.378381,108.175772 C123.824287,108.496267 123.921829,109.123322 123.601334,109.569228 C123.40625,109.833985 123.09969,109.973331 122.793129,109.973331 C122.584111,109.973331 122.375092,109.917592 122.193943,109.792181 L122.193943,109.792181 Z M119.699656,112.913523 C119.267685,112.551225 119.211946,111.924169 119.56031,111.492198 L119.56031,111.506133 C119.908674,111.074161 120.549664,111.004488 120.981636,111.366787 C121.399673,111.715151 121.455411,112.356141 121.107047,112.774178 C120.911963,113.011065 120.619337,113.136477 120.340646,113.136477 C120.103758,113.136477 119.880805,113.066804 119.699656,112.913523 L119.699656,112.913523 Z M117.010285,115.867651 C116.592248,115.491418 116.578314,114.864362 116.954547,114.446326 C117.344715,114.042223 117.97177,114.028289 118.375872,114.404522 C118.779975,114.79469 118.793909,115.421745 118.417676,115.825847 C118.222592,116.034866 117.957836,116.132408 117.693079,116.132408 C117.442257,116.132408 117.191435,116.0488 117.010285,115.867651 L117.010285,115.867651 Z M114.125831,118.654564 C113.749597,118.250461 113.763532,117.623406 114.181569,117.233238 C114.585671,116.857005 115.212727,116.87094 115.58896,117.288977 C115.979128,117.679144 115.951258,118.320134 115.547156,118.696367 C115.352072,118.877517 115.10125,118.961124 114.850428,118.961124 C114.585671,118.961124 114.334849,118.863582 114.125831,118.654564 L114.125831,118.654564 Z M111.088096,121.260327 C110.739732,120.828356 110.79547,120.2013 111.227441,119.839002 C111.645478,119.490638 112.272534,119.546376 112.634832,119.978347 C112.983196,120.396384 112.927458,121.02344 112.495487,121.385738 C112.314337,121.539018 112.091384,121.608691 111.868431,121.608691 C111.575805,121.608691 111.28318,121.497215 111.088096,121.260327 L111.088096,121.260327 Z M107.897081,123.657072 C107.576586,123.197232 107.674128,122.584111 108.120034,122.263616 L108.120034,122.249681 C108.56594,121.929186 109.192995,122.026728 109.51349,122.472634 C109.847919,122.932475 109.736443,123.545596 109.304471,123.866091 C109.123322,124.005436 108.914304,124.061174 108.705285,124.061174 C108.398725,124.061174 108.092164,123.921829 107.897081,123.657072 L107.897081,123.657072 Z M104.552785,125.844799 C104.260159,125.384958 104.399505,124.757903 104.859346,124.465277 L104.859346,124.479211 C105.333121,124.172651 105.946242,124.311997 106.238867,124.785772 C106.545428,125.231678 106.406082,125.858733 105.946242,126.165294 C105.779027,126.262836 105.583943,126.318574 105.402794,126.318574 C105.068364,126.318574 104.747869,126.151359 104.552785,125.844799 L104.552785,125.844799 Z M101.083079,127.837441 C100.818322,127.349732 100.999471,126.736611 101.487181,126.471854 C101.960956,126.207097 102.574077,126.388247 102.852768,126.875956 C103.117525,127.363666 102.936376,127.962852 102.448666,128.227609 C102.295386,128.311216 102.128171,128.35302 101.960956,128.35302 C101.612592,128.35302 101.264228,128.171871 101.083079,127.837441 L101.083079,127.837441 Z M97.501896,129.593196 C97.2650084,129.091552 97.4879614,128.492366 97.9756711,128.269413 C98.4773154,128.018591 99.0765017,128.241544 99.3133893,128.743188 C99.5502768,129.244832 99.3273238,129.844018 98.8396141,130.080906 C98.7002685,130.136644 98.5469883,130.178448 98.4076426,130.178448 C98.0314094,130.178448 97.6691107,129.955495 97.501896,129.593196 L97.501896,129.593196 Z M93.8092366,131.125998 C93.6002181,130.610419 93.8649748,130.025168 94.3805537,129.830084 L94.3805537,129.816149 C94.8961326,129.621065 95.4813842,129.871888 95.6764681,130.387466 C95.871552,130.903045 95.6346644,131.488297 95.1190856,131.697315 L95.1190856,131.683381 C94.9936745,131.739119 94.8682634,131.753054 94.7428523,131.753054 C94.33875,131.753054 93.9625168,131.516166 93.8092366,131.125998 L93.8092366,131.125998 Z M90.0329698,132.421913 C89.865755,131.892399 90.1444463,131.335017 90.6739597,131.153867 C91.2034732,130.986653 91.7747903,131.279279 91.942005,131.794857 C92.1231544,132.338305 91.8305285,132.895688 91.3010151,133.062903 C91.2034732,133.090772 91.0919966,133.118641 90.9944547,133.118641 C90.5624832,133.118641 90.1723154,132.853884 90.0329698,132.421913 L90.0329698,132.421913 Z M86.1730956,133.48094 C86.0476846,132.937492 86.354245,132.394044 86.897693,132.254698 C87.4411409,132.115352 87.9845889,132.435847 88.11,132.979295 C88.2632802,133.522743 87.9288507,134.066191 87.3993372,134.191602 C87.3157299,134.219471 87.2321225,134.233406 87.1485151,134.233406 C86.7026091,134.233406 86.2985067,133.926846 86.1730956,133.48094 L86.1730956,133.48094 Z M82.2574832,134.289144 C82.1599413,133.731762 82.5083054,133.216183 83.0517534,133.118641 C83.5952013,133.007164 84.1247148,133.369463 84.2361913,133.912911 C84.3337332,134.456359 83.9714346,134.971938 83.4419211,135.083414 L83.2468372,135.097349 C82.7730621,135.097349 82.3550252,134.762919 82.2574832,134.289144 L82.2574832,134.289144 Z M78.3000671,134.846527 C78.2303943,134.303079 78.6205621,133.7875 79.1640101,133.731762 C79.7213926,133.662089 80.2230369,134.038322 80.2927097,134.595705 C80.3623826,135.139153 79.9722148,135.640797 79.4148322,135.71047 L79.2894211,135.724404 C78.8017114,135.724404 78.3697399,135.348171 78.3000671,134.846527 L78.3000671,134.846527 Z M74.3147819,135.153087 C74.2869128,134.609639 74.7049497,134.12193 75.2623322,134.09406 C75.8057802,134.066191 76.2934899,134.484228 76.3213591,135.041611 C76.3492282,135.585059 75.9311913,136.058834 75.3738087,136.100638 L75.3180705,136.100638 C74.788557,136.100638 74.342651,135.682601 74.3147819,135.153087 L74.3147819,135.153087 Z" id="Fill-5" fill="#8DC644" sketch:type="MSShapeGroup"></path>
                <path d="M6.76001678,75.6385654 C6.71821309,75.0811829 7.13625,74.6074077 7.69363255,74.565604 C8.2510151,74.5377349 8.72479027,74.9697064 8.7526594,75.5131544 C8.79446309,76.0566023 8.37642617,76.5443121 7.81904362,76.5721812 L7.74937081,76.5721812 C7.21985738,76.5721812 6.78788591,76.1680789 6.76001678,75.6385654 L6.76001678,75.6385654 Z M7.13625,79.6795889 C7.06657718,79.1361409 7.45674497,78.6344966 8.01412752,78.5648238 C8.5575755,78.495151 9.0592198,78.8713842 9.12889262,79.4287668 C9.19856544,79.9722148 8.80839765,80.4877936 8.2510151,80.5435319 L8.13953859,80.5574664 C7.62395973,80.5574664 7.19198826,80.1812332 7.13625,79.6795889 L7.13625,79.6795889 Z M7.77723993,83.6927433 C7.66576342,83.1492953 8.01412752,82.6197819 8.5575755,82.5222399 C9.10102349,82.424698 9.63053691,82.7730621 9.74201342,83.3165101 C9.83955537,83.8599581 9.47725671,84.3894715 8.94774329,84.4870134 L8.7526594,84.5148826 C8.29281879,84.5148826 7.86084732,84.180453 7.77723993,83.6927433 L7.77723993,83.6927433 Z M8.65511745,87.664094 C8.51577181,87.120646 8.83626678,86.577198 9.37971477,86.4378523 C9.90922819,86.2985067 10.4526762,86.6190017 10.5920218,87.1624497 C10.7313674,87.7058977 10.4108725,88.2493456 9.8674245,88.3747567 C9.78381711,88.4026258 9.7141443,88.4165604 9.61660235,88.4165604 C9.17069631,88.4165604 8.76659396,88.11 8.65511745,87.664094 L8.65511745,87.664094 Z M9.78381711,91.5657718 C9.61660235,91.0362584 9.89529362,90.4649413 10.424807,90.2977265 C10.9543205,90.1305117 11.5256376,90.409203 11.6928523,90.9387164 C11.8600671,91.4682299 11.5813758,92.039547 11.0518624,92.2067617 C10.9543205,92.2346309 10.842844,92.2625 10.745302,92.2625 C10.3133305,92.2625 9.92316275,91.9838087 9.78381711,91.5657718 L9.78381711,91.5657718 Z M11.1633389,95.3838423 C10.9543205,94.8682634 11.2051426,94.2830117 11.7207215,94.0739933 C12.2363003,93.8649748 12.821552,94.115797 13.0166359,94.6313758 C13.2256544,95.1469547 12.9748322,95.7322064 12.4592534,95.9412248 C12.3477768,95.9830285 12.2223658,96.0108977 12.0969547,96.0108977 C11.6928523,96.0108977 11.3166191,95.7740101 11.1633389,95.3838423 L11.1633389,95.3838423 Z M12.7797483,99.1043708 C12.5289262,98.6027265 12.7518792,98.0035403 13.2535235,97.7666527 C13.7551678,97.5297651 14.354354,97.7387836 14.5912416,98.2404279 C14.8281292,98.7420721 14.6051762,99.3412584 14.1035319,99.578146 C13.9641862,99.6478188 13.8248406,99.6756879 13.685495,99.6756879 C13.3092617,99.6756879 12.9469631,99.4666695 12.7797483,99.1043708 L12.7797483,99.1043708 Z M14.6191107,102.713423 L14.6191107,102.713423 C14.354354,102.225713 14.5355034,101.612592 15.0232131,101.347836 C15.4969883,101.083079 16.1101091,101.264228 16.3748658,101.751938 C16.6396225,102.225713 16.4724077,102.838834 15.984698,103.103591 C15.8314178,103.187198 15.664203,103.229002 15.4969883,103.229002 C15.1346896,103.229002 14.8002601,103.047852 14.6191107,102.713423 L14.6191107,102.713423 Z M16.6814262,106.210998 C16.3888003,105.737223 16.528146,105.124102 16.9879866,104.817542 C17.4617617,104.524916 18.0748826,104.664262 18.381443,105.124102 C18.6740688,105.597878 18.5347232,106.210998 18.0748826,106.517559 C17.9076678,106.615101 17.7125839,106.670839 17.5314346,106.670839 C17.197005,106.670839 16.8765101,106.503624 16.6814262,106.210998 L16.6814262,106.210998 Z M18.9806292,109.555294 C18.6461997,109.123322 18.7437416,108.482332 19.2035822,108.161837 C19.6355537,107.841342 20.2626091,107.938884 20.5970386,108.38479 C20.9175336,108.830696 20.8199916,109.457752 20.3740856,109.792181 C20.1929362,109.917592 19.9839178,109.973331 19.7748993,109.973331 C19.4683389,109.973331 19.1757131,109.833985 18.9806292,109.555294 L18.9806292,109.555294 Z M21.4609815,112.760243 C21.1126174,112.342206 21.1683557,111.701216 21.6003272,111.352852 C22.0183641,111.004488 22.659354,111.074161 23.0077181,111.492198 C23.3560822,111.924169 23.300344,112.551225 22.8683725,112.899589 C22.6872232,113.052869 22.4642701,113.136477 22.2273826,113.136477 C21.9486913,113.136477 21.6560654,113.011065 21.4609815,112.760243 L21.4609815,112.760243 Z M24.1503523,115.811913 C23.7741191,115.40781 23.7880537,114.76682 24.192156,114.404522 C24.5962584,114.014354 25.2372483,114.042223 25.6134815,114.446326 C25.9897148,114.850428 25.9618456,115.477483 25.5716779,115.867651 C25.376594,116.0488 25.1257718,116.132408 24.8749497,116.132408 C24.610193,116.132408 24.3454362,116.020931 24.1503523,115.811913 L24.1503523,115.811913 Z M27.0208725,118.682433 C26.6167701,118.3062 26.6028356,117.679144 26.9790688,117.275042 C27.355302,116.857005 27.9962919,116.84307 28.3864597,117.219304 C28.8044966,117.609471 28.8184312,118.236527 28.442198,118.640629 C28.2331795,118.849648 27.9684228,118.961124 27.7036661,118.961124 C27.4667785,118.961124 27.2159564,118.863582 27.0208725,118.682433 L27.0208725,118.682433 Z M30.0586074,121.371804 C29.6405705,121.02344 29.5848322,120.38245 29.9331963,119.964413 C30.295495,119.532441 30.9225503,119.476703 31.3405872,119.839002 C31.7725587,120.187366 31.828297,120.814421 31.4799329,121.246393 C31.284849,121.48328 30.9922232,121.608691 30.7135319,121.608691 C30.4766443,121.608691 30.2536913,121.539018 30.0586074,121.371804 L30.0586074,121.371804 Z M33.2774916,123.866091 L33.263557,123.866091 C32.8315856,123.545596 32.7201091,122.91854 33.0545386,122.472634 C33.3750336,122.026728 34.0020889,121.929186 34.447995,122.249681 C34.9078356,122.570176 34.991443,123.197232 34.670948,123.657072 C34.4758641,123.921829 34.1832383,124.061174 33.8627433,124.061174 C33.6676594,124.061174 33.4447064,123.991502 33.2774916,123.866091 L33.2774916,123.866091 Z M36.6357215,126.151359 C36.1619463,125.858733 36.0226007,125.231678 36.3291611,124.771837 C36.6217869,124.298062 37.2349077,124.172651 37.7086829,124.465277 C38.1824581,124.757903 38.3078691,125.384958 38.0152433,125.844799 C37.8201594,126.151359 37.4996644,126.318574 37.1791695,126.318574 C36.9840856,126.318574 36.8029362,126.262836 36.6357215,126.151359 L36.6357215,126.151359 Z M40.133297,128.227609 C39.6455872,127.962852 39.4644379,127.349732 39.7291946,126.875956 C39.9939513,126.388247 40.6070721,126.207097 41.0947819,126.471854 C41.5824916,126.750545 41.7636409,127.349732 41.4849497,127.837441 C41.3038003,128.171871 40.9693708,128.35302 40.6070721,128.35302 C40.4537919,128.35302 40.2865772,128.311216 40.133297,128.227609 L40.133297,128.227609 Z M43.7562836,130.080906 C43.2546393,129.844018 43.0316862,129.244832 43.2685738,128.743188 C43.5054614,128.241544 44.1046477,128.018591 44.6062919,128.269413 C45.1079362,128.5063 45.3169547,129.091552 45.0940017,129.607131 C44.9128523,129.96943 44.5505537,130.178448 44.1743205,130.178448 C44.0349748,130.178448 43.8816946,130.150579 43.7562836,130.080906 L43.7562836,130.080906 Z M47.4907466,131.697315 C46.9751678,131.488297 46.7104111,130.903045 46.9194295,130.387466 C47.128448,129.871888 47.6997651,129.635 48.215344,129.830084 C48.7309228,130.025168 48.981745,130.610419 48.7866611,131.125998 C48.6333809,131.530101 48.2432131,131.766988 47.8530453,131.766988 C47.7276342,131.766988 47.6022232,131.739119 47.4907466,131.697315 L47.4907466,131.697315 Z M51.3088171,133.076837 C50.7793037,132.909622 50.4866779,132.338305 50.6678272,131.808792 C50.8350419,131.279279 51.3924245,131.000587 51.9219379,131.167802 C52.4653859,131.335017 52.7440772,131.906334 52.5768624,132.421913 C52.4235822,132.853884 52.0334144,133.118641 51.6153775,133.118641 C51.5178356,133.118641 51.4063591,133.104706 51.3088171,133.076837 L51.3088171,133.076837 Z M55.210495,134.205537 C54.667047,134.066191 54.346552,133.522743 54.4858977,132.979295 C54.6252433,132.449782 55.1686913,132.115352 55.6982047,132.268633 C56.2416527,132.394044 56.5621477,132.937492 56.4367366,133.48094 C56.3113255,133.94078 55.9072232,134.233406 55.4613171,134.233406 C55.3777097,134.233406 55.2941023,134.219471 55.210495,134.205537 L55.210495,134.205537 Z M59.1818456,135.097349 C58.6244631,134.985872 58.276099,134.456359 58.3736409,133.912911 C58.4851174,133.369463 59.0146309,133.007164 59.5580789,133.118641 C60.0875923,133.216183 60.4498909,133.745696 60.3384144,134.289144 C60.254807,134.762919 59.8367701,135.097349 59.362995,135.097349 L59.1818456,135.097349 L59.1818456,135.097349 Z M63.195,135.724404 C62.6376174,135.640797 62.2474497,135.153087 62.3171225,134.595705 C62.3867953,134.052257 62.8884396,133.662089 63.4318876,133.731762 C63.9753356,133.7875 64.3794379,134.303079 64.3097651,134.846527 C64.2400923,135.362106 63.8081208,135.724404 63.3204111,135.724404 L63.195,135.724404 L63.195,135.724404 Z M67.2220889,136.100638 C66.6786409,136.072768 66.260604,135.585059 66.2884732,135.041611 C66.3163423,134.484228 66.804052,134.066191 67.3475,134.09406 C67.9048826,134.12193 68.3229195,134.609639 68.2811158,135.153087 C68.2532466,135.696535 67.8212752,136.100638 67.2917617,136.100638 L67.2220889,136.100638 L67.2220889,136.100638 Z" id="Fill-6" fill="#8DC644" sketch:type="MSShapeGroup"></path>
                <path d="M7.62395973,72.5450923 C7.35920302,72.5450923 7.10838087,72.4475503 6.92723154,72.266401 C6.73214765,72.0713171 6.6346057,71.8065604 6.6346057,71.5418037 C6.6346057,71.2909815 6.74608221,71.0262248 6.92723154,70.8450755 C7.30346477,70.4688423 7.97232383,70.4688423 8.34855705,70.8450755 C8.52970638,71.0262248 8.64118289,71.2909815 8.64118289,71.5418037 C8.64118289,71.8065604 8.52970638,72.0713171 8.34855705,72.266401 C8.15347315,72.4475503 7.88871644,72.5450923 7.62395973,72.5450923" id="Fill-7" fill="#8DC644" sketch:type="MSShapeGroup"></path>
                <path d="M134.944069,72.5450923 C134.679312,72.5450923 134.42849,72.4475503 134.233406,72.266401 C134.052257,72.0713171 133.94078,71.8065604 133.94078,71.5418037 C133.94078,71.2909815 134.052257,71.0262248 134.233406,70.8450755 C134.609639,70.4688423 135.292433,70.4688423 135.654732,70.8450755 C135.835881,71.0262248 135.947357,71.2909815 135.947357,71.5418037 C135.947357,71.820495 135.835881,72.0713171 135.654732,72.266401 C135.473582,72.4475503 135.208826,72.5450923 134.944069,72.5450923" id="Fill-8" fill="#8DC644" sketch:type="MSShapeGroup"></path>
                <path d="M25.9897148,26.7979195 C25.6134815,26.3938171 25.6134815,25.7667617 26.0175839,25.376594 C26.4077517,24.9864262 27.0487416,25.0003607 27.4249748,25.3905285 C27.8151426,25.7806963 27.8151426,26.4216862 27.4110403,26.811854 C27.2159564,27.0069379 26.9651342,27.0905453 26.7143121,27.0905453 C26.4495554,27.0905453 26.1987332,26.9930034 25.9897148,26.7979195 L25.9897148,26.7979195 Z M23.3560822,29.6405705 C22.9380453,29.2782718 22.8962416,28.6372819 23.2724748,28.2331795 C23.6487081,27.8151426 24.2757634,27.7872735 24.6938003,28.1495721 C25.1118372,28.5258054 25.1397064,29.1528607 24.7634732,29.5848322 C24.5683893,29.7938507 24.289698,29.9053272 24.0249413,29.9053272 C23.7741191,29.9053272 23.5372315,29.8217198 23.3560822,29.6405705 L23.3560822,29.6405705 Z M20.8757299,32.6504362 C20.4437584,32.3160067 20.3740856,31.6750168 20.7224497,31.2430453 C21.0568792,30.8110738 21.6839346,30.741401 22.1298406,31.0897651 C22.5618121,31.4241946 22.6314849,32.0651846 22.2831208,32.497156 C22.0880369,32.7340436 21.7954111,32.8733893 21.5027852,32.8733893 C21.2798322,32.8733893 21.0568792,32.7897819 20.8757299,32.6504362 L20.8757299,32.6504362 Z M18.5904614,35.7996477 C18.1445554,35.4930872 18.0330789,34.8520973 18.3535738,34.4061913 C18.6601342,33.9602852 19.2871896,33.8488087 19.7470302,34.1553691 C20.2068708,34.4897987 20.3044128,35.1029195 19.9839178,35.5627601 C19.7888339,35.8414513 19.4822735,35.980797 19.1757131,35.980797 C18.9666946,35.980797 18.7716107,35.9250587 18.5904614,35.7996477 L18.5904614,35.7996477 Z M16.5002768,39.0882047 C16.0265017,38.7955789 15.887156,38.1824581 16.1658473,37.7086829 C16.4724077,37.2488423 17.0855285,37.0955621 17.5593037,37.3881879 C18.0191443,37.6808138 18.1724245,38.28 17.8797987,38.7677097 C17.6847148,39.0742701 17.3642198,39.2414849 17.0297903,39.2414849 C16.8486409,39.2414849 16.6674916,39.1996812 16.5002768,39.0882047 L16.5002768,39.0882047 Z M14.6191107,42.5021728 C14.131401,42.2374161 13.9502517,41.6242953 14.2010738,41.1365856 C14.4658305,40.6488758 15.0789513,40.4677265 15.5666611,40.7324832 C16.0543708,40.9833054 16.2355201,41.5964262 15.9707634,42.0841359 C15.7896141,42.4325 15.44125,42.6275839 15.0928859,42.6275839 C14.9256711,42.6275839 14.7723909,42.5857802 14.6191107,42.5021728 L14.6191107,42.5021728 Z M12.9469631,46.0276174 C12.4453188,45.7907299 12.2223658,45.1915436 12.4592534,44.6898993 C12.6822064,44.188255 13.2813926,43.965302 13.7830369,44.2021896 C14.2846812,44.4251426 14.5076342,45.0243289 14.2707466,45.5259732 L14.2846812,45.5259732 C14.1035319,45.8882718 13.7412332,46.1112248 13.365,46.1112248 C13.2256544,46.1112248 13.0723742,46.0833557 12.9469631,46.0276174 L12.9469631,46.0276174 Z M11.4977685,49.6366695 C10.9821896,49.427651 10.7174329,48.8563339 10.9264513,48.3268205 C11.1215352,47.8112416 11.6928523,47.5604195 12.2223658,47.7555034 C12.7379446,47.9645218 12.9887668,48.5358389 12.7936829,49.0514178 C12.6404027,49.4555201 12.2641695,49.6924077 11.8600671,49.6924077 C11.734656,49.6924077 11.6231795,49.6784732 11.4977685,49.6366695 L11.4977685,49.6366695 Z M10.2715268,53.3293289 C9.74201342,53.1621141 9.44938758,52.6047315 9.61660235,52.0612836 C9.78381711,51.5457047 10.3551342,51.2530789 10.8707131,51.4202936 C11.4002265,51.5735738 11.6928523,52.1448909 11.5256376,52.6744044 C11.3862919,53.0924413 10.9961242,53.3711326 10.5641527,53.3711326 C10.4666107,53.3711326 10.3690688,53.3711326 10.2715268,53.3293289 L10.2715268,53.3293289 Z M9.26823826,57.0916611 C8.73872483,56.96625 8.4042953,56.422802 8.54364094,55.879354 C8.68298658,55.335906 9.22643456,55.0154111 9.75594799,55.1547567 C10.2854614,55.2801678 10.6198909,55.8236158 10.4805453,56.3670638 C10.3830034,56.8269044 9.96496644,57.1195302 9.50512584,57.1195302 C9.43545302,57.1195302 9.35184564,57.1195302 9.26823826,57.0916611 L9.26823826,57.0916611 Z M8.50183725,60.9236661 C7.95838926,60.8121896 7.61002517,60.2826762 7.70756711,59.7392282 C7.80510906,59.1957802 8.32068792,58.8474161 8.86413591,58.9449581 C9.40758389,59.0425 9.76988255,59.5580789 9.68627517,60.1015268 C9.58873322,60.5892366 9.17069631,60.9236661 8.68298658,60.9236661 L8.50183725,60.9236661 L8.50183725,60.9236661 Z M7.98625839,64.7696057 C7.42887584,64.7138674 7.03870805,64.1982886 7.10838087,63.6548406 C7.16411913,63.0974581 7.67969799,62.7072903 8.22314597,62.7769631 C8.76659396,62.8466359 9.17069631,63.3482802 9.10102349,63.8917282 C9.03135067,64.407307 8.59937919,64.7835403 8.11166946,64.7835403 L7.98625839,64.7696057 L7.98625839,64.7696057 Z M7.67969799,68.657349 C7.13625,68.6294799 6.71821309,68.1417701 6.74608221,67.5983221 C6.77395134,67.0409396 7.26166107,66.6229027 7.80510906,66.6507718 C8.36249161,66.6786409 8.78052852,67.1663507 8.7526594,67.7097987 C8.7108557,68.2532466 8.27888423,68.657349 7.74937081,68.657349 L7.67969799,68.657349 L7.67969799,68.657349 Z" id="Fill-9" fill="#8DC644" sketch:type="MSShapeGroup"></path>
                <path d="M66.1491275,8.06986577 C66.1073238,7.52641779 66.5253607,7.03870805 67.0827433,7.01083893 C67.6401258,6.9829698 68.113901,7.40100671 68.1417701,7.9444547 C68.1835738,8.48790268 67.7655369,8.97561242 67.2081544,9.00348154 L67.1524161,9.00348154 C66.6229027,9.00348154 66.1769966,8.59937919 66.1491275,8.06986577 L66.1491275,8.06986577 Z M62.0384312,8.52970638 C61.9687584,7.98625839 62.3589262,7.48461409 62.9023742,7.41494128 C63.4597567,7.34526846 63.9474664,7.73543624 64.0310738,8.27888423 C64.1007466,8.82233221 63.7105789,9.33791107 63.1671309,9.40758389 L63.0277852,9.40758389 C62.5261409,9.40758389 62.0941695,9.04528523 62.0384312,8.52970638 L62.0384312,8.52970638 Z M57.9695386,9.26823826 C57.8580621,8.72479027 58.2203607,8.19527685 58.7638087,8.08380034 C59.3072567,7.97232383 59.8228356,8.33462248 59.9343121,8.87807047 C60.031854,9.42151846 59.6834899,9.95103188 59.1400419,10.0625084 L59.1539765,10.0625084 L58.9449581,10.076443 C58.4851174,10.076443 58.0670805,9.74201342 57.9695386,9.26823826 L57.9695386,9.26823826 Z M53.9563842,10.2575923 C53.8170386,9.72807886 54.123599,9.17069631 54.667047,9.03135067 C55.1965604,8.89200503 55.753943,9.2125 55.8932886,9.74201342 C56.0326342,10.2854614 55.7121393,10.8289094 55.1826258,10.968255 C55.0990185,10.9961242 55.0014765,11.0100587 54.9178691,11.0100587 C54.4719631,11.0100587 54.0678607,10.7034983 53.9563842,10.2575923 L53.9563842,10.2575923 Z M50.0129027,11.511703 C49.8317534,10.9821896 50.1243792,10.424807 50.6399581,10.2436577 C51.1694715,10.076443 51.726854,10.3411997 51.9080034,10.8707131 C52.0891527,11.4002265 51.8104614,11.9576091 51.280948,12.1387584 C51.183406,12.1805621 51.0719295,12.1944966 50.960453,12.1944966 C50.5424161,12.1944966 50.1522483,11.9297399 50.0129027,11.511703 L50.0129027,11.511703 Z M46.1530285,13.0166359 C45.9440101,12.501057 46.1948322,11.9158054 46.7104111,11.7067869 C47.2120554,11.4977685 47.8112416,11.7485906 48.0202601,12.2502349 C48.2292785,12.7658138 47.9784564,13.3510654 47.4628775,13.5600839 C47.3374664,13.6158221 47.2120554,13.6436913 47.0866443,13.6436913 C46.6964765,13.6436913 46.3202433,13.4068037 46.1530285,13.0166359 L46.1530285,13.0166359 Z M42.4185654,14.7723909 C42.1816779,14.2846812 42.3767617,13.685495 42.878406,13.4346728 C43.3661158,13.1977852 43.965302,13.4068037 44.2161242,13.8945134 C44.4530117,14.3961577 44.2579279,14.995344 43.7562836,15.2322315 C43.6169379,15.3158389 43.4636577,15.3437081 43.3103775,15.3437081 C42.9480789,15.3437081 42.5857802,15.1346896 42.4185654,14.7723909 L42.4185654,14.7723909 Z M38.7955789,16.7789681 C38.5168876,16.2912584 38.6841023,15.6781376 39.1718121,15.4133809 C39.6455872,15.1346896 40.2587081,15.3019044 40.5373993,15.7756795 C40.8160906,16.2633893 40.6349413,16.8625755 40.1611661,17.1412668 C39.9939513,17.2388087 39.8406711,17.2806124 39.6595218,17.2806124 C39.3111577,17.2806124 38.9767282,17.0994631 38.7955789,16.7789681 L38.7955789,16.7789681 Z M35.3119379,19.0084983 C35.0053775,18.5486577 35.1307886,17.9216023 35.5906292,17.6150419 C36.0504698,17.3084815 36.6635906,17.4478272 36.9840856,17.8937332 C37.290646,18.3535738 37.1513003,18.9806292 36.6914597,19.2871896 C36.524245,19.3986661 36.3291611,19.4544044 36.1480117,19.4544044 C35.8135822,19.4544044 35.5070218,19.2871896 35.3119379,19.0084983 L35.3119379,19.0084983 Z M31.9676426,21.447047 C31.6332131,21.0150755 31.7168205,20.3880201 32.1627265,20.0535906 L32.1766611,20.0535906 C32.6086326,19.7191611 33.2356879,19.8027685 33.5701174,20.2347399 C33.904547,20.680646 33.8209396,21.3077013 33.3889681,21.6560654 C33.2078188,21.7814765 32.9848658,21.8511493 32.7758473,21.8511493 C32.4692869,21.8511493 32.1766611,21.7257383 31.9676426,21.447047 L31.9676426,21.447047 Z" id="Fill-10" fill="#8DC644" sketch:type="MSShapeGroup"></path>
                <path d="M75.2344631,9.00348154 C74.6770805,8.96167785 74.2590436,8.48790268 74.2869128,7.9444547 C74.3147819,7.38707215 74.8024916,6.96903523 75.3459396,6.99690436 C75.9033221,7.03870805 76.3213591,7.51248322 76.2934899,8.06986577 C76.2656208,8.58544463 75.8057802,9.00348154 75.2902013,9.00348154 L75.2344631,9.00348154 L75.2344631,9.00348154 Z M79.1361409,9.3657802 C78.592693,9.29610738 78.2025252,8.79446309 78.272198,8.2510151 C78.3418708,7.70756711 78.8435151,7.31739933 79.3869631,7.37313758 C79.9443456,7.4428104 80.3345134,7.9444547 80.2648406,8.48790268 C80.1951678,9.00348154 79.7771309,9.37971477 79.261552,9.37971477 L79.1361409,9.3657802 L79.1361409,9.3657802 Z M83.0238842,9.97890101 C82.4804362,9.8674245 82.1320721,9.35184564 82.2296141,8.80839765 C82.327156,8.26494966 82.8566695,7.90265101 83.4001174,8.01412752 L83.414052,8.01412752 C83.9435654,8.11166946 84.3058641,8.64118289 84.1943876,9.18463087 C84.1107802,9.65840604 83.6788087,9.99283557 83.2189681,9.99283557 C83.1492953,9.99283557 83.093557,9.99283557 83.0238842,9.97890101 L83.0238842,9.97890101 Z M86.8698238,10.8289094 C86.3263758,10.6895638 86.0198154,10.1461158 86.1452265,9.61660235 C86.2845721,9.07315436 86.8419547,8.7526594 87.3714681,8.89200503 C87.9009815,9.03135067 88.2354111,9.57479866 88.0960654,10.1043121 C87.9706544,10.5641527 87.566552,10.8567785 87.120646,10.8567785 C87.0370386,10.8567785 86.9534312,10.8567785 86.8698238,10.8289094 L86.8698238,10.8289094 Z M90.6600252,11.9297399 C90.1165772,11.7625252 89.8378859,11.1912081 90.0051007,10.6616946 C90.1723154,10.1321812 90.7436326,9.85348993 91.2592114,10.0207047 C91.8026594,10.1879195 92.0813507,10.7592366 91.9141359,11.28875 C91.7747903,11.7067869 91.3846225,11.9854782 90.9665856,11.9854782 C90.8551091,11.9854782 90.7436326,11.9576091 90.6600252,11.9297399 L90.6600252,11.9297399 Z M94.3526846,13.2535235 C93.8371057,13.0584396 93.6002181,12.4731879 93.795302,11.9576091 C93.9903859,11.4420302 94.5756376,11.1912081 95.0912164,11.4002265 C95.6067953,11.609245 95.871552,12.1944966 95.6625336,12.7100755 C95.5092534,13.1002433 95.1190856,13.3371309 94.7289178,13.3371309 C94.6035067,13.3371309 94.4780956,13.3092617 94.3526846,13.2535235 L94.3526846,13.2535235 Z M97.9756711,14.8281292 C97.4740268,14.5912416 97.2650084,13.9920554 97.4879614,13.5043456 C97.724849,12.9887668 98.3240352,12.7797483 98.8256795,13.0166359 C99.3273238,13.2535235 99.5363423,13.8527097 99.2994547,14.354354 C99.1322399,14.7166527 98.7838758,14.9256711 98.3937081,14.9256711 C98.2543624,14.9256711 98.1150168,14.897802 97.9756711,14.8281292 L97.9756711,14.8281292 Z M101.487181,16.6256879 C100.999471,16.3469966 100.818322,15.7478104 101.083079,15.2601007 C101.36177,14.7723909 101.960956,14.5912416 102.448666,14.8699329 C102.936376,15.1346896 103.117525,15.7478104 102.852768,16.2355201 C102.671619,16.5699497 102.323255,16.751099 101.960956,16.751099 C101.793742,16.751099 101.640461,16.7092953 101.487181,16.6256879 L101.487181,16.6256879 Z M104.87328,18.6322651 C104.399505,18.3257047 104.274094,17.7125839 104.56672,17.2527433 C104.859346,16.7789681 105.486401,16.6396225 105.946242,16.9322483 C106.420017,17.2388087 106.545428,17.8519295 106.252802,18.3257047 C106.057718,18.6322651 105.737223,18.7855453 105.402794,18.7855453 C105.221644,18.7855453 105.02656,18.7437416 104.87328,18.6322651 L104.87328,18.6322651 Z M108.120034,20.8478607 C107.674128,20.5273658 107.576586,19.9003104 107.911015,19.4404698 C108.23151,18.9945638 108.844631,18.8970218 109.304471,19.2314513 C109.750378,19.5519463 109.847919,20.1790017 109.527424,20.6249077 C109.332341,20.903599 109.02578,21.0429446 108.705285,21.0429446 C108.510201,21.0429446 108.301183,20.9732718 108.120034,20.8478607 L108.120034,20.8478607 Z M111.241376,23.2724748 C110.809404,22.9101762 110.753666,22.2831208 111.10203,21.8511493 C111.450394,21.4191779 112.091384,21.3634396 112.509421,21.7257383 L112.523356,21.7257383 C112.941393,22.0741023 112.997131,22.7011577 112.634832,23.1331292 C112.453683,23.3700168 112.161057,23.4954279 111.868431,23.4954279 C111.645478,23.4954279 111.422525,23.425755 111.241376,23.2724748 L111.241376,23.2724748 Z M114.181569,25.8782383 C113.777466,25.4880705 113.763532,24.8470805 114.139765,24.4569128 C114.515998,24.0528104 115.156988,24.0249413 115.561091,24.4151091 C115.965193,24.7913423 115.979128,25.4183977 115.602894,25.8225 C115.393876,26.0315185 115.129119,26.142995 114.864362,26.142995 C114.627475,26.142995 114.376653,26.0593876 114.181569,25.8782383 L114.181569,25.8782383 Z M116.968482,28.6512164 C116.578314,28.2471141 116.606183,27.6061242 117.010285,27.2438255 C117.414388,26.8536577 118.055378,26.8815268 118.431611,27.2716946 C118.807844,27.6897315 118.793909,28.3167869 118.389807,28.6930201 C118.194723,28.8741695 117.943901,28.9717114 117.707013,28.9717114 C117.428322,28.9717114 117.163565,28.8602349 116.968482,28.6512164 L116.968482,28.6512164 Z M119.574245,31.605344 C119.225881,31.187307 119.281619,30.5463171 119.699656,30.1840185 C120.131628,29.8495889 120.758683,29.9053272 121.120982,30.3233641 C121.455411,30.7553356 121.399673,31.3823909 120.981636,31.730755 C120.800487,31.8840352 120.563599,31.9676426 120.340646,31.9676426 C120.04802,31.9676426 119.769329,31.8422315 119.574245,31.605344 L119.574245,31.605344 Z M121.984924,34.7127517 C121.650495,34.2668456 121.761971,33.6397903 122.207878,33.3053607 C122.653784,32.9848658 123.280839,33.0824077 123.601334,33.5283138 C123.921829,33.9742198 123.824287,34.6152097 123.378381,34.9357047 C123.211166,35.0611158 123.002148,35.1307886 122.793129,35.1307886 C122.486569,35.1307886 122.180008,34.9775084 121.984924,34.7127517 L121.984924,34.7127517 Z M124.186586,37.959505 C123.89396,37.4996644 124.033305,36.8865436 124.507081,36.5939178 C124.980856,36.2873574 125.593977,36.426703 125.886602,36.8865436 C126.193163,37.3603188 126.039883,37.9873742 125.580042,38.28 C125.412827,38.3775419 125.217743,38.4332802 125.036594,38.4332802 C124.702164,38.4332802 124.381669,38.2660654 124.186586,37.959505 L124.186586,37.959505 Z M126.207097,41.345604 C125.942341,40.8718289 126.109555,40.2587081 126.597265,39.9800168 C127.084975,39.7152601 127.684161,39.8964094 127.948918,40.3841191 C128.227609,40.8718289 128.04646,41.4710151 127.55875,41.7497064 C127.40547,41.8333138 127.25219,41.8611829 127.084975,41.8611829 C126.736611,41.8611829 126.388247,41.6800336 126.207097,41.345604 L126.207097,41.345604 Z M127.990721,44.8571141 C127.753834,44.3554698 127.976787,43.742349 128.464497,43.519396 C128.966141,43.2825084 129.565327,43.4915268 129.802215,43.9931711 C130.039102,44.4948154 129.830084,45.0940017 129.32844,45.3308893 C129.189094,45.4005621 129.035814,45.4284312 128.896468,45.4284312 C128.520235,45.4284312 128.157936,45.2054782 127.990721,44.8571141 L127.990721,44.8571141 Z M129.551393,48.4522315 C129.342374,47.9366527 129.593196,47.351401 130.12271,47.1563171 C130.624354,46.9612332 131.209606,47.2120554 131.418624,47.7276342 C131.613708,48.2432131 131.37682,48.8145302 130.861242,49.0235487 C130.735831,49.0653523 130.610419,49.0932215 130.485008,49.0932215 C130.080906,49.0932215 129.704673,48.8423993 129.551393,48.4522315 L129.551393,48.4522315 Z M130.889111,52.1448909 C130.707961,51.6293121 131.000587,51.057995 131.530101,50.8907802 C132.059614,50.7235654 132.616997,51.0022567 132.798146,51.5457047 C132.965361,52.0612836 132.672735,52.6326007 132.143221,52.7998154 C132.04568,52.8276846 131.948138,52.8555537 131.836661,52.8555537 C131.418624,52.8555537 131.028456,52.5768624 130.889111,52.1448909 L130.889111,52.1448909 Z M131.989941,55.9350923 C131.850596,55.3916443 132.171091,54.8481963 132.714539,54.7227852 C133.244052,54.5834396 133.7875,54.9039346 133.926846,55.433448 C134.066191,55.976896 133.745696,56.520344 133.202248,56.6596896 C133.118641,56.6736242 133.048968,56.6875587 132.951426,56.6875587 C132.50552,56.6875587 132.101418,56.3949329 131.989941,55.9350923 L131.989941,55.9350923 Z M132.83995,59.7670973 C132.742408,59.2236493 133.090772,58.7080705 133.63422,58.6105285 C134.177668,58.499052 134.707181,58.8613507 134.804723,59.4047987 C134.9162,59.9482466 134.553901,60.4638255 134.010453,60.575302 L133.829304,60.5892366 C133.341594,60.5892366 132.923557,60.254807 132.83995,59.7670973 L132.83995,59.7670973 Z M133.45307,63.6687752 C133.383398,63.1113926 133.773565,62.6097483 134.317013,62.5400755 C134.874396,62.4704027 135.37604,62.8605705 135.445713,63.4040185 C135.501451,63.961401 135.125218,64.4630453 134.567836,64.5327181 L134.442424,64.5327181 C133.954715,64.5327181 133.522743,64.1704195 133.45307,63.6687752 L133.45307,63.6687752 Z M133.829304,67.5843876 C133.7875,67.027005 134.205537,66.5532299 134.762919,66.5253607 C135.320302,66.483557 135.780143,66.901594 135.821946,67.4589765 C135.86375,68.0163591 135.445713,68.4761997 134.888331,68.5180034 L134.818658,68.5180034 C134.289144,68.5180034 133.857173,68.113901 133.829304,67.5843876 L133.829304,67.5843876 Z" id="Fill-11" fill="#8DC644" sketch:type="MSShapeGroup"></path>
                <path d="M134.762919,76.5443121 C134.205537,76.516443 133.7875,76.0426678 133.829304,75.4852852 C133.857173,74.9279027 134.330948,74.5098658 134.888331,74.5377349 C135.445713,74.5795386 135.86375,75.0533138 135.821946,75.6106963 C135.794077,76.1402097 135.348171,76.5443121 134.818658,76.5443121 L134.762919,76.5443121 L134.762919,76.5443121 Z M134.317013,80.5156628 C133.773565,80.4599245 133.383398,79.9582802 133.45307,79.4008977 C133.536678,78.8435151 134.024388,78.4533473 134.58177,78.5369547 C135.125218,78.6066275 135.515386,79.1082718 135.445713,79.6517198 C135.37604,80.1533641 134.958003,80.5295973 134.442424,80.5295973 L134.317013,80.5156628 L134.317013,80.5156628 Z M133.648154,84.4591443 C133.104706,84.3616023 132.742408,83.8320889 132.83995,83.2886409 C132.951426,82.745193 133.467005,82.3968289 134.010453,82.4943708 C134.553901,82.5919128 134.930134,83.1214262 134.818658,83.6648742 C134.721116,84.1525839 134.303079,84.4870134 133.829304,84.4870134 L133.648154,84.4591443 L133.648154,84.4591443 Z M132.714539,88.3468876 C132.171091,88.2214765 131.850596,87.6780285 131.989941,87.1345805 C132.129287,86.5911326 132.672735,86.2706376 133.216183,86.4099832 C133.745696,86.5493289 134.080126,87.0927768 133.926846,87.6362248 C133.815369,88.0821309 133.411267,88.3886913 132.951426,88.3886913 C132.881753,88.3886913 132.798146,88.3747567 132.714539,88.3468876 L132.714539,88.3468876 Z M131.530101,92.1788926 C131.014522,92.0116779 130.721896,91.4403607 130.889111,90.9247819 C131.07026,90.3813339 131.627643,90.1026426 132.157156,90.2698574 C132.672735,90.4370721 132.979295,91.0083893 132.798146,91.5239681 C132.6588,91.9559396 132.268633,92.2346309 131.850596,92.2346309 C131.739119,92.2346309 131.641577,92.2067617 131.530101,92.1788926 L131.530101,92.1788926 Z M130.12271,95.9272903 C129.607131,95.7182718 129.356309,95.1469547 129.551393,94.6313758 C129.760411,94.1018624 130.345663,93.8510403 130.861242,94.0600587 C131.37682,94.2551426 131.627643,94.8403943 131.418624,95.3559732 C131.265344,95.7461409 130.889111,95.9830285 130.498943,95.9830285 C130.373532,95.9830285 130.248121,95.969094 130.12271,95.9272903 L130.12271,95.9272903 Z M128.464497,99.5642114 C127.976787,99.3273238 127.753834,98.7420721 127.990721,98.2404279 C128.227609,97.7387836 128.826795,97.5297651 129.32844,97.7527181 C129.830084,97.9896057 130.039102,98.5887919 129.802215,99.0904362 C129.635,99.4527349 129.272701,99.6617534 128.896468,99.6617534 C128.757122,99.6617534 128.617777,99.6338842 128.464497,99.5642114 L128.464497,99.5642114 Z M126.597265,103.117525 C126.109555,102.838834 125.928406,102.239648 126.193163,101.751938 C126.471854,101.264228 127.07104,101.083079 127.55875,101.36177 C128.04646,101.626527 128.227609,102.225713 127.948918,102.713423 C127.767768,103.047852 127.433339,103.242936 127.07104,103.242936 C126.91776,103.242936 126.750545,103.187198 126.597265,103.117525 L126.597265,103.117525 Z M124.507081,106.517559 C124.033305,106.210998 123.89396,105.611812 124.186586,105.138037 C124.493146,104.664262 125.106267,104.524916 125.580042,104.831477 C126.039883,105.124102 126.179228,105.737223 125.886602,106.210998 C125.691518,106.517559 125.371023,106.670839 125.036594,106.670839 C124.855445,106.670839 124.674295,106.629035 124.507081,106.517559 L124.507081,106.517559 Z M122.193943,109.792181 C121.748037,109.457752 121.650495,108.830696 121.97099,108.398725 C122.305419,107.938884 122.932475,107.841342 123.378381,108.175772 C123.824287,108.496267 123.921829,109.123322 123.601334,109.569228 C123.40625,109.833985 123.09969,109.973331 122.793129,109.973331 C122.584111,109.973331 122.375092,109.917592 122.193943,109.792181 L122.193943,109.792181 Z M119.699656,112.913523 C119.267685,112.551225 119.211946,111.924169 119.56031,111.492198 L119.56031,111.506133 C119.908674,111.074161 120.549664,111.004488 120.981636,111.366787 C121.399673,111.715151 121.455411,112.356141 121.107047,112.774178 C120.911963,113.011065 120.619337,113.136477 120.340646,113.136477 C120.103758,113.136477 119.880805,113.066804 119.699656,112.913523 L119.699656,112.913523 Z M117.010285,115.867651 C116.592248,115.491418 116.578314,114.864362 116.954547,114.446326 C117.344715,114.042223 117.97177,114.028289 118.375872,114.404522 C118.779975,114.79469 118.793909,115.421745 118.417676,115.825847 C118.222592,116.034866 117.957836,116.132408 117.693079,116.132408 C117.442257,116.132408 117.191435,116.0488 117.010285,115.867651 L117.010285,115.867651 Z M114.125831,118.654564 C113.749597,118.250461 113.763532,117.623406 114.181569,117.233238 C114.585671,116.857005 115.212727,116.87094 115.58896,117.288977 C115.979128,117.679144 115.951258,118.320134 115.547156,118.696367 C115.352072,118.877517 115.10125,118.961124 114.850428,118.961124 C114.585671,118.961124 114.334849,118.863582 114.125831,118.654564 L114.125831,118.654564 Z M111.088096,121.260327 C110.739732,120.828356 110.79547,120.2013 111.227441,119.839002 C111.645478,119.490638 112.272534,119.546376 112.634832,119.978347 C112.983196,120.396384 112.927458,121.02344 112.495487,121.385738 C112.314337,121.539018 112.091384,121.608691 111.868431,121.608691 C111.575805,121.608691 111.28318,121.497215 111.088096,121.260327 L111.088096,121.260327 Z M107.897081,123.657072 C107.576586,123.197232 107.674128,122.584111 108.120034,122.263616 L108.120034,122.249681 C108.56594,121.929186 109.192995,122.026728 109.51349,122.472634 C109.847919,122.932475 109.736443,123.545596 109.304471,123.866091 C109.123322,124.005436 108.914304,124.061174 108.705285,124.061174 C108.398725,124.061174 108.092164,123.921829 107.897081,123.657072 L107.897081,123.657072 Z M104.552785,125.844799 C104.260159,125.384958 104.399505,124.757903 104.859346,124.465277 L104.859346,124.479211 C105.333121,124.172651 105.946242,124.311997 106.238867,124.785772 C106.545428,125.231678 106.406082,125.858733 105.946242,126.165294 C105.779027,126.262836 105.583943,126.318574 105.402794,126.318574 C105.068364,126.318574 104.747869,126.151359 104.552785,125.844799 L104.552785,125.844799 Z M101.083079,127.837441 C100.818322,127.349732 100.999471,126.736611 101.487181,126.471854 C101.960956,126.207097 102.574077,126.388247 102.852768,126.875956 C103.117525,127.363666 102.936376,127.962852 102.448666,128.227609 C102.295386,128.311216 102.128171,128.35302 101.960956,128.35302 C101.612592,128.35302 101.264228,128.171871 101.083079,127.837441 L101.083079,127.837441 Z M97.501896,129.593196 C97.2650084,129.091552 97.4879614,128.492366 97.9756711,128.269413 C98.4773154,128.018591 99.0765017,128.241544 99.3133893,128.743188 C99.5502768,129.244832 99.3273238,129.844018 98.8396141,130.080906 C98.7002685,130.136644 98.5469883,130.178448 98.4076426,130.178448 C98.0314094,130.178448 97.6691107,129.955495 97.501896,129.593196 L97.501896,129.593196 Z M93.8092366,131.125998 C93.6002181,130.610419 93.8649748,130.025168 94.3805537,129.830084 L94.3805537,129.816149 C94.8961326,129.621065 95.4813842,129.871888 95.6764681,130.387466 C95.871552,130.903045 95.6346644,131.488297 95.1190856,131.697315 L95.1190856,131.683381 C94.9936745,131.739119 94.8682634,131.753054 94.7428523,131.753054 C94.33875,131.753054 93.9625168,131.516166 93.8092366,131.125998 L93.8092366,131.125998 Z M90.0329698,132.421913 C89.865755,131.892399 90.1444463,131.335017 90.6739597,131.153867 C91.2034732,130.986653 91.7747903,131.279279 91.942005,131.794857 C92.1231544,132.338305 91.8305285,132.895688 91.3010151,133.062903 C91.2034732,133.090772 91.0919966,133.118641 90.9944547,133.118641 C90.5624832,133.118641 90.1723154,132.853884 90.0329698,132.421913 L90.0329698,132.421913 Z M86.1730956,133.48094 C86.0476846,132.937492 86.354245,132.394044 86.897693,132.254698 C87.4411409,132.115352 87.9845889,132.435847 88.11,132.979295 C88.2632802,133.522743 87.9288507,134.066191 87.3993372,134.191602 C87.3157299,134.219471 87.2321225,134.233406 87.1485151,134.233406 C86.7026091,134.233406 86.2985067,133.926846 86.1730956,133.48094 L86.1730956,133.48094 Z M82.2574832,134.289144 C82.1599413,133.731762 82.5083054,133.216183 83.0517534,133.118641 C83.5952013,133.007164 84.1247148,133.369463 84.2361913,133.912911 C84.3337332,134.456359 83.9714346,134.971938 83.4419211,135.083414 L83.2468372,135.097349 C82.7730621,135.097349 82.3550252,134.762919 82.2574832,134.289144 L82.2574832,134.289144 Z M78.3000671,134.846527 C78.2303943,134.303079 78.6205621,133.7875 79.1640101,133.731762 C79.7213926,133.662089 80.2230369,134.038322 80.2927097,134.595705 C80.3623826,135.139153 79.9722148,135.640797 79.4148322,135.71047 L79.2894211,135.724404 C78.8017114,135.724404 78.3697399,135.348171 78.3000671,134.846527 L78.3000671,134.846527 Z M74.3147819,135.153087 C74.2869128,134.609639 74.7049497,134.12193 75.2623322,134.09406 C75.8057802,134.066191 76.2934899,134.484228 76.3213591,135.041611 C76.3492282,135.585059 75.9311913,136.058834 75.3738087,136.100638 L75.3180705,136.100638 C74.788557,136.100638 74.342651,135.682601 74.3147819,135.153087 L74.3147819,135.153087 Z" id="Fill-12" fill="#8DC644" sketch:type="MSShapeGroup"></path>
                <path d="M6.76001678,75.6385654 C6.71821309,75.0811829 7.13625,74.6074077 7.69363255,74.565604 C8.2510151,74.5377349 8.72479027,74.9697064 8.7526594,75.5131544 C8.79446309,76.0566023 8.37642617,76.5443121 7.81904362,76.5721812 L7.74937081,76.5721812 C7.21985738,76.5721812 6.78788591,76.1680789 6.76001678,75.6385654 L6.76001678,75.6385654 Z M7.13625,79.6795889 C7.06657718,79.1361409 7.45674497,78.6344966 8.01412752,78.5648238 C8.5575755,78.495151 9.0592198,78.8713842 9.12889262,79.4287668 C9.19856544,79.9722148 8.80839765,80.4877936 8.2510151,80.5435319 L8.13953859,80.5574664 C7.62395973,80.5574664 7.19198826,80.1812332 7.13625,79.6795889 L7.13625,79.6795889 Z M7.77723993,83.6927433 C7.66576342,83.1492953 8.01412752,82.6197819 8.5575755,82.5222399 C9.10102349,82.424698 9.63053691,82.7730621 9.74201342,83.3165101 C9.83955537,83.8599581 9.47725671,84.3894715 8.94774329,84.4870134 L8.7526594,84.5148826 C8.29281879,84.5148826 7.86084732,84.180453 7.77723993,83.6927433 L7.77723993,83.6927433 Z M8.65511745,87.664094 C8.51577181,87.120646 8.83626678,86.577198 9.37971477,86.4378523 C9.90922819,86.2985067 10.4526762,86.6190017 10.5920218,87.1624497 C10.7313674,87.7058977 10.4108725,88.2493456 9.8674245,88.3747567 C9.78381711,88.4026258 9.7141443,88.4165604 9.61660235,88.4165604 C9.17069631,88.4165604 8.76659396,88.11 8.65511745,87.664094 L8.65511745,87.664094 Z M9.78381711,91.5657718 C9.61660235,91.0362584 9.89529362,90.4649413 10.424807,90.2977265 C10.9543205,90.1305117 11.5256376,90.409203 11.6928523,90.9387164 C11.8600671,91.4682299 11.5813758,92.039547 11.0518624,92.2067617 C10.9543205,92.2346309 10.842844,92.2625 10.745302,92.2625 C10.3133305,92.2625 9.92316275,91.9838087 9.78381711,91.5657718 L9.78381711,91.5657718 Z M11.1633389,95.3838423 C10.9543205,94.8682634 11.2051426,94.2830117 11.7207215,94.0739933 C12.2363003,93.8649748 12.821552,94.115797 13.0166359,94.6313758 C13.2256544,95.1469547 12.9748322,95.7322064 12.4592534,95.9412248 C12.3477768,95.9830285 12.2223658,96.0108977 12.0969547,96.0108977 C11.6928523,96.0108977 11.3166191,95.7740101 11.1633389,95.3838423 L11.1633389,95.3838423 Z M12.7797483,99.1043708 C12.5289262,98.6027265 12.7518792,98.0035403 13.2535235,97.7666527 C13.7551678,97.5297651 14.354354,97.7387836 14.5912416,98.2404279 C14.8281292,98.7420721 14.6051762,99.3412584 14.1035319,99.578146 C13.9641862,99.6478188 13.8248406,99.6756879 13.685495,99.6756879 C13.3092617,99.6756879 12.9469631,99.4666695 12.7797483,99.1043708 L12.7797483,99.1043708 Z M14.6191107,102.713423 L14.6191107,102.713423 C14.354354,102.225713 14.5355034,101.612592 15.0232131,101.347836 C15.4969883,101.083079 16.1101091,101.264228 16.3748658,101.751938 C16.6396225,102.225713 16.4724077,102.838834 15.984698,103.103591 C15.8314178,103.187198 15.664203,103.229002 15.4969883,103.229002 C15.1346896,103.229002 14.8002601,103.047852 14.6191107,102.713423 L14.6191107,102.713423 Z M16.6814262,106.210998 C16.3888003,105.737223 16.528146,105.124102 16.9879866,104.817542 C17.4617617,104.524916 18.0748826,104.664262 18.381443,105.124102 C18.6740688,105.597878 18.5347232,106.210998 18.0748826,106.517559 C17.9076678,106.615101 17.7125839,106.670839 17.5314346,106.670839 C17.197005,106.670839 16.8765101,106.503624 16.6814262,106.210998 L16.6814262,106.210998 Z M18.9806292,109.555294 C18.6461997,109.123322 18.7437416,108.482332 19.2035822,108.161837 C19.6355537,107.841342 20.2626091,107.938884 20.5970386,108.38479 C20.9175336,108.830696 20.8199916,109.457752 20.3740856,109.792181 C20.1929362,109.917592 19.9839178,109.973331 19.7748993,109.973331 C19.4683389,109.973331 19.1757131,109.833985 18.9806292,109.555294 L18.9806292,109.555294 Z M21.4609815,112.760243 C21.1126174,112.342206 21.1683557,111.701216 21.6003272,111.352852 C22.0183641,111.004488 22.659354,111.074161 23.0077181,111.492198 C23.3560822,111.924169 23.300344,112.551225 22.8683725,112.899589 C22.6872232,113.052869 22.4642701,113.136477 22.2273826,113.136477 C21.9486913,113.136477 21.6560654,113.011065 21.4609815,112.760243 L21.4609815,112.760243 Z M24.1503523,115.811913 C23.7741191,115.40781 23.7880537,114.76682 24.192156,114.404522 C24.5962584,114.014354 25.2372483,114.042223 25.6134815,114.446326 C25.9897148,114.850428 25.9618456,115.477483 25.5716779,115.867651 C25.376594,116.0488 25.1257718,116.132408 24.8749497,116.132408 C24.610193,116.132408 24.3454362,116.020931 24.1503523,115.811913 L24.1503523,115.811913 Z M27.0208725,118.682433 C26.6167701,118.3062 26.6028356,117.679144 26.9790688,117.275042 C27.355302,116.857005 27.9962919,116.84307 28.3864597,117.219304 C28.8044966,117.609471 28.8184312,118.236527 28.442198,118.640629 C28.2331795,118.849648 27.9684228,118.961124 27.7036661,118.961124 C27.4667785,118.961124 27.2159564,118.863582 27.0208725,118.682433 L27.0208725,118.682433 Z M30.0586074,121.371804 C29.6405705,121.02344 29.5848322,120.38245 29.9331963,119.964413 C30.295495,119.532441 30.9225503,119.476703 31.3405872,119.839002 C31.7725587,120.187366 31.828297,120.814421 31.4799329,121.246393 C31.284849,121.48328 30.9922232,121.608691 30.7135319,121.608691 C30.4766443,121.608691 30.2536913,121.539018 30.0586074,121.371804 L30.0586074,121.371804 Z M33.2774916,123.866091 L33.263557,123.866091 C32.8315856,123.545596 32.7201091,122.91854 33.0545386,122.472634 C33.3750336,122.026728 34.0020889,121.929186 34.447995,122.249681 C34.9078356,122.570176 34.991443,123.197232 34.670948,123.657072 C34.4758641,123.921829 34.1832383,124.061174 33.8627433,124.061174 C33.6676594,124.061174 33.4447064,123.991502 33.2774916,123.866091 L33.2774916,123.866091 Z M36.6357215,126.151359 C36.1619463,125.858733 36.0226007,125.231678 36.3291611,124.771837 C36.6217869,124.298062 37.2349077,124.172651 37.7086829,124.465277 C38.1824581,124.757903 38.3078691,125.384958 38.0152433,125.844799 C37.8201594,126.151359 37.4996644,126.318574 37.1791695,126.318574 C36.9840856,126.318574 36.8029362,126.262836 36.6357215,126.151359 L36.6357215,126.151359 Z M40.133297,128.227609 C39.6455872,127.962852 39.4644379,127.349732 39.7291946,126.875956 C39.9939513,126.388247 40.6070721,126.207097 41.0947819,126.471854 C41.5824916,126.750545 41.7636409,127.349732 41.4849497,127.837441 C41.3038003,128.171871 40.9693708,128.35302 40.6070721,128.35302 C40.4537919,128.35302 40.2865772,128.311216 40.133297,128.227609 L40.133297,128.227609 Z M43.7562836,130.080906 C43.2546393,129.844018 43.0316862,129.244832 43.2685738,128.743188 C43.5054614,128.241544 44.1046477,128.018591 44.6062919,128.269413 C45.1079362,128.5063 45.3169547,129.091552 45.0940017,129.607131 C44.9128523,129.96943 44.5505537,130.178448 44.1743205,130.178448 C44.0349748,130.178448 43.8816946,130.150579 43.7562836,130.080906 L43.7562836,130.080906 Z M47.4907466,131.697315 C46.9751678,131.488297 46.7104111,130.903045 46.9194295,130.387466 C47.128448,129.871888 47.6997651,129.635 48.215344,129.830084 C48.7309228,130.025168 48.981745,130.610419 48.7866611,131.125998 C48.6333809,131.530101 48.2432131,131.766988 47.8530453,131.766988 C47.7276342,131.766988 47.6022232,131.739119 47.4907466,131.697315 L47.4907466,131.697315 Z M51.3088171,133.076837 C50.7793037,132.909622 50.4866779,132.338305 50.6678272,131.808792 C50.8350419,131.279279 51.3924245,131.000587 51.9219379,131.167802 C52.4653859,131.335017 52.7440772,131.906334 52.5768624,132.421913 C52.4235822,132.853884 52.0334144,133.118641 51.6153775,133.118641 C51.5178356,133.118641 51.4063591,133.104706 51.3088171,133.076837 L51.3088171,133.076837 Z M55.210495,134.205537 C54.667047,134.066191 54.346552,133.522743 54.4858977,132.979295 C54.6252433,132.449782 55.1686913,132.115352 55.6982047,132.268633 C56.2416527,132.394044 56.5621477,132.937492 56.4367366,133.48094 C56.3113255,133.94078 55.9072232,134.233406 55.4613171,134.233406 C55.3777097,134.233406 55.2941023,134.219471 55.210495,134.205537 L55.210495,134.205537 Z M59.1818456,135.097349 C58.6244631,134.985872 58.276099,134.456359 58.3736409,133.912911 C58.4851174,133.369463 59.0146309,133.007164 59.5580789,133.118641 C60.0875923,133.216183 60.4498909,133.745696 60.3384144,134.289144 C60.254807,134.762919 59.8367701,135.097349 59.362995,135.097349 L59.1818456,135.097349 L59.1818456,135.097349 Z M63.195,135.724404 C62.6376174,135.640797 62.2474497,135.153087 62.3171225,134.595705 C62.3867953,134.052257 62.8884396,133.662089 63.4318876,133.731762 C63.9753356,133.7875 64.3794379,134.303079 64.3097651,134.846527 C64.2400923,135.362106 63.8081208,135.724404 63.3204111,135.724404 L63.195,135.724404 L63.195,135.724404 Z M67.2220889,136.100638 C66.6786409,136.072768 66.260604,135.585059 66.2884732,135.041611 C66.3163423,134.484228 66.804052,134.066191 67.3475,134.09406 C67.9048826,134.12193 68.3229195,134.609639 68.2811158,135.153087 C68.2532466,135.696535 67.8212752,136.100638 67.2917617,136.100638 L67.2220889,136.100638 L67.2220889,136.100638 Z" id="Fill-13" fill="#8DC644" sketch:type="MSShapeGroup"></path>
                <path d="M7.62395973,72.5450923 C7.35920302,72.5450923 7.10838087,72.4475503 6.92723154,72.266401 C6.73214765,72.0713171 6.6346057,71.8065604 6.6346057,71.5418037 C6.6346057,71.2909815 6.74608221,71.0262248 6.92723154,70.8450755 C7.30346477,70.4688423 7.97232383,70.4688423 8.34855705,70.8450755 C8.52970638,71.0262248 8.64118289,71.2909815 8.64118289,71.5418037 C8.64118289,71.8065604 8.52970638,72.0713171 8.34855705,72.266401 C8.15347315,72.4475503 7.88871644,72.5450923 7.62395973,72.5450923" id="Fill-14" fill="#8DC644" sketch:type="MSShapeGroup"></path>
                <path d="M71.2909815,136.462936 C71.0122903,136.462936 70.7754027,136.35146 70.5803188,136.17031 C70.3852349,135.975227 70.287693,135.724404 70.287693,135.459648 C70.287693,135.194891 70.3991695,134.944069 70.5803188,134.748985 C70.956552,134.372752 71.6254111,134.372752 72.0016443,134.748985 C72.1827936,134.944069 72.2942701,135.194891 72.2942701,135.459648 C72.2942701,135.724404 72.1967282,135.975227 72.0016443,136.17031 C71.8065604,136.35146 71.5557383,136.462936 71.2909815,136.462936" id="Fill-15" fill="#8DC644" sketch:type="MSShapeGroup"></path>
                <path d="M71.2909815,8.62724832 C71.0122903,8.62724832 70.7754027,8.51577181 70.5803188,8.33462248 C70.3852349,8.13953859 70.287693,7.88871644 70.287693,7.62395973 C70.287693,7.35920302 70.3991695,7.10838087 70.5803188,6.91329698 C70.956552,6.53706376 71.6254111,6.53706376 72.0016443,6.91329698 C72.1827936,7.10838087 72.2942701,7.35920302 72.2942701,7.62395973 C72.2942701,7.88871644 72.1967282,8.13953859 72.0016443,8.33462248 C71.8065604,8.51577181 71.5557383,8.62724832 71.2909815,8.62724832" id="Fill-16" fill="#8DC644" sketch:type="MSShapeGroup"></path>
                <path d="M134.944069,72.5450923 C134.679312,72.5450923 134.42849,72.4475503 134.233406,72.266401 C134.052257,72.0713171 133.94078,71.8065604 133.94078,71.5418037 C133.94078,71.2909815 134.052257,71.0262248 134.233406,70.8450755 C134.609639,70.4688423 135.292433,70.4688423 135.654732,70.8450755 C135.835881,71.0262248 135.947357,71.2909815 135.947357,71.5418037 C135.947357,71.820495 135.835881,72.0713171 135.654732,72.266401 C135.473582,72.4475503 135.208826,72.5450923 134.944069,72.5450923" id="Fill-17" fill="#8DC644" sketch:type="MSShapeGroup"></path>
                <path d="M29.9053272,24.1642869 C29.5708977,24.1642869 29.2782718,24.0388758 29.0553188,23.8159228 C28.8323658,23.5929698 28.7069547,23.2724748 28.7069547,22.9519799 C28.7069547,22.6454195 28.8323658,22.3388591 29.0553188,22.1019715 C29.5012248,21.6560654 30.2815604,21.6560654 30.741401,22.1019715 C30.9504195,22.3388591 31.0897651,22.6454195 31.0897651,22.9519799 C31.0897651,23.2724748 30.964354,23.5929698 30.741401,23.8159228 C30.518448,24.0388758 30.2258221,24.1642869 29.9053272,24.1642869" id="Fill-18" fill="#8DC644" sketch:type="MSShapeGroup"></path>
            </g>
        </g>
    </g>
</svg>