<?xml version="1.0" encoding="UTF-8" standalone="no"?>
<svg width="60px" height="60px" viewBox="0 0 60 60" version="1.1" xmlns="http://www.w3.org/2000/svg" xmlns:xlink="http://www.w3.org/1999/xlink" xmlns:sketch="http://www.bohemiancoding.com/sketch/ns">
    <!-- Generator: Sketch 3.3.2 (12043) - http://www.bohemiancoding.com/sketch -->
    <title>aventura-room-facilities-locker</title>
    <desc>Created with Sketch.</desc>
    <defs></defs>
    <g id="kit" stroke="none" stroke-width="1" fill="none" fill-rule="evenodd" sketch:type="MSPage">
        <g id="aventura-room-facilities-locker" sketch:type="MSArtboardGroup" fill="#FFFFFF">
            <g id="locker" sketch:type="MSLayerGroup" transform="translate(17.000000, 13.000000)">
                <path d="M5.095,11.653 C5.923,11.653 6.595,10.981 6.595,10.153 C6.595,6.54 9.534,3.6 13.147,3.6 C16.761,3.6 19.701,6.54 19.701,10.153 C19.701,10.981 20.372,11.653 21.201,11.653 C22.029,11.653 22.701,10.981 22.701,10.153 C22.701,4.885 18.415,0.6 13.147,0.6 C7.88,0.6 3.595,4.885 3.595,10.153 C3.595,10.981 4.266,11.653 5.095,11.653" id="Fill-1" sketch:type="MSShapeGroup"></path>
                <path d="M22.153,12.994 L4.142,12.994 C2.211,12.994 0.632,14.573 0.632,16.504 L0.632,28.944 C0.632,30.875 2.211,32.454 4.142,32.454 L22.153,32.454 C24.084,32.454 25.663,30.875 25.663,28.944 L25.663,16.504 C25.663,14.573 24.084,12.994 22.153,12.994 L22.153,12.994 Z M14.299,23.415 L14.299,27.848 C14.299,28.482 13.781,29 13.148,29 C12.514,29 11.996,28.482 11.996,27.848 L11.996,23.415 C11.062,22.979 10.41,22.038 10.41,20.939 C10.41,19.427 11.636,18.202 13.148,18.202 C14.659,18.202 15.885,19.427 15.885,20.939 C15.885,22.038 15.234,22.979 14.299,23.415 L14.299,23.415 Z" id="Fill-2" sketch:type="MSShapeGroup"></path>
            </g>
        </g>
    </g>
</svg>