<?xml version="1.0" encoding="UTF-8" standalone="no"?>
<svg width="60px" height="60px" viewBox="0 0 60 60" version="1.1" xmlns="http://www.w3.org/2000/svg" xmlns:xlink="http://www.w3.org/1999/xlink" xmlns:sketch="http://www.bohemiancoding.com/sketch/ns">
    <!-- Generator: Sketch 3.3.2 (12043) - http://www.bohemiancoding.com/sketch -->
    <title>aventura-room-facilities-table</title>
    <desc>Created with Sketch.</desc>
    <defs></defs>
    <g id="kit" stroke="none" stroke-width="1" fill="none" fill-rule="evenodd" sketch:type="MSPage">
        <g id="aventura-room-facilities-table" sketch:type="MSArtboardGroup" fill="#FFFFFF">
            <g id="table" sketch:type="MSLayerGroup" transform="translate(13.000000, 17.000000)">
                <path d="M6.205,17.469 C6.205,18.337 6.915,19.047 7.782,19.047 C8.65,19.047 9.36,18.337 9.36,17.469 L9.36,12.06 L6.205,12.06 L6.205,17.469" id="Fill-11" sketch:type="MSShapeGroup"></path>
                <path d="M26.225,0.981 L6.6,0.981 L0.266,7.198 L0.266,11.111 L1.406,11.111 L1.406,23.449 C1.406,24.316 2.116,25.026 2.983,25.026 C3.851,25.026 4.561,24.316 4.561,23.449 L4.561,11.111 L28.264,11.111 L28.264,23.449 C28.264,24.316 28.974,25.026 29.842,25.026 C30.71,25.026 31.42,24.316 31.42,23.449 L31.42,11.111 L32.56,11.111 L32.56,7.198 L26.225,0.981" id="Fill-12" sketch:type="MSShapeGroup"></path>
                <path d="M23.465,17.469 C23.465,18.337 24.175,19.047 25.043,19.047 C25.911,19.047 26.621,18.337 26.621,17.469 L26.621,12.06 L23.465,12.06 L23.465,17.469" id="Fill-13" sketch:type="MSShapeGroup"></path>
            </g>
        </g>
    </g>
</svg>