<?xml version="1.0" encoding="UTF-8" standalone="no"?>
<svg width="42px" height="42px" viewBox="0 0 42 42" version="1.1" xmlns="http://www.w3.org/2000/svg" xmlns:xlink="http://www.w3.org/1999/xlink" xmlns:sketch="http://www.bohemiancoding.com/sketch/ns">
    <!-- Generator: Sketch 3.3.2 (12043) - http://www.bohemiancoding.com/sketch -->
    <title>aventura-mobil-navIcon-google</title>
    <desc>Created with Sketch.</desc>
    <defs></defs>
    <g id="kit" stroke="none" stroke-width="1" fill="none" fill-rule="evenodd" sketch:type="MSPage">
        <g id="aventura-mobil-navIcon-google" sketch:type="MSArtboardGroup">
            <g id="place" sketch:type="MSLayerGroup" transform="translate(12.000000, 8.000000)">
                <path d="M9.11734982,0.0604038462 C4.33812721,0.0604038462 0.467173145,3.81080769 0.467173145,8.44113462 C0.467173145,10.8823846 1.54303887,13.0821923 3.26226148,14.6113269 L3.36498233,14.7186346 C7.97660777,19.5635769 8.67402827,24.4246154 8.8470318,26.1951923 L8.92812721,26.8873269 L9.18222615,26.9034231 C9.42010601,26.2810385 9.34441696,20.5186154 14.864311,14.7186346 L14.9454064,14.6327885 C16.6808481,13.0982885 17.7675265,10.8931154 17.7675265,8.44113462 C17.7675265,3.81080769 13.8965724,0.0604038462 9.11734982,0.0604038462" id="Fill-8" fill="#DD4B39" sketch:type="MSShapeGroup"></path>
                <path d="M4.79226148,8.64501923 C4.79226148,6.27351923 6.72773852,4.35271154 9.11734982,4.35271154 C11.5069611,4.35271154 13.4424382,6.27351923 13.4424382,8.64501923 C13.4424382,11.0111538 11.5069611,12.9373269 9.11734982,12.9373269 C6.72773852,12.9373269 4.79226148,11.0111538 4.79226148,8.64501923" id="Fill-10" fill="#FFFFFF" sketch:type="MSShapeGroup"></path>
            </g>
        </g>
    </g>
</svg>