<?xml version="1.0" encoding="UTF-8" standalone="no"?>
<svg width="40px" height="40px" viewBox="0 0 40 40" version="1.1" xmlns="http://www.w3.org/2000/svg" xmlns:xlink="http://www.w3.org/1999/xlink" xmlns:sketch="http://www.bohemiancoding.com/sketch/ns">
    <!-- Generator: Sketch 3.3.2 (12043) - http://www.bohemiancoding.com/sketch -->
    <title>aventura-mobil-footer-social-tripadvisor</title>
    <desc>Created with Sketch.</desc>
    <defs></defs>
    <g id="kit" stroke="none" stroke-width="1" fill="none" fill-rule="evenodd" sketch:type="MSPage">
        <g id="aventura-mobil-footer-social-tripadvisor" sketch:type="MSArtboardGroup">
            <g id="trip-copy" sketch:type="MSLayerGroup" transform="translate(3.000000, 10.000000)">
                <g id="trip" sketch:type="MSShapeGroup">
                    <path d="M7.29488889,11.3804082 C7.29488889,12.1277551 7.91822222,12.7334694 8.68679012,12.7334694 C9.45535802,12.7334694 10.0782716,12.1277551 10.0782716,11.3804082 C10.0782716,10.6330612 9.45535802,10.0269388 8.68679012,10.0269388 C7.91822222,10.0269388 7.29488889,10.6330612 7.29488889,11.3804082" id="Fill-1" fill="#FFFFFF"></path>
                    <path d="M24.0526914,11.3804082 C24.0526914,12.1277551 24.6760247,12.7334694 25.4445926,12.7334694 C26.2131605,12.7334694 26.8360741,12.1277551 26.8360741,11.3804082 C26.8360741,10.6330612 26.2131605,10.0269388 25.4445926,10.0269388 C24.6760247,10.0269388 24.0526914,10.6330612 24.0526914,11.3804082" id="Fill-2" fill="#FFFFFF"></path>
                    <path d="M5.78125926,8.55510204 C5.0051358,9.30979592 4.57782716,10.3130612 4.57782716,11.3804082 C4.57782716,12.4477551 5.0051358,13.4510204 5.78125926,14.2053061 C6.55738272,14.96 7.5891358,15.3755102 8.68679012,15.3755102 C10.9521975,15.3755102 12.7953333,13.5832653 12.7953333,11.3804082 C12.7953333,9.17714286 10.9521975,7.38489796 8.68679012,7.38489796 C7.5891358,7.38489796 6.55738272,7.80040816 5.78125926,8.55510204 L5.78125926,8.55510204 Z M6.67197531,13.3395918 C6.1334321,12.8163265 5.83708642,12.1204082 5.83708642,11.3804082 C5.83708642,10.64 6.1334321,9.9444898 6.67197531,9.42081633 C7.21009877,8.89755102 7.92535802,8.60938776 8.68679012,8.60938776 C10.2579259,8.60938776 11.5360741,9.85265306 11.5360741,11.3804082 C11.5360741,12.9081633 10.2579259,14.1510204 8.68679012,14.1510204 C7.92535802,14.1510204 7.21009877,13.8628571 6.67197531,13.3395918 L6.67197531,13.3395918 Z" id="Fill-3" fill="#FFFFFF"></path>
                    <path d="M22.5390617,8.55510204 C21.7629383,9.30979592 21.3356296,10.3130612 21.3356296,11.3804082 C21.3356296,12.4477551 21.7629383,13.4510204 22.5390617,14.2053061 C23.3151852,14.96 24.3469383,15.3755102 25.4445926,15.3755102 C27.71,15.3755102 29.5531358,13.5832653 29.5531358,11.3804082 C29.5531358,9.17714286 27.71,7.38489796 25.4445926,7.38489796 C24.3469383,7.38489796 23.3151852,7.80040816 22.5390617,8.55510204 L22.5390617,8.55510204 Z M23.429358,13.3395918 C22.8912346,12.8163265 22.5948889,12.1204082 22.5948889,11.3804082 C22.5948889,10.64 22.8912346,9.9444898 23.429358,9.42081633 C23.9679012,8.89755102 24.6831605,8.60938776 25.4445926,8.60938776 C27.0157284,8.60938776 28.2938765,9.85265306 28.2938765,11.3804082 C28.2938765,12.9081633 27.0157284,14.1510204 25.4445926,14.1510204 C24.6831605,14.1510204 23.9679012,13.8628571 23.429358,13.3395918 L23.429358,13.3395918 Z" id="Fill-4" fill="#FFFFFF"></path>
                    <path d="M32.065358,6.12653061 C32.3881481,5.19265306 32.8809383,4.09265306 33.5626173,3.43020408 L27.9471605,3.43020408 C27.8539753,3.40244898 27.7570123,3.38367347 27.6625679,3.35877551 C27.3574074,2.89346939 25.268716,0.272653061 16.9206667,0.272653061 C7.7591358,0.272653061 6.13553086,3.43020408 6.13553086,3.43020408 L0.279135802,3.43020408 C1.02587654,4.15673469 1.54511111,5.40693878 1.86328395,6.38979592 C0.783679012,7.78163265 0.135160494,9.50653061 0.135160494,11.3804082 C0.135160494,15.9653061 3.97128395,19.6955102 8.68679012,19.6955102 C11.3005926,19.6955102 13.6411358,18.5469388 15.2110123,16.7436735 L17.1523704,19.3869388 L18.8280247,16.6404082 C20.3974815,18.5036735 22.78,19.6955102 25.4441728,19.6955102 C30.159679,19.6955102 33.9958025,15.9653061 33.9958025,11.3804082 C33.9958025,9.38897959 33.2704691,7.56 32.065358,6.12653061 L32.065358,6.12653061 Z M8.68679012,18.0628571 C4.89725926,18.0628571 1.81417284,15.0653061 1.81417284,11.3804082 C1.81417284,7.6955102 4.89725926,4.69755102 8.68679012,4.69755102 C12.476321,4.69755102 15.5589877,7.6955102 15.5589877,11.3804082 C15.5589877,15.0653061 12.476321,18.0628571 8.68679012,18.0628571 L8.68679012,18.0628571 Z M25.4441728,18.0628571 C21.654642,18.0628571 18.5719753,15.0653061 18.5719753,11.3804082 C18.5719753,7.6955102 21.654642,4.69755102 25.4441728,4.69755102 C29.2337037,4.69755102 32.3167901,7.6955102 32.3167901,11.3804082 C32.3167901,15.0653061 29.2337037,18.0628571 25.4441728,18.0628571 L25.4441728,18.0628571 Z" id="Fill-5" fill="#FFFFFF"></path>
                    <path d="M17.4424198,1.23142857 C23.2988148,1.23142857 25.5020988,3.59918367 25.5020988,3.59918367 C25.5020988,3.59918367 19.2398025,2.5844898 17.1523704,10.0836735 C15.0649383,2.5844898 8.80264198,3.59918367 8.80264198,3.59918367 C8.80264198,3.59918367 11.0063457,1.23142857 16.8627407,1.23142857 L17.4424198,1.23142857 L17.4424198,1.23142857 Z" id="Fill-6" fill="#4C8B38"></path>
                    <path d="M25.5020988,3.59918367 C25.5020988,3.59918367 19.2398025,2.5844898 17.1523704,10.0836735 C15.0649383,2.5844898 8.80264198,3.59918367 8.80264198,3.59918367 C8.80264198,3.59918367 11.0063457,1.23142857 16.8627407,1.23142857 L17.4424198,1.23142857 C23.2988148,1.23142857 25.5020988,3.59918367 25.5020988,3.59918367 Z" id="Stroke-7" stroke="#FFFFFF"></path>
                </g>
            </g>
        </g>
    </g>
</svg>