<?xml version="1.0" encoding="UTF-8" standalone="no"?>
<svg width="60px" height="60px" viewBox="0 0 60 60" version="1.1" xmlns="http://www.w3.org/2000/svg" xmlns:xlink="http://www.w3.org/1999/xlink" xmlns:sketch="http://www.bohemiancoding.com/sketch/ns">
    <!-- Generator: Sketch 3.3.2 (12043) - http://www.bohemiancoding.com/sketch -->
    <title>aventura-room-facilities-shower</title>
    <desc>Created with Sketch.</desc>
    <defs></defs>
    <g id="kit" stroke="none" stroke-width="1" fill="none" fill-rule="evenodd" sketch:type="MSPage">
        <g id="aventura-room-facilities-shower" sketch:type="MSArtboardGroup" fill="#FFFFFF">
            <g id="shower" sketch:type="MSLayerGroup" transform="translate(17.000000, 13.000000)">
                <path d="M16.944,0.778 C11.623,0.778 7.278,4.986 7.032,10.247 C3.801,11.021 1.396,13.921 1.396,17.389 L16.099,17.389 C16.099,14.424 14.341,11.876 11.814,10.713 L12.008,10.713 C12.008,7.992 14.223,5.777 16.944,5.777 C19.666,5.777 21.88,7.992 21.88,10.713 L21.88,33.104 L26.88,33.104 L26.88,10.713 C26.88,5.235 22.423,0.778 16.944,0.778" id="Fill-1" sketch:type="MSShapeGroup"></path>
                <path d="M8.802,19.041 C8.228,19.041 7.762,19.823 7.762,20.787 C7.762,21.752 8.228,22.534 8.802,22.534 C9.376,22.534 9.841,21.752 9.841,20.787 C9.841,19.823 9.376,19.041 8.802,19.041" id="Fill-2" sketch:type="MSShapeGroup"></path>
                <path d="M8.802,24.28 C8.228,24.28 7.762,25.062 7.762,26.026 C7.762,26.991 8.228,27.773 8.802,27.773 C9.376,27.773 9.841,26.991 9.841,26.026 C9.841,25.062 9.376,24.28 8.802,24.28" id="Fill-3" sketch:type="MSShapeGroup"></path>
                <path d="M8.802,29.611 C8.228,29.611 7.762,30.393 7.762,31.358 C7.762,32.322 8.228,33.104 8.802,33.104 C9.376,33.104 9.841,32.322 9.841,31.358 C9.841,30.393 9.376,29.611 8.802,29.611" id="Fill-4" sketch:type="MSShapeGroup"></path>
                <path d="M3.639,19.133 C3.076,19.02 2.466,19.695 2.275,20.64 C2.085,21.585 2.386,22.444 2.949,22.557 C3.512,22.671 4.122,21.996 4.313,21.051 C4.504,20.105 4.202,19.247 3.639,19.133" id="Fill-5" sketch:type="MSShapeGroup"></path>
                <path d="M2.604,24.269 C2.041,24.156 1.431,24.83 1.24,25.776 C1.049,26.721 1.351,27.579 1.914,27.693 C2.477,27.806 3.087,27.132 3.278,26.186 C3.469,25.241 3.167,24.383 2.604,24.269" id="Fill-6" sketch:type="MSShapeGroup"></path>
                <path d="M1.551,29.495 C0.988,29.382 0.377,30.057 0.187,31.002 C-0.004,31.947 0.298,32.806 0.861,32.919 C1.423,33.033 2.034,32.358 2.225,31.413 C2.415,30.467 2.113,29.609 1.551,29.495" id="Fill-7" sketch:type="MSShapeGroup"></path>
                <path d="M15.011,22.557 C15.574,22.444 15.875,21.585 15.685,20.64 C15.494,19.695 14.883,19.02 14.321,19.133 C13.758,19.247 13.456,20.105 13.647,21.051 C13.837,21.996 14.448,22.671 15.011,22.557" id="Fill-8" sketch:type="MSShapeGroup"></path>
                <path d="M16.046,27.693 C16.609,27.579 16.91,26.721 16.72,25.776 C16.529,24.83 15.919,24.156 15.356,24.269 C14.793,24.383 14.491,25.241 14.682,26.186 C14.872,27.132 15.483,27.806 16.046,27.693" id="Fill-9" sketch:type="MSShapeGroup"></path>
                <path d="M16.409,29.495 C15.846,29.609 15.545,30.467 15.735,31.413 C15.926,32.358 16.536,33.033 17.099,32.919 C17.662,32.806 17.964,31.947 17.773,31.002 C17.583,30.057 16.972,29.382 16.409,29.495" id="Fill-10" sketch:type="MSShapeGroup"></path>
            </g>
        </g>
    </g>
</svg>