<?xml version="1.0" encoding="UTF-8" standalone="no"?>
<svg width="60px" height="60px" viewBox="0 0 60 60" version="1.1" xmlns="http://www.w3.org/2000/svg" xmlns:xlink="http://www.w3.org/1999/xlink" xmlns:sketch="http://www.bohemiancoding.com/sketch/ns">
    <!-- Generator: Sketch 3.3.2 (12043) - http://www.bohemiancoding.com/sketch -->
    <title>aventura-room-facilities-linen</title>
    <desc>Created with Sketch.</desc>
    <defs></defs>
    <g id="kit" stroke="none" stroke-width="1" fill="none" fill-rule="evenodd" sketch:type="MSPage">
        <g id="aventura-room-facilities-linen" sketch:type="MSArtboardGroup" fill="#FFFFFF">
            <path d="M31.0069074,35.0779489 C30.6880185,35.5593683 30.1659518,35.6840135 29.7504851,35.9522715 C28.7509963,36.598078 28.1068407,37.4714973 27.945574,38.6574328 C27.8708629,39.202078 27.8289518,39.770207 28.3628629,40.1305941 C28.8903963,40.4882715 29.3987963,40.2787231 29.8953518,39.994207 C33.0450629,38.1859489 36.1993296,36.3831102 39.3526851,34.5802715 C40.803174,33.750207 42.2372629,32.8912393 43.7132629,32.1090457 C44.468574,31.7089167 44.8065963,31.2256909 44.4567296,30.2818199 C42.5506851,31.3684006 40.6655963,32.4405296 38.7823296,33.5171748 C35.9132407,35.158336 33.0487074,36.8067231 30.1723296,38.4379489 C29.8898851,38.5978199 29.5354629,39.0133038 29.2275074,38.6258199 C28.8940407,38.2049167 29.2320629,37.8093038 29.5627963,37.5085296 C29.7477518,37.3405296 29.9800851,37.2194973 30.1996629,37.0930457 C34.9219518,34.3752393 39.6424185,31.6556264 44.3719963,28.9495618 C44.9204851,28.6352393 45.5163518,28.1122715 46.1641518,28.6487877 C46.7837074,29.1618199 46.5932851,29.8970457 46.4566185,30.5735618 C46.247974,31.6032393 45.6101963,32.2788522 44.7018185,32.7927877 C40.7193518,35.0472393 36.7614851,37.3459489 32.7726407,39.5895618 C32.0273518,40.0086586 31.6893296,40.4720135 32.0583296,41.414078 C34.1183518,40.2154973 36.1492185,39.0322715 38.1819074,37.8517554 C40.6938407,36.3912393 43.2003074,34.9216909 45.723174,33.4792393 C47.231974,32.6157554 47.9153074,31.3196264 47.8998185,29.6287877 C47.8815963,27.5134328 46.2907963,26.5397554 44.4093518,27.5576909 C42.3657296,28.6641425 40.3731296,29.8654328 38.3586629,31.0242715 C36.940974,31.8398844 35.505974,32.6256909 34.1156185,33.4846586 C33.6026629,33.8025941 33.2418629,33.7619489 32.7453074,33.4693038 C27.7451296,30.5148522 22.7312851,27.5838844 17.7183518,24.6520135 C16.6988185,24.0549812 15.6647074,23.4832393 14.4629518,22.8013038 C16.162174,21.8158844 17.711974,20.9144651 19.2635963,20.0157554 C21.0876407,18.9607877 22.9071296,17.8976909 24.739374,16.8562715 C26.7374407,15.7209167 28.7601074,15.7109812 30.7554407,16.8481425 C36.4061518,20.066336 42.0386407,23.3134328 47.6984629,26.5153683 C48.6387296,27.0473683 49.2209296,27.7509812 49.3020185,28.7987231 C49.4687518,30.9673683 48.9904185,33.3681425 46.5522851,34.666078 C42.3538851,36.9033683 38.2848629,39.378207 34.1629963,41.7564006 C32.0856629,42.9558844 30.0183518,42.9125296 27.9519518,41.730207 C22.3723074,38.5364006 16.8117963,35.3073683 11.1975296,32.1731748 C9.48646293,31.2175618 8.9762407,29.8040135 9.0008407,28.0373038 C9.02635182,26.170336 10.1643296,25.0973038 11.7451074,24.3729167 C12.0229963,24.2455618 12.308174,24.1687877 12.6598629,24.3738199 C18.5802629,27.8385941 24.5143296,31.2807877 30.4438407,34.7293038 C30.6278851,34.8367877 30.8064629,34.9533038 31.0069074,35.0779489" id="Imported-Layers" sketch:type="MSShapeGroup"></path>
        </g>
    </g>
</svg>