<?xml version="1.0" encoding="UTF-8" standalone="no"?>
<svg width="23px" height="27px" viewBox="0 0 23 27" version="1.1" xmlns="http://www.w3.org/2000/svg" xmlns:xlink="http://www.w3.org/1999/xlink" xmlns:sketch="http://www.bohemiancoding.com/sketch/ns">
    <!-- Generator: Sketch 3.3.2 (12043) - http://www.bohemiancoding.com/sketch -->
    <title>aventura-mobil-checkInBg</title>
    <desc>Created with Sketch.</desc>
    <defs></defs>
    <g id="kit" stroke="none" stroke-width="1" fill="none" fill-rule="evenodd" sketch:type="MSPage">
        <g id="aventura-mobil-checkInBg" sketch:type="MSArtboardGroup" fill="#4A4A4A">
            <g id="naptar" sketch:type="MSLayerGroup">
                <path d="M0.0576825397,9.07476136 L22.9423175,9.07476136 L22.9423175,9.41944091 C22.9424392,14.6249182 22.9441429,19.8303955 22.9409788,25.0358727 C22.9405529,25.7565886 22.6776349,26.3713909 22.0481164,26.7391432 C21.7939603,26.8876432 21.4524286,26.9383295 21.1501429,26.9402318 C18.7265635,26.9557568 16.3029233,26.9488841 13.8792831,26.9488841 C9.89401587,26.9489455 5.90874868,26.9490068 1.92342063,26.9488227 C0.786806878,26.9488227 0.0586560847,26.2253455 0.0581693122,25.0791341 C0.0559179894,19.8327273 0.0575,14.5863818 0.0576825397,9.339975 C0.0577433862,9.26020227 0.0576825397,9.18042955 0.0576825397,9.07476136 L0.0576825397,9.07476136 Z M17.1991323,15.8722568 L17.1991323,20.0433273 L21.3394974,20.0433273 L21.3394974,15.8722568 L17.1991323,15.8722568 L17.1991323,15.8722568 Z M11.9530635,20.0435727 L16.107119,20.0435727 L16.107119,15.8821977 L11.9530635,15.8821977 L11.9530635,20.0435727 L11.9530635,20.0435727 Z M1.48739418,15.8782091 L1.48739418,20.0465182 L5.6367037,20.0465182 L5.6367037,15.8782091 L1.48739418,15.8782091 L1.48739418,15.8782091 Z M17.1902487,14.8012773 L21.3399841,14.8012773 L21.3399841,10.6327227 L17.1902487,10.6327227 L17.1902487,14.8012773 L17.1902487,14.8012773 Z M16.0993307,14.8138568 L16.0993307,10.6356682 L11.9613386,10.6356682 L11.9613386,14.8138568 L16.0993307,14.8138568 L16.0993307,14.8138568 Z M10.8693862,10.6416205 L6.71898148,10.6416205 L6.71898148,14.808825 L10.8693862,14.808825 L10.8693862,10.6416205 L10.8693862,10.6416205 Z M5.62678571,14.8136727 L5.62678571,10.6347477 L1.48739418,10.6347477 L1.48739418,14.8136727 L5.62678571,14.8136727 L5.62678571,14.8136727 Z M1.48678571,21.1611273 L1.48678571,25.3261227 L5.63098413,25.3261227 L5.63098413,21.1611273 L1.48678571,21.1611273 L1.48678571,21.1611273 Z M6.72263228,21.1608818 L6.72263228,25.3267364 L10.8684127,25.3267364 L10.8684127,21.1608818 L6.72263228,21.1608818 L6.72263228,21.1608818 Z M16.1054153,25.3380273 L16.1054153,21.1606364 L11.9589048,21.1606364 L11.9589048,25.3380273 L16.1054153,25.3380273 L16.1054153,25.3380273 Z M17.1970026,21.16125 L17.1970026,25.3267977 L21.3406534,25.3267977 L21.3406534,21.16125 L17.1970026,21.16125 L17.1970026,21.16125 Z M10.8683519,20.0528386 L10.8683519,15.8845909 L6.71800794,15.8845909 L6.71800794,20.0528386 L10.8683519,20.0528386 L10.8683519,20.0528386 Z" id="Fill-1" sketch:type="MSShapeGroup"></path>
                <path d="M6.99412963,3.48551591 L15.8281376,3.48551591 L15.8281376,3.16722273 C15.8281984,2.49228409 15.8272857,1.81734545 15.8291111,1.14240682 C15.8293545,1.04072727 15.831119,0.9369 15.8505291,0.837736364 C15.9459974,0.349527273 16.2864947,0.0341795455 16.6855873,0.0561477273 C17.0998915,0.0790363636 17.4515847,0.476611364 17.4605899,0.971386364 C17.4734286,1.67676136 17.4643016,2.38250455 17.464545,3.088125 L17.464545,3.50116364 L17.7981667,3.50116364 C18.8933439,3.50116364 19.9892513,3.52804091 21.0833333,3.4938 C22.249336,3.45735 22.8168519,4.23341591 22.9055053,5.08115455 C23.0017646,6.00179318 22.9367804,6.93955227 22.9419524,7.86988636 C22.9425608,7.98979091 22.9420132,8.10969545 22.9420132,8.24690455 L0.110253968,8.24690455 C0.0946772487,8.22732955 0.0721640212,8.21229545 0.0721031746,8.19707727 C0.0680873016,7.18525227 0.0178888889,6.17042045 0.0788571429,5.16246136 C0.126134921,4.38148636 0.679412698,3.45968182 1.86433862,3.49472045 C2.90785714,3.525525 3.95295767,3.50116364 4.99738889,3.50116364 L5.35632275,3.50116364 C5.35632275,2.687175 5.34232804,1.90245682 5.36484127,1.11878182 C5.37159524,0.884495455 5.43615344,0.627443182 5.55139683,0.425618182 C5.83804497,-0.0765818182 6.50820899,-0.076275 6.79808201,0.423961364 C6.91003968,0.617318182 6.9778836,0.862465909 6.98548942,1.08675 C7.00909788,1.781325 6.99412963,2.47718864 6.99412963,3.17256136 L6.99412963,3.48551591 L6.99412963,3.48551591 Z M6.99273016,4.42155682 C6.99273016,4.70106818 7.00374339,4.93602955 6.99047884,5.16951818 C6.96157672,5.67840682 6.59509788,6.08027727 6.17470899,6.08003182 C5.75371164,6.079725 5.38930159,5.6754 5.35869577,5.16896591 C5.35072487,5.03648182 5.35851323,4.90313864 5.35595767,4.770225 C5.35388889,4.66363636 5.34719577,4.55717045 5.34184127,4.43303182 C4.74956085,4.86312955 4.54469048,5.42877955 4.7361746,6.05033182 C4.93934127,6.71005227 5.48598677,7.12744773 6.15870635,7.13652955 C6.82619312,7.14555 7.39042328,6.73435227 7.60551587,6.08211818 C7.81288095,5.45307955 7.61007937,4.87251818 6.99273016,4.42155682 L6.99273016,4.42155682 Z M17.4632672,4.40940682 C17.4632672,4.70364545 17.4737328,4.94719773 17.4610767,5.18952273 C17.4361296,5.66607273 17.0942937,6.05247955 16.6900899,6.07812955 C16.300246,6.10279773 15.9651032,5.80549091 15.8617249,5.32900227 C15.833918,5.20093636 15.8344048,5.06581364 15.8302063,4.93369773 C15.8252169,4.77544091 15.8290503,4.61687727 15.8290503,4.43358409 C15.2401164,4.837725 15.0267884,5.40398864 15.2017222,6.02118409 C15.3894339,6.68342045 15.9261005,7.10995909 16.6022884,7.13425909 C17.2698968,7.15831364 17.8386905,6.76221136 18.0702116,6.11187955 C18.2957698,5.47836136 18.1004524,4.89546818 17.4632672,4.40940682 L17.4632672,4.40940682 Z" id="Fill-2" sketch:type="MSShapeGroup"></path>
                <path d="M9.74968783,16.9521955 L9.74968783,19.0684432 L7.65182011,19.0684432 L7.65182011,16.9521955 L9.74968783,16.9521955" id="Fill-3" sketch:type="MSShapeGroup"></path>
            </g>
        </g>
    </g>
</svg>