<?xml version="1.0" encoding="UTF-8" standalone="no"?>
<svg width="60px" height="60px" viewBox="0 0 60 60" version="1.1" xmlns="http://www.w3.org/2000/svg" xmlns:xlink="http://www.w3.org/1999/xlink" xmlns:sketch="http://www.bohemiancoding.com/sketch/ns">
    <!-- Generator: Sketch 3.3.2 (12043) - http://www.bohemiancoding.com/sketch -->
    <title>aventura-ap-facilities-map</title>
    <desc>Created with Sketch.</desc>
    <defs></defs>
    <g id="kit" stroke="none" stroke-width="1" fill="none" fill-rule="evenodd" sketch:type="MSPage">
        <g id="aventura-ap-facilities-map" sketch:type="MSArtboardGroup" fill="#FFFFFF">
            <g id="Imported-Layers" sketch:type="MSLayerGroup" transform="translate(9.000000, 10.000000)">
                <path d="M38.04066,10.8623298 C38.3691,13.1239149 38.70384,15.3846702 39.0243,17.6470851 C39.438,20.5671064 39.83826,23.4892021 40.24776,26.4096383 C40.6476,29.261617 41.055,32.112766 41.45232,34.9651596 C41.54682,35.6426809 41.55564,36.3372128 41.71188,36.9989681 C41.87064,37.670266 41.50272,37.6503511 41.0802,37.5661277 C38.05326,36.9645319 35.02884,36.3496596 32.004,35.7372766 C30.79314,35.4920745 29.58816,35.2165851 28.37142,35.0078936 C27.91656,34.9303085 27.45582,34.9647447 26.97492,35.1236489 C23.3268,36.3289149 19.6518,37.4545213 16.0104,38.6784574 C14.3598,39.2331702 12.83562,38.5967234 11.27952,38.3706064 C7.96992,37.8893298 4.683,37.2611809 1.38096,36.7259681 C-0.0021,36.5015106 0.00714,36.5413404 0.22848,35.150617 C1.19994,29.0417234 2.22684,22.9419574 3.27222,16.8450957 C3.82452,13.6222021 4.3092,10.385617 4.84806,7.15898936 C4.94172,6.59805319 4.9854,6.47275532 5.6259,6.63580851 C8.78892,7.44028723 11.98344,8.12403191 15.14562,8.93307447 C15.98478,9.14757447 16.68324,9.0998617 17.44764,8.74388298 C18.43212,8.28584043 19.47036,7.94189362 20.46282,7.49920213 C20.97438,7.27059574 21.22596,7.29590426 21.18564,7.91617021 C21.1785,8.02445745 21.20412,8.1377234 21.18228,8.2418617 C21.04452,8.89448936 21.87108,9.59690426 21.2688,10.1329468 C20.78118,10.5669255 20.00922,10.6727234 19.4061,11.0004894 C17.53584,12.0161489 15.67146,12.2613511 13.58532,11.5261596 C11.8881,10.927883 10.05984,10.7009362 8.30382,10.2540957 C7.6419,10.0856489 7.3269,10.1366809 7.2282,10.9034043 C6.91614,13.3313617 6.53394,15.7501915 6.18534,18.1735851 C5.70402,21.5209468 5.22984,24.8695532 4.74978,28.2173298 C4.50408,29.9275213 4.2525,31.6372979 4.00302,33.3470745 C3.92784,33.8623723 4.10214,34.0739681 4.6746,34.1781064 C7.92624,34.7697447 11.16654,35.4227872 14.41146,36.0513511 C14.74914,36.1169043 15.04608,35.9779149 15.3636,35.8754362 C19.0533,34.686766 22.7745,33.5881277 26.43186,32.3106702 C27.83214,31.8215106 29.07912,32.2695957 30.36768,32.4459255 C32.67054,32.7604149 34.95324,33.2230213 37.23972,33.6495319 C38.05158,33.8009681 37.9764,33.2823511 37.9218,32.8180851 C37.69038,30.8498298 37.43544,28.8844787 37.18638,26.9182979 C36.84744,24.2360106 36.50262,21.5541383 36.16704,18.8714362 C35.99736,17.5143191 35.90832,16.1435106 35.65128,14.8034043 C35.53368,14.1889468 35.6013,13.8147128 36.05952,13.3840532 C36.82308,12.6662872 37.38294,11.7792447 38.04066,10.8623298" id="Fill-1" sketch:type="MSShapeGroup"></path>
                <path d="M29.74776,23.8256809 C29.1144,22.0005638 28.48104,20.1750319 27.8481,18.3495 C27.3315,16.8587872 26.79012,15.3755426 26.31552,13.8715532 C26.187,13.4645426 25.89594,13.3321915 25.61202,13.1152021 C23.21718,11.2863511 22.22136,8.82644681 22.78458,5.9412766 C23.30328,3.28512766 24.99882,1.443 27.6591,0.583755319 C30.99558,-0.494553191 34.56684,0.94512766 36.22668,4.01782979 C37.86342,7.04738298 37.09482,10.9021596 34.29216,12.940117 C32.97672,13.8964468 32.9532,15.3456702 32.46726,16.6052872 C31.55208,18.9780638 30.7986,21.4122447 29.9775,23.8207021 C29.90106,23.8223617 29.8242,23.8240213 29.74776,23.8256809 L29.74776,23.8256809 Z M29.85066,10.8216702 C31.87464,10.8212553 33.3438,9.35626596 33.33834,7.34361702 C33.33246,5.38697872 31.78266,3.84730851 29.8284,3.85726596 C27.92916,3.86680851 26.25672,5.5122766 26.26386,7.3647766 C26.27142,9.27328723 27.87834,10.8216702 29.85066,10.8216702 L29.85066,10.8216702 Z" id="Fill-2" sketch:type="MSShapeGroup"></path>
                <path d="M10.3866,26.4142021 C10.41306,25.4918936 11.06658,24.7446702 11.84148,24.8446596 C12.62184,24.9450638 13.08216,25.3715745 13.03974,26.2341383 C12.99186,27.2107979 12.44502,27.8779468 11.62308,27.7850106 C10.83306,27.6962234 10.37904,27.237766 10.3866,26.4142021" id="Fill-3" sketch:type="MSShapeGroup"></path>
                <path d="M21.41748,26.933234 C21.9345,27.0639255 22.47672,27.3195 22.49982,28.0729468 C22.51914,28.7127128 21.39648,29.7615638 20.70096,29.6839787 C20.02098,29.6084681 19.41072,29.3192872 19.43298,28.4828617 C19.45104,27.8103191 20.56026,26.9046064 21.41748,26.933234" id="Fill-4" sketch:type="MSShapeGroup"></path>
                <path d="M16.79034,31.9667234 C16.2981,31.9675532 15.73824,31.7111489 15.68868,30.8929787 C15.6471,30.1996915 16.61268,29.5586809 17.64378,29.538766 C18.38382,29.5246596 18.83322,29.9192234 18.95796,30.5863723 C19.08354,31.2560106 18.08268,31.9405851 16.79034,31.9667234" id="Fill-5" sketch:type="MSShapeGroup"></path>
                <path d="M10.32024,19.9646809 C9.55416,19.9580426 8.36892,19.0573085 8.45334,18.4573723 C8.55288,17.7462447 9.0069,17.3180745 9.80112,17.3500213 C10.64154,17.3832128 11.60964,18.2221277 11.5563,18.9262021 C11.50086,19.6584894 11.0691,20.0090745 10.32024,19.9646809" id="Fill-6" sketch:type="MSShapeGroup"></path>
                <path d="M10.82046,22.0922553 C10.73436,21.2234681 11.16654,20.826 12.01578,20.8152128 C12.97002,20.8031809 13.39548,21.3176489 13.35054,22.4776915 C13.32114,23.2390213 12.9192,23.6580638 12.117,23.6634574 C11.23626,23.669266 10.81836,23.169734 10.82046,22.0922553" id="Fill-7" sketch:type="MSShapeGroup"></path>
                <path d="M13.28376,31.3477021 C12.4068,31.3514362 11.4345,30.5340957 11.47104,29.8034681 C11.50884,29.0421383 12.02544,28.7214255 12.705,28.6849149 C13.42614,28.6459149 14.61516,29.679 14.56056,30.2743723 C14.49294,31.0103936 13.98978,31.3145106 13.28376,31.3477021" id="Fill-8" sketch:type="MSShapeGroup"></path>
                <path d="M24.7926,24.3044681 C25.50408,24.3235532 25.956,24.6741383 26.01774,25.3794574 C26.0736,26.0142447 24.81822,26.9971277 24.05844,26.913734 C23.37426,26.8390532 22.90764,26.4648191 22.8942,25.7358511 C22.8816,25.0500319 23.91816,24.2903617 24.7926,24.3044681" id="Fill-9" sketch:type="MSShapeGroup"></path>
            </g>
        </g>
    </g>
</svg>