<?xml version="1.0" encoding="UTF-8" standalone="no"?>
<svg width="60px" height="60px" viewBox="0 0 60 60" version="1.1" xmlns="http://www.w3.org/2000/svg" xmlns:xlink="http://www.w3.org/1999/xlink" xmlns:sketch="http://www.bohemiancoding.com/sketch/ns">
    <!-- Generator: Sketch 3.3.2 (12043) - http://www.bohemiancoding.com/sketch -->
    <title>aventura-ap-facilities-kitchen</title>
    <desc>Created with Sketch.</desc>
    <defs></defs>
    <g id="kit" stroke="none" stroke-width="1" fill="none" fill-rule="evenodd" sketch:type="MSPage">
        <g id="aventura-ap-facilities-kitchen" sketch:type="MSArtboardGroup" fill="#FFFFFF">
            <g id="kithan" sketch:type="MSLayerGroup" transform="translate(12.000000, 14.000000)">
                <path d="M26.1757181,16.7616627 C24.4391223,16.5497048 22.8313564,16.4320542 21.3120213,15.8766687 C20.8445479,15.7057952 20.55375,15.7621928 20.1858777,16.1226145 C16.9029521,19.3391446 13.6660106,22.5823795 11.2655319,26.5666265 C10.4663032,27.8930904 9.39638298,29.0456928 8.2475266,30.0946506 C7.54343085,30.7376205 6.73787234,31.1899217 5.72045213,30.8985964 C4.82460106,30.6421928 4.27111702,30.0270482 4.15680851,29.1273012 C3.99986702,27.8908494 4.74529255,27.0417108 5.56835106,26.2534518 C7.09494681,24.7914096 8.77178191,23.515741 10.5627394,22.4118795 C13.8869947,20.3630783 16.3194947,17.3400181 19.1059043,14.7027771 C19.383484,14.4402108 19.347367,14.2056566 19.2187234,13.8771687 C18.787367,12.7764819 18.6388032,11.6022169 18.4544947,10.4453193 C18.2552926,9.19486145 18.408883,8.00341566 19.1496543,6.89712651 C20.97375,4.17323494 23.2517287,1.94534337 26.0636436,0.263126506 C26.4465957,0.0341746988 26.7720213,-0.00672289157 27.1650266,0.226524096 C30.3183777,2.09772892 32.8294415,4.61638554 34.7280053,7.7528012 C34.9367021,8.0973494 35.0735372,8.43928313 34.8138298,8.8719759 C32.9264362,12.0173554 30.49375,14.6047349 27.255133,16.3717349 C26.8833511,16.5745422 26.4505053,16.6649277 26.1757181,16.7616627 L26.1757181,16.7616627 Z M25.6832979,14.5477771 C25.8534574,14.4389036 26.0608511,14.3526265 26.2079255,14.2054699 C28.1157979,12.3000904 30.0149202,10.3861205 31.9162766,8.47420482 C32.2106117,8.17821084 32.3571277,7.83534337 32.0369149,7.49471687 C31.7064628,7.14325904 31.323883,7.20245783 30.9722074,7.50573494 C30.9020213,7.56624096 30.8379787,7.63403012 30.7724468,7.69976506 C28.9995479,9.47834337 27.2249734,11.2550542 25.4565426,13.0381145 C25.2843351,13.2117892 25.0804787,13.4015241 25.0115957,13.6216988 C24.842367,14.1627048 25.1767287,14.4095843 25.6832979,14.5477771 L25.6832979,14.5477771 Z M21.3647074,10.153247 C21.4788298,10.0992771 21.6800798,10.0596867 21.8012766,9.93904819 C23.75625,7.99295783 25.7035904,6.0390241 27.6455319,4.07986145 C27.9097074,3.81318675 28.0111702,3.48283133 27.7315426,3.1648012 C27.4379521,2.83108434 27.0697074,2.83612651 26.7455851,3.09943976 C26.4104787,3.37171687 26.1150266,3.69404217 25.8089628,4.00142771 C24.1924468,5.62519277 22.585984,7.25904217 20.9553191,8.86824096 C20.6678723,9.15172289 20.5891223,9.43501807 20.7097606,9.78087349 C20.8004255,10.0413855 21.0417021,10.1274759 21.3647074,10.153247 L21.3647074,10.153247 Z M29.9860638,5.75180723 C29.9963032,5.46795181 29.906383,5.25188554 29.6552394,5.1241506 C29.3629521,4.9755 29.1157181,5.06233735 28.8997606,5.27840361 C26.9540957,7.22598795 25.009734,9.17506627 23.0646277,11.1233976 C22.7567021,11.4317169 22.6885638,11.7848554 22.9922074,12.1081145 C23.3392287,12.4776867 23.6948138,12.371988 24.0302926,12.0345361 C25.9081915,10.1450301 27.7914894,8.26131325 29.6738564,6.37628916 C29.8514628,6.19831928 30.020133,6.01810843 29.9860638,5.75180723 L29.9860638,5.75180723 Z" id="Fill-1" sketch:type="MSShapeGroup"></path>
                <path d="M3.19077128,2.09660843 C5.72287234,2.26972289 7.76348404,3.50468072 9.63132979,5.10528916 C11.4293617,6.64595181 12.5625798,8.60604819 13.1957447,10.8709157 C13.7302394,12.7824578 14.1885904,14.725 15.4949468,16.3056265 C15.8952128,16.7898614 15.4080053,16.9891205 15.1717553,17.1853916 C14.9146543,17.3992169 14.7521277,18.0490964 14.242766,17.624994 C12.5877128,16.2468012 10.5385372,15.8508976 8.57015957,15.2206265 C3.9618883,13.7449518 1.10492021,10.5939699 0.109654255,5.85843976 C-0.357074468,3.63764458 1.03808511,2.06336747 3.19077128,2.09660843" id="Fill-2" sketch:type="MSShapeGroup"></path>
                <path d="M26.6221543,30.9012108 C25.7529255,30.894488 25.0901596,30.4638494 24.5005585,29.8791446 C22.9279787,28.3198072 21.6043085,26.5600904 20.397367,24.7107349 C19.5307447,23.3827771 18.661516,22.0568735 17.5454255,20.9240663 C17.1727128,20.5459036 17.3419415,20.3001446 17.6610372,20.1246024 C18.0073138,19.9339337 18.1482447,19.0636928 18.7080585,19.5970422 C20.7691489,21.5605 23.3368085,22.8244036 25.4978723,24.6375301 C26.513617,25.4898434 27.612766,26.2777289 28.3503723,27.4155783 C28.8567553,28.196741 28.9580319,29.0393434 28.479016,29.8834398 C28.0720479,30.6003614 27.4193351,30.8928072 26.6221543,30.9012108" id="Fill-3" sketch:type="MSShapeGroup"></path>
            </g>
        </g>
    </g>
</svg>