<?xml version="1.0" encoding="UTF-8" standalone="no"?>
<svg width="60px" height="60px" viewBox="0 0 60 60" version="1.1" xmlns="http://www.w3.org/2000/svg" xmlns:xlink="http://www.w3.org/1999/xlink" xmlns:sketch="http://www.bohemiancoding.com/sketch/ns">
    <!-- Generator: Sketch 3.3.2 (12043) - http://www.bohemiancoding.com/sketch -->
    <title>aventura-room-facilities-hammock</title>
    <desc>Created with Sketch.</desc>
    <defs></defs>
    <g id="kit" stroke="none" stroke-width="1" fill="none" fill-rule="evenodd" sketch:type="MSPage">
        <g id="aventura-room-facilities-hammock" sketch:type="MSArtboardGroup">
            <g id="hamock" sketch:type="MSLayerGroup" transform="translate(9.000000, 19.000000)">
                <path d="M1.875,14.7766667 L18.54,14.7766667 C18.54,14.7766667 25.155,19.0153333 29.3475,19.2646667 C32.8575,19.4846667 36.5025,17.842 36.5025,17.842 C36.5025,17.842 31.395,21.9633333 22.275,21.164 C13.1625,20.3646667 6.6675,19.2573333 1.875,14.7766667" id="Fill-1" fill="#FFFFFF" sketch:type="MSShapeGroup"></path>
                <path d="M24.1575,16.0526667 C24.1575,16.0526667 26.5575,16.0526667 27.0225,12.98 L40.89,12.98 C40.89,12.98 36.885,17.028 32.52,17.5853333 C28.455,18.1133333 24.9225,16.7273333 24.1575,16.0526667" id="Fill-2" fill="#FFFFFF" sketch:type="MSShapeGroup"></path>
                <path d="M0,13.2 L20.25,13.2 L20.25,13.9333333 L0,13.9333333 L0,13.2 Z" id="Fill-3" fill="#FFFFFF" sketch:type="MSShapeGroup"></path>
                <path d="M0,13.2 L20.25,13.2 L20.25,13.9333333 L0,13.9333333 L0,13.2 Z" id="Stroke-4" stroke="#FFFFFF" stroke-width="0.75" stroke-linecap="round" stroke-linejoin="round" sketch:type="MSShapeGroup"></path>
                <path d="M26.25,11.7333333 L42,11.7333333 L42,12.2833333 L26.25,12.2833333 L26.25,11.7333333 Z" id="Fill-5" fill="#FFFFFF" sketch:type="MSShapeGroup"></path>
                <path d="M26.25,11.7333333 L42,11.7333333 L42,12.2833333 L26.25,12.2833333 L26.25,11.7333333 Z" id="Stroke-6" stroke="#FFFFFF" stroke-width="0.75" stroke-linecap="round" stroke-linejoin="round" sketch:type="MSShapeGroup"></path>
                <path d="M35.9025,4.06266667 C35.9025,4.89133333 35.385,5.566 34.7475,5.566 C34.11,5.566 33.5925,4.89133333 33.5925,4.06266667 C33.5925,3.234 34.11,2.55933333 34.7475,2.55933333 C35.385,2.55933333 35.9025,3.234 35.9025,4.06266667 L35.9025,4.06266667 Z M10.77,2.18533333 C10.77,3.39533333 10.095,4.37066667 9.255,4.37066667 C8.4225,4.37066667 7.7475,3.39533333 7.7475,2.18533333 C7.7475,0.975333333 8.4225,0 9.255,0 C10.095,0 10.77,0.975333333 10.77,2.18533333 L10.77,2.18533333 Z M9.255,4.37066667 L1.695,13.684 L9.255,4.37066667 Z M9.255,4.37066667 L17.91,13.7133333 L9.255,4.37066667 Z M34.7475,5.566 L27.2025,12.1366667 L34.7475,5.566 Z M34.7475,5.566 L41.73,12.21 L34.7475,5.566 Z" id="Stroke-7" stroke="#FFFFFF" stroke-width="0.75" stroke-linecap="round" stroke-linejoin="round" sketch:type="MSShapeGroup"></path>
            </g>
        </g>
    </g>
</svg>