<?xml version="1.0" encoding="UTF-8" standalone="no"?>
<svg width="60px" height="60px" viewBox="0 0 60 60" version="1.1" xmlns="http://www.w3.org/2000/svg" xmlns:xlink="http://www.w3.org/1999/xlink" xmlns:sketch="http://www.bohemiancoding.com/sketch/ns">
    <!-- Generator: Sketch 3.3.2 (12043) - http://www.bohemiancoding.com/sketch -->
    <title>aventura-room-facilities-fan</title>
    <desc>Created with Sketch.</desc>
    <defs></defs>
    <g id="kit" stroke="none" stroke-width="1" fill="none" fill-rule="evenodd" sketch:type="MSPage">
        <g id="aventura-room-facilities-fan" sketch:type="MSArtboardGroup" fill="#FFFFFF">
            <g id="Imported-Layers-9" sketch:type="MSLayerGroup" transform="translate(15.000000, 15.000000)">
                <path d="M14.0238571,21.2722356 C16.8505714,21.9592067 19.6539286,20.4744952 20.6797857,17.7328125 C20.7745714,17.4793269 20.8360714,17.4398798 21.0922143,17.5599519 C23.1495,18.5244952 25.3142857,19.0832452 27.5764286,19.2601442 C27.9553571,19.2897837 28.3357857,19.3254808 28.7094286,19.3926923 C29.4545714,19.5268269 29.9127143,20.0930048 29.9356429,20.8488462 C29.9567857,21.5451202 29.8432857,22.2194712 29.5595,22.8485337 C28.5160714,25.1614904 27.0992143,27.1818029 24.955,28.5907212 C23.2277143,29.7256731 21.3359286,30.2439663 19.2837143,29.8495673 C17.7794286,29.5604567 16.5053571,28.7785096 15.5021429,27.6172356 C14.0693571,25.9587981 13.4136429,23.9860817 13.3632143,21.4628365 C13.3597857,21.1108413 13.3597857,21.1108413 14.0238571,21.2722356 Z" id="Fill-1" sketch:type="MSShapeGroup"></path>
                <path d="M20.8923571,14.385649 C20.8486429,14.2578606 20.8125714,14.1604327 20.7817857,14.061274 C19.9857143,11.4932452 17.5859286,9.86329327 14.9298571,10.0732933 C14.511,10.1063942 14.1066429,10.1868029 13.7079286,10.3083173 C13.5588571,10.35375 13.4650714,10.3863462 13.4022143,10.168774 C12.7307143,7.84442308 11.5628571,5.78048077 10.1385,3.84908654 C9.48064286,2.95694712 9.63521429,2.07519231 10.517,1.40697115 C11.4217857,0.721298077 12.486,0.459302885 13.5647143,0.264375 C15.3002143,-0.0491826923 17.0539286,-0.136370192 18.7742857,0.298990385 C21.5223571,0.994326923 23.6185714,2.51141827 24.5160714,5.35644231 C24.9867857,6.84872596 24.8417857,8.34194712 24.3669286,9.81836538 C23.7458571,11.7493269 22.5005714,13.1855048 20.8923571,14.385649" id="Fill-2" sketch:type="MSShapeGroup"></path>
                <path d="M0.0521428571,18.0228606 C0.00585714286,16.1582452 0.593857143,14.5175481 1.82335714,13.1369712 C2.74492857,12.1021154 3.9245,11.4602163 5.24842857,11.0976923 C7.25485714,10.5481731 9.20564286,10.786226 11.1166429,11.548125 C11.3578571,11.6443269 11.3888571,11.7178846 11.2060714,11.9345913 C9.56414286,13.8814183 9.30471429,16.0251923 10.3552143,18.3387981 C10.6476429,18.9829327 11.1019286,19.5090865 11.6196429,19.97625 C11.7889286,20.1289183 11.779,20.2102644 11.6263571,20.3663221 C9.93242857,22.0973077 8.67407143,24.1198558 7.71807143,26.344399 C7.25964286,27.4112019 6.31221429,27.7334135 5.2795,27.2070433 C4.39878571,26.758125 3.70157143,26.0852163 3.07992857,25.341274 C1.66585714,23.6491587 0.580214286,21.7781971 0.177785714,19.5625962 C0.0852142857,19.0526683 0.0461428571,18.538774 0.0521428571,18.0228606" id="Fill-3" sketch:type="MSShapeGroup"></path>
                <path d="M15.3737143,19.9322596 C12.8529286,19.9487019 11.1408571,17.6689183 11.2112857,15.5865865 C11.2840714,13.434375 13.2117857,11.5316106 15.4034286,11.5517308 C17.9714286,11.5753846 19.6424286,13.8298558 19.5602857,15.9054087 C19.4863571,17.7737019 17.9020714,19.9547596 15.3737143,19.9322596" id="Fill-4" sketch:type="MSShapeGroup"></path>
            </g>
        </g>
    </g>
</svg>