<?xml version="1.0" encoding="UTF-8" standalone="no"?>
<svg width="60px" height="60px" viewBox="0 0 60 60" version="1.1" xmlns="http://www.w3.org/2000/svg" xmlns:xlink="http://www.w3.org/1999/xlink" xmlns:sketch="http://www.bohemiancoding.com/sketch/ns">
    <!-- Generator: Sketch 3.3.2 (12043) - http://www.bohemiancoding.com/sketch -->
    <title>aventura-ap-facilities-phone</title>
    <desc>Created with Sketch.</desc>
    <defs></defs>
    <g id="kit" stroke="none" stroke-width="1" fill="none" fill-rule="evenodd" sketch:type="MSPage">
        <g id="aventura-ap-facilities-phone" sketch:type="MSArtboardGroup" fill="#FFFFFF">
            <g id="Imported-Layers" sketch:type="MSLayerGroup" transform="translate(12.000000, 15.000000)">
                <path d="M33.08,6.11 C32.578,5.684 32.257,5.436 31.915,4.824 C31.608,4.266 31.343,3.702 30.827,3.331 C30.059,2.781 29.166,2.444 28.28,2.162 C25.853,1.378 21.2,0.848 18.04,0.869 C14.873,0.869 9.71,1.378 7.276,2.162 C6.39,2.444 5.497,2.781 4.737,3.331 C4.213,3.702 3.948,4.266 3.641,4.824 C3.3,5.436 2.979,5.684 2.476,6.11 C1.374,7.052 0.384,9.955 0.209,11.379 C0.035,12.851 4.423,12.906 6.369,12.727 C7.29,12.645 8.413,12.528 9.076,11.73 C9.431,11.297 9.431,10.533 9.473,10.01 C9.543,9.13 9.39,7.169 10.541,6.936 C11.552,6.736 15.71,6.598 17.782,6.578 C19.847,6.598 24.004,6.736 25.016,6.936 C26.167,7.169 26.013,9.13 26.083,10.01 C26.125,10.533 26.125,11.297 26.481,11.73 C27.143,12.528 28.266,12.645 29.187,12.727 C31.141,12.906 35.521,12.851 35.347,11.379 C35.173,9.955 34.182,7.052 33.08,6.11" id="Fill-1" sketch:type="MSShapeGroup"></path>
                <path d="M18.179,16.246 C15.81,16.246 13.882,18.142 13.882,20.473 C13.882,22.8 15.81,24.693 18.179,24.693 C20.553,24.693 22.483,22.8 22.483,20.473 C22.483,18.142 20.553,16.246 18.179,16.246" id="Fill-2" sketch:type="MSShapeGroup"></path>
                <path d="M32.675,22.481 C32.62,22.206 32.417,21.828 32.215,21.642 C32.215,21.642 25.406,15.101 25.406,11.599 C25.406,8.958 24.841,8.215 24.841,8.215 C24.841,7.933 24.618,7.706 24.346,7.706 L21.584,7.706 C21.311,7.706 21.095,7.933 21.095,8.215 L20.523,9.46 C20.523,9.742 20.307,9.969 20.035,9.969 L15.521,9.969 C15.256,9.969 15.033,9.742 15.033,9.46 L14.461,8.215 C14.461,7.933 14.245,7.706 13.973,7.706 L11.21,7.706 C10.938,7.706 10.722,7.933 10.722,8.215 C10.722,8.215 10.15,8.958 10.15,11.599 C10.15,15.101 3.341,21.642 3.341,21.642 C3.146,21.828 2.937,22.206 2.881,22.481 L2.016,26.726 C1.96,26.994 2.135,27.221 2.4,27.221 L3.209,27.221 L4.339,28.672 C4.458,28.975 4.806,29.223 5.12,29.223 L30.436,29.223 C30.75,29.223 31.099,28.975 31.217,28.672 L32.347,27.221 L33.157,27.221 C33.422,27.221 33.596,26.994 33.54,26.726 L32.675,22.481 L32.675,22.481 Z M18.179,27.093 C14.486,27.093 11.482,24.123 11.482,20.473 C11.482,16.818 14.486,13.845 18.179,13.845 C21.876,13.845 24.884,16.818 24.884,20.473 C24.884,24.123 21.876,27.093 18.179,27.093 L18.179,27.093 Z" id="Fill-3" sketch:type="MSShapeGroup"></path>
            </g>
        </g>
    </g>
</svg>