<?xml version="1.0" encoding="UTF-8" standalone="no"?>
<svg width="60px" height="60px" viewBox="0 0 60 60" version="1.1" xmlns="http://www.w3.org/2000/svg" xmlns:xlink="http://www.w3.org/1999/xlink" xmlns:sketch="http://www.bohemiancoding.com/sketch/ns">
    <!-- Generator: Sketch 3.3.2 (12043) - http://www.bohemiancoding.com/sketch -->
    <title>aventura-ap-facilities-babybed</title>
    <desc>Created with Sketch.</desc>
    <defs></defs>
    <g id="kit" stroke="none" stroke-width="1" fill="none" fill-rule="evenodd" sketch:type="MSPage">
        <g id="aventura-ap-facilities-babybed" sketch:type="MSArtboardGroup" fill="#FFFFFF">
            <g id="Imported-Layers" sketch:type="MSLayerGroup" transform="translate(13.000000, 4.000000)">
                <path d="M19.0096817,34.7983756 C19.0096817,32.7719267 18.9982751,30.7454778 19.0175786,28.7190288 C19.0228432,28.263271 18.9035124,28.0821694 18.4051307,28.1036269 C17.5268207,28.1413922 16.6450009,28.1345258 15.7666909,28.1036269 C15.2437411,28.0847443 15.0217507,28.2057648 15.0261378,28.785118 C15.0515834,32.7822263 15.0498285,36.7801929 15.0296475,40.7781595 C15.0261378,41.3103062 15.1595076,41.5265981 15.7333485,41.4999907 C16.5827032,41.4613672 17.4364451,41.4648004 18.2875547,41.4999907 C18.8368275,41.5231649 19.0289853,41.3549379 19.0210884,40.7953255 C18.9886234,38.7963422 19.0079269,36.7973589 19.0096817,34.7983756 M8.23919678,34.8292745 C8.23919678,32.8285746 8.22340299,30.8278747 8.2506034,28.8280331 C8.25762286,28.3139107 8.15320839,28.0735864 7.56532856,28.1027686 C6.68701854,28.1456837 5.80432136,28.1345258 4.92425648,28.1079185 C4.42587477,28.0933273 4.22932987,28.2332304 4.23196217,28.7619439 C4.25214312,32.789951 4.24863339,36.8188165 4.23108474,40.8468236 C4.22932987,41.3746788 4.43903626,41.5137236 4.93741797,41.4982741 C5.81660542,41.4708085 6.69842516,41.4682336 7.57849004,41.5025657 C8.1049496,41.5223066 8.255868,41.332622 8.24972597,40.8305159 C8.22515786,38.829816 8.24007421,36.8291161 8.23919678,34.8292745 M24.4374797,34.7837845 C24.4374797,32.7839429 24.4225634,30.783243 24.4480089,28.7834014 C24.4550284,28.2984613 24.3628979,28.0787362 23.8083605,28.1036269 C22.87214,28.1448254 21.9324097,28.1345258 20.9970665,28.1079185 C20.5539631,28.0959022 20.4030447,28.2358053 20.4039221,28.6752555 C20.4170836,32.7590522 20.4153287,36.8419906 20.4047996,40.924929 C20.4039221,41.3635209 20.5802861,41.5068572 21.0128603,41.4965575 C21.9210031,41.4751 22.8326555,41.4605089 23.7381659,41.5017074 C24.310252,41.5274564 24.4576607,41.3223224 24.4497638,40.7850259 C24.4208085,38.7851843 24.4383571,36.7844844 24.4374797,34.7837845 M29.8986201,34.8069587 L29.8951104,34.8069587 C29.8951104,32.781368 29.8810715,30.7549191 29.9056396,28.7293285 C29.9109042,28.2709957 29.7985928,28.0890358 29.3028434,28.1070602 C28.3675002,28.1405339 27.4295248,28.1276594 26.4933042,28.1113517 C26.054588,28.1036269 25.8203135,28.2040482 25.8220683,28.7087292 C25.8361072,32.7607688 25.8343524,36.8128084 25.8211909,40.8648479 C25.8203135,41.3283305 25.9808836,41.5154402 26.4590844,41.503424 C27.3672271,41.4811081 28.2762473,41.4648004 29.1835126,41.4991324 C29.7292756,41.5197317 29.9214334,41.3669541 29.9117816,40.8021919 C29.8775617,38.8040669 29.8986201,36.8050837 29.8986201,34.8069587 M13.6652399,34.8661814 C13.6652399,32.8388742 13.651201,30.8124253 13.6748916,28.785118 C13.6819111,28.2950281 13.5652126,28.0813111 13.0185721,28.1044852 C12.1130616,28.1431088 11.2022866,28.1353841 10.2950213,28.1079185 C9.78523299,28.092469 9.60535931,28.2589795 9.60799161,28.7739601 C9.62554026,32.8002506 9.62729513,36.8265412 9.60711418,40.8528317 C9.60448188,41.3935614 9.83524665,41.5102904 10.3195894,41.4965575 C11.1996543,41.4733834 12.0805966,41.4622255 12.9589066,41.4999907 C13.5266055,41.5248815 13.6845434,41.3231807 13.6766465,40.7807344 C13.6476912,38.8092168 13.6652399,36.8376991 13.6652399,34.8661814 M32.6546359,34.4550552 L32.6546359,47.9578483 C32.6546359,48.1801483 32.6625327,48.4024483 32.6493713,48.6247483 C32.600235,49.4392761 32.0957113,49.9671312 31.3437516,49.9988884 C30.6382958,50.0280706 29.9898731,49.4796162 29.9223108,48.7148699 C29.8661551,48.0522615 29.8819489,47.3819283 29.9021298,46.7158866 C29.9135365,46.3287928 29.7915733,46.1485496 29.373038,46.1837399 C29.0913821,46.2077724 28.8044617,46.2060558 28.5219284,46.1828816 C27.9279065,46.1339585 27.478661,46.1734403 27.2794838,46.9004214 C27.1303203,47.4471592 26.5564794,47.6445684 25.9712319,47.6445684 C20.1485892,47.6454267 14.326824,47.6454267 8.50330399,47.6419935 C7.76450575,47.6419935 7.25120769,47.3063978 7.05378536,46.5974411 C6.98973278,46.3674164 6.97306156,46.1777318 6.65718583,46.1837399 C5.97629815,46.1983311 5.29453303,46.1914646 4.61364534,46.189748 C4.23108474,46.1888897 4.24249136,46.4498133 4.24161393,46.7073036 C4.2407365,47.2068349 4.2407365,47.7072244 4.2354719,48.207614 C4.22406528,49.3603124 3.69936059,50.0160544 2.80876652,49.9954552 C1.95677948,49.9757143 1.44874602,49.3242637 1.44699115,48.22478 C1.44348142,44.362425 1.44699115,40.5009283 1.44699115,36.6385732 C1.44523629,31.2767662 1.43909426,25.9141008 1.45401061,20.5514354 C1.45664291,20.0407463 1.40136466,19.7068671 0.805587932,19.5283405 C0.100132135,19.3171984 -0.0920256008,18.7103795 0.0378344216,18.0443379 C0.166817011,17.392029 0.617817359,17.0332592 1.29519531,17.0169514 C2.23229331,16.9946356 3.17026874,16.9937773 4.10736674,17.0178097 C4.74350537,17.0341175 5.17695706,17.374863 5.34103696,17.9773904 C5.50423942,18.5721931 5.35595331,19.1463965 4.79615132,19.4244861 C4.2810984,19.6794015 4.22582014,20.0175721 4.2328396,20.4922127 C4.25389799,21.9092678 4.25828515,23.3263229 4.23020731,24.7433781 C4.22055555,25.2480591 4.38200314,25.4137113 4.90670783,25.4094197 C7.46266894,25.3871039 10.0221398,25.3347476 12.576346,25.4231526 C14.50933,25.4892418 16.4475786,25.5021163 18.3674011,25.4652093 C22.0561277,25.393112 25.7448543,25.4514765 29.4309485,25.4051282 C29.821406,25.3999784 29.900375,25.2197352 29.8986201,24.888431 C29.8889683,23.3048654 29.8810715,21.7212999 29.9047621,20.1377343 C29.9109042,19.7695231 29.7064624,19.683693 29.4406003,19.5626726 C28.8018294,19.2734251 28.4868311,18.7730355 28.6272203,18.0881112 C28.774629,17.3688549 29.2589718,17.0023603 30.0223381,17.0066518 C30.902403,17.0126599 31.7833453,17.0040769 32.6634102,17.0135182 C33.3504399,17.021243 33.8093371,17.3800128 33.9523586,18.0125807 C34.0988899,18.6614564 33.9216485,19.2820081 33.2214573,19.5188992 C32.69763,19.6974258 32.646739,19.9978312 32.646739,20.4518725 C32.6599004,25.119314 32.6546359,29.7867554 32.6546359,34.4550552" id="Fill-1" sketch:type="MSShapeGroup"></path>
                <path d="M16.7832764,6.87284814 C16.4393815,7.44950979 16.1898236,7.94303714 15.8693456,8.38642001 C15.4023444,9.03367982 15.6726431,9.31607247 16.3343397,9.46122758 C16.7826074,9.55887738 17.2121415,9.52456799 17.6189277,9.30221676 C17.8758452,9.16234002 18.0471236,9.01256635 17.8450687,8.68728695 C17.4964904,8.12646041 17.1760124,7.54847918 16.7832764,6.87284814 M15.3969919,7.04967345 C15.3588557,7.00810631 15.3213886,6.96587937 15.2832524,6.92431223 C14.1793096,7.50757183 13.0760359,8.09215102 11.9714241,8.67475083 C11.5586164,8.89248349 11.7747215,9.0693088 12.0082222,9.24085574 C12.6692497,9.72712534 13.8354147,9.57801146 14.3070993,8.89380308 C14.7118784,8.3065847 15.0370397,7.66658265 15.3969919,7.04967345 M18.3174223,6.95994121 C18.2725956,7.00084855 18.2277688,7.0417559 18.1836111,7.08266325 C18.5107796,7.65404652 18.8152002,8.24060511 19.1711381,8.79483369 C19.6508514,9.54304227 20.7601466,9.74625942 21.4994538,9.26394859 C21.8466939,9.03697879 21.9731456,8.84629777 21.50213,8.60811144 C20.4349853,8.06839837 19.3778765,7.51021101 18.3174223,6.95994121 M16.7143636,5.15078076 C17.147243,5.17651281 17.4737424,5.30253383 17.7908751,5.4694622 C19.1724762,6.19589752 20.5540773,6.92167304 21.9416999,7.63755163 C22.4749377,7.91268653 23.049657,8.16274919 22.9954635,8.88522573 C22.9439461,9.56613513 22.4889879,10.1328998 21.8975422,10.2430858 C20.740744,10.458839 20.7574704,11.179996 20.8150092,12.0291533 C20.8464549,12.4936497 20.8170164,12.9621048 20.8190236,13.4285805 C20.8210307,13.8752624 20.6350331,14.1728303 20.1519745,14.1734901 C19.6568729,14.1734901 19.4969685,13.8383138 19.491616,13.4147248 C19.4802421,12.5972376 19.5003138,11.7797505 19.4782349,10.9635829 C19.4574942,10.1850237 18.9075299,9.88349697 18.1969922,10.2404466 C17.230206,10.7247368 16.2687722,10.7148398 15.3073384,10.2279104 C14.6616991,9.90065167 14.1057134,10.2054774 14.0689153,10.9121188 C14.0521889,11.2321199 14.06557,11.5534405 14.0575414,11.8747611 C14.0475055,12.2600819 13.8113287,12.473196 13.4527145,12.5068456 C13.0833955,12.5418148 12.8258089,12.3366182 12.7468602,11.9790088 C12.696681,11.7540184 12.6839689,11.5138527 12.7013644,11.2842437 C12.7348172,10.8184278 12.6391422,10.5142619 12.0771349,10.4443235 C11.7024635,10.397478 11.3686044,10.1599515 11.0835865,9.89669289 C10.2399066,9.11615431 10.316179,8.34617246 11.3257848,7.79854183 C12.827816,6.98567325 14.3485808,6.20513466 15.8552954,5.40018363 C16.1510183,5.2424924 16.4601223,5.17915199 16.7143636,5.15078076" id="Fill-2" sketch:type="MSShapeGroup"></path>
                <path d="M20.4878407,17.1260769 C19.8294894,17.109582 19.2882229,17.6103671 19.3069565,18.2543279 C19.3270282,18.9339178 19.7224404,19.3264963 20.3861442,19.4109502 C20.9862876,19.4874865 21.5998122,18.9180826 21.6325959,18.3110704 C21.6660488,17.69812 21.1281275,17.141912 20.4878407,17.1260769 M18.6332169,18.1428224 C18.5883901,17.4863255 18.8760843,16.9505712 18.5489158,16.3277238 C18.2846386,15.8262789 18.5689875,15.3010814 19.1330019,15.0332042 C19.7070521,14.7607085 20.2369447,14.9177399 20.5199554,15.4224838 C20.8725481,16.0499497 21.193026,16.1819089 21.8292985,15.7728354 C22.3451408,15.4416179 22.8757024,15.6441752 23.2316403,16.1198881 C23.5982831,16.6087969 23.596276,17.2151494 23.09716,17.5226143 C22.4802902,17.9026567 22.4287728,18.4859163 22.1711862,19.0652171 C22.7586176,19.0401449 23.3520704,19.0480624 23.4196451,19.7514049 C23.4865507,20.4395721 22.8977813,20.572191 22.3852842,20.7410988 C21.3415565,21.0841927 21.3188086,21.1792033 22.0487489,21.9927317 C22.2441133,22.2098045 22.4789521,22.4037845 22.5532173,22.7000329 C22.6381874,23.045766 22.5418433,23.3426742 22.2374228,23.5432521 C21.9376856,23.7398713 21.6085099,23.7497682 21.3301825,23.524118 C21.0585457,23.3024266 20.8216998,23.0371886 20.5808396,22.780528 C19.8381871,21.9914121 18.9523567,21.7789578 17.9226792,22.1194125 C17.7547461,22.1754952 17.5821296,22.2177221 17.4175417,22.2810625 C16.8742681,22.489558 16.3838499,22.4532692 16.1971832,21.8383394 C16.0138618,21.2339664 16.3871951,20.9199035 16.9545548,20.7820062 C17.1546026,20.7331813 17.349298,20.6599439 17.5433243,20.5906653 C18.0250448,20.4177988 18.1361081,20.1367257 17.7848536,19.7362296 C17.610899,19.537631 17.4228942,19.350249 17.2482705,19.1523102 C16.9425118,18.8059173 16.8475058,18.4159779 17.1619622,18.0445128 C17.4724043,17.6770065 17.8691547,17.6684292 18.2725956,17.9297083 C18.3649253,17.9897498 18.4626075,18.0418737 18.6332169,18.1428224" id="Fill-3" sketch:type="MSShapeGroup"></path>
                <path d="M12.4263823,16.1027334 C12.3574695,16.7255808 12.9101099,16.8720555 13.3878161,16.9043855 C13.9478161,16.9426536 14.3552714,16.5744875 14.3780193,16.003764 C14.4021053,15.3921332 14.0361316,15.0035134 13.4018663,15.008132 C12.7662629,15.0120907 12.4564898,15.4026899 12.4263823,16.1027334 M11.399381,17.4770883 C11.5010775,17.1979947 11.3599067,17.0680149 10.9745303,16.9043855 C10.269345,16.6048381 10.2378994,15.3631022 10.9283654,15.0279258 C11.3204324,14.8379046 11.4375172,14.6881309 11.3625829,14.2777379 C11.280958,13.8336952 11.4997394,13.4906013 11.9098709,13.2741883 C12.327362,13.0531566 12.7388316,13.1006619 13.0586404,13.407467 C13.3262629,13.6654472 13.4707791,13.6779834 13.7464302,13.414065 C14.0622248,13.1112187 14.4703491,13.051837 14.8945307,13.2675903 C15.3481508,13.4971993 15.5689394,13.8746026 15.4605523,14.3430577 C15.362201,14.7640075 15.5261198,14.8834305 15.8820577,15.0068124 C16.3122608,15.1552665 16.516323,15.5161748 16.5143158,15.9654959 C16.5123087,16.4214148 16.278139,16.8060759 15.8566336,16.9070247 C15.4090349,17.0145714 15.3949848,17.2012936 15.4665738,17.5674804 C15.552882,18.011523 15.3575176,18.3724314 14.9587601,18.5974218 C14.5626788,18.8217524 14.1304685,18.8184535 13.8012928,18.5195659 C13.50557,18.2523486 13.3403131,18.2167196 13.0338853,18.5103288 C12.7134074,18.8158143 12.2785209,18.823072 11.8777562,18.6046796 C11.470301,18.3829881 11.3050441,18.0326365 11.399381,17.4770883" id="Fill-4" sketch:type="MSShapeGroup"></path>
                <path d="M18.8386171,2.40405031 C18.8519983,3.53098176 17.9046147,4.49098483 16.7752478,4.49560341 C15.6251401,4.49956218 14.7045187,3.5732087 14.7112093,2.41790602 C14.7172308,1.30021172 15.5936945,0.408167617 16.7170399,0.376497413 C17.8470758,0.343507616 18.824567,1.27909825 18.8386171,2.40405031" id="Fill-5" sketch:type="MSShapeGroup"></path>
                <path d="M20.5112577,18.445009 C20.2523329,18.4047614 20.0783783,18.2873177 20.0890832,18.0003065 C20.1004572,17.7192334 20.2811024,17.5701196 20.5333366,17.5800165 C20.7808874,17.5899134 20.9688922,17.7436459 20.9635397,18.0227396 C20.9581873,18.3077714 20.7621538,18.40938 20.5112577,18.445009" id="Fill-6" sketch:type="MSShapeGroup"></path>
            </g>
        </g>
    </g>
</svg>