<?xml version="1.0" encoding="UTF-8" standalone="no"?>
<svg width="60px" height="60px" viewBox="0 0 60 60" version="1.1" xmlns="http://www.w3.org/2000/svg" xmlns:xlink="http://www.w3.org/1999/xlink" xmlns:sketch="http://www.bohemiancoding.com/sketch/ns">
    <!-- Generator: Sketch 3.3.2 (12043) - http://www.bohemiancoding.com/sketch -->
    <title>aventura-ap-microwave</title>
    <desc>Created with Sketch.</desc>
    <defs></defs>
    <g id="kit" stroke="none" stroke-width="1" fill="none" fill-rule="evenodd" sketch:type="MSPage">
        <g id="aventura-ap-microwave" sketch:type="MSArtboardGroup" fill="#FFFFFF">
            <g id="Imported-Layers" sketch:type="MSLayerGroup" transform="translate(9.000000, 15.000000)">
                <path d="M29.306,6 L8.694,6 C7.762,6 7,6.762 7,7.694 L7,19.306 C7,20.238 7.762,21 8.694,21 L29.306,21 C30.238,21 31,20.238 31,19.306 L31,7.694 C31,6.762 30.238,6 29.306,6" id="Fill-1" sketch:type="MSShapeGroup"></path>
                <path d="M34.5,6 C33.119,6 32,7.119 32,8.5 C32,9.881 33.119,11 34.5,11 C35.881,11 37,9.881 37,8.5 C37,7.119 35.881,6 34.5,6" id="Fill-2" sketch:type="MSShapeGroup"></path>
                <path d="M34.5,13 C33.119,13 32,13.4475318 32,14.0002956 C32,14.5524682 33.119,15 34.5,15 C35.881,15 37,14.5524682 37,14.0002956 C37,13.4475318 35.881,13 34.5,13" id="Fill-3" sketch:type="MSShapeGroup"></path>
                <path d="M34.5,17 C33.119,17 32,17.4475318 32,17.9997044 C32,18.5524682 33.119,19 34.5,19 C35.881,19 37,18.5524682 37,17.9997044 C37,17.4475318 35.881,17 34.5,17" id="Fill-4" sketch:type="MSShapeGroup"></path>
                <path d="M36.4698044,0 L5.52919264,0 C2.48026363,0 0,2.49959935 0,5.57206564 L0,21.5840504 C0,24.5029439 2.24056164,26.9015086 5.07987678,27.1328781 C5.14205889,28.1725255 6.04871409,29 7.16899491,29 C8.2802493,29 9.18088688,28.1846497 9.25510423,27.1561161 L32.262483,27.1561161 C32.3367003,28.1846497 33.2373379,29 34.3485923,29 C35.4598467,29 36.3604843,28.1846497 36.4347016,27.1561161 L36.4698044,27.1561161 C39.5187334,27.1561161 42,24.6565167 42,21.5840504 L42,5.57206564 C42,2.49959935 39.5187334,0 36.4698044,0 L36.4698044,0 Z M39.1145498,21.5840504 C39.1145498,23.0530955 37.9280751,24.2483364 36.4698044,24.2483364 L5.52919264,24.2483364 C4.07092199,24.2483364 2.88545025,23.0530955 2.88545025,21.5840504 L2.88545025,5.57206564 C2.88545025,4.10201024 4.07092199,2.90777967 5.52919264,2.90777967 L36.4698044,2.90777967 C37.9280751,2.90777967 39.1145498,4.10201024 39.1145498,5.57206564 L39.1145498,21.5840504 L39.1145498,21.5840504 Z" id="Fill-5" sketch:type="MSShapeGroup"></path>
            </g>
        </g>
    </g>
</svg>