<?xml version="1.0" encoding="UTF-8" standalone="no"?>
<svg width="60px" height="60px" viewBox="0 0 60 60" version="1.1" xmlns="http://www.w3.org/2000/svg" xmlns:xlink="http://www.w3.org/1999/xlink" xmlns:sketch="http://www.bohemiancoding.com/sketch/ns">
    <!-- Generator: Sketch 3.3.2 (12043) - http://www.bohemiancoding.com/sketch -->
    <title>aventura-ap-facilities-massage</title>
    <desc>Created with Sketch.</desc>
    <defs></defs>
    <g id="kit" stroke="none" stroke-width="1" fill="none" fill-rule="evenodd" sketch:type="MSPage">
        <g id="aventura-ap-facilities-massage" sketch:type="MSArtboardGroup" fill="#FFFFFF">
            <g id="Imported-Layers" sketch:type="MSLayerGroup" transform="translate(11.000000, 11.000000)">
                <path d="M20.18128,35.0856923 L11.10888,35.0856923 C8.48632,35.0856923 5.86228,35.0900769 3.23972,35.0842308 C1.56436,35.0798462 1.0286,34.5449231 1.06116,32.9182308 C1.08632,31.7504615 1.11888,30.5812308 1.16328,29.4134615 C1.19732,28.4693077 1.87664,27.8934615 2.79424,28.1974615 C7.44588,29.735 12.15672,29.4675385 16.88532,28.7265385 C17.94648,28.5599231 18.9884,28.2763846 20.0392,28.044 C21.1566,27.797 22.15708,27.892 23.03768,28.7543077 C24.52212,30.2085385 26.07464,31.5955385 27.57832,33.0336923 C28.15404,33.5846923 28.79784,33.9047692 29.6,34.0158462 C31.29312,34.2511538 32.97588,34.5624615 34.66752,34.8094615 C35.47412,34.9263846 36.02172,35.3326923 35.99804,36.1321538 C35.97288,36.9915385 35.32464,37.2356154 34.52248,37.2297692 C32.17964,37.2136923 29.83384,37.1800769 27.49248,37.2370769 C25.57588,37.2838462 24.36376,36.0225385 22.9844,35.0564615 C22.21628,34.5171538 21.4822,33.9266923 20.7422,33.3479231 C20.2982,33.0000769 19.832,32.7238462 19.36728,33.2441538 C18.86408,33.8053846 19.1808,34.2511538 19.68104,34.6296923 C19.78464,34.7086154 19.87344,34.8036154 20.18128,35.0856923" id="Fill-1" sketch:type="MSShapeGroup"></path>
                <path d="M13.5642,14.1608462 C10.36148,14.1593846 7.84696,11.7434615 7.77888,8.56169231 C7.76556,7.97415385 7.76704,7.64823077 6.96636,7.70376923 C6.02064,7.76953846 5.54704,7.087 5.40792,6.20715385 C5.11636,4.37876923 6.4454,2.07246154 8.16812,1.40307692 C9.38912,0.928076923 10.45324,1.38992308 10.63972,2.61615385 C10.75516,3.37761538 10.98604,3.28407692 11.5514,3.08969231 C14.6372,2.03153846 17.79996,3.43607692 18.97952,6.34746154 C20.50244,10.1006923 17.686,14.1623077 13.5642,14.1608462" id="Fill-2" sketch:type="MSShapeGroup"></path>
                <path d="M12.08864,21.8222308 C12.19076,23.1332308 12.29732,24.2644615 12.36392,25.3986154 C12.44088,26.7242308 11.85628,27.3921538 10.51096,27.512 C8.7542,27.6669231 7.0226,27.5090769 5.32652,27.0267692 C4.16472,26.6964615 3.74144,25.9203846 4.19728,24.8213077 C5.4242,21.8558462 6.6748,18.9006154 7.955,15.9570769 C8.48928,14.7279231 9.75764,14.4750769 10.7744,15.4338462 C11.655,16.2625385 12.48824,17.1657692 13.20456,18.1362308 C14.72748,20.1984615 16.64704,21.7009231 19.05648,22.6158462 C19.57448,22.8116923 20.06436,23.0879231 20.54684,23.3626923 C21.04264,23.6447692 21.16844,24.1007692 20.96864,24.6108462 C20.78216,25.0873077 20.36184,25.3299231 19.8764,25.2042308 C17.91836,24.7014615 15.95736,24.1986923 14.02744,23.5994615 C13.22232,23.3495385 12.96628,22.3703077 12.08864,21.8222308" id="Fill-3" sketch:type="MSShapeGroup"></path>
                <path d="M30.21124,19.7614615 C33.28668,19.7819231 35.8234,22.3118462 35.79972,25.3343077 C35.77604,28.348 33.17272,30.8852308 30.13724,30.8501538 C27.05884,30.8165385 24.55616,28.3056154 24.56504,25.2612308 C24.57244,22.23 27.1284,19.7395385 30.21124,19.7614615" id="Fill-4" sketch:type="MSShapeGroup"></path>
            </g>
        </g>
    </g>
</svg>