<?xml version="1.0" encoding="UTF-8" standalone="no"?>
<svg width="149px" height="149px" viewBox="0 0 149 149" version="1.1" xmlns="http://www.w3.org/2000/svg" xmlns:xlink="http://www.w3.org/1999/xlink" xmlns:sketch="http://www.bohemiancoding.com/sketch/ns">
    <!-- Generator: Sketch 3.3.2 (12043) - http://www.bohemiancoding.com/sketch -->
    <title>aventura-afirca-room-logo</title>
    <desc>Created with Sketch.</desc>
    <defs></defs>
    <g id="kit" stroke="none" stroke-width="1" fill="none" fill-rule="evenodd" sketch:type="MSPage">
        <g id="aventura-afirca-room-logo" sketch:type="MSArtboardGroup">
            <g id="africa-logo-copy" sketch:type="MSLayerGroup" transform="translate(6.000000, 6.000000)">
                <path d="M21.0801923,21.7622908 C20.6881731,21.3443066 20.6881731,20.6957103 21.1092308,20.2921392 C21.5157692,19.8885682 22.1836538,19.9029815 22.5756731,20.3065525 C22.9822115,20.7101235 22.9822115,21.3731331 22.5611538,21.7767041 C22.3578846,21.9784896 22.0965385,22.0649691 21.8351923,22.0649691 C21.5593269,22.0649691 21.2979808,21.9640764 21.0801923,21.7622908 L21.0801923,21.7622908 Z M18.3360577,24.702594 C17.9004808,24.3278495 17.8569231,23.66484 18.2489423,23.2468557 C18.6409615,22.8144582 19.2943269,22.7856317 19.7299038,23.1603762 C20.1654808,23.549534 20.1945192,24.1981303 19.8025,24.644941 C19.5992308,24.8611398 19.3088462,24.9764458 19.0329808,24.9764458 C18.7716346,24.9764458 18.5248077,24.8899663 18.3360577,24.702594 L18.3360577,24.702594 Z M15.7516346,27.8158563 C15.3015385,27.4699382 15.2289423,26.8069287 15.5919231,26.3601179 C15.9403846,25.9133071 16.59375,25.8412409 17.0583654,26.2015722 C17.5084615,26.5474902 17.5810577,27.2104997 17.2180769,27.6573105 C17.0148077,27.9023358 16.7099038,28.0464683 16.405,28.0464683 C16.1726923,28.0464683 15.9403846,27.9599888 15.7516346,27.8158563 L15.7516346,27.8158563 Z M13.3704808,31.073251 C12.9058654,30.7561595 12.7897115,30.0931499 13.1236538,29.6319259 C13.4430769,29.1707019 14.0964423,29.0553958 14.5755769,29.3724874 C15.0547115,29.7184054 15.1563462,30.3525884 14.8224038,30.8282257 C14.6191346,31.1164907 14.2997115,31.2606232 13.9802885,31.2606232 C13.7625,31.2606232 13.5592308,31.2029702 13.3704808,31.073251 L13.3704808,31.073251 Z M11.1925962,34.4747782 C10.6989423,34.1720999 10.55375,33.5379169 10.8441346,33.0478664 C11.1635577,32.5722291 11.8024038,32.4136833 12.2960577,32.7163616 C12.7751923,33.0190399 12.9349038,33.6388097 12.63,34.1432734 C12.4267308,34.460365 12.0927885,34.633324 11.7443269,34.633324 C11.5555769,34.633324 11.3668269,34.5900842 11.1925962,34.4747782 L11.1925962,34.4747782 Z M9.2325,38.0060247 C8.72432692,37.7321729 8.53557692,37.0979899 8.79692308,36.5935261 C9.07278846,36.0890623 9.71163462,35.9016901 10.2198077,36.1755418 C10.7279808,36.4349803 10.9167308,37.0691634 10.6408654,37.5736272 C10.4521154,37.9339585 10.0891346,38.135744 9.72615385,38.135744 C9.55192308,38.135744 9.39221154,38.0925042 9.2325,38.0060247 L9.2325,38.0060247 Z M7.49019231,41.6525772 C6.9675,41.4075519 6.73519231,40.7877821 6.98201923,40.2689051 C7.21432692,39.7500281 7.83865385,39.5194161 8.36134615,39.7644413 C8.88403846,39.9950533 9.11634615,40.6148231 8.86951923,41.1337002 L8.88403846,41.1337002 C8.69528846,41.5084447 8.31778846,41.7390567 7.92576923,41.7390567 C7.78057692,41.7390567 7.62086538,41.7102302 7.49019231,41.6525772 L7.49019231,41.6525772 Z M5.98019231,45.3856092 C5.44298077,45.1694104 5.16711538,44.5784672 5.38490385,44.0307636 C5.58817308,43.4974733 6.18346154,43.2380348 6.73519231,43.4398203 C7.27240385,43.6560191 7.53375,44.2469624 7.33048077,44.7802527 C7.17076923,45.1982369 6.77875,45.4432622 6.35769231,45.4432622 C6.22701923,45.4432622 6.11086538,45.428849 5.98019231,45.3856092 L5.98019231,45.3856092 Z M4.7025,49.2051207 C4.15076923,49.0321617 3.84586538,48.4556317 4.02009615,47.8935149 C4.19432692,47.3602246 4.78961538,47.0575463 5.32682692,47.2305053 C5.87855769,47.3890511 6.18346154,47.9799944 6.00923077,48.5276979 C5.86403846,48.9600955 5.4575,49.2483605 5.00740385,49.2483605 C4.90576923,49.2483605 4.80413462,49.2483605 4.7025,49.2051207 L4.7025,49.2051207 Z M3.65711538,53.0966985 C3.10538462,52.9669792 2.75692308,52.4048624 2.90211538,51.8427456 C3.04730769,51.2806289 3.61355769,50.9491241 4.16528846,51.0932566 C4.71701923,51.2229759 5.06548077,51.7850926 4.92028846,52.3472094 C4.81865385,52.8228467 4.38307692,53.125525 3.90394231,53.125525 C3.83134615,53.125525 3.74423077,53.125525 3.65711538,53.0966985 L3.65711538,53.0966985 Z M2.85855769,57.0603425 C2.29230769,56.9450365 1.92932692,56.397333 2.03096154,55.8352162 C2.13259615,55.2730994 2.66980769,54.9127681 3.23605769,55.0136609 C3.80230769,55.1145536 4.17980769,55.6478439 4.09269231,56.2099607 C3.99105769,56.7144245 3.55548077,57.0603425 3.04730769,57.0603425 L2.85855769,57.0603425 L2.85855769,57.0603425 Z M2.32134615,61.0383998 C1.74057692,60.9807468 1.33403846,60.4474565 1.40663462,59.8853397 C1.46471154,59.3088097 2.00192308,58.9052386 2.56817308,58.9773049 C3.13442308,59.0493711 3.55548077,59.5682482 3.48288462,60.130365 C3.41028846,60.6636552 2.96019231,61.052813 2.45201923,61.052813 L2.32134615,61.0383998 L2.32134615,61.0383998 Z M2.00192308,65.0596968 C1.43567308,65.0308703 1.00009615,64.5264065 1.02913462,63.9642897 C1.05817308,63.3877597 1.56634615,62.9553622 2.13259615,62.9841887 C2.71336538,63.0130152 3.14894231,63.5174789 3.11990385,64.0795957 C3.07634615,64.6417125 2.62625,65.0596968 2.07451923,65.0596968 L2.00192308,65.0596968 L2.00192308,65.0596968 Z" id="Fill-2" fill="#FFCD00" sketch:type="MSShapeGroup"></path>
                <path d="M62.9246154,2.39088153 C62.8810577,1.82876474 63.3166346,1.32430095 63.8974038,1.29547445 C64.4781731,1.26664795 64.9718269,1.69904548 65.0008654,2.26116227 C65.0444231,2.82327906 64.6088462,3.32774284 64.0280769,3.35656934 L63.97,3.35656934 C63.4182692,3.35656934 62.9536538,2.93858506 62.9246154,2.39088153 L62.9246154,2.39088153 Z M58.6414423,2.86651881 C58.5688462,2.30440202 58.9753846,1.78552499 59.5416346,1.71345873 C60.1224038,1.64139248 60.6305769,2.0449635 60.7176923,2.60708029 C60.7902885,3.16919708 60.38375,3.70248737 59.8175,3.77455362 L59.6723077,3.77455362 C59.1496154,3.77455362 58.6995192,3.3998091 58.6414423,2.86651881 L58.6414423,2.86651881 Z M54.4018269,3.63042111 C54.2856731,3.06830432 54.6631731,2.52060079 55.2294231,2.40529478 C55.7956731,2.28998877 56.3328846,2.6647333 56.4490385,3.22685008 C56.5506731,3.78896687 56.1876923,4.33667041 55.6214423,4.45197642 L55.6359615,4.45197642 L55.4181731,4.46638967 C54.9390385,4.46638967 54.5034615,4.12047165 54.4018269,3.63042111 L54.4018269,3.63042111 Z M50.2202885,4.65376193 C50.0750962,4.10605839 50.3945192,3.52952835 50.9607692,3.38539585 C51.5125,3.24126334 52.0932692,3.57276811 52.2384615,4.12047165 C52.3836538,4.68258843 52.0497115,5.24470522 51.4979808,5.38883773 C51.4108654,5.41766423 51.3092308,5.43207748 51.2221154,5.43207748 C50.7575,5.43207748 50.3364423,5.11498596 50.2202885,4.65376193 L50.2202885,4.65376193 Z M46.1113462,5.95095452 C45.9225962,5.40325098 46.2275,4.82672094 46.7647115,4.63934868 C47.3164423,4.46638967 47.8972115,4.74024144 48.0859615,5.28794497 C48.2747115,5.83564851 47.9843269,6.41217855 47.4325962,6.59955081 C47.3309615,6.64279057 47.2148077,6.65720382 47.0986538,6.65720382 C46.6630769,6.65720382 46.2565385,6.38335205 46.1113462,5.95095452 L46.1113462,5.95095452 Z M42.0895192,7.50758563 C41.8717308,6.97429534 42.1330769,6.3689388 42.6702885,6.15274003 C43.1929808,5.93654127 43.8173077,6.19597979 44.0350962,6.71485682 C44.2528846,7.24814711 43.9915385,7.85350365 43.4543269,8.06970241 C43.3236538,8.12735542 43.1929808,8.15618192 43.0623077,8.15618192 C42.6557692,8.15618192 42.26375,7.91115665 42.0895192,7.50758563 L42.0895192,7.50758563 Z M38.1983654,9.32365525 C37.9515385,8.81919147 38.1548077,8.19942167 38.6775,7.93998316 C39.1856731,7.69495789 39.81,7.91115665 40.0713462,8.41562044 C40.3181731,8.93449747 40.1149038,9.55426727 39.5922115,9.79929253 C39.4470192,9.88577204 39.2873077,9.91459854 39.1275962,9.91459854 C38.7500962,9.91459854 38.3725962,9.69839978 38.1983654,9.32365525 L38.1983654,9.32365525 Z M34.4233654,11.3991634 C34.1329808,10.8946996 34.3072115,10.2605166 34.8153846,9.9866648 C35.3090385,9.69839978 35.9478846,9.87135879 36.2382692,10.3614093 C36.5286538,10.8658731 36.3399038,11.4856429 35.84625,11.7739079 C35.6720192,11.8748007 35.5123077,11.9180404 35.3235577,11.9180404 C34.9605769,11.9180404 34.6121154,11.7306682 34.4233654,11.3991634 L34.4233654,11.3991634 Z M30.7935577,13.7052835 C30.4741346,13.2296463 30.6048077,12.58105 31.0839423,12.2639585 C31.5630769,11.9468669 32.2019231,12.0909994 32.5358654,12.5522235 C32.8552885,13.0278608 32.7100962,13.676457 32.2309615,13.9935486 C32.0567308,14.1088546 31.8534615,14.1665076 31.6647115,14.1665076 C31.31625,14.1665076 30.9968269,13.9935486 30.7935577,13.7052835 L30.7935577,13.7052835 Z M27.3089423,16.2276025 C26.9604808,15.7807917 27.0475962,15.1321954 27.5122115,14.7862774 L27.5267308,14.7862774 C27.9768269,14.4403593 28.6301923,14.5268389 28.9786538,14.9736496 C29.3271154,15.4348737 29.24,16.08347 28.7899038,16.4438012 C28.6011538,16.5735205 28.3688462,16.6455867 28.1510577,16.6455867 C27.8316346,16.6455867 27.5267308,16.5158675 27.3089423,16.2276025 L27.3089423,16.2276025 Z" id="Fill-3" fill="#FFCD00" sketch:type="MSShapeGroup"></path>
                <path d="M72.3911538,3.35656934 C71.8103846,3.31332959 71.3748077,2.82327906 71.4038462,2.26116227 C71.4328846,1.68463223 71.9410577,1.2522347 72.5073077,1.2810612 C73.0880769,1.32430095 73.5236538,1.81435149 73.4946154,2.39088153 C73.4655769,2.92417181 72.9864423,3.35656934 72.4492308,3.35656934 L72.3911538,3.35656934 L72.3911538,3.35656934 Z M76.4565385,3.73131387 C75.8902885,3.65924761 75.48375,3.14037058 75.5563462,2.57825379 C75.6289423,2.016137 76.1516346,1.61256597 76.7178846,1.67021898 C77.2986538,1.74228523 77.7051923,2.26116227 77.6325962,2.82327906 C77.56,3.35656934 77.1244231,3.74572712 76.5872115,3.74572712 L76.4565385,3.73131387 L76.4565385,3.73131387 Z M80.5074038,4.36549691 C79.9411538,4.2501909 79.5781731,3.71690062 79.6798077,3.15478383 C79.7814423,2.59266704 80.3331731,2.21792252 80.8994231,2.33322852 L80.9139423,2.33322852 C81.4656731,2.43412128 81.8431731,2.98182482 81.7270192,3.54394161 C81.6399038,4.03399214 81.1898077,4.37991016 80.7106731,4.37991016 C80.6380769,4.37991016 80.58,4.37991016 80.5074038,4.36549691 L80.5074038,4.36549691 Z M84.5147115,5.24470522 C83.9484615,5.10057271 83.6290385,4.53845592 83.7597115,3.99075239 C83.9049038,3.4286356 84.4856731,3.09713083 85.0374038,3.24126334 C85.5891346,3.38539585 85.9375962,3.94751263 85.7924038,4.49521617 C85.6617308,4.97085345 85.2406731,5.27353172 84.7760577,5.27353172 C84.6889423,5.27353172 84.6018269,5.27353172 84.5147115,5.24470522 L84.5147115,5.24470522 Z M88.4639423,6.38335205 C87.8976923,6.21039304 87.6073077,5.61944975 87.7815385,5.07174621 C87.9557692,4.52404267 88.5510577,4.23577765 89.0882692,4.40873666 C89.6545192,4.58169568 89.9449038,5.17263897 89.7706731,5.7203425 C89.6254808,6.15274003 89.2189423,6.44100505 88.7833654,6.44100505 C88.6672115,6.44100505 88.5510577,6.41217855 88.4639423,6.38335205 L88.4639423,6.38335205 Z M92.3115385,7.75261089 C91.7743269,7.55082538 91.5275,6.94546884 91.7307692,6.41217855 C91.9340385,5.87888827 92.5438462,5.61944975 93.0810577,5.83564851 C93.6182692,6.05184728 93.8941346,6.65720382 93.6763462,7.1904941 C93.5166346,7.59406513 93.1100962,7.8390904 92.7035577,7.8390904 C92.5728846,7.8390904 92.4422115,7.8102639 92.3115385,7.75261089 L92.3115385,7.75261089 Z M96.0865385,9.38130825 C95.5638462,9.13628299 95.3460577,8.51651319 95.5783654,8.01204941 C95.8251923,7.47875912 96.4495192,7.26256036 96.9722115,7.50758563 C97.4949038,7.75261089 97.7126923,8.37238069 97.4658654,8.89125772 C97.2916346,9.26600225 96.9286538,9.48220101 96.5221154,9.48220101 C96.3769231,9.48220101 96.2317308,9.45337451 96.0865385,9.38130825 L96.0865385,9.38130825 Z M99.7453846,11.2406176 C99.2372115,10.9523526 99.0484615,10.3325828 99.3243269,9.82811903 C99.6147115,9.32365525 100.239038,9.13628299 100.747212,9.42454801 C101.255385,9.69839978 101.444135,10.3325828 101.168269,10.8370466 C100.979519,11.1829646 100.616538,11.3703369 100.239038,11.3703369 C100.064808,11.3703369 99.9050962,11.3270971 99.7453846,11.2406176 L99.7453846,11.2406176 Z M103.273558,13.3161258 C102.779904,12.9990343 102.649231,12.3648512 102.954135,11.8892139 C103.259038,11.3991634 103.912404,11.2550309 104.391538,11.5577092 C104.885192,11.8748007 105.015865,12.5089837 104.710962,12.9990343 C104.507692,13.3161258 104.17375,13.4746715 103.825288,13.4746715 C103.636538,13.4746715 103.433269,13.4314318 103.273558,13.3161258 L103.273558,13.3161258 Z M106.656538,15.6078327 C106.191923,15.2763279 106.090288,14.6277316 106.43875,14.1520943 C106.772692,13.6908703 107.411538,13.5899775 107.890673,13.9358956 C108.355288,14.2674003 108.456923,14.9159966 108.122981,15.3772207 C107.919712,15.6654857 107.600288,15.8096182 107.266346,15.8096182 C107.063077,15.8096182 106.845288,15.7375519 106.656538,15.6078327 L106.656538,15.6078327 Z M109.908846,18.1157383 C109.45875,17.7409938 109.400673,17.0923975 109.763654,16.6455867 C110.126635,16.198776 110.794519,16.141123 111.230096,16.5158675 L111.244615,16.5158675 C111.680192,16.8761988 111.738269,17.5247951 111.360769,17.9716058 C111.172019,18.2166311 110.867115,18.3463504 110.562212,18.3463504 C110.329904,18.3463504 110.097596,18.2742841 109.908846,18.1157383 L109.908846,18.1157383 Z M112.972404,20.8110163 C112.551346,20.4074453 112.536827,19.7444357 112.928846,19.3408647 C113.320865,18.9228804 113.98875,18.8940539 114.409808,19.2976249 C114.830865,19.6867827 114.845385,20.335379 114.453365,20.7533633 C114.235577,20.969562 113.959712,21.0848681 113.683846,21.0848681 C113.437019,21.0848681 113.175673,20.9983885 112.972404,20.8110163 L112.972404,20.8110163 Z M115.87625,23.6792532 C115.469712,23.261269 115.49875,22.5982594 115.919808,22.2235149 C116.340865,21.8199439 117.00875,21.8487704 117.400769,22.2523414 C117.792788,22.6847389 117.778269,23.3333352 117.357212,23.722493 C117.153942,23.9098652 116.892596,24.010758 116.645769,24.010758 C116.355385,24.010758 116.079519,23.895452 115.87625,23.6792532 L115.87625,23.6792532 Z M118.591346,26.7348624 C118.228365,26.3024649 118.286442,25.6394554 118.722019,25.2647108 C119.172115,24.9187928 119.825481,24.9764458 120.202981,25.4088433 C120.551442,25.8556541 120.493365,26.5042504 120.057788,26.8645817 C119.869038,27.0231275 119.622212,27.109607 119.389904,27.109607 C119.085,27.109607 118.794615,26.9798877 118.591346,26.7348624 L118.591346,26.7348624 Z M121.103173,29.9490174 C120.754712,29.4877934 120.870865,28.8391971 121.335481,28.4932791 C121.800096,28.1617743 122.453462,28.262667 122.787404,28.7238911 C123.121346,29.1851151 123.019712,29.8481246 122.555096,30.1796294 C122.380865,30.3093487 122.163077,30.3814149 121.945288,30.3814149 C121.625865,30.3814149 121.306442,30.2228692 121.103173,29.9490174 L121.103173,29.9490174 Z M123.397212,33.3073049 C123.092308,32.8316676 123.2375,32.1974846 123.731154,31.8948063 C124.224808,31.5777148 124.863654,31.7218473 125.168558,32.1974846 C125.487981,32.6875351 125.328269,33.3361314 124.849135,33.6388097 C124.674904,33.7397024 124.471635,33.7973554 124.282885,33.7973554 C123.934423,33.7973554 123.600481,33.6243964 123.397212,33.3073049 L123.397212,33.3073049 Z M125.5025,36.8097249 C125.226635,36.3196743 125.400865,35.6854913 125.909038,35.3972263 C126.417212,35.1233745 127.041538,35.3107468 127.317404,35.8152106 C127.607788,36.3196743 127.419038,36.9394441 126.910865,37.2277092 C126.751154,37.3141887 126.591442,37.3430152 126.417212,37.3430152 C126.054231,37.3430152 125.69125,37.1556429 125.5025,36.8097249 L125.5025,36.8097249 Z M127.360962,40.4418641 C127.114135,39.9229871 127.346442,39.288804 127.854615,39.058192 C128.377308,38.8131668 129.001635,39.0293655 129.248462,39.5482426 C129.495288,40.0671196 129.2775,40.6868894 128.754808,40.9319147 C128.609615,41.0039809 128.449904,41.0328074 128.304712,41.0328074 C127.912692,41.0328074 127.535192,40.8021954 127.360962,40.4418641 L127.360962,40.4418641 Z M128.987115,44.1604829 C128.769327,43.6271926 129.030673,43.021836 129.582404,42.8200505 C130.105096,42.618265 130.714904,42.8777035 130.932692,43.4109938 C131.135962,43.9442841 130.889135,44.5352274 130.351923,44.7514262 C130.22125,44.7946659 130.090577,44.8234924 129.959904,44.8234924 C129.538846,44.8234924 129.146827,44.5640539 128.987115,44.1604829 L128.987115,44.1604829 Z M130.380962,47.9799944 C130.192212,47.4467041 130.497115,46.8557608 131.048846,46.6828018 C131.600577,46.5098428 132.181346,46.7981078 132.370096,47.3602246 C132.544327,47.8935149 132.239423,48.4844582 131.687692,48.6574172 C131.586058,48.6862437 131.484423,48.7150702 131.368269,48.7150702 C130.932692,48.7150702 130.526154,48.4268052 130.380962,47.9799944 L130.380962,47.9799944 Z M131.527981,51.9003987 C131.382788,51.3382819 131.716731,50.7761651 132.282981,50.6464458 C132.834712,50.5023133 133.400962,50.8338181 133.546154,51.3815216 C133.691346,51.9436384 133.357404,52.5057552 132.791154,52.6498877 C132.704038,52.664301 132.631442,52.6787142 132.529808,52.6787142 C132.065192,52.6787142 131.644135,52.3760359 131.527981,51.9003987 L131.527981,51.9003987 Z M132.413654,55.8640427 C132.312019,55.3019259 132.675,54.7686356 133.24125,54.6677428 C133.8075,54.5524368 134.359231,54.9271814 134.460865,55.4892981 C134.577019,56.0514149 134.199519,56.5847052 133.633269,56.7000112 L133.444519,56.7144245 C132.936346,56.7144245 132.500769,56.3685065 132.413654,55.8640427 L132.413654,55.8640427 Z M133.0525,59.8997529 C132.979904,59.3232229 133.386442,58.8043459 133.952692,58.7322796 C134.533462,58.6602134 135.056154,59.0637844 135.12875,59.6259012 C135.186827,60.2024312 134.794808,60.7213083 134.214038,60.7933745 L134.083365,60.7933745 C133.575192,60.7933745 133.125096,60.41863 133.0525,59.8997529 L133.0525,59.8997529 Z M133.444519,63.9498765 C133.400962,63.3733464 133.836538,62.8832959 134.417308,62.8544694 C134.998077,62.8112296 135.477212,63.2436272 135.520769,63.8201572 C135.564327,64.3966873 135.12875,64.8723245 134.547981,64.9155643 L134.475385,64.9155643 C133.923654,64.9155643 133.473558,64.49758 133.444519,63.9498765 L133.444519,63.9498765 Z" id="Fill-4" fill="#FFCD00" sketch:type="MSShapeGroup"></path>
                <path d="M134.417308,73.2175969 C133.836538,73.1887704 133.400962,72.6987198 133.444519,72.1221898 C133.473558,71.5456597 133.967212,71.1132622 134.547981,71.1420887 C135.12875,71.1853285 135.564327,71.675379 135.520769,72.251909 C135.491731,72.7996126 135.027115,73.2175969 134.475385,73.2175969 L134.417308,73.2175969 L134.417308,73.2175969 Z M133.952692,77.3253734 C133.386442,77.2677204 132.979904,76.7488433 133.0525,76.1723133 C133.139615,75.5957833 133.647788,75.1922122 134.228558,75.2786917 C134.794808,75.350758 135.201346,75.869635 135.12875,76.4317518 C135.056154,76.9506289 134.620577,77.3397866 134.083365,77.3397866 L133.952692,77.3253734 L133.952692,77.3253734 Z M133.255769,81.4043234 C132.689519,81.3034307 132.312019,80.7557271 132.413654,80.1936103 C132.529808,79.6314935 133.067019,79.2711623 133.633269,79.372055 C134.199519,79.4729478 134.591538,80.0206513 134.475385,80.5827681 C134.37375,81.0872319 133.938173,81.4331499 133.444519,81.4331499 L133.255769,81.4043234 L133.255769,81.4043234 Z M132.282981,85.4256204 C131.716731,85.2959012 131.382788,84.7337844 131.527981,84.1716676 C131.673173,83.6095508 132.239423,83.278046 132.805673,83.4221786 C133.357404,83.5663111 133.705865,84.1284278 133.546154,84.6905446 C133.43,85.1517687 133.008942,85.4688602 132.529808,85.4688602 C132.457212,85.4688602 132.370096,85.4544469 132.282981,85.4256204 L132.282981,85.4256204 Z M131.048846,89.3892645 C130.511635,89.2163054 130.206731,88.6253622 130.380962,88.0920719 C130.569712,87.5299551 131.150481,87.2416901 131.702212,87.4146491 C132.239423,87.5876081 132.558846,88.1785514 132.370096,88.7118417 C132.224904,89.1586524 131.818365,89.4469175 131.382788,89.4469175 C131.266635,89.4469175 131.165,89.418091 131.048846,89.3892645 L131.048846,89.3892645 Z M129.582404,93.266429 C129.045192,93.0502302 128.783846,92.4592869 128.987115,91.9259966 C129.204904,91.3782931 129.814712,91.1188546 130.351923,91.3350533 C130.889135,91.5368389 131.150481,92.1421954 130.932692,92.6754857 C130.772981,93.0790567 130.380962,93.324082 129.974423,93.324082 C129.84375,93.324082 129.713077,93.3096687 129.582404,93.266429 L129.582404,93.266429 Z M127.854615,97.0282875 C127.346442,96.7832622 127.114135,96.1779057 127.360962,95.6590286 C127.607788,95.1401516 128.232115,94.9239528 128.754808,95.1545649 C129.2775,95.3995901 129.495288,96.0193599 129.248462,96.5382369 C129.074231,96.9129815 128.696731,97.1291802 128.304712,97.1291802 C128.159519,97.1291802 128.014327,97.1003537 127.854615,97.0282875 L127.854615,97.0282875 Z M125.909038,100.703666 C125.400865,100.415401 125.212115,99.7956317 125.487981,99.2911679 C125.778365,98.7867041 126.402692,98.5993318 126.910865,98.8875969 C127.419038,99.1614486 127.607788,99.7812184 127.317404,100.285682 C127.128654,100.6316 126.780192,100.833386 126.402692,100.833386 C126.242981,100.833386 126.06875,100.775733 125.909038,100.703666 L125.909038,100.703666 Z M123.731154,104.2205 C123.2375,103.903408 123.092308,103.283638 123.397212,102.793588 C123.716635,102.303537 124.355481,102.159405 124.849135,102.476496 C125.328269,102.779175 125.473462,103.413358 125.168558,103.903408 C124.965288,104.2205 124.631346,104.379045 124.282885,104.379045 C124.094135,104.379045 123.905385,104.335806 123.731154,104.2205 L123.731154,104.2205 Z M121.320962,107.607614 C120.856346,107.261696 120.754712,106.613099 121.088654,106.166289 C121.437115,105.690651 122.090481,105.589759 122.555096,105.935677 C123.019712,106.267181 123.121346,106.915778 122.787404,107.377002 C122.584135,107.650853 122.264712,107.794986 121.945288,107.794986 C121.7275,107.794986 121.509712,107.737333 121.320962,107.607614 L121.320962,107.607614 Z M118.722019,110.836182 C118.271923,110.461437 118.213846,109.812841 118.576827,109.36603 L118.576827,109.380444 C118.939808,108.933633 119.607692,108.861567 120.057788,109.236311 C120.493365,109.596642 120.551442,110.259652 120.188462,110.692049 C119.985192,110.937075 119.680288,111.066794 119.389904,111.066794 C119.143077,111.066794 118.910769,110.994728 118.722019,110.836182 L118.722019,110.836182 Z M115.919808,113.891791 C115.484231,113.502633 115.469712,112.854037 115.861731,112.42164 C116.268269,112.003655 116.921635,111.989242 117.342692,112.3784 C117.76375,112.781971 117.778269,113.430567 117.38625,113.848551 C117.182981,114.06475 116.907115,114.165643 116.63125,114.165643 C116.369904,114.165643 116.108558,114.079163 115.919808,113.891791 L115.919808,113.891791 Z M112.914327,116.774441 C112.522308,116.356457 112.536827,115.707861 112.972404,115.30429 C113.393462,114.915132 114.046827,114.929545 114.438846,115.361943 C114.845385,115.765514 114.816346,116.428523 114.395288,116.817681 C114.192019,117.005053 113.930673,117.091533 113.669327,117.091533 C113.393462,117.091533 113.132115,116.99064 112.914327,116.774441 L112.914327,116.774441 Z M109.749135,119.469719 C109.386154,119.022908 109.444231,118.374312 109.894327,117.999568 C110.329904,117.639236 110.983269,117.696889 111.360769,118.1437 C111.72375,118.576098 111.665673,119.224694 111.215577,119.599439 C111.026827,119.757984 110.794519,119.830051 110.562212,119.830051 C110.257308,119.830051 109.952404,119.714745 109.749135,119.469719 L109.749135,119.469719 Z M106.424231,121.948798 C106.090288,121.473161 106.191923,120.838978 106.656538,120.507473 L106.656538,120.49306 C107.121154,120.161555 107.774519,120.262448 108.108462,120.723672 C108.456923,121.199309 108.340769,121.833492 107.890673,122.164997 C107.701923,122.30913 107.484135,122.366783 107.266346,122.366783 C106.946923,122.366783 106.6275,122.22265 106.424231,121.948798 L106.424231,121.948798 Z M102.939615,124.211679 C102.634712,123.736042 102.779904,123.087445 103.259038,122.784767 L103.259038,122.79918 C103.752692,122.482089 104.391538,122.626221 104.696442,123.116272 C105.015865,123.577496 104.870673,124.226092 104.391538,124.543184 C104.217308,124.644076 104.014038,124.701729 103.825288,124.701729 C103.476827,124.701729 103.142885,124.52877 102.939615,124.211679 L102.939615,124.211679 Z M99.3243269,126.272774 C99.0484615,125.76831 99.2372115,125.134127 99.7453846,124.860275 C100.239038,124.586423 100.877885,124.773796 101.168269,125.278259 C101.444135,125.782723 101.255385,126.402493 100.747212,126.676345 C100.5875,126.762824 100.413269,126.806064 100.239038,126.806064 C99.8760577,126.806064 99.5130769,126.618692 99.3243269,126.272774 L99.3243269,126.272774 Z M95.5928846,128.088843 C95.3460577,127.569966 95.5783654,126.950197 96.0865385,126.719585 C96.6092308,126.460146 97.2335577,126.690758 97.4803846,127.209635 C97.7272115,127.728512 97.4949038,128.348282 96.9867308,128.593307 C96.8415385,128.65096 96.6818269,128.6942 96.5366346,128.6942 C96.1446154,128.6942 95.7671154,128.463588 95.5928846,128.088843 L95.5928846,128.088843 Z M91.7452885,129.674301 C91.5275,129.141011 91.8033654,128.535654 92.3405769,128.333869 L92.3405769,128.319455 C92.8777885,128.11767 93.4875962,128.377108 93.6908654,128.910399 C93.8941346,129.443689 93.6473077,130.049045 93.1100962,130.265244 L93.1100962,130.250831 C92.9794231,130.308484 92.84875,130.322897 92.7180769,130.322897 C92.2970192,130.322897 91.905,130.077872 91.7452885,129.674301 L91.7452885,129.674301 Z M87.8105769,131.014733 C87.6363462,130.46703 87.9267308,129.8905 88.4784615,129.703127 C89.0301923,129.530168 89.6254808,129.832847 89.7997115,130.366137 C89.9884615,130.928254 89.6835577,131.504784 89.1318269,131.677743 C89.0301923,131.706569 88.9140385,131.735396 88.8124038,131.735396 C88.3623077,131.735396 87.9557692,131.461544 87.8105769,131.014733 L87.8105769,131.014733 Z M83.78875,132.11014 C83.6580769,131.548024 83.9775,130.985907 84.54375,130.841774 C85.11,130.697642 85.67625,131.029147 85.8069231,131.591263 C85.9666346,132.15338 85.6181731,132.715497 85.0664423,132.845216 C84.9793269,132.874043 84.8922115,132.888456 84.8050962,132.888456 C84.3404808,132.888456 83.9194231,132.571364 83.78875,132.11014 L83.78875,132.11014 Z M79.7088462,132.946109 C79.6072115,132.369579 79.9701923,131.836289 80.5364423,131.735396 C81.1026923,131.62009 81.6544231,131.994834 81.7705769,132.556951 C81.8722115,133.119068 81.4947115,133.652358 80.9429808,133.767664 L80.7397115,133.782077 C80.2460577,133.782077 79.8104808,133.436159 79.7088462,132.946109 L79.7088462,132.946109 Z M75.5853846,133.522639 C75.5127885,132.960522 75.9193269,132.427232 76.4855769,132.369579 C77.0663462,132.297513 77.5890385,132.68667 77.6616346,133.2632 C77.7342308,133.825317 77.3276923,134.344194 76.7469231,134.416261 L76.61625,134.430674 C76.1080769,134.430674 75.6579808,134.041516 75.5853846,133.522639 L75.5853846,133.522639 Z M71.4328846,133.83973 C71.4038462,133.277614 71.8394231,132.77315 72.4201923,132.744323 C72.9864423,132.715497 73.4946154,133.147894 73.5236538,133.724424 C73.5526923,134.286541 73.1171154,134.776592 72.5363462,134.819832 L72.4782692,134.819832 C71.9265385,134.819832 71.4619231,134.387434 71.4328846,133.83973 L71.4328846,133.83973 Z" id="Fill-5" fill="#FFCD00" sketch:type="MSShapeGroup"></path>
                <path d="M1.04365385,72.2807355 C1.00009615,71.7042055 1.43567308,71.214155 2.01644231,71.1709152 C2.59721154,71.1420887 3.09086538,71.5888995 3.11990385,72.1510163 C3.16346154,72.7131331 2.72788462,73.2175969 2.14711538,73.2464234 L2.07451923,73.2464234 C1.52278846,73.2464234 1.07269231,72.8284391 1.04365385,72.2807355 L1.04365385,72.2807355 Z M1.43567308,76.4605783 C1.36307692,75.8984615 1.76961538,75.3795845 2.35038462,75.3075182 C2.91663462,75.235452 3.43932692,75.6246098 3.51192308,76.2011398 C3.58451923,76.7632566 3.17798077,77.2965469 2.59721154,77.3541999 L2.48105769,77.3686131 C1.94384615,77.3686131 1.49375,76.9794554 1.43567308,76.4605783 L1.43567308,76.4605783 Z M2.10355769,80.6115946 C1.98740385,80.0494778 2.35038462,79.5017743 2.91663462,79.4008815 C3.48288462,79.2999888 4.03461538,79.66032 4.15076923,80.2224368 C4.25240385,80.7845536 3.87490385,81.3322572 3.32317308,81.4331499 L3.11990385,81.4619764 C2.64076923,81.4619764 2.19067308,81.1160584 2.10355769,80.6115946 L2.10355769,80.6115946 Z M3.01826923,84.7193711 C2.87307692,84.1572544 3.20701923,83.5951376 3.77326923,83.4510051 C4.325,83.3068725 4.89125,83.6383773 5.03644231,84.2004941 C5.18163462,84.7626109 4.84769231,85.3247277 4.28144231,85.4544469 C4.19432692,85.4832734 4.12173077,85.4976867 4.02009615,85.4976867 C3.55548077,85.4976867 3.13442308,85.1805952 3.01826923,84.7193711 L3.01826923,84.7193711 Z M4.19432692,88.7550814 C4.02009615,88.2073779 4.31048077,87.6164346 4.86221154,87.4434756 C5.41394231,87.2705166 6.00923077,87.5587816 6.18346154,88.1064851 C6.35769231,88.6541887 6.06730769,89.2451319 5.51557692,89.418091 C5.41394231,89.4469175 5.29778846,89.475744 5.19615385,89.475744 C4.74605769,89.475744 4.33951923,89.1874789 4.19432692,88.7550814 L4.19432692,88.7550814 Z M5.63173077,92.7043122 C5.41394231,92.1710219 5.67528846,91.5656654 6.2125,91.3494666 C6.74971154,91.1332678 7.35951923,91.3927063 7.56278846,91.9259966 C7.78057692,92.4592869 7.51923077,93.0646435 6.98201923,93.2808422 C6.86586538,93.324082 6.73519231,93.3529085 6.60451923,93.3529085 C6.18346154,93.3529085 5.79144231,93.1078832 5.63173077,92.7043122 L5.63173077,92.7043122 Z M7.31596154,96.5526502 C7.05461538,96.0337732 7.28692308,95.4140034 7.80961538,95.1689781 C8.33230769,94.9239528 8.95663462,95.1401516 9.20346154,95.6590286 C9.45028846,96.1779057 9.21798077,96.7976755 8.69528846,97.0427007 C8.55009615,97.114767 8.40490385,97.1435935 8.25971154,97.1435935 C7.86769231,97.1435935 7.49019231,96.9273947 7.31596154,96.5526502 L7.31596154,96.5526502 Z M9.2325,100.285682 L9.2325,100.285682 C8.95663462,99.7812184 9.14538462,99.1470354 9.65355769,98.8731836 C10.1472115,98.5993318 10.7860577,98.7867041 11.0619231,99.2911679 C11.3377885,99.7812184 11.1635577,100.415401 10.6553846,100.689253 C10.4956731,100.775733 10.3214423,100.818972 10.1472115,100.818972 C9.76971154,100.818972 9.42125,100.6316 9.2325,100.285682 L9.2325,100.285682 Z M11.3813462,103.903408 C11.0764423,103.413358 11.2216346,102.779175 11.7007692,102.462083 C12.1944231,102.159405 12.8332692,102.303537 13.1526923,102.779175 C13.4575962,103.269225 13.3124038,103.903408 12.8332692,104.2205 C12.6590385,104.321392 12.4557692,104.379045 12.2670192,104.379045 C11.9185577,104.379045 11.5846154,104.206086 11.3813462,103.903408 L11.3813462,103.903408 Z M13.7770192,107.362588 C13.4285577,106.915778 13.5301923,106.252768 14.0093269,105.921263 C14.4594231,105.589759 15.1127885,105.690651 15.46125,106.151875 C15.7951923,106.613099 15.6935577,107.261696 15.2289423,107.607614 C15.0401923,107.737333 14.8224038,107.794986 14.6046154,107.794986 C14.2851923,107.794986 13.9802885,107.650853 13.7770192,107.362588 L13.7770192,107.362588 Z M16.3614423,110.677636 C15.9984615,110.245239 16.0565385,109.582229 16.5066346,109.221898 C16.9422115,108.861567 17.6100962,108.933633 17.9730769,109.36603 C18.3360577,109.812841 18.2779808,110.461437 17.8278846,110.821769 C17.6391346,110.980314 17.4068269,111.066794 17.16,111.066794 C16.8696154,111.066794 16.5647115,110.937075 16.3614423,110.677636 L16.3614423,110.677636 Z M19.1636538,113.834138 C18.7716346,113.416154 18.7861538,112.753144 19.2072115,112.3784 C19.6282692,111.974829 20.2961538,112.003655 20.6881731,112.42164 C21.0801923,112.839624 21.0511538,113.48822 20.6446154,113.891791 C20.4413462,114.079163 20.18,114.165643 19.9186538,114.165643 C19.6427885,114.165643 19.3669231,114.050337 19.1636538,113.834138 L19.1636538,113.834138 Z M22.1546154,116.803268 C21.7335577,116.41411 21.7190385,115.765514 22.1110577,115.347529 C22.5030769,114.915132 23.1709615,114.900719 23.5775,115.289876 C24.0130769,115.693448 24.0275962,116.342044 23.6355769,116.760028 C23.4177885,116.976227 23.1419231,117.091533 22.8660577,117.091533 C22.6192308,117.091533 22.3578846,116.99064 22.1546154,116.803268 L22.1546154,116.803268 Z M25.3198077,119.585025 C24.8842308,119.224694 24.8261538,118.561684 25.1891346,118.129287 C25.5666346,117.682476 26.22,117.624823 26.6555769,117.999568 C27.1056731,118.359899 27.16375,119.008495 26.8007692,119.455306 C26.5975,119.700331 26.2925962,119.830051 26.0022115,119.830051 C25.7553846,119.830051 25.5230769,119.757984 25.3198077,119.585025 L25.3198077,119.585025 Z M28.67375,122.164997 L28.6592308,122.164997 C28.2091346,121.833492 28.0929808,121.184896 28.4414423,120.723672 C28.7753846,120.262448 29.42875,120.161555 29.8933654,120.49306 C30.3725,120.824565 30.4596154,121.473161 30.1256731,121.948798 C29.9224038,122.22265 29.6175,122.366783 29.2835577,122.366783 C29.0802885,122.366783 28.8479808,122.294716 28.67375,122.164997 L28.67375,122.164997 Z M32.1728846,124.52877 C31.6792308,124.226092 31.5340385,123.577496 31.8534615,123.101859 C32.1583654,122.611808 32.7972115,122.482089 33.2908654,122.784767 C33.7845192,123.087445 33.9151923,123.736042 33.6102885,124.211679 C33.4070192,124.52877 33.0730769,124.701729 32.7391346,124.701729 C32.5358654,124.701729 32.3471154,124.644076 32.1728846,124.52877 L32.1728846,124.52877 Z M35.8172115,126.676345 C35.3090385,126.402493 35.1202885,125.76831 35.3961538,125.278259 C35.6720192,124.773796 36.3108654,124.586423 36.8190385,124.860275 C37.3272115,125.14854 37.5159615,125.76831 37.2255769,126.272774 C37.0368269,126.618692 36.6883654,126.806064 36.3108654,126.806064 C36.1511538,126.806064 35.9769231,126.762824 35.8172115,126.676345 L35.8172115,126.676345 Z M39.5922115,128.593307 C39.0695192,128.348282 38.8372115,127.728512 39.0840385,127.209635 C39.3308654,126.690758 39.9551923,126.460146 40.4778846,126.719585 C41.0005769,126.96461 41.2183654,127.569966 40.9860577,128.103257 C40.7973077,128.478001 40.4198077,128.6942 40.0277885,128.6942 C39.8825962,128.6942 39.7228846,128.665373 39.5922115,128.593307 L39.5922115,128.593307 Z M43.4833654,130.265244 C42.9461538,130.049045 42.6702885,129.443689 42.8880769,128.910399 C43.1058654,128.377108 43.7011538,128.132083 44.2383654,128.333869 C44.7755769,128.535654 45.0369231,129.141011 44.8336538,129.674301 C44.6739423,130.092285 44.2674038,130.33731 43.8608654,130.33731 C43.7301923,130.33731 43.5995192,130.308484 43.4833654,130.265244 L43.4833654,130.265244 Z M47.4616346,131.692156 C46.9099038,131.519197 46.605,130.928254 46.79375,130.38055 C46.9679808,129.832847 47.54875,129.544582 48.1004808,129.717541 C48.6667308,129.8905 48.9571154,130.481443 48.7828846,131.014733 C48.6231731,131.461544 48.2166346,131.735396 47.7810577,131.735396 C47.6794231,131.735396 47.5632692,131.720983 47.4616346,131.692156 L47.4616346,131.692156 Z M51.5270192,132.859629 C50.9607692,132.715497 50.6268269,132.15338 50.7720192,131.591263 C50.9172115,131.04356 51.4834615,130.697642 52.0351923,130.856188 C52.6014423,130.985907 52.9353846,131.548024 52.8047115,132.11014 C52.6740385,132.585778 52.2529808,132.888456 51.7883654,132.888456 C51.70125,132.888456 51.6141346,132.874043 51.5270192,132.859629 L51.5270192,132.859629 Z M55.665,133.782077 C55.0842308,133.666771 54.72125,133.119068 54.8228846,132.556951 C54.9390385,131.994834 55.4907692,131.62009 56.0570192,131.735396 C56.60875,131.836289 56.98625,132.383992 56.8700962,132.946109 C56.7829808,133.436159 56.3474038,133.782077 55.85375,133.782077 L55.665,133.782077 L55.665,133.782077 Z M59.8465385,134.430674 C59.2657692,134.344194 58.8592308,133.83973 58.9318269,133.2632 C59.0044231,132.701084 59.5271154,132.297513 60.0933654,132.369579 C60.6596154,132.427232 61.0806731,132.960522 61.0080769,133.522639 C60.9354808,134.055929 60.4853846,134.430674 59.9772115,134.430674 L59.8465385,134.430674 L59.8465385,134.430674 Z M64.0425962,134.819832 C63.4763462,134.791005 63.0407692,134.286541 63.0698077,133.724424 C63.0988462,133.147894 63.6070192,132.715497 64.1732692,132.744323 C64.7540385,132.77315 65.1896154,133.277614 65.1460577,133.83973 C65.1170192,134.401847 64.6669231,134.819832 64.1151923,134.819832 L64.0425962,134.819832 L64.0425962,134.819832 Z" id="Fill-6" fill="#FFCD00" sketch:type="MSShapeGroup"></path>
                <path d="M1.94384615,69.0809938 C1.66798077,69.0809938 1.40663462,68.9801011 1.21788462,68.7927288 C1.01461538,68.5909433 0.912980769,68.3170915 0.912980769,68.0432398 C0.912980769,67.7838012 1.02913462,67.5099495 1.21788462,67.3225772 C1.60990385,66.9334194 2.30682692,66.9334194 2.69884615,67.3225772 C2.88759615,67.5099495 3.00375,67.7838012 3.00375,68.0432398 C3.00375,68.3170915 2.88759615,68.5909433 2.69884615,68.7927288 C2.49557692,68.9801011 2.21971154,69.0809938 1.94384615,69.0809938" id="Fill-7" fill="#FFCD00" sketch:type="MSShapeGroup"></path>
                <path d="M134.606058,69.0809938 C134.330192,69.0809938 134.068846,68.9801011 133.865577,68.7927288 C133.676827,68.5909433 133.560673,68.3170915 133.560673,68.0432398 C133.560673,67.7838012 133.676827,67.5099495 133.865577,67.3225772 C134.257596,66.9334194 134.969038,66.9334194 135.346538,67.3225772 C135.535288,67.5099495 135.651442,67.7838012 135.651442,68.0432398 C135.651442,68.3315048 135.535288,68.5909433 135.346538,68.7927288 C135.157788,68.9801011 134.881923,69.0809938 134.606058,69.0809938" id="Fill-8" fill="#FFCD00" sketch:type="MSShapeGroup"></path>
                <path d="M21.0801923,21.7622908 C20.6881731,21.3443066 20.6881731,20.6957103 21.1092308,20.2921392 C21.5157692,19.8885682 22.1836538,19.9029815 22.5756731,20.3065525 C22.9822115,20.7101235 22.9822115,21.3731331 22.5611538,21.7767041 C22.3578846,21.9784896 22.0965385,22.0649691 21.8351923,22.0649691 C21.5593269,22.0649691 21.2979808,21.9640764 21.0801923,21.7622908 L21.0801923,21.7622908 Z M18.3360577,24.702594 C17.9004808,24.3278495 17.8569231,23.66484 18.2489423,23.2468557 C18.6409615,22.8144582 19.2943269,22.7856317 19.7299038,23.1603762 C20.1654808,23.549534 20.1945192,24.1981303 19.8025,24.644941 C19.5992308,24.8611398 19.3088462,24.9764458 19.0329808,24.9764458 C18.7716346,24.9764458 18.5248077,24.8899663 18.3360577,24.702594 L18.3360577,24.702594 Z M15.7516346,27.8158563 C15.3015385,27.4699382 15.2289423,26.8069287 15.5919231,26.3601179 C15.9403846,25.9133071 16.59375,25.8412409 17.0583654,26.2015722 C17.5084615,26.5474902 17.5810577,27.2104997 17.2180769,27.6573105 C17.0148077,27.9023358 16.7099038,28.0464683 16.405,28.0464683 C16.1726923,28.0464683 15.9403846,27.9599888 15.7516346,27.8158563 L15.7516346,27.8158563 Z M13.3704808,31.073251 C12.9058654,30.7561595 12.7897115,30.0931499 13.1236538,29.6319259 C13.4430769,29.1707019 14.0964423,29.0553958 14.5755769,29.3724874 C15.0547115,29.7184054 15.1563462,30.3525884 14.8224038,30.8282257 C14.6191346,31.1164907 14.2997115,31.2606232 13.9802885,31.2606232 C13.7625,31.2606232 13.5592308,31.2029702 13.3704808,31.073251 L13.3704808,31.073251 Z M11.1925962,34.4747782 C10.6989423,34.1720999 10.55375,33.5379169 10.8441346,33.0478664 C11.1635577,32.5722291 11.8024038,32.4136833 12.2960577,32.7163616 C12.7751923,33.0190399 12.9349038,33.6388097 12.63,34.1432734 C12.4267308,34.460365 12.0927885,34.633324 11.7443269,34.633324 C11.5555769,34.633324 11.3668269,34.5900842 11.1925962,34.4747782 L11.1925962,34.4747782 Z M9.2325,38.0060247 C8.72432692,37.7321729 8.53557692,37.0979899 8.79692308,36.5935261 C9.07278846,36.0890623 9.71163462,35.9016901 10.2198077,36.1755418 C10.7279808,36.4349803 10.9167308,37.0691634 10.6408654,37.5736272 C10.4521154,37.9339585 10.0891346,38.135744 9.72615385,38.135744 C9.55192308,38.135744 9.39221154,38.0925042 9.2325,38.0060247 L9.2325,38.0060247 Z M7.49019231,41.6525772 C6.9675,41.4075519 6.73519231,40.7877821 6.98201923,40.2689051 C7.21432692,39.7500281 7.83865385,39.5194161 8.36134615,39.7644413 C8.88403846,39.9950533 9.11634615,40.6148231 8.86951923,41.1337002 L8.88403846,41.1337002 C8.69528846,41.5084447 8.31778846,41.7390567 7.92576923,41.7390567 C7.78057692,41.7390567 7.62086538,41.7102302 7.49019231,41.6525772 L7.49019231,41.6525772 Z M5.98019231,45.3856092 C5.44298077,45.1694104 5.16711538,44.5784672 5.38490385,44.0307636 C5.58817308,43.4974733 6.18346154,43.2380348 6.73519231,43.4398203 C7.27240385,43.6560191 7.53375,44.2469624 7.33048077,44.7802527 C7.17076923,45.1982369 6.77875,45.4432622 6.35769231,45.4432622 C6.22701923,45.4432622 6.11086538,45.428849 5.98019231,45.3856092 L5.98019231,45.3856092 Z M4.7025,49.2051207 C4.15076923,49.0321617 3.84586538,48.4556317 4.02009615,47.8935149 C4.19432692,47.3602246 4.78961538,47.0575463 5.32682692,47.2305053 C5.87855769,47.3890511 6.18346154,47.9799944 6.00923077,48.5276979 C5.86403846,48.9600955 5.4575,49.2483605 5.00740385,49.2483605 C4.90576923,49.2483605 4.80413462,49.2483605 4.7025,49.2051207 L4.7025,49.2051207 Z M3.65711538,53.0966985 C3.10538462,52.9669792 2.75692308,52.4048624 2.90211538,51.8427456 C3.04730769,51.2806289 3.61355769,50.9491241 4.16528846,51.0932566 C4.71701923,51.2229759 5.06548077,51.7850926 4.92028846,52.3472094 C4.81865385,52.8228467 4.38307692,53.125525 3.90394231,53.125525 C3.83134615,53.125525 3.74423077,53.125525 3.65711538,53.0966985 L3.65711538,53.0966985 Z M2.85855769,57.0603425 C2.29230769,56.9450365 1.92932692,56.397333 2.03096154,55.8352162 C2.13259615,55.2730994 2.66980769,54.9127681 3.23605769,55.0136609 C3.80230769,55.1145536 4.17980769,55.6478439 4.09269231,56.2099607 C3.99105769,56.7144245 3.55548077,57.0603425 3.04730769,57.0603425 L2.85855769,57.0603425 L2.85855769,57.0603425 Z M2.32134615,61.0383998 C1.74057692,60.9807468 1.33403846,60.4474565 1.40663462,59.8853397 C1.46471154,59.3088097 2.00192308,58.9052386 2.56817308,58.9773049 C3.13442308,59.0493711 3.55548077,59.5682482 3.48288462,60.130365 C3.41028846,60.6636552 2.96019231,61.052813 2.45201923,61.052813 L2.32134615,61.0383998 L2.32134615,61.0383998 Z M2.00192308,65.0596968 C1.43567308,65.0308703 1.00009615,64.5264065 1.02913462,63.9642897 C1.05817308,63.3877597 1.56634615,62.9553622 2.13259615,62.9841887 C2.71336538,63.0130152 3.14894231,63.5174789 3.11990385,64.0795957 C3.07634615,64.6417125 2.62625,65.0596968 2.07451923,65.0596968 L2.00192308,65.0596968 L2.00192308,65.0596968 Z" id="Fill-9" fill="#FFCD00" sketch:type="MSShapeGroup"></path>
                <path d="M62.9246154,2.39088153 C62.8810577,1.82876474 63.3166346,1.32430095 63.8974038,1.29547445 C64.4781731,1.26664795 64.9718269,1.69904548 65.0008654,2.26116227 C65.0444231,2.82327906 64.6088462,3.32774284 64.0280769,3.35656934 L63.97,3.35656934 C63.4182692,3.35656934 62.9536538,2.93858506 62.9246154,2.39088153 L62.9246154,2.39088153 Z M58.6414423,2.86651881 C58.5688462,2.30440202 58.9753846,1.78552499 59.5416346,1.71345873 C60.1224038,1.64139248 60.6305769,2.0449635 60.7176923,2.60708029 C60.7902885,3.16919708 60.38375,3.70248737 59.8175,3.77455362 L59.6723077,3.77455362 C59.1496154,3.77455362 58.6995192,3.3998091 58.6414423,2.86651881 L58.6414423,2.86651881 Z M54.4018269,3.63042111 C54.2856731,3.06830432 54.6631731,2.52060079 55.2294231,2.40529478 C55.7956731,2.28998877 56.3328846,2.6647333 56.4490385,3.22685008 C56.5506731,3.78896687 56.1876923,4.33667041 55.6214423,4.45197642 L55.6359615,4.45197642 L55.4181731,4.46638967 C54.9390385,4.46638967 54.5034615,4.12047165 54.4018269,3.63042111 L54.4018269,3.63042111 Z M50.2202885,4.65376193 C50.0750962,4.10605839 50.3945192,3.52952835 50.9607692,3.38539585 C51.5125,3.24126334 52.0932692,3.57276811 52.2384615,4.12047165 C52.3836538,4.68258843 52.0497115,5.24470522 51.4979808,5.38883773 C51.4108654,5.41766423 51.3092308,5.43207748 51.2221154,5.43207748 C50.7575,5.43207748 50.3364423,5.11498596 50.2202885,4.65376193 L50.2202885,4.65376193 Z M46.1113462,5.95095452 C45.9225962,5.40325098 46.2275,4.82672094 46.7647115,4.63934868 C47.3164423,4.46638967 47.8972115,4.74024144 48.0859615,5.28794497 C48.2747115,5.83564851 47.9843269,6.41217855 47.4325962,6.59955081 C47.3309615,6.64279057 47.2148077,6.65720382 47.0986538,6.65720382 C46.6630769,6.65720382 46.2565385,6.38335205 46.1113462,5.95095452 L46.1113462,5.95095452 Z M42.0895192,7.50758563 C41.8717308,6.97429534 42.1330769,6.3689388 42.6702885,6.15274003 C43.1929808,5.93654127 43.8173077,6.19597979 44.0350962,6.71485682 C44.2528846,7.24814711 43.9915385,7.85350365 43.4543269,8.06970241 C43.3236538,8.12735542 43.1929808,8.15618192 43.0623077,8.15618192 C42.6557692,8.15618192 42.26375,7.91115665 42.0895192,7.50758563 L42.0895192,7.50758563 Z M38.1983654,9.32365525 C37.9515385,8.81919147 38.1548077,8.19942167 38.6775,7.93998316 C39.1856731,7.69495789 39.81,7.91115665 40.0713462,8.41562044 C40.3181731,8.93449747 40.1149038,9.55426727 39.5922115,9.79929253 C39.4470192,9.88577204 39.2873077,9.91459854 39.1275962,9.91459854 C38.7500962,9.91459854 38.3725962,9.69839978 38.1983654,9.32365525 L38.1983654,9.32365525 Z M34.4233654,11.3991634 C34.1329808,10.8946996 34.3072115,10.2605166 34.8153846,9.9866648 C35.3090385,9.69839978 35.9478846,9.87135879 36.2382692,10.3614093 C36.5286538,10.8658731 36.3399038,11.4856429 35.84625,11.7739079 C35.6720192,11.8748007 35.5123077,11.9180404 35.3235577,11.9180404 C34.9605769,11.9180404 34.6121154,11.7306682 34.4233654,11.3991634 L34.4233654,11.3991634 Z M30.7935577,13.7052835 C30.4741346,13.2296463 30.6048077,12.58105 31.0839423,12.2639585 C31.5630769,11.9468669 32.2019231,12.0909994 32.5358654,12.5522235 C32.8552885,13.0278608 32.7100962,13.676457 32.2309615,13.9935486 C32.0567308,14.1088546 31.8534615,14.1665076 31.6647115,14.1665076 C31.31625,14.1665076 30.9968269,13.9935486 30.7935577,13.7052835 L30.7935577,13.7052835 Z M27.3089423,16.2276025 C26.9604808,15.7807917 27.0475962,15.1321954 27.5122115,14.7862774 L27.5267308,14.7862774 C27.9768269,14.4403593 28.6301923,14.5268389 28.9786538,14.9736496 C29.3271154,15.4348737 29.24,16.08347 28.7899038,16.4438012 C28.6011538,16.5735205 28.3688462,16.6455867 28.1510577,16.6455867 C27.8316346,16.6455867 27.5267308,16.5158675 27.3089423,16.2276025 L27.3089423,16.2276025 Z" id="Fill-10" fill="#FFCD00" sketch:type="MSShapeGroup"></path>
                <path d="M72.3911538,3.35656934 C71.8103846,3.31332959 71.3748077,2.82327906 71.4038462,2.26116227 C71.4328846,1.68463223 71.9410577,1.2522347 72.5073077,1.2810612 C73.0880769,1.32430095 73.5236538,1.81435149 73.4946154,2.39088153 C73.4655769,2.92417181 72.9864423,3.35656934 72.4492308,3.35656934 L72.3911538,3.35656934 L72.3911538,3.35656934 Z M76.4565385,3.73131387 C75.8902885,3.65924761 75.48375,3.14037058 75.5563462,2.57825379 C75.6289423,2.016137 76.1516346,1.61256597 76.7178846,1.67021898 C77.2986538,1.74228523 77.7051923,2.26116227 77.6325962,2.82327906 C77.56,3.35656934 77.1244231,3.74572712 76.5872115,3.74572712 L76.4565385,3.73131387 L76.4565385,3.73131387 Z M80.5074038,4.36549691 C79.9411538,4.2501909 79.5781731,3.71690062 79.6798077,3.15478383 C79.7814423,2.59266704 80.3331731,2.21792252 80.8994231,2.33322852 L80.9139423,2.33322852 C81.4656731,2.43412128 81.8431731,2.98182482 81.7270192,3.54394161 C81.6399038,4.03399214 81.1898077,4.37991016 80.7106731,4.37991016 C80.6380769,4.37991016 80.58,4.37991016 80.5074038,4.36549691 L80.5074038,4.36549691 Z M84.5147115,5.24470522 C83.9484615,5.10057271 83.6290385,4.53845592 83.7597115,3.99075239 C83.9049038,3.4286356 84.4856731,3.09713083 85.0374038,3.24126334 C85.5891346,3.38539585 85.9375962,3.94751263 85.7924038,4.49521617 C85.6617308,4.97085345 85.2406731,5.27353172 84.7760577,5.27353172 C84.6889423,5.27353172 84.6018269,5.27353172 84.5147115,5.24470522 L84.5147115,5.24470522 Z M88.4639423,6.38335205 C87.8976923,6.21039304 87.6073077,5.61944975 87.7815385,5.07174621 C87.9557692,4.52404267 88.5510577,4.23577765 89.0882692,4.40873666 C89.6545192,4.58169568 89.9449038,5.17263897 89.7706731,5.7203425 C89.6254808,6.15274003 89.2189423,6.44100505 88.7833654,6.44100505 C88.6672115,6.44100505 88.5510577,6.41217855 88.4639423,6.38335205 L88.4639423,6.38335205 Z M92.3115385,7.75261089 C91.7743269,7.55082538 91.5275,6.94546884 91.7307692,6.41217855 C91.9340385,5.87888827 92.5438462,5.61944975 93.0810577,5.83564851 C93.6182692,6.05184728 93.8941346,6.65720382 93.6763462,7.1904941 C93.5166346,7.59406513 93.1100962,7.8390904 92.7035577,7.8390904 C92.5728846,7.8390904 92.4422115,7.8102639 92.3115385,7.75261089 L92.3115385,7.75261089 Z M96.0865385,9.38130825 C95.5638462,9.13628299 95.3460577,8.51651319 95.5783654,8.01204941 C95.8251923,7.47875912 96.4495192,7.26256036 96.9722115,7.50758563 C97.4949038,7.75261089 97.7126923,8.37238069 97.4658654,8.89125772 C97.2916346,9.26600225 96.9286538,9.48220101 96.5221154,9.48220101 C96.3769231,9.48220101 96.2317308,9.45337451 96.0865385,9.38130825 L96.0865385,9.38130825 Z M99.7453846,11.2406176 C99.2372115,10.9523526 99.0484615,10.3325828 99.3243269,9.82811903 C99.6147115,9.32365525 100.239038,9.13628299 100.747212,9.42454801 C101.255385,9.69839978 101.444135,10.3325828 101.168269,10.8370466 C100.979519,11.1829646 100.616538,11.3703369 100.239038,11.3703369 C100.064808,11.3703369 99.9050962,11.3270971 99.7453846,11.2406176 L99.7453846,11.2406176 Z M103.273558,13.3161258 C102.779904,12.9990343 102.649231,12.3648512 102.954135,11.8892139 C103.259038,11.3991634 103.912404,11.2550309 104.391538,11.5577092 C104.885192,11.8748007 105.015865,12.5089837 104.710962,12.9990343 C104.507692,13.3161258 104.17375,13.4746715 103.825288,13.4746715 C103.636538,13.4746715 103.433269,13.4314318 103.273558,13.3161258 L103.273558,13.3161258 Z M106.656538,15.6078327 C106.191923,15.2763279 106.090288,14.6277316 106.43875,14.1520943 C106.772692,13.6908703 107.411538,13.5899775 107.890673,13.9358956 C108.355288,14.2674003 108.456923,14.9159966 108.122981,15.3772207 C107.919712,15.6654857 107.600288,15.8096182 107.266346,15.8096182 C107.063077,15.8096182 106.845288,15.7375519 106.656538,15.6078327 L106.656538,15.6078327 Z M109.908846,18.1157383 C109.45875,17.7409938 109.400673,17.0923975 109.763654,16.6455867 C110.126635,16.198776 110.794519,16.141123 111.230096,16.5158675 L111.244615,16.5158675 C111.680192,16.8761988 111.738269,17.5247951 111.360769,17.9716058 C111.172019,18.2166311 110.867115,18.3463504 110.562212,18.3463504 C110.329904,18.3463504 110.097596,18.2742841 109.908846,18.1157383 L109.908846,18.1157383 Z M112.972404,20.8110163 C112.551346,20.4074453 112.536827,19.7444357 112.928846,19.3408647 C113.320865,18.9228804 113.98875,18.8940539 114.409808,19.2976249 C114.830865,19.6867827 114.845385,20.335379 114.453365,20.7533633 C114.235577,20.969562 113.959712,21.0848681 113.683846,21.0848681 C113.437019,21.0848681 113.175673,20.9983885 112.972404,20.8110163 L112.972404,20.8110163 Z M115.87625,23.6792532 C115.469712,23.261269 115.49875,22.5982594 115.919808,22.2235149 C116.340865,21.8199439 117.00875,21.8487704 117.400769,22.2523414 C117.792788,22.6847389 117.778269,23.3333352 117.357212,23.722493 C117.153942,23.9098652 116.892596,24.010758 116.645769,24.010758 C116.355385,24.010758 116.079519,23.895452 115.87625,23.6792532 L115.87625,23.6792532 Z M118.591346,26.7348624 C118.228365,26.3024649 118.286442,25.6394554 118.722019,25.2647108 C119.172115,24.9187928 119.825481,24.9764458 120.202981,25.4088433 C120.551442,25.8556541 120.493365,26.5042504 120.057788,26.8645817 C119.869038,27.0231275 119.622212,27.109607 119.389904,27.109607 C119.085,27.109607 118.794615,26.9798877 118.591346,26.7348624 L118.591346,26.7348624 Z M121.103173,29.9490174 C120.754712,29.4877934 120.870865,28.8391971 121.335481,28.4932791 C121.800096,28.1617743 122.453462,28.262667 122.787404,28.7238911 C123.121346,29.1851151 123.019712,29.8481246 122.555096,30.1796294 C122.380865,30.3093487 122.163077,30.3814149 121.945288,30.3814149 C121.625865,30.3814149 121.306442,30.2228692 121.103173,29.9490174 L121.103173,29.9490174 Z M123.397212,33.3073049 C123.092308,32.8316676 123.2375,32.1974846 123.731154,31.8948063 C124.224808,31.5777148 124.863654,31.7218473 125.168558,32.1974846 C125.487981,32.6875351 125.328269,33.3361314 124.849135,33.6388097 C124.674904,33.7397024 124.471635,33.7973554 124.282885,33.7973554 C123.934423,33.7973554 123.600481,33.6243964 123.397212,33.3073049 L123.397212,33.3073049 Z M125.5025,36.8097249 C125.226635,36.3196743 125.400865,35.6854913 125.909038,35.3972263 C126.417212,35.1233745 127.041538,35.3107468 127.317404,35.8152106 C127.607788,36.3196743 127.419038,36.9394441 126.910865,37.2277092 C126.751154,37.3141887 126.591442,37.3430152 126.417212,37.3430152 C126.054231,37.3430152 125.69125,37.1556429 125.5025,36.8097249 L125.5025,36.8097249 Z M127.360962,40.4418641 C127.114135,39.9229871 127.346442,39.288804 127.854615,39.058192 C128.377308,38.8131668 129.001635,39.0293655 129.248462,39.5482426 C129.495288,40.0671196 129.2775,40.6868894 128.754808,40.9319147 C128.609615,41.0039809 128.449904,41.0328074 128.304712,41.0328074 C127.912692,41.0328074 127.535192,40.8021954 127.360962,40.4418641 L127.360962,40.4418641 Z M128.987115,44.1604829 C128.769327,43.6271926 129.030673,43.021836 129.582404,42.8200505 C130.105096,42.618265 130.714904,42.8777035 130.932692,43.4109938 C131.135962,43.9442841 130.889135,44.5352274 130.351923,44.7514262 C130.22125,44.7946659 130.090577,44.8234924 129.959904,44.8234924 C129.538846,44.8234924 129.146827,44.5640539 128.987115,44.1604829 L128.987115,44.1604829 Z M130.380962,47.9799944 C130.192212,47.4467041 130.497115,46.8557608 131.048846,46.6828018 C131.600577,46.5098428 132.181346,46.7981078 132.370096,47.3602246 C132.544327,47.8935149 132.239423,48.4844582 131.687692,48.6574172 C131.586058,48.6862437 131.484423,48.7150702 131.368269,48.7150702 C130.932692,48.7150702 130.526154,48.4268052 130.380962,47.9799944 L130.380962,47.9799944 Z M131.527981,51.9003987 C131.382788,51.3382819 131.716731,50.7761651 132.282981,50.6464458 C132.834712,50.5023133 133.400962,50.8338181 133.546154,51.3815216 C133.691346,51.9436384 133.357404,52.5057552 132.791154,52.6498877 C132.704038,52.664301 132.631442,52.6787142 132.529808,52.6787142 C132.065192,52.6787142 131.644135,52.3760359 131.527981,51.9003987 L131.527981,51.9003987 Z M132.413654,55.8640427 C132.312019,55.3019259 132.675,54.7686356 133.24125,54.6677428 C133.8075,54.5524368 134.359231,54.9271814 134.460865,55.4892981 C134.577019,56.0514149 134.199519,56.5847052 133.633269,56.7000112 L133.444519,56.7144245 C132.936346,56.7144245 132.500769,56.3685065 132.413654,55.8640427 L132.413654,55.8640427 Z M133.0525,59.8997529 C132.979904,59.3232229 133.386442,58.8043459 133.952692,58.7322796 C134.533462,58.6602134 135.056154,59.0637844 135.12875,59.6259012 C135.186827,60.2024312 134.794808,60.7213083 134.214038,60.7933745 L134.083365,60.7933745 C133.575192,60.7933745 133.125096,60.41863 133.0525,59.8997529 L133.0525,59.8997529 Z M133.444519,63.9498765 C133.400962,63.3733464 133.836538,62.8832959 134.417308,62.8544694 C134.998077,62.8112296 135.477212,63.2436272 135.520769,63.8201572 C135.564327,64.3966873 135.12875,64.8723245 134.547981,64.9155643 L134.475385,64.9155643 C133.923654,64.9155643 133.473558,64.49758 133.444519,63.9498765 L133.444519,63.9498765 Z" id="Fill-11" fill="#FFCD00" sketch:type="MSShapeGroup"></path>
                <path d="M134.417308,73.2175969 C133.836538,73.1887704 133.400962,72.6987198 133.444519,72.1221898 C133.473558,71.5456597 133.967212,71.1132622 134.547981,71.1420887 C135.12875,71.1853285 135.564327,71.675379 135.520769,72.251909 C135.491731,72.7996126 135.027115,73.2175969 134.475385,73.2175969 L134.417308,73.2175969 L134.417308,73.2175969 Z M133.952692,77.3253734 C133.386442,77.2677204 132.979904,76.7488433 133.0525,76.1723133 C133.139615,75.5957833 133.647788,75.1922122 134.228558,75.2786917 C134.794808,75.350758 135.201346,75.869635 135.12875,76.4317518 C135.056154,76.9506289 134.620577,77.3397866 134.083365,77.3397866 L133.952692,77.3253734 L133.952692,77.3253734 Z M133.255769,81.4043234 C132.689519,81.3034307 132.312019,80.7557271 132.413654,80.1936103 C132.529808,79.6314935 133.067019,79.2711623 133.633269,79.372055 C134.199519,79.4729478 134.591538,80.0206513 134.475385,80.5827681 C134.37375,81.0872319 133.938173,81.4331499 133.444519,81.4331499 L133.255769,81.4043234 L133.255769,81.4043234 Z M132.282981,85.4256204 C131.716731,85.2959012 131.382788,84.7337844 131.527981,84.1716676 C131.673173,83.6095508 132.239423,83.278046 132.805673,83.4221786 C133.357404,83.5663111 133.705865,84.1284278 133.546154,84.6905446 C133.43,85.1517687 133.008942,85.4688602 132.529808,85.4688602 C132.457212,85.4688602 132.370096,85.4544469 132.282981,85.4256204 L132.282981,85.4256204 Z M131.048846,89.3892645 C130.511635,89.2163054 130.206731,88.6253622 130.380962,88.0920719 C130.569712,87.5299551 131.150481,87.2416901 131.702212,87.4146491 C132.239423,87.5876081 132.558846,88.1785514 132.370096,88.7118417 C132.224904,89.1586524 131.818365,89.4469175 131.382788,89.4469175 C131.266635,89.4469175 131.165,89.418091 131.048846,89.3892645 L131.048846,89.3892645 Z M129.582404,93.266429 C129.045192,93.0502302 128.783846,92.4592869 128.987115,91.9259966 C129.204904,91.3782931 129.814712,91.1188546 130.351923,91.3350533 C130.889135,91.5368389 131.150481,92.1421954 130.932692,92.6754857 C130.772981,93.0790567 130.380962,93.324082 129.974423,93.324082 C129.84375,93.324082 129.713077,93.3096687 129.582404,93.266429 L129.582404,93.266429 Z M127.854615,97.0282875 C127.346442,96.7832622 127.114135,96.1779057 127.360962,95.6590286 C127.607788,95.1401516 128.232115,94.9239528 128.754808,95.1545649 C129.2775,95.3995901 129.495288,96.0193599 129.248462,96.5382369 C129.074231,96.9129815 128.696731,97.1291802 128.304712,97.1291802 C128.159519,97.1291802 128.014327,97.1003537 127.854615,97.0282875 L127.854615,97.0282875 Z M125.909038,100.703666 C125.400865,100.415401 125.212115,99.7956317 125.487981,99.2911679 C125.778365,98.7867041 126.402692,98.5993318 126.910865,98.8875969 C127.419038,99.1614486 127.607788,99.7812184 127.317404,100.285682 C127.128654,100.6316 126.780192,100.833386 126.402692,100.833386 C126.242981,100.833386 126.06875,100.775733 125.909038,100.703666 L125.909038,100.703666 Z M123.731154,104.2205 C123.2375,103.903408 123.092308,103.283638 123.397212,102.793588 C123.716635,102.303537 124.355481,102.159405 124.849135,102.476496 C125.328269,102.779175 125.473462,103.413358 125.168558,103.903408 C124.965288,104.2205 124.631346,104.379045 124.282885,104.379045 C124.094135,104.379045 123.905385,104.335806 123.731154,104.2205 L123.731154,104.2205 Z M121.320962,107.607614 C120.856346,107.261696 120.754712,106.613099 121.088654,106.166289 C121.437115,105.690651 122.090481,105.589759 122.555096,105.935677 C123.019712,106.267181 123.121346,106.915778 122.787404,107.377002 C122.584135,107.650853 122.264712,107.794986 121.945288,107.794986 C121.7275,107.794986 121.509712,107.737333 121.320962,107.607614 L121.320962,107.607614 Z M118.722019,110.836182 C118.271923,110.461437 118.213846,109.812841 118.576827,109.36603 L118.576827,109.380444 C118.939808,108.933633 119.607692,108.861567 120.057788,109.236311 C120.493365,109.596642 120.551442,110.259652 120.188462,110.692049 C119.985192,110.937075 119.680288,111.066794 119.389904,111.066794 C119.143077,111.066794 118.910769,110.994728 118.722019,110.836182 L118.722019,110.836182 Z M115.919808,113.891791 C115.484231,113.502633 115.469712,112.854037 115.861731,112.42164 C116.268269,112.003655 116.921635,111.989242 117.342692,112.3784 C117.76375,112.781971 117.778269,113.430567 117.38625,113.848551 C117.182981,114.06475 116.907115,114.165643 116.63125,114.165643 C116.369904,114.165643 116.108558,114.079163 115.919808,113.891791 L115.919808,113.891791 Z M112.914327,116.774441 C112.522308,116.356457 112.536827,115.707861 112.972404,115.30429 C113.393462,114.915132 114.046827,114.929545 114.438846,115.361943 C114.845385,115.765514 114.816346,116.428523 114.395288,116.817681 C114.192019,117.005053 113.930673,117.091533 113.669327,117.091533 C113.393462,117.091533 113.132115,116.99064 112.914327,116.774441 L112.914327,116.774441 Z M109.749135,119.469719 C109.386154,119.022908 109.444231,118.374312 109.894327,117.999568 C110.329904,117.639236 110.983269,117.696889 111.360769,118.1437 C111.72375,118.576098 111.665673,119.224694 111.215577,119.599439 C111.026827,119.757984 110.794519,119.830051 110.562212,119.830051 C110.257308,119.830051 109.952404,119.714745 109.749135,119.469719 L109.749135,119.469719 Z M106.424231,121.948798 C106.090288,121.473161 106.191923,120.838978 106.656538,120.507473 L106.656538,120.49306 C107.121154,120.161555 107.774519,120.262448 108.108462,120.723672 C108.456923,121.199309 108.340769,121.833492 107.890673,122.164997 C107.701923,122.30913 107.484135,122.366783 107.266346,122.366783 C106.946923,122.366783 106.6275,122.22265 106.424231,121.948798 L106.424231,121.948798 Z M102.939615,124.211679 C102.634712,123.736042 102.779904,123.087445 103.259038,122.784767 L103.259038,122.79918 C103.752692,122.482089 104.391538,122.626221 104.696442,123.116272 C105.015865,123.577496 104.870673,124.226092 104.391538,124.543184 C104.217308,124.644076 104.014038,124.701729 103.825288,124.701729 C103.476827,124.701729 103.142885,124.52877 102.939615,124.211679 L102.939615,124.211679 Z M99.3243269,126.272774 C99.0484615,125.76831 99.2372115,125.134127 99.7453846,124.860275 C100.239038,124.586423 100.877885,124.773796 101.168269,125.278259 C101.444135,125.782723 101.255385,126.402493 100.747212,126.676345 C100.5875,126.762824 100.413269,126.806064 100.239038,126.806064 C99.8760577,126.806064 99.5130769,126.618692 99.3243269,126.272774 L99.3243269,126.272774 Z M95.5928846,128.088843 C95.3460577,127.569966 95.5783654,126.950197 96.0865385,126.719585 C96.6092308,126.460146 97.2335577,126.690758 97.4803846,127.209635 C97.7272115,127.728512 97.4949038,128.348282 96.9867308,128.593307 C96.8415385,128.65096 96.6818269,128.6942 96.5366346,128.6942 C96.1446154,128.6942 95.7671154,128.463588 95.5928846,128.088843 L95.5928846,128.088843 Z M91.7452885,129.674301 C91.5275,129.141011 91.8033654,128.535654 92.3405769,128.333869 L92.3405769,128.319455 C92.8777885,128.11767 93.4875962,128.377108 93.6908654,128.910399 C93.8941346,129.443689 93.6473077,130.049045 93.1100962,130.265244 L93.1100962,130.250831 C92.9794231,130.308484 92.84875,130.322897 92.7180769,130.322897 C92.2970192,130.322897 91.905,130.077872 91.7452885,129.674301 L91.7452885,129.674301 Z M87.8105769,131.014733 C87.6363462,130.46703 87.9267308,129.8905 88.4784615,129.703127 C89.0301923,129.530168 89.6254808,129.832847 89.7997115,130.366137 C89.9884615,130.928254 89.6835577,131.504784 89.1318269,131.677743 C89.0301923,131.706569 88.9140385,131.735396 88.8124038,131.735396 C88.3623077,131.735396 87.9557692,131.461544 87.8105769,131.014733 L87.8105769,131.014733 Z M83.78875,132.11014 C83.6580769,131.548024 83.9775,130.985907 84.54375,130.841774 C85.11,130.697642 85.67625,131.029147 85.8069231,131.591263 C85.9666346,132.15338 85.6181731,132.715497 85.0664423,132.845216 C84.9793269,132.874043 84.8922115,132.888456 84.8050962,132.888456 C84.3404808,132.888456 83.9194231,132.571364 83.78875,132.11014 L83.78875,132.11014 Z M79.7088462,132.946109 C79.6072115,132.369579 79.9701923,131.836289 80.5364423,131.735396 C81.1026923,131.62009 81.6544231,131.994834 81.7705769,132.556951 C81.8722115,133.119068 81.4947115,133.652358 80.9429808,133.767664 L80.7397115,133.782077 C80.2460577,133.782077 79.8104808,133.436159 79.7088462,132.946109 L79.7088462,132.946109 Z M75.5853846,133.522639 C75.5127885,132.960522 75.9193269,132.427232 76.4855769,132.369579 C77.0663462,132.297513 77.5890385,132.68667 77.6616346,133.2632 C77.7342308,133.825317 77.3276923,134.344194 76.7469231,134.416261 L76.61625,134.430674 C76.1080769,134.430674 75.6579808,134.041516 75.5853846,133.522639 L75.5853846,133.522639 Z M71.4328846,133.83973 C71.4038462,133.277614 71.8394231,132.77315 72.4201923,132.744323 C72.9864423,132.715497 73.4946154,133.147894 73.5236538,133.724424 C73.5526923,134.286541 73.1171154,134.776592 72.5363462,134.819832 L72.4782692,134.819832 C71.9265385,134.819832 71.4619231,134.387434 71.4328846,133.83973 L71.4328846,133.83973 Z" id="Fill-12" fill="#FFCD00" sketch:type="MSShapeGroup"></path>
                <path d="M1.04365385,72.2807355 C1.00009615,71.7042055 1.43567308,71.214155 2.01644231,71.1709152 C2.59721154,71.1420887 3.09086538,71.5888995 3.11990385,72.1510163 C3.16346154,72.7131331 2.72788462,73.2175969 2.14711538,73.2464234 L2.07451923,73.2464234 C1.52278846,73.2464234 1.07269231,72.8284391 1.04365385,72.2807355 L1.04365385,72.2807355 Z M1.43567308,76.4605783 C1.36307692,75.8984615 1.76961538,75.3795845 2.35038462,75.3075182 C2.91663462,75.235452 3.43932692,75.6246098 3.51192308,76.2011398 C3.58451923,76.7632566 3.17798077,77.2965469 2.59721154,77.3541999 L2.48105769,77.3686131 C1.94384615,77.3686131 1.49375,76.9794554 1.43567308,76.4605783 L1.43567308,76.4605783 Z M2.10355769,80.6115946 C1.98740385,80.0494778 2.35038462,79.5017743 2.91663462,79.4008815 C3.48288462,79.2999888 4.03461538,79.66032 4.15076923,80.2224368 C4.25240385,80.7845536 3.87490385,81.3322572 3.32317308,81.4331499 L3.11990385,81.4619764 C2.64076923,81.4619764 2.19067308,81.1160584 2.10355769,80.6115946 L2.10355769,80.6115946 Z M3.01826923,84.7193711 C2.87307692,84.1572544 3.20701923,83.5951376 3.77326923,83.4510051 C4.325,83.3068725 4.89125,83.6383773 5.03644231,84.2004941 C5.18163462,84.7626109 4.84769231,85.3247277 4.28144231,85.4544469 C4.19432692,85.4832734 4.12173077,85.4976867 4.02009615,85.4976867 C3.55548077,85.4976867 3.13442308,85.1805952 3.01826923,84.7193711 L3.01826923,84.7193711 Z M4.19432692,88.7550814 C4.02009615,88.2073779 4.31048077,87.6164346 4.86221154,87.4434756 C5.41394231,87.2705166 6.00923077,87.5587816 6.18346154,88.1064851 C6.35769231,88.6541887 6.06730769,89.2451319 5.51557692,89.418091 C5.41394231,89.4469175 5.29778846,89.475744 5.19615385,89.475744 C4.74605769,89.475744 4.33951923,89.1874789 4.19432692,88.7550814 L4.19432692,88.7550814 Z M5.63173077,92.7043122 C5.41394231,92.1710219 5.67528846,91.5656654 6.2125,91.3494666 C6.74971154,91.1332678 7.35951923,91.3927063 7.56278846,91.9259966 C7.78057692,92.4592869 7.51923077,93.0646435 6.98201923,93.2808422 C6.86586538,93.324082 6.73519231,93.3529085 6.60451923,93.3529085 C6.18346154,93.3529085 5.79144231,93.1078832 5.63173077,92.7043122 L5.63173077,92.7043122 Z M7.31596154,96.5526502 C7.05461538,96.0337732 7.28692308,95.4140034 7.80961538,95.1689781 C8.33230769,94.9239528 8.95663462,95.1401516 9.20346154,95.6590286 C9.45028846,96.1779057 9.21798077,96.7976755 8.69528846,97.0427007 C8.55009615,97.114767 8.40490385,97.1435935 8.25971154,97.1435935 C7.86769231,97.1435935 7.49019231,96.9273947 7.31596154,96.5526502 L7.31596154,96.5526502 Z M9.2325,100.285682 L9.2325,100.285682 C8.95663462,99.7812184 9.14538462,99.1470354 9.65355769,98.8731836 C10.1472115,98.5993318 10.7860577,98.7867041 11.0619231,99.2911679 C11.3377885,99.7812184 11.1635577,100.415401 10.6553846,100.689253 C10.4956731,100.775733 10.3214423,100.818972 10.1472115,100.818972 C9.76971154,100.818972 9.42125,100.6316 9.2325,100.285682 L9.2325,100.285682 Z M11.3813462,103.903408 C11.0764423,103.413358 11.2216346,102.779175 11.7007692,102.462083 C12.1944231,102.159405 12.8332692,102.303537 13.1526923,102.779175 C13.4575962,103.269225 13.3124038,103.903408 12.8332692,104.2205 C12.6590385,104.321392 12.4557692,104.379045 12.2670192,104.379045 C11.9185577,104.379045 11.5846154,104.206086 11.3813462,103.903408 L11.3813462,103.903408 Z M13.7770192,107.362588 C13.4285577,106.915778 13.5301923,106.252768 14.0093269,105.921263 C14.4594231,105.589759 15.1127885,105.690651 15.46125,106.151875 C15.7951923,106.613099 15.6935577,107.261696 15.2289423,107.607614 C15.0401923,107.737333 14.8224038,107.794986 14.6046154,107.794986 C14.2851923,107.794986 13.9802885,107.650853 13.7770192,107.362588 L13.7770192,107.362588 Z M16.3614423,110.677636 C15.9984615,110.245239 16.0565385,109.582229 16.5066346,109.221898 C16.9422115,108.861567 17.6100962,108.933633 17.9730769,109.36603 C18.3360577,109.812841 18.2779808,110.461437 17.8278846,110.821769 C17.6391346,110.980314 17.4068269,111.066794 17.16,111.066794 C16.8696154,111.066794 16.5647115,110.937075 16.3614423,110.677636 L16.3614423,110.677636 Z M19.1636538,113.834138 C18.7716346,113.416154 18.7861538,112.753144 19.2072115,112.3784 C19.6282692,111.974829 20.2961538,112.003655 20.6881731,112.42164 C21.0801923,112.839624 21.0511538,113.48822 20.6446154,113.891791 C20.4413462,114.079163 20.18,114.165643 19.9186538,114.165643 C19.6427885,114.165643 19.3669231,114.050337 19.1636538,113.834138 L19.1636538,113.834138 Z M22.1546154,116.803268 C21.7335577,116.41411 21.7190385,115.765514 22.1110577,115.347529 C22.5030769,114.915132 23.1709615,114.900719 23.5775,115.289876 C24.0130769,115.693448 24.0275962,116.342044 23.6355769,116.760028 C23.4177885,116.976227 23.1419231,117.091533 22.8660577,117.091533 C22.6192308,117.091533 22.3578846,116.99064 22.1546154,116.803268 L22.1546154,116.803268 Z M25.3198077,119.585025 C24.8842308,119.224694 24.8261538,118.561684 25.1891346,118.129287 C25.5666346,117.682476 26.22,117.624823 26.6555769,117.999568 C27.1056731,118.359899 27.16375,119.008495 26.8007692,119.455306 C26.5975,119.700331 26.2925962,119.830051 26.0022115,119.830051 C25.7553846,119.830051 25.5230769,119.757984 25.3198077,119.585025 L25.3198077,119.585025 Z M28.67375,122.164997 L28.6592308,122.164997 C28.2091346,121.833492 28.0929808,121.184896 28.4414423,120.723672 C28.7753846,120.262448 29.42875,120.161555 29.8933654,120.49306 C30.3725,120.824565 30.4596154,121.473161 30.1256731,121.948798 C29.9224038,122.22265 29.6175,122.366783 29.2835577,122.366783 C29.0802885,122.366783 28.8479808,122.294716 28.67375,122.164997 L28.67375,122.164997 Z M32.1728846,124.52877 C31.6792308,124.226092 31.5340385,123.577496 31.8534615,123.101859 C32.1583654,122.611808 32.7972115,122.482089 33.2908654,122.784767 C33.7845192,123.087445 33.9151923,123.736042 33.6102885,124.211679 C33.4070192,124.52877 33.0730769,124.701729 32.7391346,124.701729 C32.5358654,124.701729 32.3471154,124.644076 32.1728846,124.52877 L32.1728846,124.52877 Z M35.8172115,126.676345 C35.3090385,126.402493 35.1202885,125.76831 35.3961538,125.278259 C35.6720192,124.773796 36.3108654,124.586423 36.8190385,124.860275 C37.3272115,125.14854 37.5159615,125.76831 37.2255769,126.272774 C37.0368269,126.618692 36.6883654,126.806064 36.3108654,126.806064 C36.1511538,126.806064 35.9769231,126.762824 35.8172115,126.676345 L35.8172115,126.676345 Z M39.5922115,128.593307 C39.0695192,128.348282 38.8372115,127.728512 39.0840385,127.209635 C39.3308654,126.690758 39.9551923,126.460146 40.4778846,126.719585 C41.0005769,126.96461 41.2183654,127.569966 40.9860577,128.103257 C40.7973077,128.478001 40.4198077,128.6942 40.0277885,128.6942 C39.8825962,128.6942 39.7228846,128.665373 39.5922115,128.593307 L39.5922115,128.593307 Z M43.4833654,130.265244 C42.9461538,130.049045 42.6702885,129.443689 42.8880769,128.910399 C43.1058654,128.377108 43.7011538,128.132083 44.2383654,128.333869 C44.7755769,128.535654 45.0369231,129.141011 44.8336538,129.674301 C44.6739423,130.092285 44.2674038,130.33731 43.8608654,130.33731 C43.7301923,130.33731 43.5995192,130.308484 43.4833654,130.265244 L43.4833654,130.265244 Z M47.4616346,131.692156 C46.9099038,131.519197 46.605,130.928254 46.79375,130.38055 C46.9679808,129.832847 47.54875,129.544582 48.1004808,129.717541 C48.6667308,129.8905 48.9571154,130.481443 48.7828846,131.014733 C48.6231731,131.461544 48.2166346,131.735396 47.7810577,131.735396 C47.6794231,131.735396 47.5632692,131.720983 47.4616346,131.692156 L47.4616346,131.692156 Z M51.5270192,132.859629 C50.9607692,132.715497 50.6268269,132.15338 50.7720192,131.591263 C50.9172115,131.04356 51.4834615,130.697642 52.0351923,130.856188 C52.6014423,130.985907 52.9353846,131.548024 52.8047115,132.11014 C52.6740385,132.585778 52.2529808,132.888456 51.7883654,132.888456 C51.70125,132.888456 51.6141346,132.874043 51.5270192,132.859629 L51.5270192,132.859629 Z M55.665,133.782077 C55.0842308,133.666771 54.72125,133.119068 54.8228846,132.556951 C54.9390385,131.994834 55.4907692,131.62009 56.0570192,131.735396 C56.60875,131.836289 56.98625,132.383992 56.8700962,132.946109 C56.7829808,133.436159 56.3474038,133.782077 55.85375,133.782077 L55.665,133.782077 L55.665,133.782077 Z M59.8465385,134.430674 C59.2657692,134.344194 58.8592308,133.83973 58.9318269,133.2632 C59.0044231,132.701084 59.5271154,132.297513 60.0933654,132.369579 C60.6596154,132.427232 61.0806731,132.960522 61.0080769,133.522639 C60.9354808,134.055929 60.4853846,134.430674 59.9772115,134.430674 L59.8465385,134.430674 L59.8465385,134.430674 Z M64.0425962,134.819832 C63.4763462,134.791005 63.0407692,134.286541 63.0698077,133.724424 C63.0988462,133.147894 63.6070192,132.715497 64.1732692,132.744323 C64.7540385,132.77315 65.1896154,133.277614 65.1460577,133.83973 C65.1170192,134.401847 64.6669231,134.819832 64.1151923,134.819832 L64.0425962,134.819832 L64.0425962,134.819832 Z" id="Fill-13" fill="#FFCD00" sketch:type="MSShapeGroup"></path>
                <path d="M1.94384615,69.0809938 C1.66798077,69.0809938 1.40663462,68.9801011 1.21788462,68.7927288 C1.01461538,68.5909433 0.912980769,68.3170915 0.912980769,68.0432398 C0.912980769,67.7838012 1.02913462,67.5099495 1.21788462,67.3225772 C1.60990385,66.9334194 2.30682692,66.9334194 2.69884615,67.3225772 C2.88759615,67.5099495 3.00375,67.7838012 3.00375,68.0432398 C3.00375,68.3170915 2.88759615,68.5909433 2.69884615,68.7927288 C2.49557692,68.9801011 2.21971154,69.0809938 1.94384615,69.0809938" id="Fill-14" fill="#FFCD00" sketch:type="MSShapeGroup"></path>
                <path d="M68.2822115,135.194576 C67.9918269,135.194576 67.745,135.07927 67.5417308,134.891898 C67.3384615,134.690112 67.2368269,134.430674 67.2368269,134.156822 C67.2368269,133.88297 67.3529808,133.623532 67.5417308,133.421746 C67.93375,133.032588 68.6306731,133.032588 69.0226923,133.421746 C69.2114423,133.623532 69.3275962,133.88297 69.3275962,134.156822 C69.3275962,134.430674 69.2259615,134.690112 69.0226923,134.891898 C68.8194231,135.07927 68.5580769,135.194576 68.2822115,135.194576" id="Fill-15" fill="#FFCD00" sketch:type="MSShapeGroup"></path>
                <path d="M68.2822115,2.96741157 C67.9918269,2.96741157 67.745,2.85210556 67.5417308,2.6647333 C67.3384615,2.46294778 67.2368269,2.20350926 67.2368269,1.9296575 C67.2368269,1.65580573 67.3529808,1.39636721 67.5417308,1.1945817 C67.93375,0.805423919 68.6306731,0.805423919 69.0226923,1.1945817 C69.2114423,1.39636721 69.3275962,1.65580573 69.3275962,1.9296575 C69.3275962,2.20350926 69.2259615,2.46294778 69.0226923,2.6647333 C68.8194231,2.85210556 68.5580769,2.96741157 68.2822115,2.96741157" id="Fill-16" fill="#FFCD00" sketch:type="MSShapeGroup"></path>
                <path d="M134.606058,69.0809938 C134.330192,69.0809938 134.068846,68.9801011 133.865577,68.7927288 C133.676827,68.5909433 133.560673,68.3170915 133.560673,68.0432398 C133.560673,67.7838012 133.676827,67.5099495 133.865577,67.3225772 C134.257596,66.9334194 134.969038,66.9334194 135.346538,67.3225772 C135.535288,67.5099495 135.651442,67.7838012 135.651442,68.0432398 C135.651442,68.3315048 135.535288,68.5909433 135.346538,68.7927288 C135.157788,68.9801011 134.881923,69.0809938 134.606058,69.0809938" id="Fill-17" fill="#FFCD00" sketch:type="MSShapeGroup"></path>
                <path d="M25.1600962,19.0381864 C24.8116346,19.0381864 24.5067308,18.9084672 24.2744231,18.6778551 C24.0421154,18.4472431 23.9114423,18.1157383 23.9114423,17.7842336 C23.9114423,17.4671421 24.0421154,17.1500505 24.2744231,16.9050253 C24.7390385,16.4438012 25.5521154,16.4438012 26.03125,16.9050253 C26.2490385,17.1500505 26.3942308,17.4671421 26.3942308,17.7842336 C26.3942308,18.1157383 26.2635577,18.4472431 26.03125,18.6778551 C25.7989423,18.9084672 25.4940385,19.0381864 25.1600962,19.0381864" id="Fill-18" fill="#FFCD00" sketch:type="MSShapeGroup"></path>
                <path d="M111.70573,83.0340124 C109.62948,79.6180719 110.689384,73.5645065 110.00698,68.6495879 C109.527845,65.1615812 107.248326,61.5438552 105.172076,61.2123504 C102.83448,60.8376059 100.961499,62.6104358 98.8997681,63.1293128 C97.2155374,60.8520191 93.3243835,60.8376059 91.1755374,61.933013 C91.0739028,60.8376059 91.4223643,59.295388 90.9287104,58.5747255 C88.4894797,58.8774038 85.6582297,58.0558484 82.7253451,58.0990882 C86.0212104,64.0950006 83.0883258,74.3428221 82.9576528,82.0683246 C85.5711143,81.8521258 87.7635181,81.2467693 90.2027489,80.8720248 C90.4495758,78.1335071 90.522172,74.0401438 90.6964028,70.7971623 C90.7835181,69.0675722 90.1011143,66.3434678 92.3806335,66.242575 C94.6456335,70.263872 93.3098643,76.1877182 93.1065951,81.5926873 C95.3715951,81.2035295 97.5785181,80.7567187 99.8725566,80.3963875 C99.2191912,75.8418002 99.3789028,71.2872128 100.351691,67.2082628 C101.208326,67.1794363 101.426114,66.5164268 102.282749,66.4876003 C104.576787,70.4224178 103.792749,76.5336362 103.241018,81.8377126 C105.985153,82.3133499 108.67121,82.8466401 111.70573,83.0340124 L111.70573,83.0340124 Z M81.9993835,69.1252252 C82.1300566,64.8589029 79.6908258,60.9384986 77.6581335,57.8540629 C75.422172,57.4360787 72.9974604,57.2054666 70.892172,56.6577631 C68.0173643,59.6413061 63.4583258,63.8643886 63.4002489,69.1252252 C63.342172,74.1842763 67.5382297,78.2920528 71.6181335,80.3963875 C77.0628451,78.7388636 81.7961143,75.5247086 81.9993835,69.1252252 L81.9993835,69.1252252 Z M73.7814989,72.2384874 C71.8504412,71.6043044 71.1970758,69.7017552 70.1662104,68.1595374 C70.9212104,66.6029063 71.1680374,64.5273981 72.5764028,63.6049501 C76.3368835,64.8012499 77.6581335,70.2350455 73.7814989,72.2384874 L73.7814989,72.2384874 Z M62.9211143,69.1252252 C63.0517874,64.8589029 60.6125566,60.9384986 58.5798643,57.8540629 C56.3439028,57.4360787 53.9191912,57.2054666 51.8139028,56.6577631 C48.9390951,59.6413061 44.3800566,63.8643886 44.3219797,69.1252252 C44.2639028,74.1842763 48.4599604,78.2920528 52.5398643,80.3963875 C57.9845758,78.7388636 62.7178451,75.5247086 62.9211143,69.1252252 L62.9211143,69.1252252 Z M54.7032297,72.2384874 C52.772172,71.6043044 52.1188066,69.7017552 51.0879412,68.1595374 C51.8429412,66.6029063 52.0897681,64.5273981 53.4981335,63.6049501 C57.2586143,64.8012499 58.5798643,70.2350455 54.7032297,72.2384874 L54.7032297,72.2384874 Z M43.8428451,65.5219125 C43.9880374,62.913114 43.4217874,60.9961516 43.5960181,58.3297002 C42.6377489,58.0990882 41.5342874,57.9837822 40.4598643,57.8540629 C39.1095758,58.5891387 38.6739989,60.2322493 37.3237104,60.9673251 L37.3237104,57.1334004 C34.8699604,56.8595486 32.7501528,56.2397788 30.3254412,55.9371006 C30.2238066,65.3777799 31.8644797,73.7951185 30.3254412,83.5096497 C33.1712104,82.9907726 35.3926528,81.8377126 38.2819797,81.347662 C37.5705374,76.519223 36.7139028,71.4169321 37.5705374,66.242575 C39.3854412,65.2768872 41.635922,64.2823729 43.8428451,65.5219125 L43.8428451,65.5219125 Z" id="Fill-19" fill="#FFBC01" sketch:type="MSShapeGroup"></path>
                <path d="M111.647653,41.8841808 C111.487941,41.3076508 110.166691,42.7345627 109.760153,41.8841808 C109.861787,35.5279372 109.774672,29.373479 106.682076,26.1881505 C103.19746,26.216977 100.337172,25.6116205 96.7654412,25.7125132 C97.1429412,27.5429961 97.1719797,30.5121258 96.5331335,32.0399304 C98.3480374,32.0543437 102.848999,30.3247536 103.38621,32.7461797 C101.092172,35.3117384 95.5748643,35.5567637 95.1247681,39.3042089 C94.6891912,42.8498687 98.1738066,46.1937429 99.1320758,49.6240966 C102.369864,48.384557 106.59496,48.1251185 110.703903,47.750374 C110.994287,45.7757586 111.241114,43.7579035 111.647653,41.8841808 L111.647653,41.8841808 Z M103.850826,38.6123729 C103.458807,40.0969377 104.126691,42.6192566 102.907076,43.2966794 C101.49871,43.0516542 101.818134,41.091452 100.787268,40.4860955 C101.12121,39.1744897 101.963326,38.3673476 103.850826,38.6123729 L103.850826,38.6123729 Z M92.9904412,33.452429 C92.8452489,31.0310029 93.3824604,29.3014127 93.9341912,27.5862359 C86.0647681,25.5683807 80.329672,29.8779428 79.7779412,36.263013 C79.3714028,40.803187 81.9413066,45.4874936 83.0738066,49.3934846 C86.2389989,49.5664436 88.5475566,48.8890208 91.5820758,48.9178473 C91.9740951,46.8135127 92.6129412,44.9397901 92.9904412,42.8210422 C86.5439028,44.2191275 85.2952489,38.5114801 86.6164989,33.683041 C88.8960181,33.7551073 90.6092874,33.2650568 92.9904412,33.452429 L92.9904412,33.452429 Z M78.3550566,29.4599585 C78.8922681,28.2780719 79.1536143,26.8223336 79.0664989,25.0062639 C76.4675566,25.179223 74.5800566,24.6171062 71.9811143,24.7756519 C71.6181335,25.813406 71.7197681,27.3267974 71.5164989,28.5230972 C72.8958258,29.7338103 75.7561143,29.4599585 78.3550566,29.4599585 L78.3550566,29.4599585 Z M71.5164989,30.8724571 C71.3713066,38.0502561 70.4565951,44.4497395 71.0373643,51.7284313 C73.6653451,51.5266458 76.3223643,51.3536867 78.8341912,51.0365952 C77.2225566,45.2857081 77.5129412,37.4881393 78.3550566,31.1030691 C76.1336143,30.9589366 73.345922,31.3913341 71.5164989,30.8724571 L71.5164989,30.8724571 Z M70.0936143,34.1586783 C70.2388066,31.5931196 69.6870758,29.719397 69.8613066,27.1250118 C68.9175566,26.8799866 67.8431335,26.7790938 66.7832297,26.6493746 C65.4619797,27.3700371 65.040922,28.969908 63.719672,29.7049838 L63.719672,25.9431253 C61.3239989,25.6692735 59.2622681,25.0639169 56.8665951,24.7756519 C56.7794797,34.0001326 58.3765951,42.2300989 56.8665951,51.7284313 C59.6688066,51.2239675 61.832172,50.0853207 64.663422,49.6240966 C63.9664989,44.8965503 63.1243835,39.9095655 63.9519797,34.8505144 C65.7378451,33.8992398 67.9302489,32.933552 70.0936143,34.1586783 L70.0936143,34.1586783 Z M54.7467874,28.2924852 C54.9064989,25.9575385 55.8792874,24.4153207 56.4019797,22.426292 C48.6632297,20.6534621 44.4816912,24.2711881 44.8301528,31.8093184 C44.5252489,31.4922269 43.8138066,31.5787064 43.1749604,31.5787064 C43.2911143,33.7118675 43.0733258,35.5279372 42.9426528,37.4304863 C43.712172,37.7043381 44.3945758,36.724237 44.8301528,37.4304863 C44.9172681,43.1381337 45.1060181,48.7304751 45.3092874,54.3084032 C48.0243835,53.7318732 50.5362104,52.9391443 53.0915951,52.2040685 C51.8574604,48.326904 50.4926528,42.9651747 51.6832297,38.1367356 C52.4091912,38.1079091 52.8012104,38.4250006 53.338422,38.6123729 C53.904672,36.2774262 54.4854412,33.9713061 55.225922,31.8093184 C53.4836143,31.8525582 53.1206335,31.8957979 51.4364028,31.8093184 C51.3638066,30.3391668 51.1605374,28.3357249 51.9155374,27.1250118 C52.9318835,27.4421034 53.8175566,27.8889141 54.7467874,28.2924852 L54.7467874,28.2924852 Z M41.5342874,47.750374 C41.824672,45.7757586 42.0714989,43.7579035 42.4780374,41.8841808 C42.3183258,41.3076508 40.9970758,42.7345627 40.5905374,41.8841808 C40.692172,35.5279372 40.6050566,29.373479 37.5124604,26.1881505 C34.0278451,26.216977 31.1675566,25.6116205 27.5958258,25.7125132 C27.9733258,27.5429961 28.0023643,30.5121258 27.3635181,32.0399304 C29.178422,32.0543437 33.6793835,30.3247536 34.2165951,32.7461797 C31.9225566,35.3117384 26.3907297,35.5567637 25.9406335,39.3042089 C25.5195758,42.8498687 29.0041912,46.1937429 29.9624604,49.6240966 C33.2002489,48.384557 37.4253451,48.1251185 41.5342874,47.750374 L41.5342874,47.750374 Z M34.6812104,38.6123729 C34.2891912,40.0969377 34.9570758,42.6192566 33.7374604,43.2966794 C32.3290951,43.0516542 32.6485181,41.091452 31.6176528,40.4860955 C31.9515951,39.1744897 32.7937104,38.3673476 34.6812104,38.6123729 L34.6812104,38.6123729 Z" id="Fill-20" fill="#FFBC01" sketch:type="MSShapeGroup"></path>
            </g>
        </g>
    </g>
</svg>