<?xml version="1.0" encoding="UTF-8" standalone="no"?>
<svg width="42px" height="42px" viewBox="0 0 42 42" version="1.1" xmlns="http://www.w3.org/2000/svg" xmlns:xlink="http://www.w3.org/1999/xlink" xmlns:sketch="http://www.bohemiancoding.com/sketch/ns">
    <!-- Generator: Sketch 3.3.2 (12043) - http://www.bohemiancoding.com/sketch -->
    <title>aventura-mobil-brand</title>
    <desc>Created with Sketch.</desc>
    <defs></defs>
    <g id="kit" stroke="none" stroke-width="1" fill="none" fill-rule="evenodd" sketch:type="MSPage">
        <g id="aventura-mobil-brand" sketch:type="MSArtboardGroup">
            <g id="brand" sketch:type="MSLayerGroup" transform="translate(1.000000, 1.000000)">
                <path d="M19.9939394,5.06060606 L6.66666667,17.8545455 L11.1030303,17.8545455 L11.1030303,33.5454545 L13.7030303,33.5454545 L13.7030303,24.3090909 C13.7030303,19.4848485 16.8060606,17.3272727 19.8787879,17.3272727 C22.8545455,17.3272727 26.0545455,19.5090909 26.0545455,24.3090909 L26.0545455,33.5454545 L28.8969697,33.5454545 L28.8969697,17.8545455 L33.3333333,17.8545455 L19.9939394,5.06060606" id="Fill-1" fill="#8DC644" sketch:type="MSShapeGroup"></path>
                <path d="M22.4121212,24.4666667 C22.4121212,22.3818182 21.3333333,21.3757576 20,21.3757576 C18.6666667,21.3757576 17.5878788,22.3818182 17.5878788,24.4666667 L17.5878788,26.3878788 L22.4121212,26.3878788 L22.4121212,24.4666667 L22.4121212,24.4666667 Z M17.5878788,33.5454545 L15.1515152,33.5454545 L15.1515152,24.4666667 C15.1515152,20.9454545 17.3272727,19 20,19 C22.6727273,19 24.8484848,20.9454545 24.8484848,24.4666667 L24.8484848,33.5454545 L22.4121212,33.5454545 L22.4121212,28.7636364 L17.5878788,28.7636364 L17.5878788,33.5454545 L17.5878788,33.5454545 Z" id="Fill-2" fill="#221E1F" sketch:type="MSShapeGroup"></path>
                <path d="M8,0 L32,0 C36.4181818,0 40,3.52835821 40,7.88059701 L40,32.119403 C40,36.4716418 36.4181818,40 32,40 L8,40 C3.58181818,40 0,36.4716418 0,32.119403 L0,7.88059701 C0,3.52835821 3.58181818,0 8,0 L8,0 Z" id="Stroke-3" stroke="#8DC644" stroke-width="1.8" stroke-linecap="round" stroke-linejoin="round" sketch:type="MSShapeGroup"></path>
            </g>
        </g>
    </g>
</svg>