<?xml version="1.0" encoding="UTF-8" standalone="no"?>
<svg width="60px" height="60px" viewBox="0 0 60 60" version="1.1" xmlns="http://www.w3.org/2000/svg" xmlns:xlink="http://www.w3.org/1999/xlink" xmlns:sketch="http://www.bohemiancoding.com/sketch/ns">
    <!-- Generator: Sketch 3.3.2 (12043) - http://www.bohemiancoding.com/sketch -->
    <title>aventura-ap-facilities-iron</title>
    <desc>Created with Sketch.</desc>
    <defs></defs>
    <g id="kit" stroke="none" stroke-width="1" fill="none" fill-rule="evenodd" sketch:type="MSPage">
        <g id="aventura-ap-facilities-iron" sketch:type="MSArtboardGroup" fill="#FFFFFF">
            <path d="M36.57,19 L19.27,19 C18.22,19 17.37,19.89 17.37,20.98 C17.37,22.07 18.22,22.96 19.27,22.96 L36.09,22.96 L38.34,26.96 L19.47,26.96 C12.82,30.83 12,40.6 12,40.6 L48.72,40.6 L36.57,19 L36.57,19 Z M24.5,35.65 C23.45,35.65 22.6,34.77 22.6,33.67 C22.6,32.58 23.45,31.69 24.5,31.69 C25.55,31.69 26.4,32.58 26.4,33.67 C26.4,34.77 25.55,35.65 24.5,35.65 L24.5,35.65 Z M33.72,35.65 C32.67,35.65 31.82,34.77 31.82,33.67 C31.82,32.58 32.67,31.69 33.72,31.69 C34.77,31.69 35.62,32.58 35.62,33.67 C35.62,34.77 34.77,35.65 33.72,35.65 L33.72,35.65 Z" id="Imported-Layers" sketch:type="MSShapeGroup"></path>
        </g>
    </g>
</svg>