<?xml version="1.0" encoding="UTF-8" standalone="no"?>
<svg width="60px" height="60px" viewBox="0 0 60 60" version="1.1" xmlns="http://www.w3.org/2000/svg" xmlns:xlink="http://www.w3.org/1999/xlink" xmlns:sketch="http://www.bohemiancoding.com/sketch/ns">
    <!-- Generator: Sketch 3.3.2 (12043) - http://www.bohemiancoding.com/sketch -->
    <title>aventura-ap-facilities-breakfast</title>
    <desc>Created with Sketch.</desc>
    <defs></defs>
    <g id="kit" stroke="none" stroke-width="1" fill="none" fill-rule="evenodd" sketch:type="MSPage">
        <g id="aventura-ap-facilities-breakfast" sketch:type="MSArtboardGroup" fill="#FFFFFF">
            <path d="M16.0611682,13.4824439 C17.6068134,13.5253471 19.2958457,14.1711535 20.7522973,15.3306697 C24.6824586,18.455831 28.4613295,21.7559923 32.0674586,25.2503471 C32.3485876,25.5224439 32.5179424,25.5224439 32.7369747,25.2356697 C32.7708457,25.1916374 32.818265,25.1566374 32.8600392,25.1159923 C33.8197166,24.1811535 33.8400392,24.0885729 33.3613295,22.8455084 C32.8002005,21.3913148 32.8002005,21.3913148 33.8885876,20.3017987 C36.5553618,17.6361535 39.222136,14.9705084 41.883265,12.2992181 C42.0458457,12.1366374 42.2231037,12.0372826 42.4398779,12.0067987 C42.8553618,11.948089 43.1297166,12.2777665 43.0122973,12.680831 C42.9445553,12.9122826 42.7718134,13.06696 42.6092328,13.2295406 C40.7339102,15.1048632 38.8585876,16.9801858 36.983265,18.8566374 C36.8014908,19.0372826 36.597136,19.2066374 36.5790715,19.4922826 C36.5576199,19.823089 36.7326199,19.9822826 37.0543941,19.9066374 C37.2497166,19.8603471 37.4145553,19.7621213 37.5647166,19.61196 C39.4953618,17.6700245 41.4350392,15.7359923 43.3668134,13.7963148 C43.5034263,13.6585729 43.6490715,13.5648632 43.8342328,13.5106697 C44.0476199,13.4497019 44.2429424,13.4711535 44.3863295,13.6337342 C44.5364908,13.8064761 44.5647166,14.0187342 44.472136,14.2388955 C44.3919747,14.4297019 44.2429424,14.5663148 44.1018134,14.7074439 C42.2558457,16.5534116 40.411007,18.3982503 38.5661682,20.243089 C38.4848779,20.3243794 38.4024586,20.4056697 38.3234263,20.488089 C38.0885876,20.733089 37.8943941,21.0548632 38.173265,21.3145406 C38.4408457,21.5629277 38.7750392,21.3653471 39.0076199,21.1338955 C40.9461682,19.1998632 42.8802005,17.2601858 44.8142328,15.3216374 C44.8752005,15.2617987 44.9226199,15.1805084 44.9948779,15.1398632 C45.276007,14.9784116 45.593265,14.8305084 45.8563295,15.1127665 C46.1092328,15.3826052 46.0392328,15.7055084 45.7998779,15.9663148 C45.5085876,16.2824439 45.1981037,16.5805084 44.8943941,16.8853471 C43.283265,18.4976052 41.671007,20.1098632 40.0587489,21.7221213 C39.9672973,21.8124439 39.8735876,21.9027665 39.7877811,21.9976052 C39.572136,22.2347019 39.4152005,22.4977665 39.6376199,22.8026052 C39.7742328,22.9900245 40.2168134,22.8940568 40.4798779,22.6332503 C40.8468134,22.270831 41.2069747,21.9016374 41.5727811,21.535831 C43.1635876,19.9438955 44.7566521,18.3542181 46.3440715,16.7577665 C46.4931037,16.6076052 46.6534263,16.5082503 46.8566521,16.4732503 C47.3003618,16.3976052 47.5781037,16.708089 47.4595553,17.1438955 C47.4042328,17.3482503 47.2585876,17.4871213 47.1174586,17.6293794 C44.2474586,20.4982503 41.3763295,23.3648632 38.5153618,26.2427665 C38.2906844,26.4674439 38.0727811,26.5103471 37.7848779,26.4561535 C37.2022973,26.3466374 36.6648779,26.1095406 36.1252005,25.8814761 C35.6476199,25.6793794 35.2411682,25.7606697 34.8584263,26.0993794 C34.2216521,26.6616374 33.6763295,27.3085729 33.1016521,27.9284116 C32.9729424,28.0661535 32.9650392,28.1993794 33.0429424,28.3574439 C33.1253618,28.5245406 33.2055231,28.6916374 33.2800392,28.8621213 C33.413265,29.165831 33.5984263,29.2685729 33.9529424,29.1771213 C34.5772973,29.0156697 35.1395553,29.1906697 35.6137489,29.6400245 C39.4219747,33.2506697 43.2324586,36.8579277 47.0406844,40.4685729 C47.553265,40.9540568 47.9089102,41.5084116 47.7011682,42.258089 C47.6526199,42.4342181 47.5758457,42.6148632 47.4663295,42.7593794 C46.9785876,43.4006697 46.4118134,43.9764761 45.7806844,44.4687342 C45.1111682,44.9892181 44.1740715,44.8717987 43.5463295,44.2553471 C42.7277811,43.4526052 41.9227811,42.6351858 41.111007,41.8245406 C38.2319747,38.9443794 35.3540715,36.0642181 32.4727811,33.1874439 C31.8800392,32.5947019 31.4927811,31.9466374 31.8314908,31.0738955 C31.8506844,31.0242181 31.8664908,30.9542181 31.8450392,30.9124439 C31.7129424,30.6550245 30.7566521,30.5929277 30.5522973,30.8277665 C28.1440715,33.5972826 25.7347166,36.3656697 23.3287489,39.1374439 C21.967136,40.7079277 20.6439102,42.3122826 19.2427811,43.8455084 C18.3056844,44.8706697 17.1484263,45.6214761 15.8218134,46.0843794 C15.4108457,46.2277665 14.9863295,46.283089 14.5539102,46.2605084 C13.6811682,46.2153471 13.1561682,45.6587342 13.1539102,44.7848632 C13.1527811,44.1571213 13.323265,43.5700245 13.5806844,43.0021213 C14.1158457,41.8222826 14.9027811,40.8264761 15.8342328,39.9390568 C19.0948779,36.830831 22.5813295,33.9788955 25.993265,31.0434116 C26.7655231,30.3795406 27.5355231,29.7134116 28.3258457,29.0732503 C28.5855231,28.8632503 28.583265,28.7638955 28.338265,28.5392181 C24.8281037,25.3237342 21.3281037,22.09696 17.8258457,18.8735729 C16.2858457,17.4555084 14.7526199,16.0306697 13.1990715,14.6284116 C12.8818134,14.3416374 12.9687489,14.2377665 13.2837489,14.0751858 C14.0503618,13.6800245 14.8598779,13.4813148 16.0611682,13.4824439" id="Imported-Layers" sketch:type="MSShapeGroup"></path>
        </g>
    </g>
</svg>