<?xml version="1.0" encoding="UTF-8" standalone="no"?>
<svg width="12px" height="13px" viewBox="0 0 12 13" version="1.1" xmlns="http://www.w3.org/2000/svg" xmlns:xlink="http://www.w3.org/1999/xlink" xmlns:sketch="http://www.bohemiancoding.com/sketch/ns">
    <!-- Generator: Sketch 3.3.2 (12043) - http://www.bohemiancoding.com/sketch -->
    <title>aventura-rooms-people</title>
    <desc>Created with Sketch.</desc>
    <defs></defs>
    <g id="kit" stroke="none" stroke-width="1" fill="none" fill-rule="evenodd" sketch:type="MSPage">
        <g id="aventura-rooms-people" sketch:type="MSArtboardGroup" fill="#FFFFFF">
            <path d="M9.096,7.33055556 L2.904,7.33055556 C1.304,7.33055556 0,8.64361111 0,10.2627778 L0,12.8888889 L12,12.8888889 L12,10.2627778 C12,8.64361111 10.696,7.33055556 9.096,7.33055556 L9.096,7.33055556 Z M6,5.55833333 C7.52,5.55833333 8.752,4.30972222 8.752,2.77916667 C8.752,1.99777778 8.44,1.29694444 7.928,0.7975 C7.432,0.306111111 6.752,0 6,0 C4.704,0 3.624,0.902222222 3.328,2.11861111 C3.28,2.32805556 3.248,2.54555556 3.248,2.77916667 C3.248,4.30972222 4.48,5.55833333 6,5.55833333 L6,5.55833333 Z" id="Imported-Layers" sketch:type="MSShapeGroup"></path>
        </g>
    </g>
</svg>