<?xml version="1.0" encoding="UTF-8" standalone="no"?>
<svg width="42px" height="42px" viewBox="0 0 42 42" version="1.1" xmlns="http://www.w3.org/2000/svg" xmlns:xlink="http://www.w3.org/1999/xlink" xmlns:sketch="http://www.bohemiancoding.com/sketch/ns">
    <!-- Generator: Sketch 3.3.2 (12043) - http://www.bohemiancoding.com/sketch -->
    <title>aventura-mobil-navIcon-skype</title>
    <desc>Created with Sketch.</desc>
    <defs></defs>
    <g id="kit" stroke="none" stroke-width="1" fill="none" fill-rule="evenodd" sketch:type="MSPage">
        <g id="aventura-mobil-navIcon-skype" sketch:type="MSArtboardGroup">
            <g id="skype" sketch:type="MSLayerGroup" transform="translate(8.000000, 7.000000)">
                <path d="M25.335689,16.9426923 C25.5219081,16.0544231 25.6240283,15.1303846 25.6240283,14.1825 C25.6240283,7.08230769 20.1035336,1.3175 13.2975265,1.3175 C12.5766784,1.3175 11.8738516,1.38307692 11.1890459,1.50826923 C10.0897527,0.786923077 8.78621908,0.363653846 7.38657244,0.363653846 C3.43992933,0.363653846 0.238162544,3.70211538 0.238162544,7.82153846 C0.238162544,9.19865385 0.598586572,10.4923077 1.22332155,11.5951923 C1.06113074,12.4298077 0.971024735,13.3001923 0.971024735,14.1825 C0.971024735,21.2886538 6.49151943,27.0475 13.2975265,27.0475 C14.0664311,27.0475 14.8233216,26.97 15.5561837,26.8328846 C16.559364,27.3932692 17.7127208,27.7151923 18.9321555,27.7151923 C22.8787986,27.7151923 26.0805654,24.3767308 26.0805654,20.2573077 C26.0805654,19.065 25.8102473,17.9442308 25.335689,16.9426923" id="Fill-6" fill="#00AFF0" sketch:type="MSShapeGroup"></path>
                <path d="M9.59717314,5.72903846 C8.5639576,6.12846154 7.7590106,6.71269231 7.20636042,7.46384615 C6.65371025,8.215 6.37137809,9.09134615 6.37137809,10.0630769 C6.37137809,11.0825 6.64169611,11.9528846 7.17031802,12.6444231 C7.6869258,13.3240385 8.40176678,13.8665385 9.28480565,14.26 C10.1498233,14.6415385 11.2371025,14.9813462 12.5166078,15.2675 C13.4537102,15.4761538 14.2166078,15.6728846 14.775265,15.8517308 C15.3159011,16.0246154 15.754417,16.2809615 16.0908127,16.6088462 C16.4091873,16.9248077 16.565371,17.3242308 16.565371,17.8309615 C16.565371,18.4748077 16.2710247,18.9994231 15.6522968,19.4346154 C15.0275618,19.8817308 14.1925795,20.1082692 13.1713781,20.1082692 C12.4325088,20.1082692 11.8318021,19.995 11.3812721,19.7744231 C10.9367491,19.5598077 10.5883392,19.2796154 10.3480565,18.9457692 C10.0957597,18.5940385 9.8614841,18.1528846 9.63922261,17.6342308 C9.44699647,17.1513462 9.20070671,16.7817308 8.91837456,16.5313462 C8.62402827,16.2690385 8.25759717,16.1378846 7.83109541,16.1378846 C7.31448763,16.1378846 6.8819788,16.3048077 6.54558304,16.6386538 C6.20318021,16.9725 6.03498233,17.3778846 6.03498233,17.8488462 C6.03498233,18.6059615 6.29929329,19.3869231 6.82190813,20.1738462 C7.3385159,20.9548077 8.02332155,21.5867308 8.85229682,22.0517308 C10.0116608,22.6955769 11.4954064,23.0175 13.2614841,23.0175 C14.7392226,23.0175 16.030742,22.785 17.1120141,22.3140385 C18.2053004,21.8430769 19.0462898,21.1753846 19.6169611,20.3288462 C20.1876325,19.4882692 20.4819788,18.5225 20.4819788,17.4613462 C20.4819788,16.5730769 20.3137809,15.81 19.9773852,15.1959615 C19.6469965,14.5819231 19.1784452,14.0632692 18.5897527,13.6638462 C18.0130742,13.2703846 17.3042403,12.9305769 16.4812721,12.6563462 C15.670318,12.3880769 14.7572438,12.1376923 13.7540636,11.9171154 C12.9671378,11.7263462 12.3964664,11.5773077 12.0540636,11.4759615 C11.7176678,11.3805769 11.3812721,11.2494231 11.0568905,11.0765385 C10.75053,10.9155769 10.4982332,10.7188462 10.3240283,10.4923077 C10.1618375,10.2836538 10.0777385,10.0392308 10.0777385,9.74711538 C10.0777385,9.27019231 10.3300353,8.86480769 10.840636,8.51307692 C11.375265,8.14942308 12.0961131,7.96461538 12.9791519,7.96461538 C13.9282686,7.96461538 14.6250883,8.13153846 15.0335689,8.45942308 C15.4600707,8.79923077 15.8325088,9.27615385 16.1448763,9.88423077 C16.4091873,10.3611538 16.64947,10.695 16.8777385,10.9096154 C17.1240283,11.1361538 17.4844523,11.2553846 17.9409894,11.2553846 C18.439576,11.2553846 18.8660777,11.0705769 19.2024735,10.7009615 C19.5388693,10.3373077 19.7130742,9.92 19.7130742,9.46096154 C19.7130742,8.98403846 19.5809187,8.48923077 19.3226148,7.99442308 C19.070318,7.49961538 18.6678445,7.02865385 18.1272085,6.5875 C17.5865724,6.14634615 16.9017668,5.78865385 16.0908127,5.52634615 C15.2858657,5.26403846 14.3187279,5.13288462 13.2134276,5.13288462 C11.8378092,5.13288462 10.6243816,5.33557692 9.59717314,5.72903846" id="Fill-7" fill="#FFFFFF" sketch:type="MSShapeGroup"></path>
            </g>
        </g>
    </g>
</svg>