<?xml version="1.0" encoding="UTF-8" standalone="no"?>
<svg width="149px" height="149px" viewBox="0 0 149 149" version="1.1" xmlns="http://www.w3.org/2000/svg" xmlns:xlink="http://www.w3.org/1999/xlink" xmlns:sketch="http://www.bohemiancoding.com/sketch/ns">
    <!-- Generator: Sketch 3.3.2 (12043) - http://www.bohemiancoding.com/sketch -->
    <title>aventura-art-ap-logo</title>
    <desc>Created with Sketch.</desc>
    <defs></defs>
    <g id="kit" stroke="none" stroke-width="1" fill="none" fill-rule="evenodd" sketch:type="MSPage">
        <g id="aventura-art-ap-logo" sketch:type="MSArtboardGroup">
            <g id="Imported-Layers" sketch:type="MSLayerGroup" transform="translate(6.000000, 7.000000)">
                <path d="M20.808581,21.6479254 C20.4178517,21.2282532 20.4178517,20.5770377 20.8375239,20.1718369 C21.2427247,19.7666361 21.9084117,19.7811076 22.299141,20.1863083 C22.7043417,20.5915091 22.7043417,21.2571961 22.2846695,21.6623969 C22.0820691,21.8649973 21.8215829,21.951826 21.5610967,21.951826 C21.286139,21.951826 21.0256528,21.8505258 20.808581,21.6479254 L20.808581,21.6479254 Z M18.0734757,24.6001025 C17.639332,24.2238447 17.5959177,23.5581577 17.986647,23.1384854 C18.3773763,22.7043417 19.0285918,22.6753988 19.4627355,23.0516567 C19.8968792,23.442386 19.9258221,24.0936016 19.5350928,24.5422167 C19.3324924,24.7592885 19.0430633,24.8750602 18.7681056,24.8750602 C18.5076194,24.8750602 18.2616047,24.7882315 18.0734757,24.6001025 L18.0734757,24.6001025 Z M15.4975565,27.7259371 C15.0489414,27.3786221 14.9765841,26.7129351 15.3383705,26.26432 C15.6856854,25.8157049 16.336901,25.7433476 16.7999876,26.105134 C17.2486027,26.4524489 17.32096,27.1181359 16.9591736,27.5667511 C16.7565732,27.8127658 16.4526726,27.9574804 16.148772,27.9574804 C15.9172287,27.9574804 15.6856854,27.8706517 15.4975565,27.7259371 L15.4975565,27.7259371 Z M13.1242377,30.9964862 C12.6611511,30.6781142 12.5453794,30.0124272 12.8782229,29.5493406 C13.196595,29.086254 13.8478105,28.9704823 14.3253685,29.2888544 C14.8029266,29.6361693 14.9042268,30.2729134 14.5713833,30.7504715 C14.3687829,31.0399006 14.0504109,31.1846151 13.7320388,31.1846151 C13.514967,31.1846151 13.3123666,31.1267293 13.1242377,30.9964862 L13.1242377,30.9964862 Z M10.9535192,34.4117499 C10.4614897,34.1078493 10.3167751,33.4711052 10.6062043,32.9790757 C10.9245763,32.5015177 11.5613204,32.3423317 12.0533499,32.6462322 C12.530908,32.9501328 12.690094,33.5724054 12.3861934,34.0789064 C12.183593,34.3972784 11.8507495,34.5709359 11.5034346,34.5709359 C11.3153056,34.5709359 11.1271767,34.5275216 10.9535192,34.4117499 L10.9535192,34.4117499 Z M8.99987262,37.9572567 C8.49337165,37.682299 8.30524272,37.045555 8.56572893,36.539054 C8.8406866,36.032553 9.47743068,35.8444241 9.98393165,36.1193817 C10.4904326,36.379868 10.6785616,37.016612 10.4036039,37.523113 C10.215475,37.8848994 9.85368854,38.0874998 9.49190214,38.0874998 C9.31824466,38.0874998 9.15905864,38.0440854 8.99987262,37.9572567 L8.99987262,37.9572567 Z M7.26329786,41.6185351 C6.74232544,41.3725204 6.51078214,40.7502478 6.75679689,40.2292753 C6.98834019,39.7083029 7.61061282,39.4767596 8.13158524,39.7227744 C8.65255767,39.9543177 8.88410097,40.5765903 8.63808621,41.0975627 L8.65255767,41.0975627 C8.46442874,41.4738206 8.08817087,41.7053639 7.69744155,41.7053639 C7.55272699,41.7053639 7.39354097,41.676421 7.26329786,41.6185351 L7.26329786,41.6185351 Z M5.75826641,45.3666423 C5.22282252,45.1495705 4.94786485,44.5562408 5.1649367,44.0063254 C5.36753709,43.4708816 5.9608668,43.2103953 6.51078214,43.4129957 C7.04622602,43.6300676 7.30671223,44.2233973 7.10411184,44.7588412 C6.94492583,45.1785134 6.5541965,45.4245282 6.13452427,45.4245282 C6.00428117,45.4245282 5.88850951,45.4100567 5.75826641,45.3666423 L5.75826641,45.3666423 Z M4.48477825,49.2015783 C3.93486291,49.0279208 3.63096233,48.4490625 3.80461981,47.8846757 C3.97827728,47.3492318 4.57160699,47.0453313 5.10705087,47.2189887 C5.65696621,47.3781748 5.9608668,47.9715045 5.78720932,48.5214198 C5.64249476,48.9555635 5.23729398,49.2449926 4.78867883,49.2449926 C4.68737864,49.2449926 4.58607845,49.2449926 4.48477825,49.2015783 L4.48477825,49.2015783 Z M3.4428334,53.1088715 C2.89291806,52.9786283 2.54560311,52.4142416 2.69031767,51.8498548 C2.83503223,51.285468 3.39941903,50.9526245 3.94933437,51.097339 C4.49924971,51.2275821 4.84656466,51.7919689 4.7018501,52.3563557 C4.6005499,52.8339138 4.16640621,53.1522858 3.68884816,53.1522858 C3.61649087,53.1522858 3.52966214,53.1378144 3.4428334,53.1088715 L3.4428334,53.1088715 Z M2.6469033,57.0885219 C2.0825165,56.9727503 1.7207301,56.422835 1.82203029,55.8584482 C1.92333049,55.2940614 2.45877437,54.932275 3.02316117,55.0335751 C3.58754796,55.1348753 3.96380583,55.6703192 3.87697709,56.234706 C3.77567689,56.741207 3.3415332,57.0885219 2.83503223,57.0885219 L2.6469033,57.0885219 L2.6469033,57.0885219 Z M2.11145942,61.0826439 C1.53260117,61.0247581 1.12740039,60.4893142 1.19975767,59.9249274 C1.2576435,59.3460691 1.79308738,58.9408683 2.35747417,59.0132256 C2.92186097,59.0855829 3.3415332,59.6065553 3.26917592,60.1709421 C3.19681864,60.706386 2.7482035,61.0971153 2.24170252,61.0971153 L2.11145942,61.0826439 L2.11145942,61.0826439 Z M1.79308738,65.1201802 C1.22870058,65.0912373 0.794556893,64.5847363 0.823499806,64.0203495 C0.852442718,63.4414913 1.35894369,63.0073476 1.92333049,63.0362905 C2.50218874,63.0652334 2.93633243,63.5717344 2.90738951,64.1361212 C2.86397515,64.700508 2.41536,65.1201802 1.86544466,65.1201802 L1.79308738,65.1201802 L1.79308738,65.1201802 Z" id="Fill-2" fill="#EB8300" sketch:type="MSShapeGroup"></path>
                <path d="M62.5153181,2.19828816 C62.4719037,1.63390136 62.9060474,1.12740039 63.4849056,1.09845748 C64.0637639,1.06951456 64.5557934,1.50365825 64.5847363,2.06804505 C64.6281507,2.63243184 64.194007,3.13893282 63.6151487,3.16787573 L63.5572629,3.16787573 C63.0073476,3.16787573 62.544261,2.7482035 62.5153181,2.19828816 L62.5153181,2.19828816 Z M58.2462384,2.67584621 C58.1738812,2.11145942 58.5790819,1.59048699 59.1434687,1.51812971 C59.722327,1.44577243 60.228828,1.8509732 60.3156567,2.41536 C60.388014,2.9797468 59.9828132,3.51519068 59.4184264,3.58754796 L59.2737118,3.58754796 C58.7527394,3.58754796 58.3041243,3.2112901 58.2462384,2.67584621 L58.2462384,2.67584621 Z M54.0205732,3.4428334 C53.9048016,2.8784466 54.2810594,2.32853126 54.8454462,2.21275961 C55.409833,2.09698796 55.9452769,2.47324583 56.0610485,3.03763262 C56.1623487,3.60201942 55.8005623,4.15193476 55.2361755,4.26770641 L55.250647,4.26770641 L55.0335751,4.28217786 C54.5560171,4.28217786 54.1218734,3.93486291 54.0205732,3.4428334 L54.0205732,3.4428334 Z M49.8527938,4.4703068 C49.7080792,3.92039146 50.0264513,3.3415332 50.5908381,3.19681864 C51.1407534,3.05210408 51.7196117,3.38494757 51.8643262,3.93486291 C52.0090408,4.49924971 51.6761973,5.0636365 51.1262819,5.20835107 C51.0394532,5.23729398 50.938153,5.25176544 50.8513243,5.25176544 C50.3882377,5.25176544 49.9685654,4.9333934 49.8527938,4.4703068 L49.8527938,4.4703068 Z M45.7573717,5.77273786 C45.5692427,5.22282252 45.8731433,4.64396427 46.4085872,4.45583534 C46.9585025,4.28217786 47.5373608,4.55713553 47.7254897,5.10705087 C47.9136186,5.65696621 47.6241895,6.23582447 47.0742742,6.4239534 C46.972974,6.46736777 46.8572023,6.48183922 46.7414307,6.48183922 C46.307287,6.48183922 45.9020862,6.20688155 45.7573717,5.77273786 L45.7573717,5.77273786 Z M41.7487783,7.33565515 C41.5317064,6.80021126 41.7921926,6.1924101 42.3276365,5.97533825 C42.8486089,5.75826641 43.4708816,6.01875262 43.6879534,6.53972505 C43.9050252,7.07516893 43.644539,7.6829701 43.1090951,7.90004194 C42.978852,7.95792777 42.8486089,7.98687068 42.7183658,7.98687068 C42.313165,7.98687068 41.9224357,7.74085592 41.7487783,7.33565515 L41.7487783,7.33565515 Z M37.870428,9.15905864 C37.6244132,8.65255767 37.8270136,8.03028505 38.347986,7.76979883 C38.854487,7.52378408 39.4767596,7.74085592 39.7372458,8.24735689 C39.9832606,8.76832932 39.7806602,9.39060194 39.2596878,9.6366167 C39.1149732,9.72344544 38.9557872,9.75238835 38.7966012,9.75238835 C38.4203433,9.75238835 38.0440854,9.5353165 37.870428,9.15905864 L37.870428,9.15905864 Z M34.1078493,11.2429483 C33.8184202,10.7364474 33.9920777,10.0997033 34.4985786,9.82474563 C34.9906082,9.5353165 35.6273522,9.70897398 35.9167814,10.2010035 C36.2062105,10.7075045 36.0180816,11.3297771 35.526052,11.6192062 C35.3523946,11.7205064 35.1932085,11.7639208 35.0050796,11.7639208 C34.6432932,11.7639208 34.2959783,11.5757918 34.1078493,11.2429483 L34.1078493,11.2429483 Z M30.4899852,13.5583814 C30.1716132,13.0808233 30.3018563,12.4296078 30.7794144,12.1112357 C31.2569724,11.7928637 31.8937165,11.9375783 32.22656,12.4006649 C32.544932,12.8782229 32.4002175,13.5294384 31.9226594,13.8478105 C31.7490019,13.9635821 31.5464016,14.021468 31.3582726,14.021468 C31.0109577,14.021468 30.6925856,13.8478105 30.4899852,13.5583814 L30.4899852,13.5583814 Z M27.0168357,16.0908862 C26.6695208,15.6422711 26.7563495,14.9910555 27.2194361,14.6437406 L27.2339076,14.6437406 C27.6825227,14.2964256 28.3337383,14.3832544 28.6810532,14.8318695 C29.0283682,15.2949561 28.9415394,15.9461717 28.4929243,16.3079581 C28.3047953,16.4382012 28.073252,16.5105584 27.8561802,16.5105584 C27.5378082,16.5105584 27.2339076,16.3803153 27.0168357,16.0908862 L27.0168357,16.0908862 Z" id="Fill-3" fill="#EB8300" sketch:type="MSShapeGroup"></path>
                <path d="M71.9507076,3.16787573 C71.3718493,3.12446136 70.9377056,2.63243184 70.9666485,2.06804505 C70.9955915,1.4891868 71.5020924,1.05504311 72.0664792,1.08398602 C72.6453375,1.12740039 73.0794812,1.6194299 73.0505383,2.19828816 C73.0215953,2.73373204 72.5440373,3.16787573 72.0085934,3.16787573 L71.9507076,3.16787573 L71.9507076,3.16787573 Z M76.0027153,3.54413359 C75.4383285,3.47177631 75.0331278,2.95080388 75.105485,2.38641709 C75.1778423,1.82203029 75.6988148,1.41682951 76.2632016,1.47471534 C76.8420598,1.54707262 77.2472606,2.06804505 77.1749033,2.63243184 C77.102546,3.16787573 76.6684023,3.55860505 76.1329584,3.55860505 L76.0027153,3.54413359 L76.0027153,3.54413359 Z M80.0402517,4.18087767 C79.4758649,4.06510602 79.1140784,3.52966214 79.2153786,2.96527534 C79.3166788,2.40088854 79.8665942,2.02463068 80.430981,2.14040233 L80.4454524,2.14040233 C80.9953678,2.24170252 81.3716256,2.79161786 81.255854,3.35600466 C81.1690252,3.84803417 80.7204101,4.19534913 80.242852,4.19534913 C80.1704948,4.19534913 80.1126089,4.19534913 80.0402517,4.18087767 L80.0402517,4.18087767 Z M84.0343736,5.0636365 C83.4699868,4.91892194 83.1516148,4.35453515 83.2818579,3.80461981 C83.4265724,3.24023301 84.0054307,2.90738951 84.555346,3.05210408 C85.1052614,3.19681864 85.4525763,3.76120544 85.3078617,4.31112078 C85.1776186,4.78867883 84.7579464,5.09257942 84.2948598,5.09257942 C84.2080311,5.09257942 84.1212023,5.09257942 84.0343736,5.0636365 L84.0343736,5.0636365 Z M87.9706097,6.20688155 C87.4062229,6.03322408 87.1167938,5.43989437 87.2904513,4.88997903 C87.4641087,4.34006369 88.0574384,4.05063456 88.5928823,4.22429204 C89.1572691,4.39794951 89.4466983,4.99127922 89.2730408,5.54119456 C89.1283262,5.97533825 88.7231254,6.26476738 88.2889817,6.26476738 C88.1732101,6.26476738 88.0574384,6.23582447 87.9706097,6.20688155 L87.9706097,6.20688155 Z M91.8055456,7.5816699 C91.2701017,7.37906951 91.024087,6.77126835 91.2266874,6.23582447 C91.4292878,5.70038058 92.0370889,5.43989437 92.5725328,5.65696621 C93.1079767,5.87403806 93.3829344,6.48183922 93.1658625,7.01728311 C93.0066765,7.42248388 92.6014757,7.66849864 92.196275,7.66849864 C92.0660318,7.66849864 91.9357887,7.63955573 91.8055456,7.5816699 L91.8055456,7.5816699 Z M95.5681243,9.21694447 C95.0471518,8.97092971 94.83008,8.34865709 95.0616233,7.84215612 C95.3076381,7.30671223 95.9299107,7.08964039 96.4508831,7.33565515 C96.9718555,7.5816699 97.1889274,8.20394252 96.9429126,8.72491495 C96.7692551,9.10117282 96.4074687,9.31824466 96.002268,9.31824466 C95.8575534,9.31824466 95.7128388,9.28930175 95.5681243,9.21694447 L95.5681243,9.21694447 Z M99.2149313,11.0837623 C98.7084303,10.7943332 98.5203014,10.1720606 98.795259,9.66555961 C99.0846882,9.15905864 99.7069608,8.97092971 100.213462,9.26035883 C100.719963,9.5353165 100.908092,10.1720606 100.633134,10.6785616 C100.445005,11.0258765 100.083219,11.2140054 99.7069608,11.2140054 C99.5333033,11.2140054 99.3741173,11.1705911 99.2149313,11.0837623 L99.2149313,11.0837623 Z M102.731495,13.167652 C102.239466,12.84928 102.109223,12.2125359 102.413123,11.7349779 C102.717024,11.2429483 103.368239,11.0982338 103.845797,11.4021344 C104.337827,11.7205064 104.46807,12.3572505 104.164169,12.84928 C103.961569,13.167652 103.628725,13.3268381 103.28141,13.3268381 C103.093282,13.3268381 102.890681,13.2834237 102.731495,13.167652 L102.731495,13.167652 Z M106.103344,15.4686136 C105.640258,15.1357701 105.538958,14.4845546 105.886273,14.0069965 C106.219116,13.5439099 106.85586,13.4426097 107.333418,13.7899247 C107.796505,14.1227682 107.897805,14.7739837 107.564962,15.2370703 C107.362361,15.5264994 107.043989,15.671214 106.711146,15.671214 C106.508545,15.671214 106.291473,15.5988567 106.103344,15.4686136 L106.103344,15.4686136 Z M109.344951,17.986647 C108.896336,17.6103891 108.83845,16.9591736 109.200236,16.5105584 C109.562023,16.0619433 110.22771,16.0040575 110.661853,16.3803153 L110.676325,16.3803153 C111.110468,16.7421017 111.168354,17.3933173 110.792096,17.8419324 C110.603967,18.0879472 110.300067,18.2181903 109.996166,18.2181903 C109.764623,18.2181903 109.53308,18.145833 109.344951,17.986647 L109.344951,17.986647 Z M112.398428,20.6928093 C111.978756,20.2876085 111.964284,19.6219216 112.355014,19.2167208 C112.745743,18.7970485 113.41143,18.7681056 113.831102,19.1733064 C114.250774,19.5640357 114.265246,20.2152513 113.874517,20.6349235 C113.657445,20.8519953 113.382487,20.967767 113.107529,20.967767 C112.861515,20.967767 112.601028,20.8809383 112.398428,20.6928093 L112.398428,20.6928093 Z M115.292719,23.5726291 C114.887518,23.1529569 114.916461,22.4872699 115.336134,22.111012 C115.755806,21.7058113 116.421493,21.7347542 116.812222,22.139955 C117.202951,22.5740986 117.18848,23.2253142 116.768808,23.6160435 C116.566207,23.8041724 116.305721,23.9054726 116.059706,23.9054726 C115.770277,23.9054726 115.49532,23.789701 115.292719,23.5726291 L115.292719,23.5726291 Z M117.998882,26.6405779 C117.637095,26.2064342 117.694981,25.5407472 118.129125,25.1644893 C118.57774,24.8171744 119.228955,24.8750602 119.605213,25.3092039 C119.952528,25.757819 119.894642,26.4090346 119.460499,26.770821 C119.27237,26.930007 119.026355,27.0168357 118.794812,27.0168357 C118.490911,27.0168357 118.201482,26.8865926 117.998882,26.6405779 L117.998882,26.6405779 Z M120.502443,29.8677126 C120.155129,29.404626 120.2709,28.7534105 120.733987,28.4060955 C121.197073,28.073252 121.848289,28.1745522 122.181132,28.6376388 C122.513976,29.1007254 122.412676,29.7664124 121.949589,30.0992559 C121.775932,30.229499 121.55886,30.3018563 121.341788,30.3018563 C121.023416,30.3018563 120.705044,30.1426703 120.502443,29.8677126 L120.502443,29.8677126 Z M122.788934,33.2395619 C122.485033,32.7620039 122.629748,32.1252598 123.121777,31.8213592 C123.613807,31.5029872 124.250551,31.6477017 124.554451,32.1252598 C124.872823,32.6172893 124.713637,33.2685049 124.236079,33.5724054 C124.062422,33.6737056 123.859821,33.7315915 123.671692,33.7315915 C123.324377,33.7315915 122.991534,33.557934 122.788934,33.2395619 L122.788934,33.2395619 Z M124.887295,36.7561258 C124.612337,36.2640963 124.785995,35.6273522 125.292496,35.3379231 C125.798997,35.0629654 126.421269,35.2510944 126.696227,35.7575953 C126.985656,36.2640963 126.797527,36.8863689 126.291026,37.1757981 C126.13184,37.2626268 125.972654,37.2915697 125.798997,37.2915697 C125.43721,37.2915697 125.075424,37.1034408 124.887295,36.7561258 L124.887295,36.7561258 Z M126.739641,40.4029328 C126.493626,39.8819604 126.72517,39.2452163 127.231671,39.013673 C127.752643,38.7676583 128.374916,38.9847301 128.62093,39.5057025 C128.866945,40.026675 128.649873,40.6489476 128.128901,40.8949623 C127.984186,40.9673196 127.825,40.9962625 127.680286,40.9962625 C127.289557,40.9962625 126.913299,40.7647192 126.739641,40.4029328 L126.739641,40.4029328 Z M128.360444,44.1365685 C128.143372,43.6011247 128.403859,42.9933235 128.953774,42.7907231 C129.474746,42.5881227 130.082548,42.8486089 130.299619,43.3840528 C130.50222,43.9194967 130.256205,44.5128264 129.720761,44.7298983 C129.590518,44.7733126 129.460275,44.8022555 129.330032,44.8022555 C128.91036,44.8022555 128.51963,44.5417693 128.360444,44.1365685 L128.360444,44.1365685 Z M129.749704,47.9715045 C129.561575,47.4360606 129.865476,46.8427309 130.415391,46.6690734 C130.965306,46.4954159 131.544165,46.784845 131.732294,47.3492318 C131.905951,47.8846757 131.60205,48.4780054 131.052135,48.6516629 C130.950835,48.6806058 130.849535,48.7095487 130.733763,48.7095487 C130.299619,48.7095487 129.894419,48.4201196 129.749704,47.9715045 L129.749704,47.9715045 Z M130.892949,51.9077406 C130.748235,51.3433538 131.081078,50.778967 131.645465,50.6487239 C132.19538,50.5040093 132.759767,50.8368528 132.904482,51.3867682 C133.049196,51.951155 132.716353,52.5155417 132.151966,52.6602563 C132.065137,52.6747278 131.99278,52.6891992 131.89148,52.6891992 C131.428393,52.6891992 131.008721,52.3852986 130.892949,51.9077406 L130.892949,51.9077406 Z M131.775708,55.8873911 C131.674408,55.3230043 132.036194,54.7875604 132.600581,54.6862602 C133.164968,54.5704885 133.714883,54.9467464 133.816183,55.5111332 C133.931955,56.07552 133.555697,56.6109639 132.99131,56.7267355 L132.803181,56.741207 C132.29668,56.741207 131.862537,56.393892 131.775708,55.8873911 L131.775708,55.8873911 Z M132.412452,59.9393988 C132.340095,59.3605406 132.745296,58.8395682 133.309682,58.7672109 C133.888541,58.6948536 134.409513,59.1000544 134.48187,59.6644412 C134.539756,60.2432994 134.149027,60.7642718 133.570169,60.8366291 L133.439925,60.8366291 C132.933424,60.8366291 132.484809,60.4603713 132.412452,59.9393988 L132.412452,59.9393988 Z M132.803181,64.0058781 C132.759767,63.4270198 133.193911,62.9349903 133.772769,62.9060474 C134.351627,62.862633 134.829185,63.2967767 134.8726,63.875635 C134.916014,64.4544932 134.48187,64.9320513 133.903012,64.9754656 L133.830655,64.9754656 C133.280739,64.9754656 132.832124,64.5557934 132.803181,64.0058781 L132.803181,64.0058781 Z" id="Fill-4" fill="#EB8300" sketch:type="MSShapeGroup"></path>
                <path d="M133.772769,73.3110245 C133.193911,73.2820816 132.759767,72.790052 132.803181,72.2111938 C132.832124,71.6323355 133.324154,71.1981918 133.903012,71.2271348 C134.48187,71.2705491 134.916014,71.7625786 134.8726,72.3414369 C134.843657,72.8913522 134.38057,73.3110245 133.830655,73.3110245 L133.772769,73.3110245 L133.772769,73.3110245 Z M133.309682,77.4353895 C132.745296,77.3775037 132.340095,76.8565313 132.412452,76.277673 C132.499281,75.6988148 133.005782,75.293614 133.58464,75.3804427 C134.149027,75.4528 134.554228,75.9737724 134.48187,76.5381592 C134.409513,77.0591317 133.975369,77.449861 133.439925,77.449861 L133.309682,77.4353895 L133.309682,77.4353895 Z M132.615052,81.5308117 C132.050666,81.4295115 131.674408,80.8795961 131.775708,80.3152093 C131.89148,79.7508225 132.426923,79.3890361 132.99131,79.4903363 C133.555697,79.5916365 133.946426,80.1415518 133.830655,80.7059386 C133.729355,81.2124396 133.295211,81.5597546 132.803181,81.5597546 L132.615052,81.5308117 L132.615052,81.5308117 Z M131.645465,85.568348 C131.081078,85.4381049 130.748235,84.8737181 130.892949,84.3093313 C131.037664,83.7449445 131.60205,83.412101 132.166437,83.5568155 C132.716353,83.7015301 133.063668,84.2659169 132.904482,84.8303037 C132.78871,85.2933903 132.369038,85.6117623 131.89148,85.6117623 C131.819122,85.6117623 131.732294,85.5972909 131.645465,85.568348 L131.645465,85.568348 Z M130.415391,89.5479984 C129.879947,89.374341 129.576047,88.7810113 129.749704,88.2455674 C129.937833,87.6811806 130.516691,87.3917515 131.066607,87.5654089 C131.60205,87.7390664 131.920423,88.3323961 131.732294,88.86784 C131.587579,89.3164551 131.182378,89.6058843 130.748235,89.6058843 C130.632463,89.6058843 130.531163,89.5769414 130.415391,89.5479984 L130.415391,89.5479984 Z M128.953774,93.4408202 C128.41833,93.2237483 128.157844,92.6304186 128.360444,92.0949748 C128.577516,91.5595309 129.185317,91.2845732 129.720761,91.501645 C130.256205,91.7042454 130.516691,92.3120466 130.299619,92.8474905 C130.140433,93.2526913 129.749704,93.498706 129.344503,93.498706 C129.21426,93.498706 129.084017,93.4842346 128.953774,93.4408202 L128.953774,93.4408202 Z M127.231671,97.2178703 C126.72517,96.9718555 126.493626,96.3640544 126.739641,95.8430819 C126.985656,95.3221095 127.607929,95.1050377 128.128901,95.336581 C128.649873,95.5825957 128.866945,96.2048683 128.62093,96.7258408 C128.447273,97.1020986 128.071015,97.3191705 127.680286,97.3191705 C127.535571,97.3191705 127.390857,97.2902276 127.231671,97.2178703 L127.231671,97.2178703 Z M125.292496,100.908092 C124.785995,100.618663 124.597866,99.9963899 124.872823,99.4898889 C125.162252,98.983388 125.784525,98.795259 126.291026,99.0846882 C126.797527,99.3596458 126.985656,99.9819184 126.696227,100.488419 C126.508098,100.835734 126.160783,101.038335 125.784525,101.038335 C125.625339,101.038335 125.451682,100.980449 125.292496,100.908092 L125.292496,100.908092 Z M123.121777,104.439127 C122.629748,104.120755 122.485033,103.498482 122.788934,103.006453 C123.107306,102.514423 123.74405,102.369709 124.236079,102.688081 C124.713637,102.991981 124.858352,103.628725 124.554451,104.120755 C124.351851,104.439127 124.019007,104.598313 123.671692,104.598313 C123.483563,104.598313 123.295435,104.554899 123.121777,104.439127 L123.121777,104.439127 Z M120.719515,107.839919 C120.256429,107.492604 120.155129,106.841389 120.487972,106.392774 C120.835287,105.915216 121.486503,105.813915 121.949589,106.16123 C122.412676,106.494074 122.513976,107.145289 122.181132,107.608376 C121.978532,107.883334 121.66016,108.028048 121.341788,108.028048 C121.124716,108.028048 120.907644,107.970162 120.719515,107.839919 L120.719515,107.839919 Z M118.129125,111.081525 C117.68051,110.705268 117.622624,110.054052 117.98441,109.605437 L117.98441,109.619908 C118.346197,109.171293 119.011883,109.098936 119.460499,109.475194 C119.894642,109.83698 119.952528,110.502667 119.590742,110.936811 C119.388141,111.182826 119.084241,111.313069 118.794812,111.313069 C118.548797,111.313069 118.317254,111.240711 118.129125,111.081525 L118.129125,111.081525 Z M115.336134,114.149474 C114.90199,113.758745 114.887518,113.107529 115.278248,112.673386 C115.683449,112.253713 116.334664,112.239242 116.754336,112.629971 C117.174009,113.035172 117.18848,113.686388 116.797751,114.10606 C116.59515,114.323132 116.320193,114.424432 116.045235,114.424432 C115.784749,114.424432 115.524263,114.337603 115.336134,114.149474 L115.336134,114.149474 Z M112.340542,117.043765 C111.949813,116.624093 111.964284,115.972878 112.398428,115.567677 C112.8181,115.176948 113.469316,115.191419 113.860045,115.625563 C114.265246,116.030763 114.236303,116.69645 113.816631,117.08718 C113.61403,117.275309 113.353544,117.362137 113.093058,117.362137 C112.8181,117.362137 112.557614,117.260837 112.340542,117.043765 L112.340542,117.043765 Z M109.185765,119.749928 C108.823978,119.301313 108.881864,118.650097 109.330479,118.273839 C109.764623,117.912053 110.415838,117.969939 110.792096,118.418554 C111.153883,118.852697 111.095997,119.503913 110.647382,119.880171 C110.459253,120.039357 110.22771,120.111714 109.996166,120.111714 C109.692266,120.111714 109.388365,119.995943 109.185765,119.749928 L109.185765,119.749928 Z M105.871801,122.239018 C105.538958,121.76146 105.640258,121.124716 106.103344,120.791873 L106.103344,120.777401 C106.566431,120.444558 107.217647,120.545858 107.55049,121.008944 C107.897805,121.486503 107.782033,122.123247 107.333418,122.45609 C107.145289,122.600805 106.928217,122.65869 106.711146,122.65869 C106.392774,122.65869 106.074402,122.513976 105.871801,122.239018 L105.871801,122.239018 Z M102.398652,124.511037 C102.094751,124.033479 102.239466,123.382263 102.717024,123.078363 L102.717024,123.092834 C103.209053,122.774462 103.845797,122.919177 104.149698,123.411206 C104.46807,123.874293 104.323355,124.525508 103.845797,124.84388 C103.67214,124.945181 103.469539,125.003066 103.28141,125.003066 C102.934096,125.003066 102.601252,124.829409 102.398652,124.511037 L102.398652,124.511037 Z M98.795259,126.580455 C98.5203014,126.073954 98.7084303,125.43721 99.2149313,125.162252 C99.7069608,124.887295 100.343705,125.075424 100.633134,125.581925 C100.908092,126.088426 100.719963,126.710698 100.213462,126.985656 C100.054276,127.072485 99.8806183,127.115899 99.7069608,127.115899 C99.3451744,127.115899 98.983388,126.92777 98.795259,126.580455 L98.795259,126.580455 Z M95.0760948,128.403859 C94.83008,127.882886 95.0616233,127.260614 95.5681243,127.02907 C96.0890967,126.768584 96.7113693,127.000127 96.9573841,127.5211 C97.2033988,128.042072 96.9718555,128.664345 96.4653546,128.91036 C96.32064,128.968245 96.161454,129.01166 96.0167394,129.01166 C95.6260101,129.01166 95.2497522,128.780117 95.0760948,128.403859 L95.0760948,128.403859 Z M91.2411588,129.995719 C91.024087,129.460275 91.2990447,128.852474 91.8344885,128.649873 L91.8344885,128.635402 C92.3699324,128.432802 92.9777336,128.693288 93.180334,129.228732 C93.3829344,129.764176 93.1369196,130.371977 92.6014757,130.589049 L92.6014757,130.574577 C92.4712326,130.632463 92.3409895,130.646934 92.2107464,130.646934 C91.7910742,130.646934 91.4003449,130.40092 91.2411588,129.995719 L91.2411588,129.995719 Z M87.3193942,131.341564 C87.1457367,130.791649 87.4351658,130.212791 87.9850812,130.024662 C88.5349965,129.851004 89.1283262,130.154905 89.3019837,130.690349 C89.4901126,131.254736 89.186212,131.833594 88.6362967,132.007251 C88.5349965,132.036194 88.4192249,132.065137 88.3179247,132.065137 C87.8693095,132.065137 87.4641087,131.790179 87.3193942,131.341564 L87.3193942,131.341564 Z M83.3108008,132.441395 C83.1805577,131.877008 83.4989297,131.312621 84.0633165,131.167907 C84.6277033,131.023192 85.1920901,131.356036 85.3223332,131.920423 C85.4815192,132.484809 85.1342043,133.049196 84.5842889,133.179439 C84.4974602,133.208382 84.4106315,133.222854 84.3238027,133.222854 C83.8607161,133.222854 83.4410439,132.904482 83.3108008,132.441395 L83.3108008,132.441395 Z M79.2443216,133.280739 C79.1430214,132.701881 79.5048078,132.166437 80.0691946,132.065137 C80.6335814,131.949365 81.1834967,132.325623 81.2992683,132.89001 C81.4005685,133.454397 81.0243107,133.989841 80.4743953,134.105612 L80.271795,134.120084 C79.7797654,134.120084 79.3456217,133.772769 79.2443216,133.280739 L79.2443216,133.280739 Z M75.134428,133.859598 C75.0620707,133.295211 75.4672715,132.759767 76.0316583,132.701881 C76.6105165,132.629524 77.1314889,133.020253 77.2038462,133.599111 C77.2762035,134.163498 76.8710027,134.684471 76.2921445,134.756828 L76.1619014,134.771299 C75.6554004,134.771299 75.2067852,134.38057 75.134428,133.859598 L75.134428,133.859598 Z M70.9955915,134.17797 C70.9666485,133.613583 71.4007922,133.107082 71.9796505,133.078139 C72.5440373,133.049196 73.0505383,133.48334 73.0794812,134.062198 C73.1084241,134.626585 72.6742804,135.118614 72.0954221,135.162029 L72.0375363,135.162029 C71.487621,135.162029 71.0245344,134.727885 70.9955915,134.17797 L70.9955915,134.17797 Z" id="Fill-5" fill="#EB8300" sketch:type="MSShapeGroup"></path>
                <path d="M0.837971262,72.3703798 C0.794556893,71.7915216 1.22870058,71.299492 1.80755883,71.2560777 C2.38641709,71.2271348 2.8784466,71.6757499 2.90738951,72.2401367 C2.95080388,72.8045235 2.51666019,73.3110245 1.93780194,73.3399674 L1.86544466,73.3399674 C1.31552932,73.3399674 0.866914175,72.9202951 0.837971262,72.3703798 L0.837971262,72.3703798 Z M1.22870058,76.5671021 C1.1563433,76.0027153 1.56154408,75.4817429 2.14040233,75.4093856 C2.70478913,75.3370283 3.22576155,75.7277577 3.29811883,76.3066159 C3.37047612,76.8710027 2.96527534,77.4064466 2.38641709,77.4643324 L2.27064544,77.4788039 C1.73520155,77.4788039 1.28658641,77.0880746 1.22870058,76.5671021 L1.22870058,76.5671021 Z M1.89438757,80.7348816 C1.77861592,80.1704948 2.14040233,79.6205794 2.70478913,79.5192792 C3.26917592,79.417979 3.81909126,79.7797654 3.93486291,80.3441522 C4.03616311,80.908539 3.65990524,81.4584544 3.1099899,81.5597546 L2.90738951,81.5886975 C2.42983146,81.5886975 1.98121631,81.2413825 1.89438757,80.7348816 L1.89438757,80.7348816 Z M2.80608932,84.8592466 C2.66137476,84.2948598 2.99421825,83.730473 3.55860505,83.5857584 C4.10852039,83.4410439 4.67290718,83.7738874 4.81762175,84.3382742 C4.96233631,84.902661 4.62949282,85.4670478 4.06510602,85.5972909 C3.97827728,85.6262338 3.90592,85.6407052 3.80461981,85.6407052 C3.3415332,85.6407052 2.92186097,85.3223332 2.80608932,84.8592466 L2.80608932,84.8592466 Z M3.97827728,88.9112544 C3.80461981,88.361339 4.09404893,87.7680093 4.64396427,87.5943518 C5.19387961,87.4206944 5.78720932,87.7101235 5.9608668,88.2600388 C6.13452427,88.8099542 5.84509515,89.4032839 5.29517981,89.5769414 C5.19387961,89.6058843 5.07810796,89.6348272 4.97680777,89.6348272 C4.52819262,89.6348272 4.12299184,89.3453981 3.97827728,88.9112544 L3.97827728,88.9112544 Z M5.41095146,92.8764334 C5.19387961,92.3409895 5.45436583,91.7331883 5.98980971,91.5161165 C6.52525359,91.2990447 7.13305476,91.5595309 7.33565515,92.0949748 C7.55272699,92.6304186 7.29224078,93.2382198 6.75679689,93.4552917 C6.64102524,93.498706 6.51078214,93.5276489 6.38053903,93.5276489 C5.9608668,93.5276489 5.57013748,93.2816342 5.41095146,92.8764334 L5.41095146,92.8764334 Z M7.08964039,96.7403122 C6.82915417,96.2193398 7.06069748,95.5970672 7.5816699,95.3510524 C8.10264233,95.1050377 8.72491495,95.3221095 8.97092971,95.8430819 C9.21694447,96.3640544 8.98540117,96.986327 8.46442874,97.2323417 C8.31971417,97.304699 8.17499961,97.3336419 8.03028505,97.3336419 C7.63955573,97.3336419 7.26329786,97.1165701 7.08964039,96.7403122 L7.08964039,96.7403122 Z M8.99987262,100.488419 L8.99987262,100.488419 C8.72491495,99.9819184 8.91304388,99.3451744 9.41954485,99.0702167 C9.91157437,98.795259 10.5483184,98.983388 10.8232761,99.4898889 C11.0982338,99.9819184 10.9245763,100.618663 10.4180753,100.89362 C10.2588893,100.980449 10.0852318,101.023863 9.91157437,101.023863 C9.5353165,101.023863 9.18800155,100.835734 8.99987262,100.488419 L8.99987262,100.488419 Z M11.1416482,104.120755 C10.8377476,103.628725 10.9824621,102.991981 11.4600202,102.673609 C11.9520497,102.369709 12.5887938,102.514423 12.9071658,102.991981 C13.2110664,103.484011 13.0663518,104.120755 12.5887938,104.439127 C12.4151363,104.540427 12.2125359,104.598313 12.024407,104.598313 C11.677092,104.598313 11.3442485,104.424656 11.1416482,104.120755 L11.1416482,104.120755 Z M13.5294384,107.593904 C13.1821235,107.145289 13.2834237,106.479602 13.7609817,106.146759 C14.2095969,105.813915 14.8608124,105.915216 15.2081274,106.378302 C15.5409709,106.841389 15.4396707,107.492604 14.9765841,107.839919 C14.7884551,107.970162 14.5713833,108.028048 14.3543115,108.028048 C14.0359394,108.028048 13.7320388,107.883334 13.5294384,107.593904 L13.5294384,107.593904 Z M16.1053577,110.936811 C15.7435713,110.488196 15.8014571,109.822509 16.2500722,109.460722 C16.6842159,109.098936 17.3499029,109.171293 17.7116893,109.605437 C18.0734757,110.054052 18.0155899,110.705268 17.5669748,111.067054 C17.3788458,111.22624 17.1473025,111.313069 16.9012878,111.313069 C16.6118586,111.313069 16.3079581,111.182826 16.1053577,110.936811 L16.1053577,110.936811 Z M18.8983487,114.091588 C18.5076194,113.671916 18.5220909,113.006229 18.9417631,112.629971 C19.3614353,112.22477 20.0271223,112.253713 20.4178517,112.673386 C20.808581,113.093058 20.7796381,113.744273 20.3744373,114.149474 C20.1718369,114.337603 19.9113507,114.424432 19.6508645,114.424432 C19.3759068,114.424432 19.1009491,114.30866 18.8983487,114.091588 L18.8983487,114.091588 Z M21.8794687,117.072708 C21.4597965,116.681979 21.445325,116.030763 21.8360544,115.611091 C22.2267837,115.176948 22.8924707,115.162476 23.2976715,115.553205 C23.7318151,115.958406 23.7462866,116.609622 23.3555573,117.029294 C23.1384854,117.246366 22.8635278,117.362137 22.5885701,117.362137 C22.3425553,117.362137 22.0820691,117.260837 21.8794687,117.072708 L21.8794687,117.072708 Z M25.0342462,119.865699 C24.6001025,119.503913 24.5422167,118.838226 24.9040031,118.404082 C25.280261,117.955467 25.9314765,117.897581 26.3656202,118.273839 C26.8142353,118.635626 26.8721212,119.286841 26.5103348,119.735456 C26.3077344,119.981471 26.0038338,120.111714 25.7144047,120.111714 C25.4683899,120.111714 25.2368466,120.039357 25.0342462,119.865699 L25.0342462,119.865699 Z M28.3771526,122.45609 L28.3626812,122.45609 C27.914066,122.123247 27.7982944,121.472031 28.1456093,121.008944 C28.4784528,120.545858 29.1296683,120.444558 29.592755,120.777401 C30.070313,121.110245 30.1571417,121.76146 29.8242983,122.239018 C29.6216979,122.513976 29.3177973,122.65869 28.9849538,122.65869 C28.7823534,122.65869 28.5508101,122.586333 28.3771526,122.45609 L28.3771526,122.45609 Z M31.8647736,124.829409 C31.3727441,124.525508 31.2280295,123.874293 31.5464016,123.396735 C31.8503021,122.904705 32.4870462,122.774462 32.9790757,123.078363 C33.4711052,123.382263 33.6013483,124.033479 33.2974478,124.511037 C33.0948474,124.829409 32.7620039,125.003066 32.4291604,125.003066 C32.22656,125.003066 32.0384311,124.945181 31.8647736,124.829409 L31.8647736,124.829409 Z M35.4971091,126.985656 C34.9906082,126.710698 34.8024792,126.073954 35.0774369,125.581925 C35.3523946,125.075424 35.9891386,124.887295 36.4956396,125.162252 C37.0021406,125.451682 37.1902695,126.073954 36.9008404,126.580455 C36.7127115,126.92777 36.3653965,127.115899 35.9891386,127.115899 C35.8299526,127.115899 35.6562951,127.072485 35.4971091,126.985656 L35.4971091,126.985656 Z M39.2596878,128.91036 C38.7387153,128.664345 38.507172,128.042072 38.7531868,127.5211 C38.9992016,127.000127 39.6214742,126.768584 40.1424466,127.02907 C40.663419,127.275085 40.8804909,127.882886 40.6489476,128.41833 C40.4608186,128.794588 40.0845608,129.01166 39.6938315,129.01166 C39.5491169,129.01166 39.3899309,128.982717 39.2596878,128.91036 L39.2596878,128.91036 Z M43.1380381,130.589049 C42.6025942,130.371977 42.3276365,129.764176 42.5447083,129.228732 C42.7617802,128.693288 43.3551099,128.447273 43.8905538,128.649873 C44.4259977,128.852474 44.6864839,129.460275 44.4838835,129.995719 C44.3246975,130.415391 43.9194967,130.661406 43.5142959,130.661406 C43.3840528,130.661406 43.2538097,130.632463 43.1380381,130.589049 L43.1380381,130.589049 Z M47.1032171,132.021723 C46.5533017,131.848065 46.2494012,131.254736 46.4375301,130.70482 C46.6111876,130.154905 47.1900458,129.865476 47.7399612,130.039133 C48.304348,130.212791 48.5937771,130.80612 48.4201196,131.341564 C48.2609336,131.790179 47.8557328,132.065137 47.4215891,132.065137 C47.3202889,132.065137 47.2045173,132.050666 47.1032171,132.021723 L47.1032171,132.021723 Z M51.1552249,133.193911 C50.5908381,133.049196 50.2579946,132.484809 50.4027091,131.920423 C50.5474237,131.370507 51.1118105,131.023192 51.6617258,131.182378 C52.2261126,131.312621 52.5589561,131.877008 52.428713,132.441395 C52.2984699,132.918953 51.8787977,133.222854 51.4157111,133.222854 C51.3288823,133.222854 51.2420536,133.208382 51.1552249,133.193911 L51.1552249,133.193911 Z M55.2795899,134.120084 C54.7007317,134.004312 54.3389452,133.454397 54.4402454,132.89001 C54.5560171,132.325623 55.1059324,131.949365 55.6703192,132.065137 C56.2202346,132.166437 56.5964924,132.716353 56.4807208,133.280739 C56.393892,133.772769 55.9597483,134.120084 55.4677188,134.120084 L55.2795899,134.120084 L55.2795899,134.120084 Z M59.4473693,134.771299 C58.8685111,134.684471 58.4633103,134.17797 58.5356676,133.599111 C58.6080249,133.034725 59.1289973,132.629524 59.6933841,132.701881 C60.2577709,132.759767 60.6774431,133.295211 60.6050858,133.859598 C60.5327285,134.395042 60.0841134,134.771299 59.5776124,134.771299 L59.4473693,134.771299 L59.4473693,134.771299 Z M63.6296202,135.162029 C63.0652334,135.133086 62.6310897,134.626585 62.6600326,134.062198 C62.6889755,133.48334 63.1954765,133.049196 63.7598633,133.078139 C64.3387216,133.107082 64.7728652,133.613583 64.7294509,134.17797 C64.700508,134.742357 64.2518928,135.162029 63.7019775,135.162029 L63.6296202,135.162029 L63.6296202,135.162029 Z" id="Fill-6" fill="#EB8300" sketch:type="MSShapeGroup"></path>
                <path d="M1.73520155,69.1577165 C1.46024388,69.1577165 1.19975767,69.0564163 1.01162874,68.8682874 C0.80902835,68.665687 0.707728155,68.3907293 0.707728155,68.1157717 C0.707728155,67.8552854 0.823499806,67.5803278 1.01162874,67.3921988 C1.40235806,67.0014695 2.09698796,67.0014695 2.48771728,67.3921988 C2.67584621,67.5803278 2.79161786,67.8552854 2.79161786,68.1157717 C2.79161786,68.3907293 2.67584621,68.665687 2.48771728,68.8682874 C2.28511689,69.0564163 2.01015922,69.1577165 1.73520155,69.1577165" id="Fill-7" fill="#EB8300" sketch:type="MSShapeGroup"></path>
                <path d="M133.960898,69.1577165 C133.68594,69.1577165 133.425454,69.0564163 133.222854,68.8682874 C133.034725,68.665687 132.918953,68.3907293 132.918953,68.1157717 C132.918953,67.8552854 133.034725,67.5803278 133.222854,67.3921988 C133.613583,67.0014695 134.322684,67.0014695 134.698942,67.3921988 C134.887071,67.5803278 135.002843,67.8552854 135.002843,68.1157717 C135.002843,68.4052008 134.887071,68.665687 134.698942,68.8682874 C134.510813,69.0564163 134.235856,69.1577165 133.960898,69.1577165" id="Fill-8" fill="#EB8300" sketch:type="MSShapeGroup"></path>
                <path d="M20.808581,21.6479254 C20.4178517,21.2282532 20.4178517,20.5770377 20.8375239,20.1718369 C21.2427247,19.7666361 21.9084117,19.7811076 22.299141,20.1863083 C22.7043417,20.5915091 22.7043417,21.2571961 22.2846695,21.6623969 C22.0820691,21.8649973 21.8215829,21.951826 21.5610967,21.951826 C21.286139,21.951826 21.0256528,21.8505258 20.808581,21.6479254 L20.808581,21.6479254 Z M18.0734757,24.6001025 C17.639332,24.2238447 17.5959177,23.5581577 17.986647,23.1384854 C18.3773763,22.7043417 19.0285918,22.6753988 19.4627355,23.0516567 C19.8968792,23.442386 19.9258221,24.0936016 19.5350928,24.5422167 C19.3324924,24.7592885 19.0430633,24.8750602 18.7681056,24.8750602 C18.5076194,24.8750602 18.2616047,24.7882315 18.0734757,24.6001025 L18.0734757,24.6001025 Z M15.4975565,27.7259371 C15.0489414,27.3786221 14.9765841,26.7129351 15.3383705,26.26432 C15.6856854,25.8157049 16.336901,25.7433476 16.7999876,26.105134 C17.2486027,26.4524489 17.32096,27.1181359 16.9591736,27.5667511 C16.7565732,27.8127658 16.4526726,27.9574804 16.148772,27.9574804 C15.9172287,27.9574804 15.6856854,27.8706517 15.4975565,27.7259371 L15.4975565,27.7259371 Z M13.1242377,30.9964862 C12.6611511,30.6781142 12.5453794,30.0124272 12.8782229,29.5493406 C13.196595,29.086254 13.8478105,28.9704823 14.3253685,29.2888544 C14.8029266,29.6361693 14.9042268,30.2729134 14.5713833,30.7504715 C14.3687829,31.0399006 14.0504109,31.1846151 13.7320388,31.1846151 C13.514967,31.1846151 13.3123666,31.1267293 13.1242377,30.9964862 L13.1242377,30.9964862 Z M10.9535192,34.4117499 C10.4614897,34.1078493 10.3167751,33.4711052 10.6062043,32.9790757 C10.9245763,32.5015177 11.5613204,32.3423317 12.0533499,32.6462322 C12.530908,32.9501328 12.690094,33.5724054 12.3861934,34.0789064 C12.183593,34.3972784 11.8507495,34.5709359 11.5034346,34.5709359 C11.3153056,34.5709359 11.1271767,34.5275216 10.9535192,34.4117499 L10.9535192,34.4117499 Z M8.99987262,37.9572567 C8.49337165,37.682299 8.30524272,37.045555 8.56572893,36.539054 C8.8406866,36.032553 9.47743068,35.8444241 9.98393165,36.1193817 C10.4904326,36.379868 10.6785616,37.016612 10.4036039,37.523113 C10.215475,37.8848994 9.85368854,38.0874998 9.49190214,38.0874998 C9.31824466,38.0874998 9.15905864,38.0440854 8.99987262,37.9572567 L8.99987262,37.9572567 Z M7.26329786,41.6185351 C6.74232544,41.3725204 6.51078214,40.7502478 6.75679689,40.2292753 C6.98834019,39.7083029 7.61061282,39.4767596 8.13158524,39.7227744 C8.65255767,39.9543177 8.88410097,40.5765903 8.63808621,41.0975627 L8.65255767,41.0975627 C8.46442874,41.4738206 8.08817087,41.7053639 7.69744155,41.7053639 C7.55272699,41.7053639 7.39354097,41.676421 7.26329786,41.6185351 L7.26329786,41.6185351 Z M5.75826641,45.3666423 C5.22282252,45.1495705 4.94786485,44.5562408 5.1649367,44.0063254 C5.36753709,43.4708816 5.9608668,43.2103953 6.51078214,43.4129957 C7.04622602,43.6300676 7.30671223,44.2233973 7.10411184,44.7588412 C6.94492583,45.1785134 6.5541965,45.4245282 6.13452427,45.4245282 C6.00428117,45.4245282 5.88850951,45.4100567 5.75826641,45.3666423 L5.75826641,45.3666423 Z M4.48477825,49.2015783 C3.93486291,49.0279208 3.63096233,48.4490625 3.80461981,47.8846757 C3.97827728,47.3492318 4.57160699,47.0453313 5.10705087,47.2189887 C5.65696621,47.3781748 5.9608668,47.9715045 5.78720932,48.5214198 C5.64249476,48.9555635 5.23729398,49.2449926 4.78867883,49.2449926 C4.68737864,49.2449926 4.58607845,49.2449926 4.48477825,49.2015783 L4.48477825,49.2015783 Z M3.4428334,53.1088715 C2.89291806,52.9786283 2.54560311,52.4142416 2.69031767,51.8498548 C2.83503223,51.285468 3.39941903,50.9526245 3.94933437,51.097339 C4.49924971,51.2275821 4.84656466,51.7919689 4.7018501,52.3563557 C4.6005499,52.8339138 4.16640621,53.1522858 3.68884816,53.1522858 C3.61649087,53.1522858 3.52966214,53.1378144 3.4428334,53.1088715 L3.4428334,53.1088715 Z M2.6469033,57.0885219 C2.0825165,56.9727503 1.7207301,56.422835 1.82203029,55.8584482 C1.92333049,55.2940614 2.45877437,54.932275 3.02316117,55.0335751 C3.58754796,55.1348753 3.96380583,55.6703192 3.87697709,56.234706 C3.77567689,56.741207 3.3415332,57.0885219 2.83503223,57.0885219 L2.6469033,57.0885219 L2.6469033,57.0885219 Z M2.11145942,61.0826439 C1.53260117,61.0247581 1.12740039,60.4893142 1.19975767,59.9249274 C1.2576435,59.3460691 1.79308738,58.9408683 2.35747417,59.0132256 C2.92186097,59.0855829 3.3415332,59.6065553 3.26917592,60.1709421 C3.19681864,60.706386 2.7482035,61.0971153 2.24170252,61.0971153 L2.11145942,61.0826439 L2.11145942,61.0826439 Z M1.79308738,65.1201802 C1.22870058,65.0912373 0.794556893,64.5847363 0.823499806,64.0203495 C0.852442718,63.4414913 1.35894369,63.0073476 1.92333049,63.0362905 C2.50218874,63.0652334 2.93633243,63.5717344 2.90738951,64.1361212 C2.86397515,64.700508 2.41536,65.1201802 1.86544466,65.1201802 L1.79308738,65.1201802 L1.79308738,65.1201802 Z" id="Fill-9" fill="#EB8300" sketch:type="MSShapeGroup"></path>
                <path d="M62.5153181,2.19828816 C62.4719037,1.63390136 62.9060474,1.12740039 63.4849056,1.09845748 C64.0637639,1.06951456 64.5557934,1.50365825 64.5847363,2.06804505 C64.6281507,2.63243184 64.194007,3.13893282 63.6151487,3.16787573 L63.5572629,3.16787573 C63.0073476,3.16787573 62.544261,2.7482035 62.5153181,2.19828816 L62.5153181,2.19828816 Z M58.2462384,2.67584621 C58.1738812,2.11145942 58.5790819,1.59048699 59.1434687,1.51812971 C59.722327,1.44577243 60.228828,1.8509732 60.3156567,2.41536 C60.388014,2.9797468 59.9828132,3.51519068 59.4184264,3.58754796 L59.2737118,3.58754796 C58.7527394,3.58754796 58.3041243,3.2112901 58.2462384,2.67584621 L58.2462384,2.67584621 Z M54.0205732,3.4428334 C53.9048016,2.8784466 54.2810594,2.32853126 54.8454462,2.21275961 C55.409833,2.09698796 55.9452769,2.47324583 56.0610485,3.03763262 C56.1623487,3.60201942 55.8005623,4.15193476 55.2361755,4.26770641 L55.250647,4.26770641 L55.0335751,4.28217786 C54.5560171,4.28217786 54.1218734,3.93486291 54.0205732,3.4428334 L54.0205732,3.4428334 Z M49.8527938,4.4703068 C49.7080792,3.92039146 50.0264513,3.3415332 50.5908381,3.19681864 C51.1407534,3.05210408 51.7196117,3.38494757 51.8643262,3.93486291 C52.0090408,4.49924971 51.6761973,5.0636365 51.1262819,5.20835107 C51.0394532,5.23729398 50.938153,5.25176544 50.8513243,5.25176544 C50.3882377,5.25176544 49.9685654,4.9333934 49.8527938,4.4703068 L49.8527938,4.4703068 Z M45.7573717,5.77273786 C45.5692427,5.22282252 45.8731433,4.64396427 46.4085872,4.45583534 C46.9585025,4.28217786 47.5373608,4.55713553 47.7254897,5.10705087 C47.9136186,5.65696621 47.6241895,6.23582447 47.0742742,6.4239534 C46.972974,6.46736777 46.8572023,6.48183922 46.7414307,6.48183922 C46.307287,6.48183922 45.9020862,6.20688155 45.7573717,5.77273786 L45.7573717,5.77273786 Z M41.7487783,7.33565515 C41.5317064,6.80021126 41.7921926,6.1924101 42.3276365,5.97533825 C42.8486089,5.75826641 43.4708816,6.01875262 43.6879534,6.53972505 C43.9050252,7.07516893 43.644539,7.6829701 43.1090951,7.90004194 C42.978852,7.95792777 42.8486089,7.98687068 42.7183658,7.98687068 C42.313165,7.98687068 41.9224357,7.74085592 41.7487783,7.33565515 L41.7487783,7.33565515 Z M37.870428,9.15905864 C37.6244132,8.65255767 37.8270136,8.03028505 38.347986,7.76979883 C38.854487,7.52378408 39.4767596,7.74085592 39.7372458,8.24735689 C39.9832606,8.76832932 39.7806602,9.39060194 39.2596878,9.6366167 C39.1149732,9.72344544 38.9557872,9.75238835 38.7966012,9.75238835 C38.4203433,9.75238835 38.0440854,9.5353165 37.870428,9.15905864 L37.870428,9.15905864 Z M34.1078493,11.2429483 C33.8184202,10.7364474 33.9920777,10.0997033 34.4985786,9.82474563 C34.9906082,9.5353165 35.6273522,9.70897398 35.9167814,10.2010035 C36.2062105,10.7075045 36.0180816,11.3297771 35.526052,11.6192062 C35.3523946,11.7205064 35.1932085,11.7639208 35.0050796,11.7639208 C34.6432932,11.7639208 34.2959783,11.5757918 34.1078493,11.2429483 L34.1078493,11.2429483 Z M30.4899852,13.5583814 C30.1716132,13.0808233 30.3018563,12.4296078 30.7794144,12.1112357 C31.2569724,11.7928637 31.8937165,11.9375783 32.22656,12.4006649 C32.544932,12.8782229 32.4002175,13.5294384 31.9226594,13.8478105 C31.7490019,13.9635821 31.5464016,14.021468 31.3582726,14.021468 C31.0109577,14.021468 30.6925856,13.8478105 30.4899852,13.5583814 L30.4899852,13.5583814 Z M27.0168357,16.0908862 C26.6695208,15.6422711 26.7563495,14.9910555 27.2194361,14.6437406 L27.2339076,14.6437406 C27.6825227,14.2964256 28.3337383,14.3832544 28.6810532,14.8318695 C29.0283682,15.2949561 28.9415394,15.9461717 28.4929243,16.3079581 C28.3047953,16.4382012 28.073252,16.5105584 27.8561802,16.5105584 C27.5378082,16.5105584 27.2339076,16.3803153 27.0168357,16.0908862 L27.0168357,16.0908862 Z" id="Fill-10" fill="#EB8300" sketch:type="MSShapeGroup"></path>
                <path d="M71.9507076,3.16787573 C71.3718493,3.12446136 70.9377056,2.63243184 70.9666485,2.06804505 C70.9955915,1.4891868 71.5020924,1.05504311 72.0664792,1.08398602 C72.6453375,1.12740039 73.0794812,1.6194299 73.0505383,2.19828816 C73.0215953,2.73373204 72.5440373,3.16787573 72.0085934,3.16787573 L71.9507076,3.16787573 L71.9507076,3.16787573 Z M76.0027153,3.54413359 C75.4383285,3.47177631 75.0331278,2.95080388 75.105485,2.38641709 C75.1778423,1.82203029 75.6988148,1.41682951 76.2632016,1.47471534 C76.8420598,1.54707262 77.2472606,2.06804505 77.1749033,2.63243184 C77.102546,3.16787573 76.6684023,3.55860505 76.1329584,3.55860505 L76.0027153,3.54413359 L76.0027153,3.54413359 Z M80.0402517,4.18087767 C79.4758649,4.06510602 79.1140784,3.52966214 79.2153786,2.96527534 C79.3166788,2.40088854 79.8665942,2.02463068 80.430981,2.14040233 L80.4454524,2.14040233 C80.9953678,2.24170252 81.3716256,2.79161786 81.255854,3.35600466 C81.1690252,3.84803417 80.7204101,4.19534913 80.242852,4.19534913 C80.1704948,4.19534913 80.1126089,4.19534913 80.0402517,4.18087767 L80.0402517,4.18087767 Z M84.0343736,5.0636365 C83.4699868,4.91892194 83.1516148,4.35453515 83.2818579,3.80461981 C83.4265724,3.24023301 84.0054307,2.90738951 84.555346,3.05210408 C85.1052614,3.19681864 85.4525763,3.76120544 85.3078617,4.31112078 C85.1776186,4.78867883 84.7579464,5.09257942 84.2948598,5.09257942 C84.2080311,5.09257942 84.1212023,5.09257942 84.0343736,5.0636365 L84.0343736,5.0636365 Z M87.9706097,6.20688155 C87.4062229,6.03322408 87.1167938,5.43989437 87.2904513,4.88997903 C87.4641087,4.34006369 88.0574384,4.05063456 88.5928823,4.22429204 C89.1572691,4.39794951 89.4466983,4.99127922 89.2730408,5.54119456 C89.1283262,5.97533825 88.7231254,6.26476738 88.2889817,6.26476738 C88.1732101,6.26476738 88.0574384,6.23582447 87.9706097,6.20688155 L87.9706097,6.20688155 Z M91.8055456,7.5816699 C91.2701017,7.37906951 91.024087,6.77126835 91.2266874,6.23582447 C91.4292878,5.70038058 92.0370889,5.43989437 92.5725328,5.65696621 C93.1079767,5.87403806 93.3829344,6.48183922 93.1658625,7.01728311 C93.0066765,7.42248388 92.6014757,7.66849864 92.196275,7.66849864 C92.0660318,7.66849864 91.9357887,7.63955573 91.8055456,7.5816699 L91.8055456,7.5816699 Z M95.5681243,9.21694447 C95.0471518,8.97092971 94.83008,8.34865709 95.0616233,7.84215612 C95.3076381,7.30671223 95.9299107,7.08964039 96.4508831,7.33565515 C96.9718555,7.5816699 97.1889274,8.20394252 96.9429126,8.72491495 C96.7692551,9.10117282 96.4074687,9.31824466 96.002268,9.31824466 C95.8575534,9.31824466 95.7128388,9.28930175 95.5681243,9.21694447 L95.5681243,9.21694447 Z M99.2149313,11.0837623 C98.7084303,10.7943332 98.5203014,10.1720606 98.795259,9.66555961 C99.0846882,9.15905864 99.7069608,8.97092971 100.213462,9.26035883 C100.719963,9.5353165 100.908092,10.1720606 100.633134,10.6785616 C100.445005,11.0258765 100.083219,11.2140054 99.7069608,11.2140054 C99.5333033,11.2140054 99.3741173,11.1705911 99.2149313,11.0837623 L99.2149313,11.0837623 Z M102.731495,13.167652 C102.239466,12.84928 102.109223,12.2125359 102.413123,11.7349779 C102.717024,11.2429483 103.368239,11.0982338 103.845797,11.4021344 C104.337827,11.7205064 104.46807,12.3572505 104.164169,12.84928 C103.961569,13.167652 103.628725,13.3268381 103.28141,13.3268381 C103.093282,13.3268381 102.890681,13.2834237 102.731495,13.167652 L102.731495,13.167652 Z M106.103344,15.4686136 C105.640258,15.1357701 105.538958,14.4845546 105.886273,14.0069965 C106.219116,13.5439099 106.85586,13.4426097 107.333418,13.7899247 C107.796505,14.1227682 107.897805,14.7739837 107.564962,15.2370703 C107.362361,15.5264994 107.043989,15.671214 106.711146,15.671214 C106.508545,15.671214 106.291473,15.5988567 106.103344,15.4686136 L106.103344,15.4686136 Z M109.344951,17.986647 C108.896336,17.6103891 108.83845,16.9591736 109.200236,16.5105584 C109.562023,16.0619433 110.22771,16.0040575 110.661853,16.3803153 L110.676325,16.3803153 C111.110468,16.7421017 111.168354,17.3933173 110.792096,17.8419324 C110.603967,18.0879472 110.300067,18.2181903 109.996166,18.2181903 C109.764623,18.2181903 109.53308,18.145833 109.344951,17.986647 L109.344951,17.986647 Z M112.398428,20.6928093 C111.978756,20.2876085 111.964284,19.6219216 112.355014,19.2167208 C112.745743,18.7970485 113.41143,18.7681056 113.831102,19.1733064 C114.250774,19.5640357 114.265246,20.2152513 113.874517,20.6349235 C113.657445,20.8519953 113.382487,20.967767 113.107529,20.967767 C112.861515,20.967767 112.601028,20.8809383 112.398428,20.6928093 L112.398428,20.6928093 Z M115.292719,23.5726291 C114.887518,23.1529569 114.916461,22.4872699 115.336134,22.111012 C115.755806,21.7058113 116.421493,21.7347542 116.812222,22.139955 C117.202951,22.5740986 117.18848,23.2253142 116.768808,23.6160435 C116.566207,23.8041724 116.305721,23.9054726 116.059706,23.9054726 C115.770277,23.9054726 115.49532,23.789701 115.292719,23.5726291 L115.292719,23.5726291 Z M117.998882,26.6405779 C117.637095,26.2064342 117.694981,25.5407472 118.129125,25.1644893 C118.57774,24.8171744 119.228955,24.8750602 119.605213,25.3092039 C119.952528,25.757819 119.894642,26.4090346 119.460499,26.770821 C119.27237,26.930007 119.026355,27.0168357 118.794812,27.0168357 C118.490911,27.0168357 118.201482,26.8865926 117.998882,26.6405779 L117.998882,26.6405779 Z M120.502443,29.8677126 C120.155129,29.404626 120.2709,28.7534105 120.733987,28.4060955 C121.197073,28.073252 121.848289,28.1745522 122.181132,28.6376388 C122.513976,29.1007254 122.412676,29.7664124 121.949589,30.0992559 C121.775932,30.229499 121.55886,30.3018563 121.341788,30.3018563 C121.023416,30.3018563 120.705044,30.1426703 120.502443,29.8677126 L120.502443,29.8677126 Z M122.788934,33.2395619 C122.485033,32.7620039 122.629748,32.1252598 123.121777,31.8213592 C123.613807,31.5029872 124.250551,31.6477017 124.554451,32.1252598 C124.872823,32.6172893 124.713637,33.2685049 124.236079,33.5724054 C124.062422,33.6737056 123.859821,33.7315915 123.671692,33.7315915 C123.324377,33.7315915 122.991534,33.557934 122.788934,33.2395619 L122.788934,33.2395619 Z M124.887295,36.7561258 C124.612337,36.2640963 124.785995,35.6273522 125.292496,35.3379231 C125.798997,35.0629654 126.421269,35.2510944 126.696227,35.7575953 C126.985656,36.2640963 126.797527,36.8863689 126.291026,37.1757981 C126.13184,37.2626268 125.972654,37.2915697 125.798997,37.2915697 C125.43721,37.2915697 125.075424,37.1034408 124.887295,36.7561258 L124.887295,36.7561258 Z M126.739641,40.4029328 C126.493626,39.8819604 126.72517,39.2452163 127.231671,39.013673 C127.752643,38.7676583 128.374916,38.9847301 128.62093,39.5057025 C128.866945,40.026675 128.649873,40.6489476 128.128901,40.8949623 C127.984186,40.9673196 127.825,40.9962625 127.680286,40.9962625 C127.289557,40.9962625 126.913299,40.7647192 126.739641,40.4029328 L126.739641,40.4029328 Z M128.360444,44.1365685 C128.143372,43.6011247 128.403859,42.9933235 128.953774,42.7907231 C129.474746,42.5881227 130.082548,42.8486089 130.299619,43.3840528 C130.50222,43.9194967 130.256205,44.5128264 129.720761,44.7298983 C129.590518,44.7733126 129.460275,44.8022555 129.330032,44.8022555 C128.91036,44.8022555 128.51963,44.5417693 128.360444,44.1365685 L128.360444,44.1365685 Z M129.749704,47.9715045 C129.561575,47.4360606 129.865476,46.8427309 130.415391,46.6690734 C130.965306,46.4954159 131.544165,46.784845 131.732294,47.3492318 C131.905951,47.8846757 131.60205,48.4780054 131.052135,48.6516629 C130.950835,48.6806058 130.849535,48.7095487 130.733763,48.7095487 C130.299619,48.7095487 129.894419,48.4201196 129.749704,47.9715045 L129.749704,47.9715045 Z M130.892949,51.9077406 C130.748235,51.3433538 131.081078,50.778967 131.645465,50.6487239 C132.19538,50.5040093 132.759767,50.8368528 132.904482,51.3867682 C133.049196,51.951155 132.716353,52.5155417 132.151966,52.6602563 C132.065137,52.6747278 131.99278,52.6891992 131.89148,52.6891992 C131.428393,52.6891992 131.008721,52.3852986 130.892949,51.9077406 L130.892949,51.9077406 Z M131.775708,55.8873911 C131.674408,55.3230043 132.036194,54.7875604 132.600581,54.6862602 C133.164968,54.5704885 133.714883,54.9467464 133.816183,55.5111332 C133.931955,56.07552 133.555697,56.6109639 132.99131,56.7267355 L132.803181,56.741207 C132.29668,56.741207 131.862537,56.393892 131.775708,55.8873911 L131.775708,55.8873911 Z M132.412452,59.9393988 C132.340095,59.3605406 132.745296,58.8395682 133.309682,58.7672109 C133.888541,58.6948536 134.409513,59.1000544 134.48187,59.6644412 C134.539756,60.2432994 134.149027,60.7642718 133.570169,60.8366291 L133.439925,60.8366291 C132.933424,60.8366291 132.484809,60.4603713 132.412452,59.9393988 L132.412452,59.9393988 Z M132.803181,64.0058781 C132.759767,63.4270198 133.193911,62.9349903 133.772769,62.9060474 C134.351627,62.862633 134.829185,63.2967767 134.8726,63.875635 C134.916014,64.4544932 134.48187,64.9320513 133.903012,64.9754656 L133.830655,64.9754656 C133.280739,64.9754656 132.832124,64.5557934 132.803181,64.0058781 L132.803181,64.0058781 Z" id="Fill-11" fill="#EB8300" sketch:type="MSShapeGroup"></path>
                <path d="M133.772769,73.3110245 C133.193911,73.2820816 132.759767,72.790052 132.803181,72.2111938 C132.832124,71.6323355 133.324154,71.1981918 133.903012,71.2271348 C134.48187,71.2705491 134.916014,71.7625786 134.8726,72.3414369 C134.843657,72.8913522 134.38057,73.3110245 133.830655,73.3110245 L133.772769,73.3110245 L133.772769,73.3110245 Z M133.309682,77.4353895 C132.745296,77.3775037 132.340095,76.8565313 132.412452,76.277673 C132.499281,75.6988148 133.005782,75.293614 133.58464,75.3804427 C134.149027,75.4528 134.554228,75.9737724 134.48187,76.5381592 C134.409513,77.0591317 133.975369,77.449861 133.439925,77.449861 L133.309682,77.4353895 L133.309682,77.4353895 Z M132.615052,81.5308117 C132.050666,81.4295115 131.674408,80.8795961 131.775708,80.3152093 C131.89148,79.7508225 132.426923,79.3890361 132.99131,79.4903363 C133.555697,79.5916365 133.946426,80.1415518 133.830655,80.7059386 C133.729355,81.2124396 133.295211,81.5597546 132.803181,81.5597546 L132.615052,81.5308117 L132.615052,81.5308117 Z M131.645465,85.568348 C131.081078,85.4381049 130.748235,84.8737181 130.892949,84.3093313 C131.037664,83.7449445 131.60205,83.412101 132.166437,83.5568155 C132.716353,83.7015301 133.063668,84.2659169 132.904482,84.8303037 C132.78871,85.2933903 132.369038,85.6117623 131.89148,85.6117623 C131.819122,85.6117623 131.732294,85.5972909 131.645465,85.568348 L131.645465,85.568348 Z M130.415391,89.5479984 C129.879947,89.374341 129.576047,88.7810113 129.749704,88.2455674 C129.937833,87.6811806 130.516691,87.3917515 131.066607,87.5654089 C131.60205,87.7390664 131.920423,88.3323961 131.732294,88.86784 C131.587579,89.3164551 131.182378,89.6058843 130.748235,89.6058843 C130.632463,89.6058843 130.531163,89.5769414 130.415391,89.5479984 L130.415391,89.5479984 Z M128.953774,93.4408202 C128.41833,93.2237483 128.157844,92.6304186 128.360444,92.0949748 C128.577516,91.5595309 129.185317,91.2845732 129.720761,91.501645 C130.256205,91.7042454 130.516691,92.3120466 130.299619,92.8474905 C130.140433,93.2526913 129.749704,93.498706 129.344503,93.498706 C129.21426,93.498706 129.084017,93.4842346 128.953774,93.4408202 L128.953774,93.4408202 Z M127.231671,97.2178703 C126.72517,96.9718555 126.493626,96.3640544 126.739641,95.8430819 C126.985656,95.3221095 127.607929,95.1050377 128.128901,95.336581 C128.649873,95.5825957 128.866945,96.2048683 128.62093,96.7258408 C128.447273,97.1020986 128.071015,97.3191705 127.680286,97.3191705 C127.535571,97.3191705 127.390857,97.2902276 127.231671,97.2178703 L127.231671,97.2178703 Z M125.292496,100.908092 C124.785995,100.618663 124.597866,99.9963899 124.872823,99.4898889 C125.162252,98.983388 125.784525,98.795259 126.291026,99.0846882 C126.797527,99.3596458 126.985656,99.9819184 126.696227,100.488419 C126.508098,100.835734 126.160783,101.038335 125.784525,101.038335 C125.625339,101.038335 125.451682,100.980449 125.292496,100.908092 L125.292496,100.908092 Z M123.121777,104.439127 C122.629748,104.120755 122.485033,103.498482 122.788934,103.006453 C123.107306,102.514423 123.74405,102.369709 124.236079,102.688081 C124.713637,102.991981 124.858352,103.628725 124.554451,104.120755 C124.351851,104.439127 124.019007,104.598313 123.671692,104.598313 C123.483563,104.598313 123.295435,104.554899 123.121777,104.439127 L123.121777,104.439127 Z M120.719515,107.839919 C120.256429,107.492604 120.155129,106.841389 120.487972,106.392774 C120.835287,105.915216 121.486503,105.813915 121.949589,106.16123 C122.412676,106.494074 122.513976,107.145289 122.181132,107.608376 C121.978532,107.883334 121.66016,108.028048 121.341788,108.028048 C121.124716,108.028048 120.907644,107.970162 120.719515,107.839919 L120.719515,107.839919 Z M118.129125,111.081525 C117.68051,110.705268 117.622624,110.054052 117.98441,109.605437 L117.98441,109.619908 C118.346197,109.171293 119.011883,109.098936 119.460499,109.475194 C119.894642,109.83698 119.952528,110.502667 119.590742,110.936811 C119.388141,111.182826 119.084241,111.313069 118.794812,111.313069 C118.548797,111.313069 118.317254,111.240711 118.129125,111.081525 L118.129125,111.081525 Z M115.336134,114.149474 C114.90199,113.758745 114.887518,113.107529 115.278248,112.673386 C115.683449,112.253713 116.334664,112.239242 116.754336,112.629971 C117.174009,113.035172 117.18848,113.686388 116.797751,114.10606 C116.59515,114.323132 116.320193,114.424432 116.045235,114.424432 C115.784749,114.424432 115.524263,114.337603 115.336134,114.149474 L115.336134,114.149474 Z M112.340542,117.043765 C111.949813,116.624093 111.964284,115.972878 112.398428,115.567677 C112.8181,115.176948 113.469316,115.191419 113.860045,115.625563 C114.265246,116.030763 114.236303,116.69645 113.816631,117.08718 C113.61403,117.275309 113.353544,117.362137 113.093058,117.362137 C112.8181,117.362137 112.557614,117.260837 112.340542,117.043765 L112.340542,117.043765 Z M109.185765,119.749928 C108.823978,119.301313 108.881864,118.650097 109.330479,118.273839 C109.764623,117.912053 110.415838,117.969939 110.792096,118.418554 C111.153883,118.852697 111.095997,119.503913 110.647382,119.880171 C110.459253,120.039357 110.22771,120.111714 109.996166,120.111714 C109.692266,120.111714 109.388365,119.995943 109.185765,119.749928 L109.185765,119.749928 Z M105.871801,122.239018 C105.538958,121.76146 105.640258,121.124716 106.103344,120.791873 L106.103344,120.777401 C106.566431,120.444558 107.217647,120.545858 107.55049,121.008944 C107.897805,121.486503 107.782033,122.123247 107.333418,122.45609 C107.145289,122.600805 106.928217,122.65869 106.711146,122.65869 C106.392774,122.65869 106.074402,122.513976 105.871801,122.239018 L105.871801,122.239018 Z M102.398652,124.511037 C102.094751,124.033479 102.239466,123.382263 102.717024,123.078363 L102.717024,123.092834 C103.209053,122.774462 103.845797,122.919177 104.149698,123.411206 C104.46807,123.874293 104.323355,124.525508 103.845797,124.84388 C103.67214,124.945181 103.469539,125.003066 103.28141,125.003066 C102.934096,125.003066 102.601252,124.829409 102.398652,124.511037 L102.398652,124.511037 Z M98.795259,126.580455 C98.5203014,126.073954 98.7084303,125.43721 99.2149313,125.162252 C99.7069608,124.887295 100.343705,125.075424 100.633134,125.581925 C100.908092,126.088426 100.719963,126.710698 100.213462,126.985656 C100.054276,127.072485 99.8806183,127.115899 99.7069608,127.115899 C99.3451744,127.115899 98.983388,126.92777 98.795259,126.580455 L98.795259,126.580455 Z M95.0760948,128.403859 C94.83008,127.882886 95.0616233,127.260614 95.5681243,127.02907 C96.0890967,126.768584 96.7113693,127.000127 96.9573841,127.5211 C97.2033988,128.042072 96.9718555,128.664345 96.4653546,128.91036 C96.32064,128.968245 96.161454,129.01166 96.0167394,129.01166 C95.6260101,129.01166 95.2497522,128.780117 95.0760948,128.403859 L95.0760948,128.403859 Z M91.2411588,129.995719 C91.024087,129.460275 91.2990447,128.852474 91.8344885,128.649873 L91.8344885,128.635402 C92.3699324,128.432802 92.9777336,128.693288 93.180334,129.228732 C93.3829344,129.764176 93.1369196,130.371977 92.6014757,130.589049 L92.6014757,130.574577 C92.4712326,130.632463 92.3409895,130.646934 92.2107464,130.646934 C91.7910742,130.646934 91.4003449,130.40092 91.2411588,129.995719 L91.2411588,129.995719 Z M87.3193942,131.341564 C87.1457367,130.791649 87.4351658,130.212791 87.9850812,130.024662 C88.5349965,129.851004 89.1283262,130.154905 89.3019837,130.690349 C89.4901126,131.254736 89.186212,131.833594 88.6362967,132.007251 C88.5349965,132.036194 88.4192249,132.065137 88.3179247,132.065137 C87.8693095,132.065137 87.4641087,131.790179 87.3193942,131.341564 L87.3193942,131.341564 Z M83.3108008,132.441395 C83.1805577,131.877008 83.4989297,131.312621 84.0633165,131.167907 C84.6277033,131.023192 85.1920901,131.356036 85.3223332,131.920423 C85.4815192,132.484809 85.1342043,133.049196 84.5842889,133.179439 C84.4974602,133.208382 84.4106315,133.222854 84.3238027,133.222854 C83.8607161,133.222854 83.4410439,132.904482 83.3108008,132.441395 L83.3108008,132.441395 Z M79.2443216,133.280739 C79.1430214,132.701881 79.5048078,132.166437 80.0691946,132.065137 C80.6335814,131.949365 81.1834967,132.325623 81.2992683,132.89001 C81.4005685,133.454397 81.0243107,133.989841 80.4743953,134.105612 L80.271795,134.120084 C79.7797654,134.120084 79.3456217,133.772769 79.2443216,133.280739 L79.2443216,133.280739 Z M75.134428,133.859598 C75.0620707,133.295211 75.4672715,132.759767 76.0316583,132.701881 C76.6105165,132.629524 77.1314889,133.020253 77.2038462,133.599111 C77.2762035,134.163498 76.8710027,134.684471 76.2921445,134.756828 L76.1619014,134.771299 C75.6554004,134.771299 75.2067852,134.38057 75.134428,133.859598 L75.134428,133.859598 Z M70.9955915,134.17797 C70.9666485,133.613583 71.4007922,133.107082 71.9796505,133.078139 C72.5440373,133.049196 73.0505383,133.48334 73.0794812,134.062198 C73.1084241,134.626585 72.6742804,135.118614 72.0954221,135.162029 L72.0375363,135.162029 C71.487621,135.162029 71.0245344,134.727885 70.9955915,134.17797 L70.9955915,134.17797 Z" id="Fill-12" fill="#EB8300" sketch:type="MSShapeGroup"></path>
                <path d="M0.837971262,72.3703798 C0.794556893,71.7915216 1.22870058,71.299492 1.80755883,71.2560777 C2.38641709,71.2271348 2.8784466,71.6757499 2.90738951,72.2401367 C2.95080388,72.8045235 2.51666019,73.3110245 1.93780194,73.3399674 L1.86544466,73.3399674 C1.31552932,73.3399674 0.866914175,72.9202951 0.837971262,72.3703798 L0.837971262,72.3703798 Z M1.22870058,76.5671021 C1.1563433,76.0027153 1.56154408,75.4817429 2.14040233,75.4093856 C2.70478913,75.3370283 3.22576155,75.7277577 3.29811883,76.3066159 C3.37047612,76.8710027 2.96527534,77.4064466 2.38641709,77.4643324 L2.27064544,77.4788039 C1.73520155,77.4788039 1.28658641,77.0880746 1.22870058,76.5671021 L1.22870058,76.5671021 Z M1.89438757,80.7348816 C1.77861592,80.1704948 2.14040233,79.6205794 2.70478913,79.5192792 C3.26917592,79.417979 3.81909126,79.7797654 3.93486291,80.3441522 C4.03616311,80.908539 3.65990524,81.4584544 3.1099899,81.5597546 L2.90738951,81.5886975 C2.42983146,81.5886975 1.98121631,81.2413825 1.89438757,80.7348816 L1.89438757,80.7348816 Z M2.80608932,84.8592466 C2.66137476,84.2948598 2.99421825,83.730473 3.55860505,83.5857584 C4.10852039,83.4410439 4.67290718,83.7738874 4.81762175,84.3382742 C4.96233631,84.902661 4.62949282,85.4670478 4.06510602,85.5972909 C3.97827728,85.6262338 3.90592,85.6407052 3.80461981,85.6407052 C3.3415332,85.6407052 2.92186097,85.3223332 2.80608932,84.8592466 L2.80608932,84.8592466 Z M3.97827728,88.9112544 C3.80461981,88.361339 4.09404893,87.7680093 4.64396427,87.5943518 C5.19387961,87.4206944 5.78720932,87.7101235 5.9608668,88.2600388 C6.13452427,88.8099542 5.84509515,89.4032839 5.29517981,89.5769414 C5.19387961,89.6058843 5.07810796,89.6348272 4.97680777,89.6348272 C4.52819262,89.6348272 4.12299184,89.3453981 3.97827728,88.9112544 L3.97827728,88.9112544 Z M5.41095146,92.8764334 C5.19387961,92.3409895 5.45436583,91.7331883 5.98980971,91.5161165 C6.52525359,91.2990447 7.13305476,91.5595309 7.33565515,92.0949748 C7.55272699,92.6304186 7.29224078,93.2382198 6.75679689,93.4552917 C6.64102524,93.498706 6.51078214,93.5276489 6.38053903,93.5276489 C5.9608668,93.5276489 5.57013748,93.2816342 5.41095146,92.8764334 L5.41095146,92.8764334 Z M7.08964039,96.7403122 C6.82915417,96.2193398 7.06069748,95.5970672 7.5816699,95.3510524 C8.10264233,95.1050377 8.72491495,95.3221095 8.97092971,95.8430819 C9.21694447,96.3640544 8.98540117,96.986327 8.46442874,97.2323417 C8.31971417,97.304699 8.17499961,97.3336419 8.03028505,97.3336419 C7.63955573,97.3336419 7.26329786,97.1165701 7.08964039,96.7403122 L7.08964039,96.7403122 Z M8.99987262,100.488419 L8.99987262,100.488419 C8.72491495,99.9819184 8.91304388,99.3451744 9.41954485,99.0702167 C9.91157437,98.795259 10.5483184,98.983388 10.8232761,99.4898889 C11.0982338,99.9819184 10.9245763,100.618663 10.4180753,100.89362 C10.2588893,100.980449 10.0852318,101.023863 9.91157437,101.023863 C9.5353165,101.023863 9.18800155,100.835734 8.99987262,100.488419 L8.99987262,100.488419 Z M11.1416482,104.120755 C10.8377476,103.628725 10.9824621,102.991981 11.4600202,102.673609 C11.9520497,102.369709 12.5887938,102.514423 12.9071658,102.991981 C13.2110664,103.484011 13.0663518,104.120755 12.5887938,104.439127 C12.4151363,104.540427 12.2125359,104.598313 12.024407,104.598313 C11.677092,104.598313 11.3442485,104.424656 11.1416482,104.120755 L11.1416482,104.120755 Z M13.5294384,107.593904 C13.1821235,107.145289 13.2834237,106.479602 13.7609817,106.146759 C14.2095969,105.813915 14.8608124,105.915216 15.2081274,106.378302 C15.5409709,106.841389 15.4396707,107.492604 14.9765841,107.839919 C14.7884551,107.970162 14.5713833,108.028048 14.3543115,108.028048 C14.0359394,108.028048 13.7320388,107.883334 13.5294384,107.593904 L13.5294384,107.593904 Z M16.1053577,110.936811 C15.7435713,110.488196 15.8014571,109.822509 16.2500722,109.460722 C16.6842159,109.098936 17.3499029,109.171293 17.7116893,109.605437 C18.0734757,110.054052 18.0155899,110.705268 17.5669748,111.067054 C17.3788458,111.22624 17.1473025,111.313069 16.9012878,111.313069 C16.6118586,111.313069 16.3079581,111.182826 16.1053577,110.936811 L16.1053577,110.936811 Z M18.8983487,114.091588 C18.5076194,113.671916 18.5220909,113.006229 18.9417631,112.629971 C19.3614353,112.22477 20.0271223,112.253713 20.4178517,112.673386 C20.808581,113.093058 20.7796381,113.744273 20.3744373,114.149474 C20.1718369,114.337603 19.9113507,114.424432 19.6508645,114.424432 C19.3759068,114.424432 19.1009491,114.30866 18.8983487,114.091588 L18.8983487,114.091588 Z M21.8794687,117.072708 C21.4597965,116.681979 21.445325,116.030763 21.8360544,115.611091 C22.2267837,115.176948 22.8924707,115.162476 23.2976715,115.553205 C23.7318151,115.958406 23.7462866,116.609622 23.3555573,117.029294 C23.1384854,117.246366 22.8635278,117.362137 22.5885701,117.362137 C22.3425553,117.362137 22.0820691,117.260837 21.8794687,117.072708 L21.8794687,117.072708 Z M25.0342462,119.865699 C24.6001025,119.503913 24.5422167,118.838226 24.9040031,118.404082 C25.280261,117.955467 25.9314765,117.897581 26.3656202,118.273839 C26.8142353,118.635626 26.8721212,119.286841 26.5103348,119.735456 C26.3077344,119.981471 26.0038338,120.111714 25.7144047,120.111714 C25.4683899,120.111714 25.2368466,120.039357 25.0342462,119.865699 L25.0342462,119.865699 Z M28.3771526,122.45609 L28.3626812,122.45609 C27.914066,122.123247 27.7982944,121.472031 28.1456093,121.008944 C28.4784528,120.545858 29.1296683,120.444558 29.592755,120.777401 C30.070313,121.110245 30.1571417,121.76146 29.8242983,122.239018 C29.6216979,122.513976 29.3177973,122.65869 28.9849538,122.65869 C28.7823534,122.65869 28.5508101,122.586333 28.3771526,122.45609 L28.3771526,122.45609 Z M31.8647736,124.829409 C31.3727441,124.525508 31.2280295,123.874293 31.5464016,123.396735 C31.8503021,122.904705 32.4870462,122.774462 32.9790757,123.078363 C33.4711052,123.382263 33.6013483,124.033479 33.2974478,124.511037 C33.0948474,124.829409 32.7620039,125.003066 32.4291604,125.003066 C32.22656,125.003066 32.0384311,124.945181 31.8647736,124.829409 L31.8647736,124.829409 Z M35.4971091,126.985656 C34.9906082,126.710698 34.8024792,126.073954 35.0774369,125.581925 C35.3523946,125.075424 35.9891386,124.887295 36.4956396,125.162252 C37.0021406,125.451682 37.1902695,126.073954 36.9008404,126.580455 C36.7127115,126.92777 36.3653965,127.115899 35.9891386,127.115899 C35.8299526,127.115899 35.6562951,127.072485 35.4971091,126.985656 L35.4971091,126.985656 Z M39.2596878,128.91036 C38.7387153,128.664345 38.507172,128.042072 38.7531868,127.5211 C38.9992016,127.000127 39.6214742,126.768584 40.1424466,127.02907 C40.663419,127.275085 40.8804909,127.882886 40.6489476,128.41833 C40.4608186,128.794588 40.0845608,129.01166 39.6938315,129.01166 C39.5491169,129.01166 39.3899309,128.982717 39.2596878,128.91036 L39.2596878,128.91036 Z M43.1380381,130.589049 C42.6025942,130.371977 42.3276365,129.764176 42.5447083,129.228732 C42.7617802,128.693288 43.3551099,128.447273 43.8905538,128.649873 C44.4259977,128.852474 44.6864839,129.460275 44.4838835,129.995719 C44.3246975,130.415391 43.9194967,130.661406 43.5142959,130.661406 C43.3840528,130.661406 43.2538097,130.632463 43.1380381,130.589049 L43.1380381,130.589049 Z M47.1032171,132.021723 C46.5533017,131.848065 46.2494012,131.254736 46.4375301,130.70482 C46.6111876,130.154905 47.1900458,129.865476 47.7399612,130.039133 C48.304348,130.212791 48.5937771,130.80612 48.4201196,131.341564 C48.2609336,131.790179 47.8557328,132.065137 47.4215891,132.065137 C47.3202889,132.065137 47.2045173,132.050666 47.1032171,132.021723 L47.1032171,132.021723 Z M51.1552249,133.193911 C50.5908381,133.049196 50.2579946,132.484809 50.4027091,131.920423 C50.5474237,131.370507 51.1118105,131.023192 51.6617258,131.182378 C52.2261126,131.312621 52.5589561,131.877008 52.428713,132.441395 C52.2984699,132.918953 51.8787977,133.222854 51.4157111,133.222854 C51.3288823,133.222854 51.2420536,133.208382 51.1552249,133.193911 L51.1552249,133.193911 Z M55.2795899,134.120084 C54.7007317,134.004312 54.3389452,133.454397 54.4402454,132.89001 C54.5560171,132.325623 55.1059324,131.949365 55.6703192,132.065137 C56.2202346,132.166437 56.5964924,132.716353 56.4807208,133.280739 C56.393892,133.772769 55.9597483,134.120084 55.4677188,134.120084 L55.2795899,134.120084 L55.2795899,134.120084 Z M59.4473693,134.771299 C58.8685111,134.684471 58.4633103,134.17797 58.5356676,133.599111 C58.6080249,133.034725 59.1289973,132.629524 59.6933841,132.701881 C60.2577709,132.759767 60.6774431,133.295211 60.6050858,133.859598 C60.5327285,134.395042 60.0841134,134.771299 59.5776124,134.771299 L59.4473693,134.771299 L59.4473693,134.771299 Z M63.6296202,135.162029 C63.0652334,135.133086 62.6310897,134.626585 62.6600326,134.062198 C62.6889755,133.48334 63.1954765,133.049196 63.7598633,133.078139 C64.3387216,133.107082 64.7728652,133.613583 64.7294509,134.17797 C64.700508,134.742357 64.2518928,135.162029 63.7019775,135.162029 L63.6296202,135.162029 L63.6296202,135.162029 Z" id="Fill-13" fill="#EB8300" sketch:type="MSShapeGroup"></path>
                <path d="M1.73520155,69.1577165 C1.46024388,69.1577165 1.19975767,69.0564163 1.01162874,68.8682874 C0.80902835,68.665687 0.707728155,68.3907293 0.707728155,68.1157717 C0.707728155,67.8552854 0.823499806,67.5803278 1.01162874,67.3921988 C1.40235806,67.0014695 2.09698796,67.0014695 2.48771728,67.3921988 C2.67584621,67.5803278 2.79161786,67.8552854 2.79161786,68.1157717 C2.79161786,68.3907293 2.67584621,68.665687 2.48771728,68.8682874 C2.28511689,69.0564163 2.01015922,69.1577165 1.73520155,69.1577165" id="Fill-14" fill="#EB8300" sketch:type="MSShapeGroup"></path>
                <path d="M67.8552854,135.538287 C67.5658563,135.538287 67.3198416,135.422515 67.1172412,135.234386 C66.9146408,135.031786 66.8133406,134.771299 66.8133406,134.496342 C66.8133406,134.221384 66.9291122,133.960898 67.1172412,133.758297 C67.5079705,133.367568 68.2026004,133.367568 68.5933297,133.758297 C68.7814586,133.960898 68.8972303,134.221384 68.8972303,134.496342 C68.8972303,134.771299 68.7959301,135.031786 68.5933297,135.234386 C68.3907293,135.422515 68.1302431,135.538287 67.8552854,135.538287" id="Fill-15" fill="#EB8300" sketch:type="MSShapeGroup"></path>
                <path d="M67.8552854,2.77714641 C67.5658563,2.77714641 67.3198416,2.66137476 67.1172412,2.47324583 C66.9146408,2.27064544 66.8133406,2.01015922 66.8133406,1.73520155 C66.8133406,1.46024388 66.9291122,1.19975767 67.1172412,0.997157282 C67.5079705,0.606427961 68.2026004,0.606427961 68.5933297,0.997157282 C68.7814586,1.19975767 68.8972303,1.46024388 68.8972303,1.73520155 C68.8972303,2.01015922 68.7959301,2.27064544 68.5933297,2.47324583 C68.3907293,2.66137476 68.1302431,2.77714641 67.8552854,2.77714641" id="Fill-16" fill="#EB8300" sketch:type="MSShapeGroup"></path>
                <path d="M133.960898,69.1577165 C133.68594,69.1577165 133.425454,69.0564163 133.222854,68.8682874 C133.034725,68.665687 132.918953,68.3907293 132.918953,68.1157717 C132.918953,67.8552854 133.034725,67.5803278 133.222854,67.3921988 C133.613583,67.0014695 134.322684,67.0014695 134.698942,67.3921988 C134.887071,67.5803278 135.002843,67.8552854 135.002843,68.1157717 C135.002843,68.4052008 134.887071,68.665687 134.698942,68.8682874 C134.510813,69.0564163 134.235856,69.1577165 133.960898,69.1577165" id="Fill-17" fill="#EB8300" sketch:type="MSShapeGroup"></path>
                <path d="M24.8750602,18.9128202 C24.5277452,18.9128202 24.2238447,18.7825771 23.9923014,18.5510338 C23.7607581,18.3194905 23.630515,17.986647 23.630515,17.6538035 C23.630515,17.3354315 23.7607581,17.0170594 23.9923014,16.7710447 C24.455388,16.3079581 25.2657895,16.3079581 25.7433476,16.7710447 C25.9604194,17.0170594 26.105134,17.3354315 26.105134,17.6538035 C26.105134,17.986647 25.9748909,18.3194905 25.7433476,18.5510338 C25.5118043,18.7825771 25.2079037,18.9128202 24.8750602,18.9128202" id="Fill-18" fill="#EB8300" sketch:type="MSShapeGroup"></path>
                <g id="art" transform="translate(26.112000, 19.584000)" sketch:type="MSShapeGroup">
                    <path d="M8.73285169,26.8621188 L8.52597564,26.8499883 L4.44930062,43.6871021 L12.7973575,43.6871021 L8.73285169,26.8621188 L8.73285169,26.8621188 Z M38.839401,43.8447984 L42.5996773,43.8447984 L42.5996773,44.1480606 L20.2814027,44.1480606 L12.420113,11.8930998 L12.1645602,11.9173608 C11.1180108,16.2236831 10.047123,20.517875 9.04925034,24.8241973 C8.92755855,25.3579386 9.06141952,25.9887239 9.19528049,26.5467262 C10.5947361,32.4057507 12.0185301,38.2647751 13.4666624,44.208713 L0.384794775,44.208713 L0.348287237,43.8569289 L3.90168756,43.6992326 L14.4767043,0.041615534 L15.0486557,0.041615534 L25.8792251,43.6871021 L33.0590408,43.6871021 L33.0590408,1.08483728 L29.4326255,1.08483728 L29.3961179,0.781575146 C29.6395015,0.708792233 29.8950543,0.599617864 30.1384378,0.599617864 C32.6452888,0.587487379 35.2373239,0.223572816 37.6346522,0.720922718 C39.2896606,1.06057631 40.7012854,0.648139806 42.2224328,0.599617864 C46.5546605,0.466182524 50.4731362,2.84375767 52.1889905,6.71338252 C53.9170139,10.6193988 53.1260173,15.1076784 50.0958917,18.1888217 C48.8789738,19.4140008 47.5890408,20.5785274 46.2991078,21.718793 C45.7393255,22.2161429 45.6054646,22.6285794 45.9218632,23.3564085 C48.8302971,29.9068707 51.6900542,36.4815938 54.6106572,43.0199254 C54.7566873,43.359579 55.2921312,43.6871021 55.6815449,43.7356241 C56.5212183,43.8447984 57.3730608,43.7720155 58.2614109,44.0995386 C58.0058581,44.1601911 57.7624746,44.2936264 57.5069218,44.2936264 C55.0487476,44.3057569 52.5784042,44.3421483 50.12023,44.2693654 C49.6821396,44.2451045 49.0493423,43.808407 48.8668046,43.408101 C46.3964612,37.8523386 44.0234713,32.2601849 41.5652971,26.7044225 C41.2245601,25.9402019 41.4557745,25.5641569 41.9790492,25.0789375 C44.4859001,22.7620148 46.9805818,20.4329616 49.438756,18.0675169 C52.2376672,15.3745491 53.1990324,12.0750571 52.2011597,8.35099806 C51.203287,4.67546097 48.757282,2.21297243 45.021344,1.46088233 C43.2811514,1.10909825 41.358421,1.53366524 39.5452133,1.72775301 C39.2166455,1.76414447 38.7177092,2.44345165 38.7177092,2.83162718 C38.6812016,16.296466 38.6812016,29.7491744 38.6933708,43.2140132 C38.6933708,43.3353181 38.7542167,43.4687534 38.839401,43.8447984 L38.839401,43.8447984 Z" id="Fill-19" fill="#EB8300"></path>
                    <path d="M74.9210172,43.8569289 L74.908848,44.1723216 L61.6687811,44.1723216 L61.6444427,43.8690594 L65.3925499,43.8690594 L65.3925499,1.21827262 L57.2026923,1.21827262 L57.2026923,10.1584404 L56.8254478,10.1584404 L56.8254478,0.660270291 L79.7643505,0.660270291 L79.7643505,10.1584404 L79.460121,10.1705709 L79.460121,1.21827262 L71.1120641,1.21827262 L71.1120641,43.8569289 L74.9210172,43.8569289 Z" id="Fill-20" fill="#EB8300"></path>
                    <path d="M56.8619553,1.32744699 L56.8619553,9.98861359 M79.2045683,1.32744699 L79.2045683,9.98861359" id="Stroke-21" stroke="#EB8300" stroke-width="0.84" stroke-linecap="round" stroke-linejoin="round"></path>
                    <path d="M9.06141952,58.3407285 L6.09213981,58.3407285 L7.57677966,53.7190136 L9.06141952,58.3407285 L9.06141952,58.3407285 Z M11.1910259,61.6523511 L8.27042288,52.578748 L6.88313645,52.578748 L3.96253345,61.6523511 L5.21595891,61.6523511 L5.83658704,59.3475588 L9.30480311,59.3475588 L9.92543124,61.6523511 L11.1910259,61.6523511 L11.1910259,61.6523511 Z" id="Fill-22" fill="#EB8300"></path>
                    <path d="M15.888329,57.1883324 L13.9412604,57.1883324 L13.9412604,53.4400124 L15.888329,53.4400124 C17.0687394,53.4400124 17.786721,54.204233 17.786721,55.3081072 C17.786721,56.4119814 17.0687394,57.1883324 15.888329,57.1883324 L15.888329,57.1883324 Z M13.9412604,61.6523511 L13.9412604,58.1951627 L16.0343592,58.1951627 C18.0301046,58.1951627 18.8576088,56.8850703 18.8576088,55.3081072 C18.8576088,53.7432746 18.0422738,52.4331821 16.0343592,52.4331821 L12.8582034,52.4331821 L12.8582034,61.6523511 L13.9412604,61.6523511 L13.9412604,61.6523511 Z" id="Fill-23" fill="#EB8300"></path>
                    <path d="M24.4067545,58.3407285 L21.4374747,58.3407285 L22.9221146,53.7190136 L24.4067545,58.3407285 L24.4067545,58.3407285 Z M26.5241916,61.6523511 L23.6157578,52.578748 L22.2284714,52.578748 L19.3078684,61.6523511 L20.5612938,61.6523511 L21.181922,59.3475588 L24.650138,59.3475588 L25.2707662,61.6523511 L26.5241916,61.6523511 L26.5241916,61.6523511 Z" id="Fill-24" fill="#EB8300"></path>
                    <path d="M31.233664,57.1883324 L29.2865953,57.1883324 L29.2865953,53.4400124 L31.233664,53.4400124 C32.4140744,53.4400124 33.1198867,54.204233 33.1198867,55.3081072 C33.1198867,56.3998509 32.4140744,57.1883324 31.233664,57.1883324 L31.233664,57.1883324 Z M34.3002971,61.6523511 L32.255875,58.0253359 C33.3267628,57.8433786 34.2029437,57.0185056 34.2029437,55.2959767 C34.2029437,53.5249258 33.1929018,52.4331821 31.3918633,52.4331821 L28.2035384,52.4331821 L28.2035384,61.6523511 L29.2865953,61.6523511 L29.2865953,58.1951627 L30.9172653,58.1951627 L33.1077176,61.6523511 L34.3002971,61.6523511 L34.3002971,61.6523511 Z" id="Fill-25" fill="#EB8300"></path>
                    <path d="M38.1822653,61.6523511 L38.1822653,53.4400124 L40.5309169,53.4400124 L40.5309169,52.4331821 L34.7627259,52.4331821 L34.7627259,53.4400124 L37.1113775,53.4400124 L37.1113775,61.6523511 L38.1822653,61.6523511" id="Fill-26" fill="#EB8300"></path>
                    <path d="M49.5482786,61.6523511 L49.5482786,52.578748 L48.3191915,52.578748 L45.9218632,59.2626454 L43.5488733,52.578748 L42.3197862,52.578748 L42.3197862,61.6523511 L43.4028431,61.6523511 L43.4028431,54.3012769 L45.702818,61.6523511 L46.1530776,61.6523511 L48.4652217,54.3012769 L48.4652217,61.6523511 L49.5482786,61.6523511" id="Fill-27" fill="#EB8300"></path>
                    <path d="M57.4095684,61.7979169 L57.4095684,60.7910866 L53.5276002,60.7910866 L53.5276002,57.0427666 L57.3000458,57.0427666 L57.3000458,56.0359363 L53.5276002,56.0359363 L53.5276002,53.4400124 L57.4095684,53.4400124 L57.4095684,52.4331821 L52.4567124,52.4331821 L52.4567124,61.7979169 L57.4095684,61.7979169" id="Fill-28" fill="#EB8300"></path>
                    <path d="M66.1227007,61.6523511 L66.1227007,52.578748 L65.0396437,52.578748 L65.0396437,59.3475588 L61.2063523,52.578748 L60.1232953,52.578748 L60.1232953,61.6523511 L61.2063523,61.6523511 L61.2063523,54.7379744 L65.0883204,61.6523511 L66.1227007,61.6523511" id="Fill-29" fill="#EB8300"></path>
                    <path d="M71.3311093,61.6523511 L71.3311093,53.4400124 L73.6797609,53.4400124 L73.6797609,52.4331821 L67.91157,52.4331821 L67.91157,53.4400124 L70.2602216,53.4400124 L70.2602216,61.6523511 L71.3311093,61.6523511" id="Fill-30" fill="#EB8300"></path>
                </g>
            </g>
        </g>
    </g>
</svg>