<?xml version="1.0" encoding="UTF-8" standalone="no"?>
<svg width="60px" height="60px" viewBox="0 0 60 60" version="1.1" xmlns="http://www.w3.org/2000/svg" xmlns:xlink="http://www.w3.org/1999/xlink" xmlns:sketch="http://www.bohemiancoding.com/sketch/ns">
    <!-- Generator: Sketch 3.3.2 (12043) - http://www.bohemiancoding.com/sketch -->
    <title>aventura-ap-facilities-stove</title>
    <desc>Created with Sketch.</desc>
    <defs></defs>
    <g id="kit" stroke="none" stroke-width="1" fill="none" fill-rule="evenodd" sketch:type="MSPage">
        <g id="aventura-ap-facilities-stove" sketch:type="MSArtboardGroup" fill="#FFFFFF">
            <g id="stove" sketch:type="MSLayerGroup" transform="translate(13.000000, 12.000000)">
                <path d="M33.8607619,32.5622093 C33.8607619,33.4575581 33.1321905,34.1901163 32.2417143,34.1901163 L2.39619048,34.1901163 C1.50571429,34.1901163 0.777142857,33.4575581 0.777142857,32.5622093 L0.777142857,8.71174419 C0.777142857,7.81639535 1.50571429,7.08383721 2.39619048,7.08383721 L32.2417143,7.08383721 C33.1321905,7.08383721 33.8607619,7.81639535 33.8607619,8.71174419 L33.8607619,32.5622093 L33.8607619,32.5622093 Z M30.173381,12.4103488 C30.173381,11.515 29.4448095,10.7824419 28.5543333,10.7824419 L6.09328571,10.7824419 C5.20280952,10.7824419 4.4742381,11.515 4.4742381,12.4103488 L4.4742381,23.292093 C4.4742381,24.1874419 5.20280952,24.92 6.09328571,24.92 L28.5543333,24.92 C29.4448095,24.92 30.173381,24.1874419 30.173381,23.292093 L30.173381,12.4103488 L30.173381,12.4103488 Z" id="Fill-1" sketch:type="MSShapeGroup"></path>
                <path d="M32.2530476,0.305232558 C33.1435238,0.305232558 33.8720952,1.0377907 33.8720952,1.93313953 L33.8720952,4.78848837 C33.8720952,5.68383721 33.1435238,6.4172093 32.2530476,6.4172093 L2.38647619,6.4172093 C1.496,6.4172093 0.767428571,5.68383721 0.767428571,4.78848837 L0.767428571,1.93313953 C0.767428571,1.0377907 1.496,0.305232558 2.38647619,0.305232558 L32.2530476,0.305232558 L32.2530476,0.305232558 Z M11.7753333,2.95546512 C11.7753333,2.51430233 11.0467619,2.15290698 10.1562857,2.15290698 L6.08761905,2.15290698 C5.19714286,2.15290698 4.46857143,2.51267442 4.46857143,2.95302326 C4.46857143,3.39337209 5.19714286,4.56627907 6.08761905,4.56627907 L10.1562857,4.56627907 C11.0467619,4.56627907 11.7753333,3.39744186 11.7753333,2.95546512 L11.7753333,2.95546512 Z M25.9719524,4.58825581 C26.2739048,3.91267442 26.2787619,2.81465116 25.9832857,2.14883721 C25.9832857,2.14883721 25.9832857,2.14883721 25.3154286,2.13418605 L24.6402857,2.11953488 C24.3294286,2.80244186 24.3124286,3.90534884 24.6030476,4.56953488 C24.6030476,4.56953488 24.6030476,4.56953488 25.279,4.57848837 L25.9719524,4.58825581 L25.9719524,4.58825581 Z M28.3584286,4.30662791 C28.6935714,4.4572093 29.241619,4.46372093 29.5759524,4.32209302 C29.9102857,4.17965116 29.9596667,2.82848837 29.6722857,2.14232558 C29.6722857,2.14232558 29.6722857,2.14232558 28.9874286,2.13418605 L28.323619,2.12604651 C28.0135714,2.78860465 28.0232857,4.15604651 28.3584286,4.30662791 L28.3584286,4.30662791 Z" id="Fill-2" sketch:type="MSShapeGroup"></path>
            </g>
        </g>
    </g>
</svg>