<?xml version="1.0" encoding="UTF-8" standalone="no"?>
<svg width="42px" height="42px" viewBox="0 0 42 42" version="1.1" xmlns="http://www.w3.org/2000/svg" xmlns:xlink="http://www.w3.org/1999/xlink" xmlns:sketch="http://www.bohemiancoding.com/sketch/ns">
    <!-- Generator: Sketch 3.3.2 (12043) - http://www.bohemiancoding.com/sketch -->
    <title>aventura-mobil-navIcon-email</title>
    <desc>Created with Sketch.</desc>
    <defs></defs>
    <g id="kit" stroke="none" stroke-width="1" fill="none" fill-rule="evenodd" sketch:type="MSPage">
        <g id="aventura-mobil-navIcon-email" sketch:type="MSArtboardGroup" fill="#4A4A4A">
            <path d="M22.9816254,20.9782692 C22.675265,23.1780769 21.1855124,24.9605769 19.7318021,24.9605769 C18.5123675,24.9605769 17.8636042,24.0484615 17.8636042,22.6057692 L17.8636042,22.5223077 C17.9056537,19.6369231 19.8759717,17.2225 22.3689046,17.2225 C22.8314488,17.2225 23.2519435,17.2940385 23.5583039,17.3715385 L23.1137809,20.1675 L22.9816254,20.9782692 L22.9816254,20.9782692 Z M26.8742049,18.9453846 L27.4929329,15.1359615 C26.5738516,14.6411538 24.6636042,14.2238462 22.9816254,14.2238462 C17.4791519,14.2238462 14.0010601,18.3969231 14.0010601,23.0648077 C14.0010601,23.2734615 14.0130742,23.4761538 14.0250883,23.6728846 C14.2533569,26.4151923 16.0014134,28.0367308 18.2840989,28.0367308 C20.344523,28.0367308 22.0265018,27.0113462 23.2519435,25.1096154 L23.3240283,25.1096154 C23.5162544,27.0828846 24.819788,28.0367308 26.6159011,28.0367308 C30.7427562,28.0367308 33.8784452,24.5432692 33.8784452,18.9692308 C33.8784452,18.7426923 33.8664311,18.5221154 33.854417,18.3015385 C33.5300353,12.2744231 28.8204947,8 22.2968198,8 C13.6946996,8 8,14.7186538 8,22.4567308 C8,23.0648077 8.04204947,23.6490385 8.11413428,24.2153846 C8.91908127,30.6001923 14.0971731,34.4036538 19.9240283,34.4036538 C22.6392226,34.4036538 24.6275618,34.0638462 26.9222615,33.0384615 L26.2734982,30.8803846 C24.7416961,31.6375 22.6392226,32.0548077 20.6869258,32.0548077 C15.6169611,32.0548077 11.844523,29.2230769 11.0876325,24.0961538 C10.9915194,23.4701923 10.9434629,22.8084615 10.9434629,22.1169231 C10.9434629,14.8319231 16.0254417,10.3130769 21.9123675,10.3130769 C27.5469965,10.3130769 30.724735,13.7469231 31.0250883,18.3611538 C31.0371025,18.5996154 31.0491166,18.8380769 31.0491166,19.0825 C31.0491166,23.4821154 28.9826855,25.5686538 27.3427562,25.4911538 C26.2734982,25.4494231 26.0031802,24.43 26.345583,22.1884615 L26.8742049,18.9453846 L26.8742049,18.9453846 Z" id="Fill-1" sketch:type="MSShapeGroup"></path>
        </g>
    </g>
</svg>