<?xml version="1.0" encoding="UTF-8" standalone="no"?>
<svg width="60px" height="60px" viewBox="0 0 60 60" version="1.1" xmlns="http://www.w3.org/2000/svg" xmlns:xlink="http://www.w3.org/1999/xlink" xmlns:sketch="http://www.bohemiancoding.com/sketch/ns">
    <!-- Generator: Sketch 3.3.2 (12043) - http://www.bohemiancoding.com/sketch -->
    <title>aventura-ap-facilities-tv</title>
    <desc>Created with Sketch.</desc>
    <defs></defs>
    <g id="kit" stroke="none" stroke-width="1" fill="none" fill-rule="evenodd" sketch:type="MSPage">
        <g id="aventura-ap-facilities-tv" sketch:type="MSArtboardGroup" fill="#FFFFFF">
            <path d="M43.0249524,20.7188171 L31.2549048,20.7188171 L40.997381,11.3271342 C41.536619,10.8073293 41.5510952,9.95091469 41.0308571,9.41306103 C40.5088095,8.87520738 39.6492857,8.86076835 39.1118571,9.38057323 L29.4128095,18.7298415 L24.5759524,12.8946708 C24.0991429,12.3198171 23.2441429,12.2376952 22.6650952,12.7150854 C22.0878571,13.1906708 22.0064286,14.0443781 22.4850476,14.6201342 L27.5408571,20.7188171 L16.069381,20.7188171 C13.2809048,20.7188171 11,22.9947684 11,25.7760854 L11,40.0283049 C11,42.809622 13.2809048,45.0846708 16.069381,45.0846708 L43.0249524,45.0846708 C45.8134286,45.0846708 48.0952381,42.809622 48.0952381,40.0283049 L48.0952381,25.7760854 C48.0952381,22.9947684 45.8134286,20.7188171 43.0249524,20.7188171 L43.0249524,20.7188171 Z M37.5339524,37.4861342 C37.5339524,40.2385732 35.2765714,42.4901586 32.5170476,42.4901586 L19.9318095,42.4901586 C17.1722857,42.4901586 14.9149048,40.2385732 14.9149048,37.4861342 L14.9149048,28.5429635 C14.9149048,25.7905244 17.1722857,23.5389391 19.9318095,23.5389391 L32.5170476,23.5389391 C35.2765714,23.5389391 37.5339524,25.7905244 37.5339524,28.5429635 L37.5339524,37.4861342 L37.5339524,37.4861342 Z M43.0475714,38.3163781 C41.5492857,38.3163781 40.3332857,37.1044025 40.3332857,35.609061 C40.3332857,34.114622 41.5492857,32.901744 43.0475714,32.901744 C44.5467619,32.901744 45.7618571,34.114622 45.7618571,35.609061 C45.7618571,37.1044025 44.5467619,38.3163781 43.0475714,38.3163781 L43.0475714,38.3163781 Z M43.0475714,31.7664757 C41.5492857,31.7664757 40.3332857,30.5545001 40.3332857,29.0591586 C40.3332857,27.5638171 41.5492857,26.3518415 43.0475714,26.3518415 C44.5467619,26.3518415 45.7618571,27.5638171 45.7618571,29.0591586 C45.7618571,30.5545001 44.5467619,31.7664757 43.0475714,31.7664757 L43.0475714,31.7664757 Z" id="Imported-Layers" sketch:type="MSShapeGroup"></path>
        </g>
    </g>
</svg>