<?xml version="1.0" encoding="UTF-8" standalone="no"?>
<svg width="60px" height="60px" viewBox="0 0 60 60" version="1.1" xmlns="http://www.w3.org/2000/svg" xmlns:xlink="http://www.w3.org/1999/xlink" xmlns:sketch="http://www.bohemiancoding.com/sketch/ns">
    <!-- Generator: Sketch 3.3.2 (12043) - http://www.bohemiancoding.com/sketch -->
    <title>aventura-room-facilities-lamp</title>
    <desc>Created with Sketch.</desc>
    <defs></defs>
    <g id="kit" stroke="none" stroke-width="1" fill="none" fill-rule="evenodd" sketch:type="MSPage">
        <g id="aventura-room-facilities-lamp" sketch:type="MSArtboardGroup" fill="#FFFFFF">
            <g id="lamp" sketch:type="MSLayerGroup" transform="translate(10.000000, 13.000000)">
                <path d="M25.7894737,33 C27.5368421,33 28.9473684,31.5735484 28.9473684,29.8064516 L22.6315789,29.8064516 C22.6315789,31.5735484 24.0421053,33 25.7894737,33" id="Fill-1" sketch:type="MSShapeGroup"></path>
                <path d="M1.68421053,0 L0,0 L0,22.3548387 L1.68421053,22.3548387 C3.66315789,22.3548387 5.27368421,20.7367742 5.27368421,18.7354839 L5.27368421,3.61935484 C5.27368421,1.61806452 3.66315789,0 1.68421053,0" id="Fill-2" sketch:type="MSShapeGroup"></path>
                <path d="M36.8421053,24.483871 C33.3263158,22.3441935 30.5263158,20.2258065 30.5263158,20.2258065 L21.0526316,20.2258065 C21.0526316,20.2258065 18.2526316,22.3441935 14.7368421,24.483871 C11.2210526,26.6235484 12.6315789,28.7419355 12.6315789,28.7419355 L38.9473684,28.7419355 C38.9473684,28.7419355 40.3578947,26.6235484 36.8421053,24.483871" id="Fill-3" sketch:type="MSShapeGroup"></path>
                <path d="M13.7473684,8.22658065 C15.3684211,5.95490323 16.7684211,3.99193548 19.1294737,3.71516129 C20.7642105,3.52354839 22.2873684,3.94190323 23.3094737,4.86270968 C24.2568421,5.7153871 24.7368421,6.94490323 24.7368421,8.51612903 L24.7368421,13.9802903 C22.6263158,14.5189355 21.0526316,16.629871 21.0526316,19.1612903 L30.5263158,19.1612903 C30.5263158,17.0759032 29.4505263,15.2885806 27.8947368,14.4156774 L27.8947368,8.51612903 C27.8947368,6.03048387 27.0357895,3.94190323 25.4105263,2.47819355 C23.7147368,0.951677419 21.2947368,0.248032258 18.7652632,0.542903226 C15.0221053,0.982548387 12.9842105,3.83758065 11.1863158,6.35729032 C10.8989474,6.75967742 10.6126316,7.161 10.3210526,7.55167742 C8.98947368,9.32835484 6.98631579,9.92341935 6.32631579,10.0777742 L6.32631579,13.3021935 C6.39789474,13.3021935 6.46947368,13.301129 6.54,13.2904839 C6.69789474,13.2670645 10.4315789,12.6911613 12.8368421,9.48058065 C13.1442105,9.07074194 13.4452632,8.64919355 13.7473684,8.22658065" id="Fill-4" sketch:type="MSShapeGroup"></path>
            </g>
        </g>
    </g>
</svg>