<?xml version="1.0" encoding="UTF-8" standalone="no"?>
<svg width="60px" height="60px" viewBox="0 0 60 60" version="1.1" xmlns="http://www.w3.org/2000/svg" xmlns:xlink="http://www.w3.org/1999/xlink" xmlns:sketch="http://www.bohemiancoding.com/sketch/ns">
    <!-- Generator: Sketch 3.3.2 (12043) - http://www.bohemiancoding.com/sketch -->
    <title>aventura-ap-facilities-lift</title>
    <desc>Created with Sketch.</desc>
    <defs></defs>
    <g id="kit" stroke="none" stroke-width="1" fill="none" fill-rule="evenodd" sketch:type="MSPage">
        <g id="aventura-ap-facilities-lift" sketch:type="MSArtboardGroup" fill="#FFFFFF">
            <g id="Imported-Layers" sketch:type="MSLayerGroup" transform="translate(15.000000, 6.000000)">
                <path d="M29.445,27.108 C29.445,32.844 29.413,38.581 29.471,44.316 C29.483,45.5 29.102,45.825 27.958,45.819 C19.382,45.781 10.806,45.775 2.23,45.822 C0.976,45.829 0.649,45.447 0.654,44.207 C0.701,32.846 0.698,21.485 0.657,10.124 C0.653,8.95 0.845,8.497 2.171,8.507 C10.802,8.573 19.434,8.56 28.066,8.518 C29.147,8.513 29.48,8.792 29.47,9.899 C29.416,15.635 29.445,21.372 29.445,27.108 L29.445,27.108 Z M3.023,27.126 C3.023,32.136 3.051,37.146 3.001,42.156 C2.99,43.237 3.154,43.708 4.412,43.697 C11.593,43.634 18.774,43.653 25.954,43.684 C26.826,43.688 27.3,43.528 27.297,42.541 C27.264,32.246 27.24,21.95 27.255,11.654 C27.256,10.59 26.742,10.542 25.924,10.544 C18.744,10.564 11.563,10.579 4.382,10.531 C3.278,10.524 2.988,10.85 2.999,11.93 C3.053,16.995 3.023,22.061 3.023,27.126 L3.023,27.126 Z" id="Fill-1" sketch:type="MSShapeGroup"></path>
                <path d="M9.43,0.437 C10.721,1.633 11.749,2.568 12.757,3.526 C13.177,3.925 13.774,4.246 13.109,5.006 C12.361,5.861 12.136,4.994 11.72,4.705 C11.331,4.434 11.156,3.863 10.521,3.861 C10.231,4.616 10.426,5.392 10.389,6.146 C10.36,6.715 10.45,7.259 9.567,7.223 C8.708,7.187 8.771,6.643 8.774,6.075 C8.778,5.416 8.775,4.756 8.775,4.058 C8.017,4.09 7.774,4.663 7.411,5.024 C6.94,5.493 6.606,5.665 6.056,5.09 C5.534,4.545 5.813,4.256 6.193,3.862 C7.276,2.741 8.336,1.598 9.43,0.437" id="Fill-2" sketch:type="MSShapeGroup"></path>
                <path d="M21.904,4.208 C22.299,3.681 22.692,3.153 23.089,2.627 C23.425,2.181 23.719,2.359 24.035,2.672 C24.338,2.971 24.588,3.244 24.184,3.642 C23.073,4.737 21.957,5.828 20.858,6.935 C20.436,7.36 20.19,7.054 19.903,6.774 C19.025,5.919 18.146,5.066 17.255,4.226 C16.801,3.798 16.515,3.407 17.109,2.847 C17.727,2.264 18.101,2.682 18.483,3.112 C18.779,3.445 19.046,3.802 19.326,4.149 C19.466,4.106 19.606,4.064 19.747,4.022 C19.747,3.177 19.754,2.332 19.744,1.487 C19.738,0.956 19.728,0.512 20.497,0.508 C21.272,0.504 21.448,0.863 21.423,1.531 C21.395,2.309 21.417,3.088 21.417,3.867 C21.579,3.98 21.741,4.094 21.904,4.208" id="Fill-3" sketch:type="MSShapeGroup"></path>
                <path d="M14.729,30.768 C14.729,34.099 14.714,36.431 14.737,39.762 C14.745,40.887 14.739,42.019 13.22,41.971 C11.756,41.924 12.032,40.775 12.032,39.674 C12.034,34.662 12.033,30.65 12.033,25.638 L12.033,24.001 C11.921,24 11.496,23.999 11.384,23.998 C11.384,25.675 11.373,27.351 11.388,29.027 C11.397,30.014 11.17,30.925 10.017,30.905 C8.995,30.888 8.712,30.029 8.711,29.114 C8.707,27.165 8.652,25.214 8.725,23.268 C8.807,21.06 10.026,19.934 12.203,19.923 C14.152,19.912 16.101,19.911 18.05,19.923 C20.084,19.936 21.363,21.16 21.408,23.201 C21.451,25.15 21.401,27.1 21.425,29.049 C21.437,30.028 21.275,30.933 20.09,30.924 C18.896,30.914 18.786,29.888 18.758,29.004 C18.706,27.352 18.743,25.698 18.743,23.775 C18.26,23.786 18.06,23.529 18.06,25.456 C18.06,30.579 18.043,34.703 18.057,39.826 C18.06,40.906 18.335,41.937 16.951,41.976 C15.438,42.019 15.381,40.925 15.39,39.786 C15.413,36.946 15.404,35.105 15.392,32.265 C15.391,31.751 15.756,30.589 14.729,30.768" id="Fill-4" sketch:type="MSShapeGroup"></path>
                <path d="M15.111,13.742 C16.456,13.754 17.74,15.052 17.737,16.398 C17.735,17.765 16.485,19.031 15.123,19.044 C13.655,19.058 12.349,17.757 12.396,16.329 C12.442,14.981 13.755,13.729 15.111,13.742" id="Fill-5" sketch:type="MSShapeGroup"></path>
            </g>
        </g>
    </g>
</svg>