<?xml version="1.0" encoding="UTF-8" standalone="no"?>
<svg width="60px" height="60px" viewBox="0 0 60 60" version="1.1" xmlns="http://www.w3.org/2000/svg" xmlns:xlink="http://www.w3.org/1999/xlink" xmlns:sketch="http://www.bohemiancoding.com/sketch/ns">
    <!-- Generator: Sketch 3.3.2 (12043) - http://www.bohemiancoding.com/sketch -->
    <title>aventura-ap-facilities-smoking</title>
    <desc>Created with Sketch.</desc>
    <defs></defs>
    <g id="kit" stroke="none" stroke-width="1" fill="none" fill-rule="evenodd" sketch:type="MSPage">
        <g id="aventura-ap-facilities-smoking" sketch:type="MSArtboardGroup" fill="#FFFFFF">
            <g id="Imported-Layers" sketch:type="MSLayerGroup" transform="translate(10.000000, 10.000000)">
                <path d="M19.5282759,24.5886897 L19.056069,24.5886897 C14.6846207,24.5886897 11.0031034,24.5830345 6.63306897,24.5971724 C6.22448276,24.5985862 6.09582759,24.4996207 6.11137931,24.0797241 C6.14531034,23.1621724 6.13117241,22.2417931 6.11703448,21.3228276 C6.11137931,21.0414828 6.17217241,20.9340345 6.4832069,20.9354483 C9.76886207,20.9467586 12.366,20.9425172 15.6516552,20.9411034 C15.8382759,20.9396897 15.9923793,20.9651379 16.1365862,21.1121724 C17.2280345,22.2163448 18.3279655,23.3106207 19.4236552,24.4105517 C19.4533448,24.4388276 19.4674828,24.4812414 19.5282759,24.5886897" id="Fill-1" sketch:type="MSShapeGroup"></path>
                <path d="M26.0444483,16.8269655 C25.3658276,16.8269655 24.6857931,16.8637241 24.01,16.8198966 C22.2568966,16.7082069 21.3393448,15.0611379 21.4764828,13.563931 C21.5075862,13.2203793 21.4581034,13.1101034 21.1046552,13.0365862 C19.582,12.7227241 18.3350345,11.4262759 18.1597241,10.0336897 C17.9518966,8.3837931 18.6955517,6.87951724 20.0725862,6.15565517 C20.3016207,6.03548276 20.5419655,5.95489655 20.7907931,5.88986207 C21.7281379,5.64386207 21.9614138,5.86441379 21.7974138,6.81589655 C21.7507586,7.08734483 21.5598966,6.99544828 21.4213448,7.01665517 C19.9693793,7.2357931 19.0235517,8.70189655 19.4363793,10.1029655 C19.7191379,11.0657586 20.5928621,11.7853793 21.6107931,11.8857586 C21.8511379,11.9083793 22.0928966,11.9112069 22.3332414,11.9281724 C22.9227931,11.9705862 23.1588966,12.3452414 22.9128966,12.8923793 C22.6668966,13.440931 22.6061034,13.9908966 22.8153448,14.5606552 C23.0655862,15.2477586 23.5491034,15.5941379 24.2856897,15.6153448 C25.5807241,15.6521034 26.8785862,15.5630345 28.1736207,15.6803793 C29.75,15.8231724 30.8584138,17.022069 30.8414483,18.6041034 C30.8372069,19.072069 30.8329655,19.5386207 30.8428621,20.0065862 C30.8471034,20.220069 30.7665172,20.2865172 30.5544483,20.3006552 C29.5973103,20.3671034 29.5973103,20.3741724 29.5973103,19.4057241 C29.5973103,19.1484138 29.593069,18.8925172 29.6015517,18.6366207 C29.6326552,17.7826897 29.1731724,17.1535517 28.3446897,16.9527931 C27.5854828,16.769 26.8107241,16.9061379 26.0444483,16.8269655" id="Fill-2" sketch:type="MSShapeGroup"></path>
                <path d="M26.7697241,12.6916207 C27.4992414,12.7312069 28.2033103,12.7114138 28.8946552,12.8725862 C31.4112069,13.4649655 32.7514828,16.0465517 32.7444138,17.883069 C32.7415862,18.5758276 32.7331034,19.27 32.7472414,19.9627586 C32.7514828,20.2186552 32.6666552,20.3048966 32.4107586,20.2992414 C31.2910345,20.2752069 31.5257241,20.4264828 31.5031034,19.4495517 C31.4875517,18.8020345 31.546931,18.1474483 31.4734138,17.507 C31.2853793,15.8768966 30.1755517,14.2694138 28.2768276,14.0092759 C27.6095172,13.9173793 26.9238276,13.9668621 26.2452069,13.9527241 C26.0797931,13.9498966 25.9129655,13.9612069 25.7489655,13.947069 C25.117,13.8933448 24.8879655,13.4451724 25.2315172,12.9065172 C25.6372759,12.2688966 25.8974138,11.5973448 25.8861034,10.8282414 C25.8677241,9.63075862 24.8003103,8.42055172 23.607069,8.26786207 C22.828069,8.16748276 22.6937586,7.96389655 22.8422069,7.16934483 C22.8789655,6.97424138 22.985,6.98272414 23.1277931,6.97848276 C25.404,6.91344828 27.4045172,9.14441379 27.0934828,11.3965862 C27.0341034,11.8292069 26.9012069,12.2420345 26.7697241,12.6916207" id="Fill-3" sketch:type="MSShapeGroup"></path>
                <path d="M24.4836207,20.9425172 C25.1961724,20.9425172 24.3634483,20.9425172 24.945931,20.9425172 C25.8804483,20.9425172 27.6363793,20.943931 28.5708966,20.9411034 C28.7815517,20.9396897 28.9455517,20.9326207 28.9413103,21.2351724 C28.9257586,22.2587586 28.93,23.2837586 28.9384828,24.3087586 C28.9398966,24.5349655 28.020931,24.5745517 27.8201724,24.5943448 C27.8201724,24.5943448 27.9898276,24.5335517 27.4794483,23.9623793 C26.5689655,22.9416207 25.5552759,22.0113448 24.4836207,20.9425172" id="Fill-4" sketch:type="MSShapeGroup"></path>
                <path d="M30.8400345,22.7323793 C30.8386207,23.2441724 30.8301379,23.7559655 30.8442759,24.2677586 C30.849931,24.5010345 30.7721724,24.5717241 30.536069,24.5816207 C29.5973103,24.6212069 29.5973103,24.6296897 29.5973103,23.6767931 C29.5973103,22.8652759 29.6057931,22.0523448 29.593069,21.2394138 C29.5888276,20.9679655 29.6736552,20.876069 29.9521724,20.8704138 C30.8400345,20.8520345 30.8400345,20.8407241 30.8400345,21.7384828 L30.8400345,22.7323793" id="Fill-5" sketch:type="MSShapeGroup"></path>
                <path d="M32.7458276,22.7083448 C32.7458276,23.2356897 32.7387586,23.7616207 32.750069,24.2875517 C32.7543103,24.4953793 32.6921034,24.5688966 32.4729655,24.5816207 C31.5115862,24.6395862 31.5115862,24.648069 31.5115862,23.7008276 C31.5115862,22.9034483 31.5257241,22.106069 31.505931,21.3101034 C31.4974483,20.9806897 31.5851034,20.8633448 31.9328966,20.869 C32.7458276,20.8817241 32.7458276,20.8633448 32.7458276,21.6706207 L32.7458276,22.7083448" id="Fill-6" sketch:type="MSShapeGroup"></path>
                <path d="M19.5113103,39.6936552 C14.3311724,39.6936552 9.46348276,37.6676897 5.80458621,33.989 C2.11882759,30.2834483 0.104172414,25.379 0.132448276,20.1776552 C0.189,9.56572414 8.89089655,0.928862069 19.5296897,0.927448276 C24.7211379,0.927448276 29.5944828,2.95624138 33.2562069,6.642 C36.9462069,10.3560345 38.9594483,15.2732069 38.9241034,20.4872759 C38.8548276,31.078 30.1557586,39.6936552 19.5311034,39.6936552 L19.5113103,39.6936552 L19.5113103,39.6936552 Z M6.85927586,9.99268966 C6.21317241,9.99268966 5.86962069,10.4974138 5.73955172,10.6882759 C3.13110345,14.5168276 2.20082759,18.7384138 2.97417241,23.2371034 C4.35262069,31.2702759 11.3565517,37.112069 19.6258276,37.1304483 C20.0188621,37.0951034 20.32,37.0781379 20.6267931,37.0597586 C21.2531034,37.0244138 21.9006207,36.9876552 22.575,36.8547586 C24.9077586,36.3938621 27.118931,35.4763103 29.1477241,34.1247241 C29.3230345,34.0087931 29.7895862,33.6977586 29.8475517,33.1096207 C29.906931,32.5144138 29.5025862,32.110069 29.3696897,31.9785862 C22.1932759,24.8205517 15.0267586,17.6540345 7.86872414,10.4790345 C7.73724138,10.3461379 7.3837931,9.99268966 6.85927586,9.99268966 L6.85927586,9.99268966 Z M19.3105517,3.49772414 C19.0235517,3.526 18.7266552,3.54296552 18.4255172,3.56134483 C17.8062759,3.59668966 17.1644138,3.63486207 16.4985172,3.76493103 C14.2336207,4.20744828 12.0606207,5.09389655 10.0417241,6.40165517 C9.88337931,6.50486207 9.40551724,6.81306897 9.34331034,7.40968966 C9.28110345,8.00348276 9.68262069,8.405 9.83248276,8.55627586 C16.9862759,15.695931 24.1315862,22.8412414 31.2712414,29.9936207 C31.4196897,30.142069 31.7674828,30.4898621 32.2891724,30.4898621 C32.9465862,30.4898621 33.2957931,29.9667586 33.4103103,29.7942759 C36.0753103,25.7946552 36.9348966,21.4189655 35.9650345,16.7916207 C34.3504828,9.08503448 27.3889655,3.49206897 19.4095172,3.49206897 L19.3600345,3.49206897 L19.3105517,3.49772414 L19.3105517,3.49772414 Z" id="Fill-7" sketch:type="MSShapeGroup"></path>
            </g>
        </g>
    </g>
</svg>