<?xml version="1.0" encoding="UTF-8" standalone="no"?>
<svg width="195px" height="40px" viewBox="0 0 195 40" version="1.1" xmlns="http://www.w3.org/2000/svg" xmlns:xlink="http://www.w3.org/1999/xlink" xmlns:sketch="http://www.bohemiancoding.com/sketch/ns">
    <!-- Generator: Sketch 3.3.2 (12043) - http://www.bohemiancoding.com/sketch -->
    <title>aventura-mobil-footer-social-icons-sprite</title>
    <desc>Created with Sketch.</desc>
    <defs></defs>
    <g id="kit" stroke="none" stroke-width="1" fill="none" fill-rule="evenodd" sketch:type="MSPage">
        <g id="aventura-mobil-footer-social-icons-sprite" sketch:type="MSArtboardGroup">
            <g id="Fill-7-+-Rectangle-17" sketch:type="MSLayerGroup" fill="#FFFFFF">
                <path d="M26.4718163,39.96 L19.4872651,39.96 L19.4872651,22.98 L16,22.98 L16,17.125 L19.4872651,17.125 L19.4872651,13.61 C19.4872651,8.84 21.4613779,6 27.0530271,6 L31.7127349,6 L31.7127349,11.85 L28.8016701,11.85 C26.6221294,11.85 26.4768267,12.67 26.4768267,14.195 L26.4718163,17.125 L31.7478079,17.125 L31.1265136,22.98 L26.4718163,22.98 L26.4718163,39.96" id="Fill-7" sketch:type="MSShapeGroup"></path>
            </g>
            <g id="Imported-Layers-+-Rectangle-17-Copy" sketch:type="MSLayerGroup" transform="translate(39.000000, 0.000000)" fill="#FFFFFF">
                <path d="M32.7906715,14.8153431 C32.8008978,15.0692956 32.8077153,15.3232482 32.8077153,15.5789051 C32.8077153,23.3679197 26.8781788,32.35 16.0349161,32.35 C12.7062628,32.35 9.60770073,31.3750949 7,29.7013942 C7.46018248,29.7559343 7.93059124,29.7849088 8.40611314,29.7849088 C11.167208,29.7849088 13.708438,28.8423869 15.7264234,27.2607226 C13.1476971,27.213 10.9695,25.5086204 10.219573,23.1668029 C10.5791971,23.2366825 10.9490474,23.2724745 11.3291241,23.2724745 C11.8660036,23.2724745 12.3875438,23.2008905 12.8818139,23.0662445 C10.1854854,22.5242518 8.15386496,20.1415292 8.15386496,17.2866934 L8.15386496,17.2117007 C8.94810584,17.653135 9.85824453,17.9190182 10.8246277,17.9496971 C9.2429635,16.8929818 8.20158759,15.0880438 8.20158759,13.0427883 C8.20158759,11.9622117 8.4930365,10.9498102 8.99923723,10.0788723 C11.9069088,13.6461387 16.2513723,15.9930693 21.1497591,16.2385 C21.0492007,15.807292 20.996365,15.3573358 20.996365,14.8954489 C20.996365,11.6400839 23.6364489,9 26.8918139,9 C28.5876715,9 30.1199088,9.71583942 31.1953723,10.8611825 C32.536719,10.5970036 33.7996642,10.1061423 34.9381898,9.43120803 C34.4984599,10.8083467 33.5627555,11.9639161 32.3458285,12.6933905 C33.5388942,12.5502226 34.6740109,12.233208 35.7307263,11.7645036 C34.9415985,12.9473431 33.9411277,13.9853102 32.7906715,14.8153431 L32.7906715,14.8153431 Z" id="Imported-Layers" sketch:type="MSShapeGroup"></path>
            </g>
            <g id="pinterest-+-Rectangle-17-Copy-2" sketch:type="MSLayerGroup" transform="translate(78.000000, 0.000000)" fill="#FFFFFF">
                <g id="pinterest" transform="translate(5.000000, 4.000000)" sketch:type="MSShapeGroup">
                    <path d="M9.78705637,29.72 C9.62672234,26.905 10.3231733,25.11 10.8392484,22.86 C11.0196242,22.09 11.1649269,21.2 11.3703549,20.33 C11.5507307,19.55 11.976618,18.535 11.9565762,17.865 C11.9365344,17.4 11.6258873,16.855 11.5457203,16.36 C11.1799582,14.11 12.2321503,11.49 14.3014614,11.425 C17.4329854,11.33 16.0851775,15.45 15.5891441,17.14 C15.3235908,18.05 14.8325678,19.27 15.0029228,20.27 C15.2133612,21.515 16.7064718,22.595 18.5202505,21.955 C19.702714,21.535 20.4192067,20.525 20.8651357,19.73 C21.7970772,18.065 22.3682672,16 22.1528184,13.29 C21.9624217,10.915 20.6246347,9.4 18.8709812,8.66 C15.6141962,7.275 12.217119,8.42 10.4334029,10.405 C9.13068894,11.85 7.92317328,14.98 8.90521921,17.445 C9.1256785,17.995 9.79707724,18.375 9.84718163,19.01 C9.87724426,19.44 9.49645094,20.9 9.08058455,20.995 C8.69979123,21.08 7.95824635,20.565 7.6776618,20.33 C7.25177453,19.98 6.88100209,19.51 6.68058455,19.19 C4.27557411,15.35 6.47515658,10.33 8.78997912,8.175 C10.5185804,6.57 12.6179541,5.745 15.3536534,5.53 C18.3098121,5.295 20.5645094,6.03 22.4484342,7.515 C24.1469729,8.855 25.5849687,10.79 25.7853862,13.47 C26.0509395,16.965 25.154071,19.5 23.851357,21.415 C22.6237996,23.225 20.5394572,24.995 17.463048,24.785 C16.2705637,24.705 15.2584551,24.175 14.6521921,23.58 C14.4317328,23.365 14.2413361,22.945 14.0659708,23.04 C13.4997912,25.335 12.9386221,27.895 11.9565762,29.66 C11.8263048,29.89 11.5858038,30.12 11.6609603,30.38 C17.2125261,32.36 23.0647182,29.65 26.0208768,26.83 C28.6563674,24.315 30.4250522,20.905 30.7707724,16.36 C30.9411273,14.13 30.3949896,11.71 29.6584551,9.86 C29.1073069,8.495 28.4258873,7.26 27.6091858,6.165 C26.7824635,5.085 25.8154489,4.125 24.7382046,3.31 C22.6187891,1.745 19.9732777,0.735 16.7966597,0.33 C16.4759916,0.305 16.1503132,0.295 15.8246347,0.295 C15.4388309,0.295 15.0530271,0.31 14.6722338,0.34 C12.3624217,0.665 10.343215,1.285 8.59958246,2.195 C6.10939457,3.6 4.05010438,5.715 2.67724426,8.27 C1.81544885,10 1.21920668,12 0.883507307,14.27 C0.8434238,14.74 0.818371608,15.215 0.818371608,15.7 C0.818371608,16.215 0.8434238,16.72 0.893528184,17.225 C1.72526096,23.575 5.02212944,27.4 9.78705637,29.72" id="Fill-5"></path>
                </g>
            </g>
            <g id="trip-copy-+-Rectangle-17-Copy-3" sketch:type="MSLayerGroup" transform="translate(117.000000, 0.000000)">
                <g id="trip-copy" transform="translate(3.000000, 10.000000)" sketch:type="MSShapeGroup">
                    <g id="trip">
                        <path d="M7.29488889,11.3804082 C7.29488889,12.1277551 7.91822222,12.7334694 8.68679012,12.7334694 C9.45535802,12.7334694 10.0782716,12.1277551 10.0782716,11.3804082 C10.0782716,10.6330612 9.45535802,10.0269388 8.68679012,10.0269388 C7.91822222,10.0269388 7.29488889,10.6330612 7.29488889,11.3804082" id="Fill-1" fill="#FFFFFF"></path>
                        <path d="M24.0526914,11.3804082 C24.0526914,12.1277551 24.6760247,12.7334694 25.4445926,12.7334694 C26.2131605,12.7334694 26.8360741,12.1277551 26.8360741,11.3804082 C26.8360741,10.6330612 26.2131605,10.0269388 25.4445926,10.0269388 C24.6760247,10.0269388 24.0526914,10.6330612 24.0526914,11.3804082" id="Fill-2" fill="#FFFFFF"></path>
                        <path d="M5.78125926,8.55510204 C5.0051358,9.30979592 4.57782716,10.3130612 4.57782716,11.3804082 C4.57782716,12.4477551 5.0051358,13.4510204 5.78125926,14.2053061 C6.55738272,14.96 7.5891358,15.3755102 8.68679012,15.3755102 C10.9521975,15.3755102 12.7953333,13.5832653 12.7953333,11.3804082 C12.7953333,9.17714286 10.9521975,7.38489796 8.68679012,7.38489796 C7.5891358,7.38489796 6.55738272,7.80040816 5.78125926,8.55510204 L5.78125926,8.55510204 Z M6.67197531,13.3395918 C6.1334321,12.8163265 5.83708642,12.1204082 5.83708642,11.3804082 C5.83708642,10.64 6.1334321,9.9444898 6.67197531,9.42081633 C7.21009877,8.89755102 7.92535802,8.60938776 8.68679012,8.60938776 C10.2579259,8.60938776 11.5360741,9.85265306 11.5360741,11.3804082 C11.5360741,12.9081633 10.2579259,14.1510204 8.68679012,14.1510204 C7.92535802,14.1510204 7.21009877,13.8628571 6.67197531,13.3395918 L6.67197531,13.3395918 Z" id="Fill-3" fill="#FFFFFF"></path>
                        <path d="M22.5390617,8.55510204 C21.7629383,9.30979592 21.3356296,10.3130612 21.3356296,11.3804082 C21.3356296,12.4477551 21.7629383,13.4510204 22.5390617,14.2053061 C23.3151852,14.96 24.3469383,15.3755102 25.4445926,15.3755102 C27.71,15.3755102 29.5531358,13.5832653 29.5531358,11.3804082 C29.5531358,9.17714286 27.71,7.38489796 25.4445926,7.38489796 C24.3469383,7.38489796 23.3151852,7.80040816 22.5390617,8.55510204 L22.5390617,8.55510204 Z M23.429358,13.3395918 C22.8912346,12.8163265 22.5948889,12.1204082 22.5948889,11.3804082 C22.5948889,10.64 22.8912346,9.9444898 23.429358,9.42081633 C23.9679012,8.89755102 24.6831605,8.60938776 25.4445926,8.60938776 C27.0157284,8.60938776 28.2938765,9.85265306 28.2938765,11.3804082 C28.2938765,12.9081633 27.0157284,14.1510204 25.4445926,14.1510204 C24.6831605,14.1510204 23.9679012,13.8628571 23.429358,13.3395918 L23.429358,13.3395918 Z" id="Fill-4" fill="#FFFFFF"></path>
                        <path d="M32.065358,6.12653061 C32.3881481,5.19265306 32.8809383,4.09265306 33.5626173,3.43020408 L27.9471605,3.43020408 C27.8539753,3.40244898 27.7570123,3.38367347 27.6625679,3.35877551 C27.3574074,2.89346939 25.268716,0.272653061 16.9206667,0.272653061 C7.7591358,0.272653061 6.13553086,3.43020408 6.13553086,3.43020408 L0.279135802,3.43020408 C1.02587654,4.15673469 1.54511111,5.40693878 1.86328395,6.38979592 C0.783679012,7.78163265 0.135160494,9.50653061 0.135160494,11.3804082 C0.135160494,15.9653061 3.97128395,19.6955102 8.68679012,19.6955102 C11.3005926,19.6955102 13.6411358,18.5469388 15.2110123,16.7436735 L17.1523704,19.3869388 L18.8280247,16.6404082 C20.3974815,18.5036735 22.78,19.6955102 25.4441728,19.6955102 C30.159679,19.6955102 33.9958025,15.9653061 33.9958025,11.3804082 C33.9958025,9.38897959 33.2704691,7.56 32.065358,6.12653061 L32.065358,6.12653061 Z M8.68679012,18.0628571 C4.89725926,18.0628571 1.81417284,15.0653061 1.81417284,11.3804082 C1.81417284,7.6955102 4.89725926,4.69755102 8.68679012,4.69755102 C12.476321,4.69755102 15.5589877,7.6955102 15.5589877,11.3804082 C15.5589877,15.0653061 12.476321,18.0628571 8.68679012,18.0628571 L8.68679012,18.0628571 Z M25.4441728,18.0628571 C21.654642,18.0628571 18.5719753,15.0653061 18.5719753,11.3804082 C18.5719753,7.6955102 21.654642,4.69755102 25.4441728,4.69755102 C29.2337037,4.69755102 32.3167901,7.6955102 32.3167901,11.3804082 C32.3167901,15.0653061 29.2337037,18.0628571 25.4441728,18.0628571 L25.4441728,18.0628571 Z" id="Fill-5" fill="#FFFFFF"></path>
                        <path d="M17.4424198,1.23142857 C23.2988148,1.23142857 25.5020988,3.59918367 25.5020988,3.59918367 C25.5020988,3.59918367 19.2398025,2.5844898 17.1523704,10.0836735 C15.0649383,2.5844898 8.80264198,3.59918367 8.80264198,3.59918367 C8.80264198,3.59918367 11.0063457,1.23142857 16.8627407,1.23142857 L17.4424198,1.23142857 L17.4424198,1.23142857 Z" id="Fill-6" fill="#4C8B38"></path>
                        <path d="M25.5020988,3.59918367 C25.5020988,3.59918367 19.2398025,2.5844898 17.1523704,10.0836735 C15.0649383,2.5844898 8.80264198,3.59918367 8.80264198,3.59918367 C8.80264198,3.59918367 11.0063457,1.23142857 16.8627407,1.23142857 L17.4424198,1.23142857 C23.2988148,1.23142857 25.5020988,3.59918367 25.5020988,3.59918367 Z" id="Stroke-7" stroke="#FFFFFF"></path>
                    </g>
                </g>
            </g>
            <g id="Group" sketch:type="MSLayerGroup" transform="translate(156.000000, 0.000000)" fill="#FFFFFF">
                <path d="M16.108977,32.635 C12.6868476,32.635 10.2167015,30.605 10.2167015,28.17 C10.2167015,25.78 13.2830898,23.79 16.7052192,23.825 C17.5018789,23.835 18.2484342,23.955 18.919833,24.16 C20.7787056,25.37 22.1114823,26.055 22.4872651,27.43 C22.5574113,27.71 22.5974948,28 22.5974948,28.295 C22.5974948,30.73 20.9189979,32.635 16.108977,32.635 L16.108977,32.635 Z M17.0108559,18.34 C14.7110647,18.275 12.531524,15.935 12.1306889,13.11 C11.7348643,10.28 13.2780793,8.12 15.5728601,8.185 C17.8676409,8.25 20.0521921,10.515 20.4480167,13.34 C20.8438413,16.165 19.3056367,18.405 17.0108559,18.34 L17.0108559,18.34 Z M21.7707724,22.525 C20.9640919,21.99 19.4258873,20.69 19.4258873,19.925 C19.4258873,19.03 19.6964509,18.59 21.1344468,17.54 C22.6125261,16.46 23.6546973,14.94 23.6546973,13.175 C23.6546973,11.075 22.6526096,9.03 20.7787056,8.35 L23.6045929,8.35 L25.6037578,7 L16.6851775,7 C12.691858,7 8.92901879,9.84 8.92901879,13.125 C8.92901879,16.48 11.6546973,19.19 15.7181628,19.19 C16.0037578,19.19 16.2743215,19.185 16.5448852,19.17 C16.2793319,19.64 16.0939457,20.175 16.0939457,20.73 C16.0939457,21.66 16.6300626,22.42 17.3064718,23.035 C16.7954071,23.035 16.2993737,23.05 15.7632568,23.05 C10.8079332,23.05 7,26.005 7,29.065 C7,32.08 11.1787056,33.97 16.1290188,33.97 C21.7707724,33.97 24.8872651,30.97 24.8872651,27.955 C24.8872651,25.535 24.1256785,24.085 21.7707724,22.525 L21.7707724,22.525 Z" id="Fill-9" sketch:type="MSShapeGroup"></path>
                <path d="M27,12 L36.0187891,12 L36.0187891,13 L27,13 L27,12 Z" id="Fill-10" sketch:type="MSShapeGroup"></path>
                <path d="M31,8 L32.0020877,8 L32.0020877,16.99 L31,16.99 L31,8 Z" id="Fill-11" sketch:type="MSShapeGroup"></path>
            </g>
        </g>
    </g>
</svg>