<?xml version="1.0" encoding="UTF-8" standalone="no"?>
<svg width="60px" height="60px" viewBox="0 0 60 60" version="1.1" xmlns="http://www.w3.org/2000/svg" xmlns:xlink="http://www.w3.org/1999/xlink" xmlns:sketch="http://www.bohemiancoding.com/sketch/ns">
    <!-- Generator: Sketch 3.3.2 (12043) - http://www.bohemiancoding.com/sketch -->
    <title>aventura-ap-facilities-reception</title>
    <desc>Created with Sketch.</desc>
    <defs></defs>
    <g id="kit" stroke="none" stroke-width="1" fill="none" fill-rule="evenodd" sketch:type="MSPage">
        <g id="aventura-ap-facilities-reception" sketch:type="MSArtboardGroup" fill="#FFFFFF">
            <g id="reception" sketch:type="MSLayerGroup" transform="translate(10.000000, 14.000000)">
                <path d="M37.7753479,5.82283636 L17.0213119,5.82283636 C15.7891203,2.36482238 12.5474217,0.0390713287 8.85285953,0.000402797203 L8.75987153,0 C3.97964426,0 0.0499955287,3.89907692 0.000482437774,8.69196084 C-0.049835744,13.531972 3.84237626,17.5099972 8.67614207,17.5599441 L8.76792244,17.5607497 C12.4178021,17.5607497 15.6679541,15.3022657 16.9577097,11.9062825 L17.6694101,11.9147413 C17.9161704,12.3264 18.4249879,13.0921175 18.9495046,13.3696448 C19.116561,13.4582601 19.3480246,13.5009566 19.656777,13.5009566 C19.838325,13.5009566 19.984449,13.4856503 19.984449,13.4856503 L20.3793461,13.4441622 L20.4248337,11.9082965 L21.6083173,11.9501874 L22.9169926,13.540028 L24.5943995,11.9836196 L25.8640279,11.9981203 L27.0434861,11.0861874 L28.2583683,12.1274182 L29.6290355,11.3246434 L30.9244268,11.9650909 L32.1360886,13.4759832 L33.4781752,11.9711329 L34.7184177,11.4370238 L36.4642573,12.9277762 L37.7125508,11.9832168 L40.2546253,8.22632727 L37.7753479,5.82283636 L37.7753479,5.82283636 Z M4.56212753,6.34325035 C5.19935698,6.3496951 5.7955268,6.60426294 6.24154717,7.06022937 C6.68877517,7.51780699 6.93151007,8.1220028 6.9246668,8.76083916 C6.91098026,10.0663049 5.84061189,11.1288839 4.51261444,11.1288839 C4.51261444,11.1288839 4.51261444,11.1288839 4.51221189,11.1288839 C3.19588826,11.114786 2.13598607,10.0304559 2.14967262,8.7112951 C2.16335917,7.40582937 3.23413007,6.34365315 4.53716971,6.34365315 L4.56212753,6.34325035 L4.56212753,6.34325035 Z" id="Imported-Layers" sketch:type="MSShapeGroup"></path>
                <path d="M13.434707,30.6137821 L13.434707,32 L5.67513672,32 C5.66445958,31.652776 5.72051371,31.3189119 5.84330078,30.9983974 C6.04082781,30.4695486 6.35713324,29.9487205 6.79222656,29.4358974 C7.22731988,28.9230744 7.85592688,28.3301316 8.67806641,27.6570513 C9.95398424,26.6100375 10.8161501,25.7807189 11.2645898,25.1690705 C11.7130296,24.5574222 11.9372461,23.9791694 11.9372461,23.4342949 C11.9372461,22.8627108 11.7330489,22.3806109 11.3246484,21.9879808 C10.916248,21.5953506 10.3837338,21.3990385 9.72708984,21.3990385 C9.03307596,21.3990385 8.47787318,21.6073697 8.06146484,22.0240385 C7.64505651,22.4407072 7.43418622,23.0176245 7.42884766,23.7548077 L5.94740234,23.6025641 C6.04883514,22.4967893 6.43053705,21.6541161 7.09251953,21.0745192 C7.75450201,20.4949223 8.64336031,20.2051282 9.75912109,20.2051282 C10.885559,20.2051282 11.7770866,20.5176251 12.4337305,21.1426282 C13.0903744,21.7676313 13.4186914,22.5421962 13.4186914,23.4663462 C13.4186914,23.936434 13.3225986,24.398502 13.1304102,24.8525641 C12.9382217,25.3066262 12.619247,25.7847197 12.1734766,26.286859 C11.7277061,26.7889982 10.9869909,27.4780939 9.95130859,28.3541667 C9.08646052,29.080666 8.53125774,29.5734496 8.28568359,29.8325321 C8.04010945,30.0916145 7.83724689,30.3520286 7.67708984,30.6137821 L13.434707,30.6137821 Z M19.6007227,32 L19.6007227,29.1875 L14.5077539,29.1875 L14.5077539,27.8653846 L19.8649805,20.2532051 L21.0421289,20.2532051 L21.0421289,27.8653846 L22.6276758,27.8653846 L22.6276758,29.1875 L21.0421289,29.1875 L21.0421289,32 L19.6007227,32 Z M19.6007227,27.8653846 L19.6007227,22.5689103 L15.9251367,27.8653846 L19.6007227,27.8653846 Z M24.5015039,32 L24.5015039,20.2532051 L25.9429102,20.2532051 L25.9429102,24.4679487 C26.6155698,23.6880303 27.4643894,23.2980769 28.4893945,23.2980769 C29.1193456,23.2980769 29.6665406,23.4222744 30.1309961,23.6706731 C30.5954515,23.9190718 30.9277724,24.2622841 31.1279688,24.7003205 C31.3281651,25.1383569 31.4282617,25.7740343 31.4282617,26.6073718 L31.4282617,32 L29.9868555,32 L29.9868555,26.6073718 C29.9868555,25.8862143 29.8307047,25.3613798 29.5183984,25.0328526 C29.2060922,24.7043253 28.7643323,24.5400641 28.1931055,24.5400641 C27.76602,24.5400641 27.3642988,24.650907 26.9879297,24.8725962 C26.6115606,25.0942853 26.3433016,25.3947631 26.1831445,25.7740385 C26.0229875,26.1533139 25.9429102,26.6768129 25.9429102,27.3445513 L25.9429102,32 L24.5015039,32 Z" id="24h" sketch:type="MSShapeGroup"></path>
            </g>
        </g>
    </g>
</svg>