<?xml version="1.0" encoding="UTF-8" standalone="no"?>
<svg width="60px" height="60px" viewBox="0 0 60 60" version="1.1" xmlns="http://www.w3.org/2000/svg" xmlns:xlink="http://www.w3.org/1999/xlink" xmlns:sketch="http://www.bohemiancoding.com/sketch/ns">
    <!-- Generator: Sketch 3.3.2 (12043) - http://www.bohemiancoding.com/sketch -->
    <title>aventura-ap-facilities-fridge</title>
    <desc>Created with Sketch.</desc>
    <defs></defs>
    <g id="kit" stroke="none" stroke-width="1" fill="none" fill-rule="evenodd" sketch:type="MSPage">
        <g id="aventura-ap-facilities-fridge" sketch:type="MSArtboardGroup" fill="#FFFFFF">
            <g id="fridge" sketch:type="MSLayerGroup" transform="translate(19.000000, 10.000000)">
                <path d="M20.9786199,24.667685 L0.0859004525,24.667685 L0.0859004525,24.1005251 C0.0858054299,17.1316468 0.0857104072,10.162673 0.0854253394,3.19379475 C0.0854253394,1.58291169 1.2141991,0.298615752 2.80459276,0.107589499 C3.00832127,0.0830548926 3.21547059,0.0780906921 3.42100452,0.0779952267 C8.15617195,0.076372315 12.8914344,0.0859188544 17.6266018,0.0709307876 C18.9888462,0.0666348449 20.0351403,0.57699284 20.6393891,1.82071599 C20.8340905,2.22138425 20.9650317,2.69909308 20.966267,3.14195704 C20.9856516,10.158568 20.97919,17.175179 20.9786199,24.19179 L20.9786199,24.667685 L20.9786199,24.667685 Z M3.31400905,19.7456802 C3.31400905,20.4931742 3.30944796,21.2407637 3.31543439,21.9882578 C3.3200905,22.5738425 3.60544344,22.898043 4.11020362,22.91179 C4.63073756,22.9261098 4.94583258,22.5858711 4.94782805,21.9827208 C4.95257919,20.50358 4.95257919,19.0244391 4.94773303,17.5452983 C4.94583258,16.9633413 4.65363801,16.6328401 4.15220362,16.6176611 C3.63689593,16.6020048 3.32018552,16.9484487 3.31533937,17.5508353 C3.30944796,18.2823866 3.31391403,19.0140334 3.31400905,19.7456802 L3.31400905,19.7456802 Z" id="Fill-1" sketch:type="MSShapeGroup"></path>
                <path d="M0.112791855,25.6655847 L20.9782398,25.6655847 L20.9782398,26.1969451 C20.9784299,29.4410501 20.9589502,32.6853461 20.9885973,35.9291647 C21.0003801,37.2104057 19.8774027,38.8863007 18.3264434,38.9795704 C17.9866425,39 17.7160181,39.0821957 17.530724,39.4411456 C17.2939276,39.8997613 16.8070317,39.9794749 16.3385701,39.9865394 C15.3732353,40.0010501 14.4075204,39.9949403 13.4419955,39.9894988 C12.8700543,39.986253 12.3994072,39.7953222 12.0872579,39.2700716 C12.0190317,39.1553222 11.8256606,39.0562291 11.6874027,39.0526969 C10.8805656,39.0324582 10.0728733,39.0343675 9.2660362,39.0518377 C9.14079638,39.0545107 8.96234389,39.1437709 8.90361991,39.2473508 C8.60296833,39.777852 8.13650226,39.983389 7.5638009,39.9884487 C6.58250226,39.9969451 5.60091855,39.9989499 4.61971493,39.987494 C4.06829864,39.9810024 3.62017195,39.7850119 3.30488688,39.281432 C3.20577828,39.1231504 2.93610407,39.0189021 2.73057014,38.990358 C1.37877828,38.8021957 0.604343891,37.9687828 0.182348416,36.7360382 C0.111936652,36.5305967 0.0891312217,36.2995704 0.0887511312,36.0803819 C0.0834298643,32.7408115 0.0853303167,29.4013365 0.087040724,26.0617661 C0.0871357466,25.9382339 0.102719457,25.8147971 0.112791855,25.6655847 L0.112791855,25.6655847 Z M4.94934842,30.5991408 C4.94934842,29.867685 4.95352941,29.1361337 4.9480181,28.4046778 C4.94364706,27.8201432 4.65914932,27.496611 4.15400905,27.4831504 C3.62758371,27.4692124 3.31771493,27.8009547 3.31562443,28.4072554 C3.31058824,29.8861098 3.31068326,31.3649642 3.31562443,32.8439141 C3.31761991,33.4225298 3.61266516,33.7584726 4.10896833,33.7753699 C4.61876471,33.7927446 4.94336199,33.4380907 4.94792308,32.8413365 C4.95371946,32.0940334 4.94934842,31.3465394 4.94934842,30.5991408 L4.94934842,30.5991408 Z" id="Fill-2" sketch:type="MSShapeGroup"></path>
            </g>
        </g>
    </g>
</svg>