<?xml version="1.0" encoding="UTF-8" standalone="no"?>
<svg width="60px" height="60px" viewBox="0 0 60 60" version="1.1" xmlns="http://www.w3.org/2000/svg" xmlns:xlink="http://www.w3.org/1999/xlink" xmlns:sketch="http://www.bohemiancoding.com/sketch/ns">
    <!-- Generator: Sketch 3.3.2 (12043) - http://www.bohemiancoding.com/sketch -->
    <title>aventura-ap-facilities-kettle</title>
    <desc>Created with Sketch.</desc>
    <defs></defs>
    <g id="kit" stroke="none" stroke-width="1" fill="none" fill-rule="evenodd" sketch:type="MSPage">
        <g id="aventura-ap-facilities-kettle" sketch:type="MSArtboardGroup" fill="#FFFFFF">
            <path d="M19.1922785,32.3857085 L18.9292785,41.1787085 L38.7452785,41.1787085 L38.7452785,31.0007085 C38.7452785,31.0007085 43.0102785,26.7427085 42.6162785,21.2307085 C42.2232785,15.7197085 41.5012785,13.8167085 34.3492785,14.0137085 C27.1972785,14.2107085 17.8142785,19.0007085 17.1572785,19.5247085 C16.5012785,20.0497085 18.0762785,21.6697085 18.6012785,22.5007085 C19.1262785,23.3307085 19.1922785,32.3857085 19.1922785,32.3857085 L19.1922785,32.3857085 Z M35.9102785,17.2287085 C35.9102785,16.7697085 36.7112785,15.6537085 38.6662785,16.2447085 C40.5502785,16.8137085 40.5822785,21.4277085 39.7812785,23.9217085 C39.0712785,26.1297085 35.9102785,29.1367085 35.9102785,29.1367085 L35.9102785,17.2287085 L35.9102785,17.2287085 Z M24.9302785,32.5487085 L27.4592785,32.5487085 L27.4592785,31.5327085 L24.9302785,31.5327085 L24.9302785,29.1367085 L27.4592785,29.1367085 L27.4592785,28.1207085 L24.9302785,28.1207085 L24.9302785,27.9877085 C24.9302785,26.3287085 26.2882785,24.9717085 27.9472785,24.9717085 L28.3642785,24.9717085 C30.0232785,24.9717085 31.3802785,26.3287085 31.3802785,27.9877085 L31.3802785,35.9967085 C31.3802785,37.6557085 30.0232785,39.0127085 28.3642785,39.0127085 L27.9472785,39.0127085 C26.3622785,39.0127085 25.0662785,37.7707085 24.9522785,36.2137085 L27.4592785,36.2137085 L27.4592785,35.1977085 L24.9302785,35.1977085 L24.9302785,32.5487085 L24.9302785,32.5487085 Z" id="Fill-1" sketch:type="MSShapeGroup"></path>
            <path d="M39.188,42 L17.313,42 C16.591,42 16,42.591 16,43.313 L16,45.079 L40.502,45.079 L40.502,43.313 C40.502,42.591 39.911,42 39.188,42" id="Fill-2" sketch:type="MSShapeGroup"></path>
            <path d="M42.43,34.4531471 C42.128,33.9901471 41.507,33.8611471 41.046,34.1631471 L39,35.5011471 L39,37.8891471 L42.14,35.8371471 C42.602,35.5351471 42.732,34.9151471 42.43,34.4531471" id="Fill-3" sketch:type="MSShapeGroup"></path>
        </g>
    </g>
</svg>