<?xml version="1.0" encoding="UTF-8" standalone="no"?>
<svg width="40px" height="40px" viewBox="0 0 40 40" version="1.1" xmlns="http://www.w3.org/2000/svg" xmlns:xlink="http://www.w3.org/1999/xlink" xmlns:sketch="http://www.bohemiancoding.com/sketch/ns">
    <!-- Generator: Sketch 3.3.2 (12043) - http://www.bohemiancoding.com/sketch -->
    <title>aventura-mobil-footer-social-pinterest</title>
    <desc>Created with Sketch.</desc>
    <defs></defs>
    <g id="kit" stroke="none" stroke-width="1" fill="none" fill-rule="evenodd" sketch:type="MSPage">
        <g id="aventura-mobil-footer-social-pinterest" sketch:type="MSArtboardGroup" fill="#FFFFFF">
            <g id="pinterest" sketch:type="MSLayerGroup" transform="translate(5.000000, 4.000000)">
                <path d="M9.78705637,29.72 C9.62672234,26.905 10.3231733,25.11 10.8392484,22.86 C11.0196242,22.09 11.1649269,21.2 11.3703549,20.33 C11.5507307,19.55 11.976618,18.535 11.9565762,17.865 C11.9365344,17.4 11.6258873,16.855 11.5457203,16.36 C11.1799582,14.11 12.2321503,11.49 14.3014614,11.425 C17.4329854,11.33 16.0851775,15.45 15.5891441,17.14 C15.3235908,18.05 14.8325678,19.27 15.0029228,20.27 C15.2133612,21.515 16.7064718,22.595 18.5202505,21.955 C19.702714,21.535 20.4192067,20.525 20.8651357,19.73 C21.7970772,18.065 22.3682672,16 22.1528184,13.29 C21.9624217,10.915 20.6246347,9.4 18.8709812,8.66 C15.6141962,7.275 12.217119,8.42 10.4334029,10.405 C9.13068894,11.85 7.92317328,14.98 8.90521921,17.445 C9.1256785,17.995 9.79707724,18.375 9.84718163,19.01 C9.87724426,19.44 9.49645094,20.9 9.08058455,20.995 C8.69979123,21.08 7.95824635,20.565 7.6776618,20.33 C7.25177453,19.98 6.88100209,19.51 6.68058455,19.19 C4.27557411,15.35 6.47515658,10.33 8.78997912,8.175 C10.5185804,6.57 12.6179541,5.745 15.3536534,5.53 C18.3098121,5.295 20.5645094,6.03 22.4484342,7.515 C24.1469729,8.855 25.5849687,10.79 25.7853862,13.47 C26.0509395,16.965 25.154071,19.5 23.851357,21.415 C22.6237996,23.225 20.5394572,24.995 17.463048,24.785 C16.2705637,24.705 15.2584551,24.175 14.6521921,23.58 C14.4317328,23.365 14.2413361,22.945 14.0659708,23.04 C13.4997912,25.335 12.9386221,27.895 11.9565762,29.66 C11.8263048,29.89 11.5858038,30.12 11.6609603,30.38 C17.2125261,32.36 23.0647182,29.65 26.0208768,26.83 C28.6563674,24.315 30.4250522,20.905 30.7707724,16.36 C30.9411273,14.13 30.3949896,11.71 29.6584551,9.86 C29.1073069,8.495 28.4258873,7.26 27.6091858,6.165 C26.7824635,5.085 25.8154489,4.125 24.7382046,3.31 C22.6187891,1.745 19.9732777,0.735 16.7966597,0.33 C16.4759916,0.305 16.1503132,0.295 15.8246347,0.295 C15.4388309,0.295 15.0530271,0.31 14.6722338,0.34 C12.3624217,0.665 10.343215,1.285 8.59958246,2.195 C6.10939457,3.6 4.05010438,5.715 2.67724426,8.27 C1.81544885,10 1.21920668,12 0.883507307,14.27 C0.8434238,14.74 0.818371608,15.215 0.818371608,15.7 C0.818371608,16.215 0.8434238,16.72 0.893528184,17.225 C1.72526096,23.575 5.02212944,27.4 9.78705637,29.72" id="Fill-5" sketch:type="MSShapeGroup"></path>
            </g>
        </g>
    </g>
</svg>