<?xml version="1.0" encoding="UTF-8" standalone="no"?>
<svg width="60px" height="60px" viewBox="0 0 60 60" version="1.1" xmlns="http://www.w3.org/2000/svg" xmlns:xlink="http://www.w3.org/1999/xlink" xmlns:sketch="http://www.bohemiancoding.com/sketch/ns">
    <!-- Generator: Sketch 3.3.2 (12043) - http://www.bohemiancoding.com/sketch -->
    <title>aventura-africa-room-facilities-wifi</title>
    <desc>Created with Sketch.</desc>
    <defs></defs>
    <g id="kit" stroke="none" stroke-width="1" fill="none" fill-rule="evenodd" sketch:type="MSPage">
        <g id="aventura-africa-room-facilities-wifi" sketch:type="MSArtboardGroup" fill="#FFFFFF">
            <path d="M14.5007989,39.9122172 C19.7599378,39.9183258 25.0178822,39.9183258 30.2806044,39.9183258 C35.5158544,39.9183258 40.7511044,39.9183258 45.9863544,39.9122172 C47.5212156,39.9122172 48.8410767,39.3538914 49.9280211,38.2482353 C50.9827156,37.1731222 51.5476878,35.8658824 51.5620211,34.338733 C51.5799378,31.7621267 51.5667989,29.1842986 51.5620211,26.6076923 C51.5620211,26.4207692 51.5524656,26.2362896 51.5333544,26.0493665 C51.2168267,23.1856561 48.8327156,21.0048869 46.0090489,21 L44.3810211,21 C34.4563822,21 24.5329378,21 14.6130767,21.0048869 C13.0877711,21.0048869 11.7667156,21.5387783 10.6797711,22.6273303 C9.60238222,23.7109955 9.01829889,25.0328959 9.00993778,26.5844796 C8.99082667,29.1745249 9.00516,31.7657919 9.00516,34.3570588 C9.00516,34.8445249 9.08399333,35.3271041 9.21538222,35.7950226 C9.86754889,38.1859276 12.07966,39.9122172 14.5007989,39.9122172 L14.5007989,39.9122172 Z M28.9189378,38.1223982 C29.0025489,38.0283258 29.08616,37.93181 29.1709656,37.8414027 C30.2113267,36.7198643 30.8778267,35.3894118 31.27916,33.9147964 C31.3352989,33.7144344 31.3591878,33.49819 31.3591878,33.2880543 C31.3675489,31.1940271 31.3305211,29.0987783 31.3818822,27.0035294 C31.41891,25.3138914 32.2215767,24.0200905 33.6071322,23.1135747 C34.3775489,22.6028959 35.2363544,22.3878733 36.1548822,22.3878733 C39.20191,22.3927602 42.2537156,22.3927602 45.3007433,22.3878733 C46.76991,22.3878733 48.0013822,22.9327602 48.9676878,24.0640724 C49.6389656,24.841086 50.0176044,25.7622624 50.0964378,26.7995023 C50.1155489,27.01819 50.1203267,27.2417647 50.1203267,27.4616742 C50.1203267,29.4848416 50.1334656,31.5031222 50.1155489,33.5275113 C50.1012156,35.5262443 49.1958267,36.9971946 47.4698544,37.9281448 C46.8356044,38.2665611 46.1452156,38.4143891 45.42616,38.4143891 C39.8696044,38.419276 34.3166322,38.419276 28.7648544,38.419276 C28.7457433,38.419276 28.73141,38.4143891 28.7182711,38.4143891 C28.6896044,38.4143891 28.7779933,38.28 28.9189378,38.1223982 L28.9189378,38.1223982 Z M25.1576322,25.4714932 C25.1576322,25.2234842 25.3535211,25.0231222 25.5959933,25.0231222 L27.3136044,25.0231222 C27.5560767,25.0231222 27.7519656,25.228371 27.7519656,25.4714932 L27.7519656,26.7164253 C27.7519656,26.9693213 27.5560767,27.170905 27.3136044,27.170905 L25.5959933,27.170905 C25.3535211,27.170905 25.1576322,26.9693213 25.1576322,26.7225339 L25.1576322,25.4714932 L25.1576322,25.4714932 Z M25.1480767,28.3486425 C25.1480767,28.1006335 25.3439656,27.9002715 25.5876322,27.9002715 L27.3183822,27.9002715 C27.5608544,27.9002715 27.7567433,28.1006335 27.7567433,28.3486425 L27.7567433,34.5109955 C27.7567433,34.7577828 27.5608544,34.9593665 27.3183822,34.9593665 L25.5876322,34.9593665 C25.3439656,34.9593665 25.1480767,34.7577828 25.1480767,34.5109955 L25.1480767,28.3486425 L25.1480767,28.3486425 Z M13.14391,25.2943439 L15.0932433,25.2943439 C15.33691,25.2943439 15.5602711,25.4947059 15.5972989,25.7390498 C15.8170767,27.2368778 16.0368544,28.7322624 16.2697711,30.2252036 C16.3067989,30.4683258 16.3772711,30.4780995 16.4238544,30.2435294 C16.4513267,30.1005882 16.4799933,29.9576471 16.5074656,29.8195928 C16.7869656,28.3584163 17.06766,26.8996833 17.3519378,25.4385068 C17.3662711,25.3517647 17.3758267,25.280905 17.4964656,25.2857919 C18.1689378,25.289457 18.8402156,25.2857919 19.5126878,25.2857919 C19.5258267,25.2857919 19.54016,25.289457 19.5592711,25.289457 C19.5771878,25.2943439 19.6381044,25.4947059 19.6894656,25.7390498 C20.00241,27.2417647 20.3189378,28.7505882 20.6509933,30.2594118 C20.7023544,30.5013122 20.77641,30.4976471 20.8098544,30.2533032 C20.8373267,30.049276 20.8647989,29.8476923 20.8934656,29.6424434 C21.0893544,28.2301357 21.2804656,26.8129412 21.4811322,25.3994118 C21.48591,25.3578733 21.5420489,25.2943439 21.5742989,25.2943439 C22.3447156,25.289457 23.10916,25.289457 23.8986878,25.3041176 C24.14116,25.3102262 24.2904656,25.5093665 24.2343267,25.7524887 C24.1877433,25.9442986 24.14116,26.1397738 24.0897989,26.3364706 C23.4077711,29.1415385 22.7269378,31.9429412 22.0413267,34.7492308 C21.9756322,35.0155656 22.0269933,34.9691403 21.7606322,34.9691403 C21.1084656,34.9728054 20.4503267,34.9630317 19.7969656,34.9728054 C19.6703544,34.9728054 19.6201878,34.9410407 19.5915211,34.8066516 C19.2463267,32.9985068 18.8915767,31.1891403 18.5368267,29.3846606 C18.5320489,29.3712217 18.5320489,29.361448 18.5236878,29.3467873 C18.5141322,29.3272398 18.4675489,29.4714027 18.4293267,29.661991 C18.4066322,29.7756109 18.3827433,29.8916742 18.3600489,30.0065158 C18.0518822,31.599638 17.7389378,33.1927602 17.4307711,34.791991 C17.4080767,34.9349321 17.3519378,34.9728054 17.2121878,34.9728054 C16.5122433,34.9630317 15.8170767,34.9691403 15.1171322,34.9728054 C15.0096322,34.9728054 14.9726044,34.9349321 14.9487156,34.831086 C14.2117433,31.7132579 13.4747711,28.5929864 12.7377989,25.4763801 C12.7330211,25.4470588 12.7282433,25.4152941 12.7186878,25.3859729 C12.71391,25.3334389 12.9002433,25.2943439 13.14391,25.2943439 Z M34.9329656,35.0070136 L36.8034656,35.0070136 C37.0459378,35.0070136 37.2418267,34.8066516 37.2418267,34.5574208 L37.2418267,32.5635747 C37.2418267,32.3143439 37.4377156,32.1139819 37.6813822,32.1139819 L41.6517156,32.1139819 C41.8941878,32.1139819 42.0852989,31.9136199 42.0757433,31.6656109 C42.0661878,31.1842534 42.0530489,30.7016742 42.0434933,30.2154299 C42.0339378,29.9674208 41.8332711,29.7670588 41.5907989,29.7670588 L37.7363267,29.7670588 C37.4938544,29.7670588 37.2979656,29.5654751 37.2979656,29.3174661 L37.2979656,28.1580543 C37.2979656,27.9100452 37.4938544,27.710905 37.7363267,27.710905 L42.3098544,27.710905 C42.5523267,27.710905 42.7529933,27.5044344 42.7529933,27.2576471 L42.7529933,25.7781448 C42.7529933,25.528914 42.5523267,25.328552 42.3146322,25.328552 L34.9377433,25.328552 C34.6952711,25.328552 34.4993822,25.528914 34.4993822,25.7781448 L34.4993822,34.5574208 C34.4946044,34.8066516 34.6904933,35.0070136 34.9329656,35.0070136 Z M44.4514933,34.9728054 L46.2610767,34.9728054 C46.5035489,34.9728054 46.6994378,34.7724434 46.6994378,34.5244344 L46.6994378,28.3352036 C46.6994378,28.0871946 46.5035489,27.8856109 46.2610767,27.8856109 L44.4514933,27.8856109 C44.2078267,27.8856109 44.0119378,28.0871946 44.0119378,28.3352036 L44.0119378,34.5244344 C44.0119378,34.7724434 44.2126044,34.9728054 44.4514933,34.9728054 Z M44.4598544,27.2038914 L46.2706322,27.2038914 C46.5131044,27.2038914 46.7089933,27.0035294 46.7089933,26.7555204 L46.7089933,25.4617195 C46.7089933,25.2137104 46.5131044,25.0133484 46.2706322,25.0133484 L44.4598544,25.0133484 C44.2173822,25.0133484 44.0214933,25.219819 44.0214933,25.4617195 L44.0214933,26.7555204 C44.0214933,27.0035294 44.2173822,27.2038914 44.4598544,27.2038914 Z" id="Fill-1" sketch:type="MSShapeGroup"></path>
        </g>
    </g>
</svg>