<?xml version="1.0" encoding="UTF-8" standalone="no"?>
<svg width="60px" height="60px" viewBox="0 0 60 60" version="1.1" xmlns="http://www.w3.org/2000/svg" xmlns:xlink="http://www.w3.org/1999/xlink" xmlns:sketch="http://www.bohemiancoding.com/sketch/ns">
    <!-- Generator: Sketch 3.3.2 (12043) - http://www.bohemiancoding.com/sketch -->
    <title>aventura-ap-facilities-computer</title>
    <desc>Created with Sketch.</desc>
    <defs></defs>
    <g id="kit" stroke="none" stroke-width="1" fill="none" fill-rule="evenodd" sketch:type="MSPage">
        <g id="aventura-ap-facilities-computer" sketch:type="MSArtboardGroup" fill="#FFFFFF">
            <g id="Imported-Layers" sketch:type="MSLayerGroup" transform="translate(9.000000, 14.000000)">
                <path d="M27.7694,2.80028571 L2.03218,2.80028571 C1.06898,2.80028571 0.28122,3.58542857 0.28122,4.54542857 L0.28122,21.6257143 C0.28122,22.5857143 1.06898,23.3717143 2.03218,23.3717143 L12.24468,23.3717143 L12.24468,24.1217143 C9.11686,24.8511429 6.8241,26.826 6.61426,29.1925714 L23.18818,29.1925714 C22.99468,27.0085714 21.02528,25.158 18.26468,24.312 L18.26468,23.3717143 L27.7694,23.3717143 C28.7326,23.3717143 29.52122,22.5857143 29.52122,21.6257143 L29.52122,4.54542857 C29.52122,3.58542857 28.7326,2.80028571 27.7694,2.80028571 L27.7694,2.80028571 Z M26.94122,20.4797143 C26.94122,20.8911429 26.60324,21.2288571 26.18958,21.2288571 L3.61286,21.2288571 C3.1992,21.2288571 2.86122,20.8911429 2.86122,20.4797143 L2.86122,5.69228571 C2.86122,5.28 3.1992,4.94314286 3.61286,4.94314286 L26.18958,4.94314286 C26.60324,4.94314286 26.94122,5.28 26.94122,5.69228571 L26.94122,20.4797143 L26.94122,20.4797143 Z" id="Fill-1" sketch:type="MSShapeGroup"></path>
                <path d="M41.76418,0.740571429 L32.50714,0.740571429 C31.97824,0.740571429 31.54566,1.17171429 31.54566,1.69885714 L31.54566,28.068 C31.54566,28.5951429 31.97824,29.0262857 32.50714,29.0262857 L41.76418,29.0262857 C42.29308,29.0262857 42.72566,28.5951429 42.72566,28.068 L42.72566,1.69885714 C42.72566,1.17171429 42.29308,0.740571429 41.76418,0.740571429 L41.76418,0.740571429 Z M35.08628,22.4022857 C34.16694,22.4022857 33.42132,21.66 33.42132,20.7428571 C33.42132,19.8265714 34.16694,19.0834286 35.08628,19.0834286 C36.00562,19.0834286 36.75124,19.8265714 36.75124,20.7428571 C36.75124,21.66 36.00562,22.4022857 35.08628,22.4022857 L35.08628,22.4022857 Z M33.69566,9.12771429 L40.57566,9.12771429 L40.57566,10.842 L33.69566,10.842 L33.69566,9.12771429 Z M33.69566,6.06342857 L40.57566,6.06342857 L40.57566,7.77771429 L33.69566,7.77771429 L33.69566,6.06342857 Z M33.69566,3 L40.57566,3 L40.57566,4.71428571 L33.69566,4.71428571 L33.69566,3 Z" id="Fill-2" sketch:type="MSShapeGroup"></path>
            </g>
        </g>
    </g>
</svg>