<?xml version="1.0" encoding="UTF-8" standalone="no"?>
<svg width="60px" height="60px" viewBox="0 0 60 60" version="1.1" xmlns="http://www.w3.org/2000/svg" xmlns:xlink="http://www.w3.org/1999/xlink" xmlns:sketch="http://www.bohemiancoding.com/sketch/ns">
    <!-- Generator: Sketch 3.3.2 (12043) - http://www.bohemiancoding.com/sketch -->
    <title>aventura-ap-facilities-hair</title>
    <desc>Created with Sketch.</desc>
    <defs></defs>
    <g id="kit" stroke="none" stroke-width="1" fill="none" fill-rule="evenodd" sketch:type="MSPage">
        <g id="aventura-ap-facilities-hair" sketch:type="MSArtboardGroup" fill="#FFFFFF">
            <path d="M45.198,47.0888235 C43.566,46.7311765 42.6026667,46.2505882 42.0473333,44.1494118 C41.73,42.9870588 41.5713333,41.6905882 41.492,40.4052941 C42.07,40.1705882 42.478,39.6117647 42.5006667,38.9523529 C45.028,38.7735294 45.3906667,38.2258824 45.3906667,38.2258824 L45.3906667,21.2711765 C45.3906667,15.5935294 40.8006667,11 35.134,11 L13.7933333,11 C13.7933333,11 13,11.5029412 13,15.5711765 C13,19.6394118 13.7933333,20.1423529 13.7933333,20.1423529 L24.9453333,20.1423529 C24.9,20.5111765 24.8773333,20.8911765 24.8773333,21.2711765 C24.8773333,26.9376471 29.4673333,31.5423529 35.134,31.5423529 C35.5193333,31.5423529 35.8933333,31.5088235 36.256,31.4752941 L36.256,38.2258824 C36.256,38.2258824 36.63,38.7958824 39.248,38.9635294 C39.282,39.6452941 39.724,40.2152941 40.3473333,40.4276471 C40.438,41.78 40.608,43.1658824 40.9366667,44.4511765 C41.526,46.6752941 42.6933333,47.6923529 44.9486667,48.2064706 L45.0733333,48.2176471 C45.334,48.2176471 45.572,48.0388235 45.6286667,47.7705882 C45.6966667,47.4576471 45.504,47.1558824 45.198,47.0888235 L45.198,47.0888235 Z M36.1653333,26.6917647 C36.052,26.8035294 35.9046667,26.8594118 35.746,26.8594118 C35.5986667,26.8594118 35.44,26.8035294 35.3266667,26.6917647 L29.728,21.07 C29.49,20.8464706 29.49,20.4664706 29.7166667,20.2317647 C29.9546667,20.0082353 30.3286667,20.0082353 30.5553333,20.2317647 L36.1653333,25.8535294 C36.392,26.0770588 36.392,26.4570588 36.1653333,26.6917647 L36.1653333,26.6917647 Z M38.3526667,24.5011765 C38.2393333,24.6129412 38.092,24.6688235 37.9333333,24.6688235 C37.786,24.6688235 37.6273333,24.6129412 37.514,24.5011765 L31.9153333,18.8794118 C31.6773333,18.6558824 31.6773333,18.2758824 31.9153333,18.0411765 C32.142,17.8176471 32.516,17.8176471 32.7426667,18.0411765 L38.3526667,23.6629412 C38.5793333,23.8864706 38.5793333,24.2664706 38.3526667,24.5011765 L38.3526667,24.5011765 Z M40.54,22.3105882 C40.4266667,22.4223529 40.2793333,22.4782353 40.1206667,22.4782353 C39.9733333,22.4782353 39.826,22.4223529 39.7013333,22.3105882 L34.1026667,16.6888235 C33.8646667,16.4652941 33.8646667,16.0852941 34.1026667,15.8505882 C34.3293333,15.6270588 34.7033333,15.6270588 34.93,15.8505882 L40.54,21.4723529 C40.778,21.6958824 40.778,22.0758824 40.54,22.3105882 L40.54,22.3105882 Z" id="Imported-Layers" sketch:type="MSShapeGroup"></path>
        </g>
    </g>
</svg>