<?xml version="1.0" encoding="UTF-8" standalone="no"?>
<svg width="60px" height="60px" viewBox="0 0 60 60" version="1.1" xmlns="http://www.w3.org/2000/svg" xmlns:xlink="http://www.w3.org/1999/xlink" xmlns:sketch="http://www.bohemiancoding.com/sketch/ns">
    <!-- Generator: Sketch 3.3.2 (12043) - http://www.bohemiancoding.com/sketch -->
    <title>aventura-ap-facilities-laundry</title>
    <desc>Created with Sketch.</desc>
    <defs></defs>
    <g id="kit" stroke="none" stroke-width="1" fill="none" fill-rule="evenodd" sketch:type="MSPage">
        <g id="aventura-ap-facilities-laundry" sketch:type="MSArtboardGroup" fill="#FFFFFF">
            <g id="Imported-Layers" sketch:type="MSLayerGroup" transform="translate(15.000000, 11.000000)">
                <path d="M16.0174573,8.01489591 C20.7483211,8.01489591 25.4780939,8.02547476 30.2078666,8.00220129 C30.8188638,7.99902764 31.0021629,8.15030517 30.9999808,8.75964682 C30.9770684,15.1810077 30.9857969,21.6013107 30.9847059,28.0226716 C30.9847059,29.2889597 30.9716131,30.5563057 30.986888,31.8225938 C31.0305307,35.3379451 28.341052,37.9964097 24.7208938,37.9985254 C18.8956904,38.0006412 13.0693959,38.0006412 7.24419254,37.9974676 C3.67422335,37.9953518 1.01965885,35.4225759 1.01747672,31.94954 C1.01311245,24.2312124 1.02511418,16.5118268 1.00001966,8.79349914 C0.997837522,8.14713151 1.17677241,7.99585398 1.82704797,8.00008552 C6.55682072,8.02759053 11.2876845,8.01489591 16.0174573,8.01489591 L16.0174573,8.01489591 Z M15.8793999,33.7460519 C22.4482697,33.8714952 28.2173487,28.5458581 28.3643691,22.2223768 C28.5243272,15.3355411 23.1669052,9.8297219 16.1910831,9.7099806 C9.33640573,9.59366047 3.64848196,14.8862262 3.58849766,21.5883181 C3.53086568,28.0805776 8.68363532,33.6183278 15.8793999,33.7460519 L15.8793999,33.7460519 Z" id="Fill-1" sketch:type="MSShapeGroup"></path>
                <path d="M22.9831034,3.367 C23.0575862,2.91771429 23.2437931,2.60691429 23.7527586,2.62805714 C24.2875862,2.6492 24.5927586,2.91771429 24.5772414,3.46742857 C24.5606897,4.03617143 24.0962069,4.16302857 23.6855172,4.17782857 C23.2106897,4.19474286 23.012069,3.82685714 22.9831034,3.367" id="Fill-3" sketch:type="MSShapeGroup"></path>
                <path d="M19.5403448,3.41668571 C19.4948276,3.922 19.2113793,4.22857143 18.7293103,4.21588571 C18.2534483,4.20214286 17.9410345,3.89557143 17.9513793,3.38497143 C17.9606897,2.87437143 18.2762069,2.58048571 18.7582759,2.58682857 C19.2444828,2.59317143 19.5144828,2.90502857 19.5403448,3.41668571" id="Fill-4" sketch:type="MSShapeGroup"></path>
                <g id="Fill-2-+-Fill-5" transform="translate(6.000000, 11.000000)" sketch:type="MSShapeGroup">
                    <path d="M10.0073236,20.9999266 C4.60681649,21.0208263 0.015706586,16.5744243 4.0833336e-05,10.9994408 C-0.0156249193,5.48402138 4.47835732,1.00104498 10.0104568,1 C15.5905979,1 20.0093845,5.45267189 19.999985,11.0673647 C19.99163,16.5503897 15.5101803,21.0041066 10.0073236,20.9999266 L10.0073236,20.9999266 Z M10.021945,2.39609708 C5.31177536,2.38982718 1.33267419,6.42241597 1.42771309,11.2732263 C1.51126377,15.5628809 4.95877373,19.5536704 10.0031461,19.5965147 C14.746736,19.638314 18.5858898,15.7656076 18.5952892,11.0036208 C18.6046887,6.25103878 14.7718012,2.40236697 10.021945,2.39609708 L10.021945,2.39609708 Z" id="Fill-2"></path>
                    <path d="M15.7040224,10.4649932 C15.1486076,11.7883539 14.6248372,13.0930098 13.1997454,13.1339265 C11.6175224,13.1795193 10.9955451,11.8000443 10.4172153,10.4766836 C8.11917285,13.8984829 7.19820996,13.9031591 4.83033145,10.5047408 C4.50297497,11.4259494 4.06322611,12.2477892 3.32340047,12.8346505 C2.38497857,13.5781641 1.41272983,13.1456169 1.28396962,11.9111038 C0.855132635,7.82177894 2.2147532,4.52857481 5.39011102,2.27231498 C8.53928033,0.03242179 11.9252375,-0.0681162131 15.1944375,1.9765462 C18.4930996,4.0410824 19.9847539,7.25362232 19.8145286,11.3558067 C19.7807017,12.1530964 19.475169,12.7341125 18.8280944,13.0614456 C18.1559224,13.4016381 17.6037812,13.0041623 17.0996522,12.5681079 C16.4798573,12.0315156 16.1404977,11.2704663 15.7040224,10.4649932" id="Fill-5"></path>
                </g>
                <path d="M30.8312743,5.59245988 C30.1171405,2.49147471 27.8253201,0.454484443 24.8479313,0.435817866 C18.8799695,0.396151389 12.9120078,0.410151322 6.94404611,0.428817899 C3.92161189,0.439317849 1.69681025,2.54397445 0.940927033,5.55512673 C0.777225579,6.20612362 0.911263011,6.41495595 1.59023951,6.41028931 C6.34856834,6.37878946 11.1079958,6.39395605 15.8663247,6.39395605 L15.8663247,6.36362286 C20.6543175,6.36362286 25.4412117,6.35195625 30.2281059,6.37878946 C30.845557,6.38112278 30.9587198,6.14779056 30.8312743,5.59245988 L30.8312743,5.59245988 Z M12.4686207,4.09537143 C12.4686207,4.54677143 12.1075862,4.91677143 11.6658621,4.91677143 L5.88413793,4.91677143 C5.44241379,4.91677143 5.08137931,4.54677143 5.08137931,4.09537143 L5.08137931,2.91454286 C5.08137931,2.46208571 5.44241379,2.09314286 5.88413793,2.09314286 L11.6658621,2.09314286 C12.1075862,2.09314286 12.4686207,2.46208571 12.4686207,2.91454286 L12.4686207,4.09537143 L12.4686207,4.09537143 Z M18.7148276,5.01297143 C17.85,4.99817143 17.1475862,4.26345714 17.1568966,3.38391429 C17.1672414,2.5012 17.8768966,1.7834 18.7437931,1.78128571 C19.6086207,1.77811429 20.3255172,2.49697143 20.3368966,3.37757143 C20.3493103,4.28777143 19.6137931,5.02882857 18.7148276,5.01297143 L18.7148276,5.01297143 Z M23.7744828,5.0098 C22.9106897,5.01614286 22.1937931,4.29305714 22.1875862,3.40928571 C22.1824138,2.52657143 22.8848276,1.79608571 23.7537931,1.78234286 C24.6589655,1.76754286 25.4565517,2.56462857 25.4358621,3.46214286 C25.4172414,4.292 24.6537931,5.0024 23.7744828,5.0098 L23.7744828,5.0098 Z" id="Fill-6" sketch:type="MSShapeGroup"></path>
            </g>
        </g>
    </g>
</svg>