<?xml version="1.0" encoding="UTF-8" standalone="no"?>
<svg width="40px" height="40px" viewBox="0 0 40 40" version="1.1" xmlns="http://www.w3.org/2000/svg" xmlns:xlink="http://www.w3.org/1999/xlink" xmlns:sketch="http://www.bohemiancoding.com/sketch/ns">
    <!-- Generator: Sketch 3.3.2 (12043) - http://www.bohemiancoding.com/sketch -->
    <title>aventura-mobil-footer-social-googlePlus</title>
    <desc>Created with Sketch.</desc>
    <defs></defs>
    <g id="kit" stroke="none" stroke-width="1" fill="none" fill-rule="evenodd" sketch:type="MSPage">
        <g id="aventura-mobil-footer-social-googlePlus" sketch:type="MSArtboardGroup" fill="#FFFFFF">
            <path d="M16.108977,32.635 C12.6868476,32.635 10.2167015,30.605 10.2167015,28.17 C10.2167015,25.78 13.2830898,23.79 16.7052192,23.825 C17.5018789,23.835 18.2484342,23.955 18.919833,24.16 C20.7787056,25.37 22.1114823,26.055 22.4872651,27.43 C22.5574113,27.71 22.5974948,28 22.5974948,28.295 C22.5974948,30.73 20.9189979,32.635 16.108977,32.635 L16.108977,32.635 Z M17.0108559,18.34 C14.7110647,18.275 12.531524,15.935 12.1306889,13.11 C11.7348643,10.28 13.2780793,8.12 15.5728601,8.185 C17.8676409,8.25 20.0521921,10.515 20.4480167,13.34 C20.8438413,16.165 19.3056367,18.405 17.0108559,18.34 L17.0108559,18.34 Z M21.7707724,22.525 C20.9640919,21.99 19.4258873,20.69 19.4258873,19.925 C19.4258873,19.03 19.6964509,18.59 21.1344468,17.54 C22.6125261,16.46 23.6546973,14.94 23.6546973,13.175 C23.6546973,11.075 22.6526096,9.03 20.7787056,8.35 L23.6045929,8.35 L25.6037578,7 L16.6851775,7 C12.691858,7 8.92901879,9.84 8.92901879,13.125 C8.92901879,16.48 11.6546973,19.19 15.7181628,19.19 C16.0037578,19.19 16.2743215,19.185 16.5448852,19.17 C16.2793319,19.64 16.0939457,20.175 16.0939457,20.73 C16.0939457,21.66 16.6300626,22.42 17.3064718,23.035 C16.7954071,23.035 16.2993737,23.05 15.7632568,23.05 C10.8079332,23.05 7,26.005 7,29.065 C7,32.08 11.1787056,33.97 16.1290188,33.97 C21.7707724,33.97 24.8872651,30.97 24.8872651,27.955 C24.8872651,25.535 24.1256785,24.085 21.7707724,22.525 L21.7707724,22.525 Z" id="Fill-9" sketch:type="MSShapeGroup"></path>
            <path d="M27,12 L36.0187891,12 L36.0187891,13 L27,13 L27,12 Z" id="Fill-10" sketch:type="MSShapeGroup"></path>
            <path d="M31,8 L32.0020877,8 L32.0020877,16.99 L31,16.99 L31,8 Z" id="Fill-11" sketch:type="MSShapeGroup"></path>
        </g>
    </g>
</svg>