<?xml version="1.0" encoding="UTF-8" standalone="no"?>
<svg width="42px" height="42px" viewBox="0 0 42 42" version="1.1" xmlns="http://www.w3.org/2000/svg" xmlns:xlink="http://www.w3.org/1999/xlink" xmlns:sketch="http://www.bohemiancoding.com/sketch/ns">
    <!-- Generator: Sketch 3.3.2 (12043) - http://www.bohemiancoding.com/sketch -->
    <title>aventura-mobil-navIcon-phone</title>
    <desc>Created with Sketch.</desc>
    <defs></defs>
    <g id="kit" stroke="none" stroke-width="1" fill="none" fill-rule="evenodd" sketch:type="MSPage">
        <g id="aventura-mobil-navIcon-phone" sketch:type="MSArtboardGroup">
            <g id="phone" sketch:type="MSLayerGroup" transform="translate(6.000000, 8.000000)">
                <path d="M28.1371025,19.4838462 C28.0890459,19.2453846 27.914841,18.9175 27.740636,18.7565385 C27.740636,18.7565385 21.8777385,13.0871154 21.8777385,10.0526923 C21.8777385,7.76346154 21.3911661,7.11961538 21.3911661,7.11961538 C21.3911661,6.87519231 21.1989399,6.67846154 20.9646643,6.67846154 L18.5858657,6.67846154 C18.3515901,6.67846154 18.165371,6.87519231 18.165371,7.11961538 L17.6727915,8.19865385 C17.6727915,8.44307692 17.4865724,8.63980769 17.2522968,8.63980769 L13.3657244,8.63980769 C13.1374558,8.63980769 12.9452297,8.44307692 12.9452297,8.19865385 L12.4526502,7.11961538 C12.4526502,6.87519231 12.2664311,6.67846154 12.0321555,6.67846154 L9.65335689,6.67846154 C9.41908127,6.67846154 9.23286219,6.87519231 9.23286219,7.11961538 C9.23286219,7.11961538 8.74028269,7.76346154 8.74028269,10.0526923 C8.74028269,13.0871154 2.87738516,18.7565385 2.87738516,18.7565385 C2.70918728,18.9175 2.52897527,19.2453846 2.48091873,19.4838462 L1.7360424,23.1621154 C1.68798587,23.3946154 1.83816254,23.5913462 2.0664311,23.5913462 L2.76325088,23.5913462 L3.73639576,24.8492308 C3.8385159,25.1115385 4.13886926,25.3261538 4.40918728,25.3261538 L26.2088339,25.3261538 C26.4791519,25.3261538 26.7795053,25.1115385 26.8816254,24.8492308 L27.8547703,23.5913462 L28.5515901,23.5913462 C28.7798587,23.5913462 28.9300353,23.3946154 28.8819788,23.1621154 L28.1371025,19.4838462" id="Fill-2" fill="#8DC644" sketch:type="MSShapeGroup"></path>
                <path d="M30.4378092,9.86192308 C30.2876325,8.62788462 29.434629,6.11211538 28.4855124,5.29538462 C28.0530035,4.92576923 27.7766784,4.71115385 27.4823322,4.18057692 C27.2180212,3.69769231 26.9897527,3.20884615 26.5452297,2.88692308 C25.8844523,2.41 25.1155477,2.11788462 24.3526502,1.87346154 C22.2621908,1.19384615 18.255477,0.734807692 15.5342756,0.752692308 C12.8070671,0.752692308 8.36183746,1.19384615 6.26537102,1.87346154 C5.5024735,2.11788462 4.7335689,2.41 4.07879859,2.88692308 C3.62826855,3.20884615 3.4,3.69769231 3.13568905,4.18057692 C2.84134276,4.71115385 2.56501767,4.92576923 2.13250883,5.29538462 C1.18339223,6.11211538 0.330388693,8.62788462 0.180212014,9.86192308 C0.0300353357,11.1376923 3.80848057,11.1853846 5.4844523,11.0303846 C6.27738516,10.9588462 7.24452297,10.8575 7.81519435,10.1659615 C8.12155477,9.79038462 8.12155477,9.12865385 8.15759717,8.67557692 C8.21766784,7.9125 8.08551237,6.21346154 9.07667845,6.01076923 C9.94770318,5.83788462 13.5279152,5.71865385 15.3120141,5.70076923 C17.090106,5.71865385 20.670318,5.83788462 21.5413428,6.01076923 C22.5325088,6.21346154 22.4003534,7.9125 22.460424,8.67557692 C22.4964664,9.12865385 22.4964664,9.79038462 22.8028269,10.1659615 C23.3734982,10.8575 24.340636,10.9588462 25.1335689,11.0303846 C26.8155477,11.1853846 30.5879859,11.1376923 30.4378092,9.86192308" id="Fill-3" fill="#8DC644" sketch:type="MSShapeGroup"></path>
                <path d="M10.9208481,17.7430769 C10.9208481,15.1438462 13.0413428,13.0394231 15.654417,13.0394231 C18.2734982,13.0394231 20.3939929,15.1438462 20.3939929,17.7430769 C20.3939929,20.3363462 18.2734982,22.4407692 15.654417,22.4407692 C13.0413428,22.4407692 10.9208481,20.3363462 10.9208481,17.7430769 L10.9208481,17.7430769 Z" id="Fill-4" fill="#8DC644" sketch:type="MSShapeGroup"></path>
                <path d="M10.9208481,17.7430769 C10.9208481,15.1438462 13.0413428,13.0394231 15.654417,13.0394231 C18.2734982,13.0394231 20.3939929,15.1438462 20.3939929,17.7430769 C20.3939929,20.3363462 18.2734982,22.4407692 15.654417,22.4407692 C13.0413428,22.4407692 10.9208481,20.3363462 10.9208481,17.7430769 L10.9208481,17.7430769 Z" id="Stroke-5" stroke="#FFFFFF" stroke-width="2.4" stroke-linecap="round" stroke-linejoin="round" sketch:type="MSShapeGroup"></path>
            </g>
        </g>
    </g>
</svg>