<?xml version="1.0" encoding="UTF-8" standalone="no"?>
<svg width="40px" height="40px" viewBox="0 0 40 40" version="1.1" xmlns="http://www.w3.org/2000/svg" xmlns:xlink="http://www.w3.org/1999/xlink" xmlns:sketch="http://www.bohemiancoding.com/sketch/ns">
    <!-- Generator: Sketch 3.3.2 (12043) - http://www.bohemiancoding.com/sketch -->
    <title>aventura-mobil-footer-social-twitter</title>
    <desc>Created with Sketch.</desc>
    <defs></defs>
    <g id="kit" stroke="none" stroke-width="1" fill="none" fill-rule="evenodd" sketch:type="MSPage">
        <g id="aventura-mobil-footer-social-twitter" sketch:type="MSArtboardGroup" fill="#FFFFFF">
            <path d="M32.7906715,14.8153431 C32.8008978,15.0692956 32.8077153,15.3232482 32.8077153,15.5789051 C32.8077153,23.3679197 26.8781788,32.35 16.0349161,32.35 C12.7062628,32.35 9.60770073,31.3750949 7,29.7013942 C7.46018248,29.7559343 7.93059124,29.7849088 8.40611314,29.7849088 C11.167208,29.7849088 13.708438,28.8423869 15.7264234,27.2607226 C13.1476971,27.213 10.9695,25.5086204 10.219573,23.1668029 C10.5791971,23.2366825 10.9490474,23.2724745 11.3291241,23.2724745 C11.8660036,23.2724745 12.3875438,23.2008905 12.8818139,23.0662445 C10.1854854,22.5242518 8.15386496,20.1415292 8.15386496,17.2866934 L8.15386496,17.2117007 C8.94810584,17.653135 9.85824453,17.9190182 10.8246277,17.9496971 C9.2429635,16.8929818 8.20158759,15.0880438 8.20158759,13.0427883 C8.20158759,11.9622117 8.4930365,10.9498102 8.99923723,10.0788723 C11.9069088,13.6461387 16.2513723,15.9930693 21.1497591,16.2385 C21.0492007,15.807292 20.996365,15.3573358 20.996365,14.8954489 C20.996365,11.6400839 23.6364489,9 26.8918139,9 C28.5876715,9 30.1199088,9.71583942 31.1953723,10.8611825 C32.536719,10.5970036 33.7996642,10.1061423 34.9381898,9.43120803 C34.4984599,10.8083467 33.5627555,11.9639161 32.3458285,12.6933905 C33.5388942,12.5502226 34.6740109,12.233208 35.7307263,11.7645036 C34.9415985,12.9473431 33.9411277,13.9853102 32.7906715,14.8153431 L32.7906715,14.8153431 Z" id="Imported-Layers" sketch:type="MSShapeGroup"></path>
        </g>
    </g>
</svg>