<?xml version="1.0" encoding="UTF-8" standalone="no"?>
<svg width="149px" height="149px" viewBox="0 0 149 149" version="1.1" xmlns="http://www.w3.org/2000/svg" xmlns:xlink="http://www.w3.org/1999/xlink" xmlns:sketch="http://www.bohemiancoding.com/sketch/ns">
    <!-- Generator: Sketch 3.3.2 (12043) - http://www.bohemiancoding.com/sketch -->
    <title>aventura-space-room-logo</title>
    <desc>Created with Sketch.</desc>
    <defs></defs>
    <g id="kit" stroke="none" stroke-width="1" fill="none" fill-rule="evenodd" sketch:type="MSPage">
        <g id="aventura-space-room-logo" sketch:type="MSArtboardGroup">
            <g id="space" sketch:type="MSLayerGroup" transform="translate(6.000000, 7.000000)">
                <path d="M20.429556,21.2743465 C20.0362914,20.8519512 20.0362914,20.1965103 20.4586867,19.7886804 C20.8665166,19.3808505 21.5365228,19.3954159 21.9297874,19.8032458 C22.3376173,20.2110757 22.3376173,20.8810819 21.915222,21.2889118 C21.7113071,21.4928268 21.4491307,21.5802189 21.1869543,21.5802189 C20.9102126,21.5802189 20.6480363,21.4782614 20.429556,21.2743465 L20.429556,21.2743465 Z M17.6767042,24.2456785 C17.2397436,23.8669794 17.1960475,23.1969731 17.5893121,22.7745779 C17.9825766,22.3376173 18.6380175,22.3084866 19.0749781,22.6871857 C19.5119387,23.0804503 19.5410694,23.7358912 19.1478049,24.1874171 C18.9438899,24.4058974 18.6525829,24.5224203 18.3758412,24.5224203 C18.1136648,24.5224203 17.8660538,24.4350281 17.6767042,24.2456785 L17.6767042,24.2456785 Z M15.0840713,27.3917949 C14.6325453,27.0422264 14.5597186,26.3722201 14.9238524,25.9206942 C15.2734209,25.4691682 15.9288618,25.3963415 16.3949531,25.7604753 C16.846479,26.1100438 16.9193058,26.78005 16.555172,27.231576 C16.351257,27.479187 16.0453846,27.6248405 15.7395122,27.6248405 C15.5064665,27.6248405 15.2734209,27.5374484 15.0840713,27.3917949 L15.0840713,27.3917949 Z M12.6953533,30.6835647 C12.229262,30.363127 12.1127392,29.6931207 12.4477423,29.2270294 C12.7681801,28.7609381 13.423621,28.6444153 13.9042777,28.964853 C14.3849343,29.3144215 14.4868918,29.9552971 14.1518887,30.4359537 C13.9479737,30.7272608 13.627536,30.8729143 13.3070982,30.8729143 C13.0886179,30.8729143 12.8847029,30.8146529 12.6953533,30.6835647 L12.6953533,30.6835647 Z M10.5105503,34.1209881 C10.0153283,33.8151157 9.8696748,33.1742402 10.1609819,32.6790181 C10.4814196,32.1983615 11.1222952,32.0381426 11.6175172,32.344015 C12.0981739,32.6498874 12.2583927,33.2761976 11.9525203,33.785985 C11.7486054,34.1064228 11.4136023,34.281207 11.0640338,34.281207 C10.8746842,34.281207 10.6853346,34.2375109 10.5105503,34.1209881 L10.5105503,34.1209881 Z M8.54422764,37.6894997 C8.03444028,37.412758 7.84509068,36.7718824 8.10726704,36.2620951 C8.38400876,35.7523077 9.0248843,35.5629581 9.53467167,35.8396998 C10.044459,36.1018762 10.2338086,36.7427517 9.95706692,37.2525391 C9.76771732,37.6166729 9.40358349,37.8205879 9.03944966,37.8205879 C8.86466542,37.8205879 8.70444653,37.7768918 8.54422764,37.6894997 L8.54422764,37.6894997 Z M6.79638524,41.3745341 C6.27203252,41.1269231 6.03898687,40.5006129 6.28659787,39.9762602 C6.51964353,39.4519074 7.14595372,39.2188618 7.67030644,39.4664728 C8.19465916,39.6995184 8.42770482,40.3258286 8.18009381,40.8501814 L8.19465916,40.8501814 C8.00530957,41.2288806 7.62661038,41.4619262 7.23334584,41.4619262 C7.08769231,41.4619262 6.92747342,41.4327955 6.79638524,41.3745341 L6.79638524,41.3745341 Z M5.28158849,45.1469606 C4.74267042,44.9284803 4.46592871,44.3313008 4.68440901,43.7778174 C4.88832395,43.2388993 5.48550344,42.976723 6.03898687,43.1806379 C6.57790494,43.3991182 6.8400813,43.9962977 6.63616635,44.5352158 C6.47594747,44.957611 6.08268293,45.205222 5.66028768,45.205222 C5.5291995,45.205222 5.41267667,45.1906567 5.28158849,45.1469606 L5.28158849,45.1469606 Z M3.9998374,49.0067792 C3.44635397,48.831995 3.14048155,48.2493809 3.31526579,47.6813321 C3.49005003,47.142414 4.08722952,46.8365416 4.62614759,47.0113258 C5.17963102,47.1715447 5.48550344,47.7687242 5.3107192,48.3222076 C5.16506567,48.7591682 4.75723577,49.0504753 4.30570982,49.0504753 C4.20375235,49.0504753 4.10179487,49.0504753 3.9998374,49.0067792 L3.9998374,49.0067792 Z M2.95113196,52.9394246 C2.39764853,52.8083365 2.04808005,52.2402877 2.19373358,51.6722389 C2.33938712,51.1041901 2.9074359,50.769187 3.46091932,50.9148405 C4.01440275,51.0459287 4.36397123,51.6139775 4.2183177,52.1820263 C4.11636023,52.6626829 3.67939962,52.9685553 3.19874296,52.9685553 C3.1259162,52.9685553 3.03852408,52.9685553 2.95113196,52.9394246 L2.95113196,52.9394246 Z M2.15003752,56.9448968 C1.58198874,56.828374 1.21785491,56.2748906 1.31981238,55.7068418 C1.42176986,55.138793 1.96068793,54.7746592 2.52873671,54.8766166 C3.09678549,54.9785741 3.47548468,55.5174922 3.38809256,56.085541 C3.28613508,56.5953283 2.84917448,56.9448968 2.33938712,56.9448968 L2.15003752,56.9448968 L2.15003752,56.9448968 Z M1.61111945,60.9649343 C1.02850532,60.9066729 0.620675422,60.3677548 0.693502189,59.7997061 C0.751763602,59.2170919 1.29068168,58.809262 1.85873046,58.8820888 C2.42677924,58.9549156 2.84917448,59.4792683 2.77634772,60.0473171 C2.70352095,60.5862351 2.251995,60.9794997 1.74220763,60.9794997 L1.61111945,60.9649343 L1.61111945,60.9649343 Z M1.29068168,65.0286679 C0.722632896,64.9995372 0.285672295,64.4897498 0.314803002,63.9217011 C0.343933709,63.3390869 0.853721076,62.9021263 1.42176986,62.931257 C2.00438399,62.9603877 2.44134459,63.4701751 2.41221388,64.0382239 C2.36851782,64.6062727 1.91699187,65.0286679 1.36350844,65.0286679 L1.29068168,65.0286679 L1.29068168,65.0286679 Z" id="Fill-2" fill="#132161" sketch:type="MSShapeGroup"></path>
                <path d="M62.4069043,1.69851157 C62.3632083,1.13046279 62.8001689,0.620675422 63.382783,0.591544715 C63.9653971,0.562414009 64.4606191,0.999374609 64.4897498,1.56742339 C64.5334459,2.13547217 64.0964853,2.64525954 63.5138712,2.67439024 L63.4556098,2.67439024 C62.9021263,2.67439024 62.436035,2.251995 62.4069043,1.69851157 L62.4069043,1.69851157 Z M58.1101251,2.17916823 C58.0372983,1.61111945 58.4451282,1.08676673 59.013177,1.01393996 C59.5957911,0.941113196 60.1055785,1.34894309 60.1929706,1.91699187 C60.2657974,2.48504065 59.8579675,3.02395872 59.2899187,3.09678549 L59.1442652,3.09678549 C58.6199124,3.09678549 58.1683865,2.7180863 58.1101251,2.17916823 L58.1101251,2.17916823 Z M53.8570419,2.95113196 C53.7405191,2.38308318 54.1192183,1.82959975 54.687267,1.71307692 C55.2553158,1.5965541 55.7942339,1.97525328 55.9107567,2.54330206 C56.0127142,3.11135084 55.6485804,3.66483427 55.0805316,3.7813571 L55.0950969,3.7813571 L54.8766166,3.79592245 C54.39596,3.79592245 53.9589994,3.44635397 53.8570419,2.95113196 L53.8570419,2.95113196 Z M49.6622201,3.98527205 C49.5165666,3.43178862 49.8370044,2.84917448 50.4050532,2.70352095 C50.9585366,2.55786742 51.5411507,2.89287054 51.6868043,3.44635397 C51.8324578,4.01440275 51.4974547,4.58245153 50.9439712,4.72810507 C50.8565791,4.75723577 50.7546216,4.77180113 50.6672295,4.77180113 C50.2011382,4.77180113 49.778743,4.45136335 49.6622201,3.98527205 L49.6622201,3.98527205 Z M45.5402251,5.29615385 C45.3508755,4.74267042 45.656748,4.16005629 46.195666,3.97070669 C46.7491495,3.79592245 47.3317636,4.07266417 47.5211132,4.62614759 C47.7104628,5.17963102 47.4191557,5.76224515 46.8656723,5.95159475 C46.7637148,5.99529081 46.647192,6.00985616 46.5306692,6.00985616 C46.0937086,6.00985616 45.6858787,5.73311445 45.5402251,5.29615385 L45.5402251,5.29615385 Z M41.5056223,6.86921201 C41.287142,6.33029393 41.5493183,5.71854909 42.0882364,5.50006879 C42.6125891,5.28158849 43.2388993,5.54376485 43.4573796,6.06811757 C43.6758599,6.60703565 43.4136836,7.21878049 42.8747655,7.43726079 C42.7436773,7.4955222 42.6125891,7.52465291 42.4815009,7.52465291 C42.073671,7.52465291 41.6804065,7.2770419 41.5056223,6.86921201 L41.5056223,6.86921201 Z M37.6021076,8.70444653 C37.3544966,8.19465916 37.5584115,7.56834897 38.0827642,7.30617261 C38.5925516,7.0585616 39.2188618,7.2770419 39.4810381,7.78682927 C39.7286492,8.31118199 39.5247342,8.93749218 39.0003815,9.18510319 C38.854728,9.27249531 38.6945091,9.30162602 38.5342902,9.30162602 C38.155591,9.30162602 37.7768918,9.08314572 37.6021076,8.70444653 L37.6021076,8.70444653 Z M33.8151157,10.8018574 C33.5238086,10.29207 33.6985929,9.6511945 34.2083802,9.37445278 C34.7036023,9.08314572 35.3444778,9.25792996 35.6357849,9.75315197 C35.9270919,10.2629393 35.7377423,10.8892495 35.2425203,11.1805566 C35.0677361,11.2825141 34.9075172,11.3262101 34.7181676,11.3262101 C34.3540338,11.3262101 34.0044653,11.1368605 33.8151157,10.8018574 L33.8151157,10.8018574 Z M30.1737774,13.1323139 C29.8533396,12.6516573 29.9844278,11.9962164 30.4650844,11.6757786 C30.9457411,11.3553408 31.5866166,11.5009944 31.9216198,11.9670857 C32.2420575,12.4477423 32.096404,13.1031832 31.6157473,13.423621 C31.4409631,13.5401438 31.2370482,13.5984053 31.0476986,13.5984053 C30.6981301,13.5984053 30.3776923,13.423621 30.1737774,13.1323139 L30.1737774,13.1323139 Z M26.6780926,15.6812508 C26.3285241,15.2297248 26.4159162,14.5742839 26.8820075,14.2247154 L26.8965729,14.2247154 C27.3480988,13.875147 28.0035397,13.9625391 28.3531082,14.414065 C28.7026767,14.8801563 28.6152846,15.5355972 28.1637586,15.8997311 C27.974409,16.0308193 27.7413634,16.103646 27.5228831,16.103646 C27.2024453,16.103646 26.8965729,15.9725578 26.6780926,15.6812508 L26.6780926,15.6812508 Z" id="Fill-3" fill="#132161" sketch:type="MSShapeGroup"></path>
                <path d="M71.9035147,2.67439024 C71.3209006,2.63069418 70.88394,2.13547217 70.9130707,1.56742339 C70.9422014,0.984809256 71.4519887,0.547848655 72.0200375,0.576979362 C72.6026517,0.620675422 73.0396123,1.11589744 73.0104816,1.69851157 C72.9813508,2.23742964 72.5006942,2.67439024 71.9617761,2.67439024 L71.9035147,2.67439024 L71.9035147,2.67439024 Z M75.9818136,3.05308943 C75.4137649,2.98026266 75.005935,2.45590994 75.0787617,1.88786116 C75.1515885,1.31981238 75.6759412,0.911982489 76.24399,0.970243902 C76.8266041,1.04307067 77.234434,1.56742339 77.1616073,2.13547217 C77.0887805,2.67439024 76.6518199,3.06765478 76.1129018,3.06765478 L75.9818136,3.05308943 L75.9818136,3.05308943 Z M80.0455472,3.69396498 C79.4774984,3.57744215 79.1133646,3.03852408 79.2153221,2.4704753 C79.3172795,1.90242652 79.870763,1.52372733 80.4388118,1.64025016 L80.4533771,1.64025016 C81.0068605,1.74220763 81.3855597,2.29569106 81.2690369,2.86373984 C81.1816448,3.35896185 80.7301188,3.70853033 80.2494622,3.70853033 C80.1766354,3.70853033 80.118374,3.70853033 80.0455472,3.69396498 L80.0455472,3.69396498 Z M84.0655847,4.58245153 C83.497536,4.436798 83.1770982,3.86874922 83.3081864,3.31526579 C83.4538399,2.74721701 84.036454,2.41221388 84.5899375,2.55786742 C85.1434209,2.70352095 85.4929894,3.27156973 85.3473358,3.82505316 C85.2162477,4.30570982 84.7938524,4.61158224 84.3277611,4.61158224 C84.240369,4.61158224 84.1529769,4.61158224 84.0655847,4.58245153 L84.0655847,4.58245153 Z M88.0273609,5.73311445 C87.4593121,5.55833021 87.168005,4.96115072 87.3427892,4.40766729 C87.5175735,3.85418386 88.114753,3.5628768 88.653671,3.73766104 C89.2217198,3.91244528 89.5130269,4.50962477 89.3382427,5.06310819 C89.1925891,5.50006879 88.7847592,5.79137586 88.3477986,5.79137586 C88.2312758,5.79137586 88.114753,5.76224515 88.0273609,5.73311445 L88.0273609,5.73311445 Z M91.8871795,7.11682301 C91.3482614,6.91290807 91.1006504,6.30116323 91.3045654,5.76224515 C91.5084803,5.22332708 92.1202251,4.96115072 92.6591432,5.17963102 C93.1980613,5.39811132 93.474803,6.00985616 93.2563227,6.54877423 C93.0961038,6.95660413 92.6882739,7.20421513 92.280444,7.20421513 C92.1493558,7.20421513 92.0182677,7.17508443 91.8871795,7.11682301 L91.8871795,7.11682301 Z M95.6741714,8.76270794 C95.1498186,8.51509694 94.9313383,7.88878674 95.164384,7.37899937 C95.411995,6.8400813 96.0383052,6.621601 96.5626579,6.86921201 C97.0870106,7.11682301 97.3054909,7.74313321 97.0578799,8.26748593 C96.8830957,8.64618512 96.5189619,8.86466542 96.111132,8.86466542 C95.9654784,8.86466542 95.8198249,8.83553471 95.6741714,8.76270794 L95.6741714,8.76270794 Z M99.3446404,10.6416385 C98.834853,10.3503315 98.6455034,9.72402126 98.9222452,9.2142339 C99.2135522,8.70444653 99.8398624,8.51509694 100.34965,8.806404 C100.859437,9.08314572 101.048787,9.72402126 100.772045,10.2338086 C100.582695,10.5833771 100.218562,10.7727267 99.8398624,10.7727267 C99.6650782,10.7727267 99.5048593,10.7290306 99.3446404,10.6416385 L99.3446404,10.6416385 Z M102.884021,12.7390494 C102.388799,12.4186116 102.257711,11.7777361 102.563583,11.2970794 C102.869456,10.8018574 103.524897,10.6562039 104.005553,10.9620763 C104.500775,11.2825141 104.631864,11.9233896 104.325991,12.4186116 C104.122076,12.7390494 103.787073,12.8992683 103.437505,12.8992683 C103.248155,12.8992683 103.04424,12.8555722 102.884021,12.7390494 L102.884021,12.7390494 Z M106.277749,15.0549406 C105.811657,14.7199375 105.7097,14.0644966 106.059268,13.5838399 C106.394271,13.1177486 107.035147,13.0157911 107.515804,13.3653596 C107.981895,13.7003627 108.083852,14.3558036 107.748849,14.8218949 C107.544934,15.113202 107.224497,15.2588555 106.889493,15.2588555 C106.685578,15.2588555 106.467098,15.1860288 106.277749,15.0549406 L106.277749,15.0549406 Z M109.540388,17.5893121 C109.088862,17.2106129 109.0306,16.555172 109.394734,16.103646 C109.758868,15.6521201 110.428874,15.5938587 110.865835,15.9725578 L110.8804,15.9725578 C111.317361,16.3366917 111.375622,16.9921326 110.996923,17.4436585 C110.807573,17.6912695 110.501701,17.8223577 110.195829,17.8223577 C109.962783,17.8223577 109.729737,17.749531 109.540388,17.5893121 L109.540388,17.5893121 Z M112.613677,20.3130331 C112.191282,19.9052033 112.176717,19.235197 112.569981,18.8273671 C112.963246,18.4049719 113.633252,18.3758412 114.055647,18.783671 C114.478043,19.1769356 114.492608,19.8323765 114.099343,20.2547717 C113.880863,20.473252 113.604121,20.5897749 113.32738,20.5897749 C113.079769,20.5897749 112.817592,20.5023827 112.613677,20.3130331 L112.613677,20.3130331 Z M115.526748,23.2115385 C115.118918,22.7891432 115.148049,22.119137 115.570444,21.7404378 C115.992839,21.3326079 116.662846,21.3617386 117.05611,21.7695685 C117.449375,22.2065291 117.434809,22.86197 117.012414,23.2552345 C116.808499,23.4445841 116.546323,23.5465416 116.298712,23.5465416 C116.007405,23.5465416 115.730663,23.4300188 115.526748,23.2115385 L115.526748,23.2115385 Z M118.250469,26.2993934 C117.886335,25.8624328 117.944597,25.1924265 118.381557,24.8137273 C118.833083,24.4641588 119.488524,24.5224203 119.867223,24.9593809 C120.216792,25.4109068 120.15853,26.0663477 119.72157,26.4304816 C119.53222,26.5907004 119.284609,26.6780926 119.051563,26.6780926 C118.745691,26.6780926 118.454384,26.5470044 118.250469,26.2993934 L118.250469,26.2993934 Z M120.770275,29.5474672 C120.420707,29.0813759 120.53723,28.425935 121.003321,28.0763665 C121.469412,27.7413634 122.124853,27.8433208 122.459856,28.3094121 C122.794859,28.7755034 122.692902,29.4455097 122.226811,29.7805128 C122.052026,29.911601 121.833546,29.9844278 121.615066,29.9844278 C121.294628,29.9844278 120.97419,29.8242089 120.770275,29.5474672 L120.770275,29.5474672 Z M123.071601,32.9411945 C122.765729,32.4605378 122.911382,31.8196623 123.406604,31.5137899 C123.901826,31.1933521 124.542702,31.3390056 124.848574,31.8196623 C125.169012,32.3148843 125.008793,32.9703252 124.528136,33.2761976 C124.353352,33.3781551 124.149437,33.4364165 123.960088,33.4364165 C123.610519,33.4364165 123.275516,33.2616323 123.071601,32.9411945 L123.071601,32.9411945 Z M125.183577,36.4805754 C124.906836,35.9853533 125.08162,35.3444778 125.591407,35.0531707 C126.101194,34.776429 126.727505,34.9657786 127.004246,35.475566 C127.295553,35.9853533 127.106204,36.6116635 126.596417,36.9029706 C126.436198,36.9903627 126.275979,37.0194934 126.101194,37.0194934 C125.737061,37.0194934 125.372927,36.8301438 125.183577,36.4805754 L125.183577,36.4805754 Z M127.047942,40.1510444 C126.800331,39.6266917 127.033377,38.9858161 127.543164,38.7527705 C128.067517,38.5051595 128.693827,38.7236398 128.941438,39.2479925 C129.189049,39.7723452 128.970569,40.3986554 128.446216,40.6462664 C128.300563,40.7190932 128.140344,40.7482239 127.99469,40.7482239 C127.601426,40.7482239 127.222727,40.5151782 127.047942,40.1510444 L127.047942,40.1510444 Z M128.679262,43.9089056 C128.460782,43.3699875 128.722958,42.7582427 129.276442,42.5543277 C129.800794,42.3504128 130.412539,42.6125891 130.631019,43.1515072 C130.834934,43.6904253 130.587323,44.2876048 130.048405,44.5060851 C129.917317,44.5497811 129.786229,44.5789118 129.655141,44.5789118 C129.232745,44.5789118 128.839481,44.3167355 128.679262,43.9089056 L128.679262,43.9089056 Z M130.077536,47.7687242 C129.888186,47.2298061 130.194059,46.6326266 130.747542,46.4578424 C131.301026,46.2830582 131.88364,46.5743652 132.072989,47.142414 C132.247774,47.6813321 131.941901,48.2785116 131.388418,48.4532958 C131.28646,48.4824265 131.184503,48.5115572 131.06798,48.5115572 C130.631019,48.5115572 130.223189,48.2202502 130.077536,47.7687242 L130.077536,47.7687242 Z M131.228199,51.7305003 C131.082545,51.1624515 131.417548,50.5944028 131.985597,50.4633146 C132.539081,50.317661 133.107129,50.6526642 133.252783,51.2061476 C133.398437,51.7741964 133.063433,52.3422452 132.495385,52.4878987 C132.407992,52.502464 132.335166,52.5170294 132.233208,52.5170294 C131.767117,52.5170294 131.344722,52.211157 131.228199,51.7305003 L131.228199,51.7305003 Z M132.116685,55.7359725 C132.014728,55.1679237 132.378862,54.6290056 132.946911,54.5270482 C133.514959,54.4105253 134.068443,54.7892245 134.1704,55.3572733 C134.286923,55.9253221 133.908224,56.4642402 133.340175,56.580763 L133.150826,56.5953283 C132.641038,56.5953283 132.204078,56.2457598 132.116685,55.7359725 L132.116685,55.7359725 Z M132.757561,59.8142714 C132.684734,59.2316573 133.092564,58.7073046 133.660613,58.6344778 C134.243227,58.561651 134.76758,58.9694809 134.840407,59.5375297 C134.898668,60.1201438 134.505403,60.6444966 133.922789,60.7173233 L133.791701,60.7173233 C133.281914,60.7173233 132.830388,60.3386241 132.757561,59.8142714 L132.757561,59.8142714 Z M133.150826,63.9071357 C133.107129,63.3245216 133.54409,62.8292996 134.126704,62.8001689 C134.709318,62.7564728 135.189975,63.1934334 135.233671,63.7760475 C135.277367,64.3586617 134.840407,64.8393183 134.257792,64.8830144 L134.184966,64.8830144 C133.631482,64.8830144 133.179956,64.4606191 133.150826,63.9071357 L133.150826,63.9071357 Z" id="Fill-4" fill="#132161" sketch:type="MSShapeGroup"></path>
                <path d="M134.126704,73.2726579 C133.54409,73.2435272 133.107129,72.7483052 133.150826,72.1656911 C133.179956,71.5830769 133.675178,71.1461163 134.257792,71.175247 C134.840407,71.2189431 135.277367,71.7141651 135.233671,72.2967792 C135.20454,72.8502627 134.738449,73.2726579 134.184966,73.2726579 L134.126704,73.2726579 L134.126704,73.2726579 Z M133.660613,77.4237836 C133.092564,77.3655222 132.684734,76.8411695 132.757561,76.2585553 C132.844953,75.6759412 133.35474,75.2681113 133.937355,75.3555034 C134.505403,75.4283302 134.913233,75.9526829 134.840407,76.5207317 C134.76758,77.0450844 134.330619,77.438349 133.791701,77.438349 L133.660613,77.4237836 L133.660613,77.4237836 Z M132.961476,81.5457786 C132.393427,81.4438211 132.014728,80.8903377 132.116685,80.3222889 C132.233208,79.7542402 132.772126,79.3901063 133.340175,79.4920638 C133.908224,79.5940213 134.301488,80.1475047 134.184966,80.7155535 C134.083008,81.2253408 133.646048,81.5749093 133.150826,81.5749093 L132.961476,81.5457786 L132.961476,81.5457786 Z M131.985597,85.6095122 C131.417548,85.478424 131.082545,84.9103752 131.228199,84.3423265 C131.373852,83.7742777 131.941901,83.4392745 132.50995,83.5849281 C133.063433,83.7305816 133.413002,84.2986304 133.252783,84.8666792 C133.13626,85.3327705 132.713865,85.6532083 132.233208,85.6532083 C132.160381,85.6532083 132.072989,85.6386429 131.985597,85.6095122 L131.985597,85.6095122 Z M130.747542,89.6149844 C130.208624,89.4402001 129.902752,88.8430206 130.077536,88.3041026 C130.266886,87.7360538 130.8495,87.4447467 131.402983,87.619531 C131.941901,87.7943152 132.262339,88.3914947 132.072989,88.9304128 C131.927336,89.3819387 131.519506,89.6732458 131.082545,89.6732458 C130.966023,89.6732458 130.864065,89.6441151 130.747542,89.6149844 L130.747542,89.6149844 Z M129.276442,93.5330644 C128.737523,93.3145841 128.475347,92.7174046 128.679262,92.1784866 C128.897742,91.6250031 129.509487,91.3628268 130.048405,91.5813071 C130.587323,91.785222 130.8495,92.3969669 130.631019,92.9358849 C130.470801,93.3437148 130.077536,93.5913258 129.669706,93.5913258 C129.538618,93.5913258 129.40753,93.5767605 129.276442,93.5330644 L129.276442,93.5330644 Z M127.543164,97.3346216 C127.033377,97.0870106 126.800331,96.4752658 127.047942,95.9509131 C127.295553,95.4265604 127.921864,95.2080801 128.446216,95.4411257 C128.970569,95.6887367 129.189049,96.3150469 128.941438,96.8393996 C128.766654,97.2180988 128.387955,97.4365791 127.99469,97.4365791 C127.849037,97.4365791 127.703383,97.4074484 127.543164,97.3346216 L127.543164,97.3346216 Z M125.591407,101.048787 C125.08162,100.75748 124.89227,100.131169 125.169012,99.6213821 C125.460319,99.1115947 126.086629,98.9222452 126.596417,99.2135522 C127.106204,99.4902939 127.295553,100.116604 127.004246,100.626391 C126.814897,100.97596 126.465328,101.179875 126.086629,101.179875 C125.92641,101.179875 125.751626,101.121614 125.591407,101.048787 L125.591407,101.048787 Z M123.406604,104.602733 C122.911382,104.282295 122.765729,103.655985 123.071601,103.160763 C123.392039,102.665541 124.032914,102.519887 124.528136,102.840325 C125.008793,103.146198 125.154447,103.787073 124.848574,104.282295 C124.644659,104.602733 124.309656,104.762952 123.960088,104.762952 C123.770738,104.762952 123.581388,104.719256 123.406604,104.602733 L123.406604,104.602733 Z M120.988755,108.025591 C120.522664,107.676023 120.420707,107.020582 120.75571,106.569056 C121.105278,106.088399 121.760719,105.986442 122.226811,106.33601 C122.692902,106.671013 122.794859,107.326454 122.459856,107.792545 C122.255941,108.069287 121.935503,108.214941 121.615066,108.214941 C121.396585,108.214941 121.178105,108.156679 120.988755,108.025591 L120.988755,108.025591 Z M118.381557,111.28823 C117.930031,110.909531 117.87177,110.25409 118.235904,109.802564 L118.235904,109.817129 C118.600038,109.365604 119.270044,109.292777 119.72157,109.671476 C120.15853,110.03561 120.216792,110.705616 119.852658,111.142577 C119.648743,111.390188 119.342871,111.521276 119.051563,111.521276 C118.803952,111.521276 118.570907,111.448449 118.381557,111.28823 L118.381557,111.28823 Z M115.570444,114.376085 C115.133483,113.982821 115.118918,113.32738 115.512183,112.890419 C115.920013,112.468024 116.575453,112.453458 116.997849,112.846723 C117.420244,113.254553 117.434809,113.909994 117.041545,114.332389 C116.83763,114.550869 116.560888,114.652827 116.284146,114.652827 C116.02197,114.652827 115.759794,114.565435 115.570444,114.376085 L115.570444,114.376085 Z M112.555416,117.289156 C112.162151,116.86676 112.176717,116.21132 112.613677,115.80349 C113.036073,115.410225 113.691513,115.42479 114.084778,115.861751 C114.492608,116.269581 114.463477,116.939587 114.041082,117.332852 C113.837167,117.522201 113.574991,117.609593 113.312814,117.609593 C113.036073,117.609593 112.773896,117.507636 112.555416,117.289156 L112.555416,117.289156 Z M109.380169,120.012877 C109.016035,119.561351 109.074296,118.90591 109.525822,118.527211 C109.962783,118.163077 110.618224,118.221338 110.996923,118.672864 C111.361057,119.109825 111.302795,119.765266 110.85127,120.143965 C110.66192,120.304184 110.428874,120.377011 110.195829,120.377011 C109.889956,120.377011 109.584084,120.260488 109.380169,120.012877 L109.380169,120.012877 Z M106.044703,122.518118 C105.7097,122.037461 105.811657,121.396585 106.277749,121.061582 L106.277749,121.047017 C106.74384,120.712014 107.399281,120.813971 107.734284,121.280063 C108.083852,121.760719 107.96733,122.401595 107.515804,122.736598 C107.326454,122.882251 107.107974,122.940513 106.889493,122.940513 C106.569056,122.940513 106.248618,122.794859 106.044703,122.518118 L106.044703,122.518118 Z M102.549018,124.804878 C102.243146,124.324221 102.388799,123.66878 102.869456,123.362908 L102.869456,123.377473 C103.364678,123.057036 104.005553,123.202689 104.311426,123.697911 C104.631864,124.164003 104.48621,124.819443 104.005553,125.139881 C103.830769,125.241839 103.626854,125.3001 103.437505,125.3001 C103.087936,125.3001 102.752933,125.125316 102.549018,124.804878 L102.549018,124.804878 Z M98.9222452,126.887724 C98.6455034,126.377936 98.834853,125.737061 99.3446404,125.460319 C99.8398624,125.183577 100.480738,125.372927 100.772045,125.882714 C101.048787,126.392502 100.859437,127.018812 100.34965,127.295553 C100.189431,127.382946 100.014647,127.426642 99.8398624,127.426642 C99.4757286,127.426642 99.1115947,127.237292 98.9222452,126.887724 L98.9222452,126.887724 Z M95.1789493,128.722958 C94.9313383,128.198605 95.164384,127.572295 95.6741714,127.33925 C96.1985241,127.077073 96.8248343,127.310119 97.0724453,127.834472 C97.3200563,128.358824 97.0870106,128.985134 96.5772233,129.232745 C96.4315697,129.291007 96.2713508,129.334703 96.1256973,129.334703 C95.7324328,129.334703 95.3537336,129.101657 95.1789493,128.722958 L95.1789493,128.722958 Z M91.3191307,130.325147 C91.1006504,129.786229 91.3773921,129.174484 91.9163102,128.970569 L91.9163102,128.956004 C92.4552283,128.752089 93.0669731,129.014265 93.2708881,129.553183 C93.474803,130.092101 93.227192,130.703846 92.6882739,130.922326 L92.6882739,130.907761 C92.5571857,130.966023 92.4260976,130.980588 92.2950094,130.980588 C91.8726141,130.980588 91.4793496,130.732977 91.3191307,130.325147 L91.3191307,130.325147 Z M87.3719199,131.679725 C87.1971357,131.126241 87.4884428,130.543627 88.0419262,130.354278 C88.5954096,130.179493 89.1925891,130.485366 89.3673734,131.024284 C89.556723,131.592333 89.2508505,132.174947 88.6973671,132.349731 C88.5954096,132.378862 88.4788868,132.407992 88.3769293,132.407992 C87.9254034,132.407992 87.5175735,132.131251 87.3719199,131.679725 L87.3719199,131.679725 Z M83.3373171,132.786692 C83.2062289,132.218643 83.5266667,131.650594 84.0947154,131.504941 C84.6627642,131.359287 85.230813,131.69429 85.3619012,132.262339 C85.5221201,132.830388 85.1725516,133.398437 84.6190682,133.529525 C84.531676,133.558655 84.4442839,133.573221 84.3568918,133.573221 C83.8908005,133.573221 83.4684053,133.252783 83.3373171,132.786692 L83.3373171,132.786692 Z M79.2444528,133.631482 C79.1424953,133.048868 79.5066291,132.50995 80.0746779,132.407992 C80.6427267,132.29147 81.1962101,132.670169 81.312733,133.238218 C81.4146904,133.806266 81.0359912,134.345184 80.4825078,134.461707 L80.2785929,134.476273 C79.7833709,134.476273 79.3464103,134.126704 79.2444528,133.631482 L79.2444528,133.631482 Z M75.1078924,134.214096 C75.0350657,133.646048 75.4428956,133.107129 76.0109443,133.048868 C76.5935585,132.976041 77.1179112,133.369306 77.190738,133.95192 C77.2635647,134.519969 76.8557348,135.044321 76.2731207,135.117148 L76.1420325,135.131714 C75.6322452,135.131714 75.1807192,134.738449 75.1078924,134.214096 L75.1078924,134.214096 Z M70.9422014,134.534534 C70.9130707,133.966485 71.3500313,133.456698 71.9326454,133.427567 C72.5006942,133.398437 73.0104816,133.835397 73.0396123,134.418011 C73.068743,134.98606 72.6317824,135.481282 72.0491682,135.524978 L71.9909068,135.524978 C71.4374234,135.524978 70.9713321,135.088018 70.9422014,134.534534 L70.9422014,134.534534 Z" id="Fill-5" fill="#132161" sketch:type="MSShapeGroup"></path>
                <path d="M0.329368355,72.3259099 C0.285672295,71.7432958 0.722632896,71.2480738 1.30524703,71.2043777 C1.88786116,71.175247 2.38308318,71.626773 2.41221388,72.1948218 C2.45590994,72.7628705 2.01894934,73.2726579 1.43633521,73.3017886 L1.36350844,73.3017886 C0.810025016,73.3017886 0.358499062,72.8793934 0.329368355,72.3259099 L0.329368355,72.3259099 Z M0.722632896,76.5498624 C0.649806129,75.9818136 1.05763602,75.4574609 1.64025016,75.3846341 C2.20829894,75.3118074 2.73265166,75.7050719 2.80547842,76.2876861 C2.87830519,76.8557348 2.4704753,77.3946529 1.88786116,77.4529143 L1.77133834,77.4674797 C1.23242026,77.4674797 0.780894309,77.0742151 0.722632896,76.5498624 L0.722632896,76.5498624 Z M1.39263915,80.7446842 C1.27611632,80.1766354 1.64025016,79.623152 2.20829894,79.5211945 C2.77634772,79.419237 3.32983114,79.7833709 3.44635397,80.3514196 C3.54831144,80.9194684 3.16961226,81.4729518 2.61612883,81.5749093 L2.41221388,81.60404 C1.93155722,81.60404 1.48003127,81.2544715 1.39263915,80.7446842 L1.39263915,80.7446842 Z M2.31025641,84.8958099 C2.16460288,84.3277611 2.499606,83.7597123 3.06765478,83.6140588 C3.62113821,83.4684053 4.18918699,83.8034084 4.33484053,84.3714572 C4.48049406,84.9395059 4.14549093,85.5075547 3.57744215,85.6386429 C3.49005003,85.6677736 3.41722326,85.682339 3.31526579,85.682339 C2.84917448,85.682339 2.42677924,85.3619012 2.31025641,84.8958099 L2.31025641,84.8958099 Z M3.49005003,88.9741088 C3.31526579,88.4206254 3.60657286,87.8234459 4.16005629,87.6486617 C4.71353971,87.4738774 5.3107192,87.7651845 5.48550344,88.3186679 C5.66028768,88.8721513 5.36898061,89.4693308 4.81549719,89.6441151 C4.71353971,89.6732458 4.59701689,89.7023765 4.49505941,89.7023765 C4.04353346,89.7023765 3.63570356,89.4110694 3.49005003,88.9741088 L3.49005003,88.9741088 Z M4.93202001,92.9650156 C4.71353971,92.4260976 4.97571607,91.8143527 5.51463415,91.5958724 C6.05355222,91.3773921 6.66529706,91.6395685 6.86921201,92.1784866 C7.08769231,92.7174046 6.82551595,93.3291495 6.28659787,93.5476298 C6.17007505,93.5913258 6.03898687,93.6204565 5.90789869,93.6204565 C5.48550344,93.6204565 5.0922389,93.3728455 4.93202001,92.9650156 L4.93202001,92.9650156 Z M6.621601,96.853965 C6.35942464,96.3296123 6.59247029,95.7033021 7.11682301,95.4556911 C7.64117573,95.2080801 8.26748593,95.4265604 8.51509694,95.9509131 C8.76270794,96.4752658 8.52966229,97.101576 8.00530957,97.349187 C7.85965604,97.4220138 7.7140025,97.4511445 7.56834897,97.4511445 C7.17508443,97.4511445 6.79638524,97.2326642 6.621601,96.853965 L6.621601,96.853965 Z M8.54422764,100.626391 L8.54422764,100.626391 C8.26748593,100.116604 8.45683552,99.4757286 8.96662289,99.1989869 C9.4618449,98.9222452 10.1027205,99.1115947 10.3794622,99.6213821 C10.6562039,100.116604 10.4814196,100.75748 9.97163227,101.034221 C9.81141338,101.121614 9.63662914,101.16531 9.4618449,101.16531 C9.08314572,101.16531 8.73357724,100.97596 8.54422764,100.626391 L8.54422764,100.626391 Z M10.6998999,104.282295 C10.3940275,103.787073 10.5396811,103.146198 11.0203377,102.82576 C11.5155597,102.519887 12.1564353,102.665541 12.476873,103.146198 C12.7827455,103.64142 12.6370919,104.282295 12.1564353,104.602733 C11.981651,104.70469 11.7777361,104.762952 11.5883865,104.762952 C11.238818,104.762952 10.9038149,104.588168 10.6998999,104.282295 L10.6998999,104.282295 Z M13.1031832,107.77798 C12.7536148,107.326454 12.8555722,106.656448 13.3362289,106.321445 C13.7877548,105.986442 14.4431957,106.088399 14.7927642,106.55449 C15.1277674,107.020582 15.0258099,107.676023 14.5597186,108.025591 C14.370369,108.156679 14.1518887,108.214941 13.9334084,108.214941 C13.6129706,108.214941 13.3070982,108.069287 13.1031832,107.77798 L13.1031832,107.77798 Z M15.6958161,111.128011 C15.3316823,110.691051 15.3899437,110.021044 15.8414697,109.656911 C16.2784303,109.292777 16.9484365,109.365604 17.3125704,109.802564 C17.6767042,110.25409 17.6184428,110.909531 17.1669168,111.273665 C16.9775672,111.433884 16.7445216,111.521276 16.4969106,111.521276 C16.2056035,111.521276 15.8997311,111.390188 15.6958161,111.128011 L15.6958161,111.128011 Z M18.5069293,114.317824 C18.1136648,113.895428 18.1282301,113.225422 18.5506254,112.846723 C18.9730206,112.438893 19.6430269,112.468024 20.0362914,112.890419 C20.429556,113.312814 20.4004253,113.968255 19.9925954,114.376085 C19.7886804,114.565435 19.5265041,114.652827 19.2643277,114.652827 C18.987586,114.652827 18.7108443,114.536304 18.5069293,114.317824 L18.5069293,114.317824 Z M21.5073921,117.318286 C21.0849969,116.925022 21.0704315,116.269581 21.4636961,115.847186 C21.8569606,115.410225 22.5269669,115.39566 22.9347967,115.788924 C23.3717573,116.196754 23.3863227,116.852195 22.9930582,117.27459 C22.7745779,117.493071 22.4978361,117.609593 22.2210944,117.609593 C21.9734834,117.609593 21.7113071,117.507636 21.5073921,117.318286 L21.5073921,117.318286 Z M24.6826391,120.1294 C24.2456785,119.765266 24.1874171,119.09526 24.551551,118.658299 C24.9302502,118.206773 25.5856911,118.148512 26.0226517,118.527211 C26.4741776,118.891345 26.532439,119.546785 26.1683052,119.998311 C25.9643902,120.245922 25.6585178,120.377011 25.3672108,120.377011 C25.1195997,120.377011 24.8865541,120.304184 24.6826391,120.1294 L24.6826391,120.1294 Z M28.0472358,122.736598 L28.0326704,122.736598 C27.5811445,122.401595 27.4646216,121.746154 27.8141901,121.280063 C28.1491932,120.813971 28.8046341,120.712014 29.2707255,121.047017 C29.7513821,121.38202 29.8387742,122.037461 29.5037711,122.518118 C29.2998562,122.794859 28.9939837,122.940513 28.6589806,122.940513 C28.4550657,122.940513 28.22202,122.867686 28.0472358,122.736598 L28.0472358,122.736598 Z M31.5574859,125.125316 C31.0622639,124.819443 30.9166104,124.164003 31.2370482,123.683346 C31.5429206,123.188124 32.1837961,123.057036 32.6790181,123.362908 C33.1742402,123.66878 33.3053283,124.324221 32.9994559,124.804878 C32.795541,125.125316 32.4605378,125.3001 32.1255347,125.3001 C31.9216198,125.3001 31.7322702,125.241839 31.5574859,125.125316 L31.5574859,125.125316 Z M35.2133896,127.295553 C34.7036023,127.018812 34.5142527,126.377936 34.7909944,125.882714 C35.0677361,125.372927 35.7086116,125.183577 36.218399,125.460319 C36.7281864,125.751626 36.917536,126.377936 36.6262289,126.887724 C36.4368793,127.237292 36.0873108,127.426642 35.7086116,127.426642 C35.5483927,127.426642 35.3736085,127.382946 35.2133896,127.295553 L35.2133896,127.295553 Z M39.0003815,129.232745 C38.4760288,128.985134 38.2429831,128.358824 38.4905941,127.834472 C38.7382051,127.310119 39.3645153,127.077073 39.888868,127.33925 C40.4132208,127.586861 40.6317011,128.198605 40.3986554,128.737523 C40.2093058,129.116223 39.8306066,129.334703 39.4373421,129.334703 C39.2916886,129.334703 39.1314697,129.305572 39.0003815,129.232745 L39.0003815,129.232745 Z M42.9038962,130.922326 C42.3649781,130.703846 42.0882364,130.092101 42.3067167,129.553183 C42.525197,129.014265 43.1223765,128.766654 43.6612946,128.970569 C44.2002126,129.174484 44.462389,129.786229 44.258474,130.325147 C44.0982552,130.747542 43.6904253,130.995153 43.2825954,130.995153 C43.1515072,130.995153 43.020419,130.966023 42.9038962,130.922326 L42.9038962,130.922326 Z M46.894803,132.364296 C46.3413196,132.189512 46.0354472,131.592333 46.2247967,131.038849 C46.399581,130.485366 46.9821951,130.194059 47.5356785,130.368843 C48.1037273,130.543627 48.3950344,131.140807 48.2202502,131.679725 C48.0600313,132.131251 47.6522014,132.407992 47.2152408,132.407992 C47.1132833,132.407992 46.9967605,132.393427 46.894803,132.364296 L46.894803,132.364296 Z M50.9731019,133.54409 C50.4050532,133.398437 50.07005,132.830388 50.2157036,132.262339 C50.3613571,131.708856 50.9294059,131.359287 51.4828893,131.519506 C52.0509381,131.650594 52.3859412,132.218643 52.254853,132.786692 C52.1237649,133.267348 51.7013696,133.573221 51.2352783,133.573221 C51.1478862,133.573221 51.0604941,133.558655 50.9731019,133.54409 L50.9731019,133.54409 Z M55.1242276,134.476273 C54.5416135,134.35975 54.1774797,133.806266 54.2794371,133.238218 C54.39596,132.670169 54.9494434,132.29147 55.5174922,132.407992 C56.0709756,132.50995 56.4496748,133.063433 56.333152,133.631482 C56.2457598,134.126704 55.8087992,134.476273 55.3135772,134.476273 L55.1242276,134.476273 L55.1242276,134.476273 Z M59.3190494,135.131714 C58.7364353,135.044321 58.3286054,134.534534 58.4014321,133.95192 C58.4742589,133.383871 58.9986116,132.976041 59.5666604,133.048868 C60.1347092,133.107129 60.5571044,133.646048 60.4842777,134.214096 C60.4114509,134.753014 59.959925,135.131714 59.4501376,135.131714 L59.3190494,135.131714 L59.3190494,135.131714 Z M63.5284365,135.524978 C62.9603877,135.495847 62.5234271,134.98606 62.5525578,134.418011 C62.5816886,133.835397 63.0914759,133.398437 63.6595247,133.427567 C64.2421388,133.456698 64.6790994,133.966485 64.6354034,134.534534 C64.6062727,135.102583 64.1547467,135.524978 63.6012633,135.524978 L63.5284365,135.524978 L63.5284365,135.524978 Z" id="Fill-6" fill="#132161" sketch:type="MSShapeGroup"></path>
                <path d="M1.23242026,69.0924015 C0.955678549,69.0924015 0.693502189,68.990444 0.504152595,68.8010944 C0.300237649,68.5971795 0.198280175,68.3204378 0.198280175,68.0436961 C0.198280175,67.7815197 0.314803002,67.504778 0.504152595,67.3154284 C0.897417136,66.9221639 1.5965541,66.9221639 1.98981864,67.3154284 C2.17916823,67.504778 2.29569106,67.7815197 2.29569106,68.0436961 C2.29569106,68.3204378 2.17916823,68.5971795 1.98981864,68.8010944 C1.78590369,68.990444 1.50916198,69.0924015 1.23242026,69.0924015" id="Fill-7" fill="#132161" sketch:type="MSShapeGroup"></path>
                <path d="M134.316054,69.0924015 C134.039312,69.0924015 133.777136,68.990444 133.573221,68.8010944 C133.383871,68.5971795 133.267348,68.3204378 133.267348,68.0436961 C133.267348,67.7815197 133.383871,67.504778 133.573221,67.3154284 C133.966485,66.9221639 134.680188,66.9221639 135.058887,67.3154284 C135.248236,67.504778 135.364759,67.7815197 135.364759,68.0436961 C135.364759,68.3350031 135.248236,68.5971795 135.058887,68.8010944 C134.869537,68.990444 134.592795,69.0924015 134.316054,69.0924015" id="Fill-8" fill="#132161" sketch:type="MSShapeGroup"></path>
                <path d="M20.429556,21.2743465 C20.0362914,20.8519512 20.0362914,20.1965103 20.4586867,19.7886804 C20.8665166,19.3808505 21.5365228,19.3954159 21.9297874,19.8032458 C22.3376173,20.2110757 22.3376173,20.8810819 21.915222,21.2889118 C21.7113071,21.4928268 21.4491307,21.5802189 21.1869543,21.5802189 C20.9102126,21.5802189 20.6480363,21.4782614 20.429556,21.2743465 L20.429556,21.2743465 Z M17.6767042,24.2456785 C17.2397436,23.8669794 17.1960475,23.1969731 17.5893121,22.7745779 C17.9825766,22.3376173 18.6380175,22.3084866 19.0749781,22.6871857 C19.5119387,23.0804503 19.5410694,23.7358912 19.1478049,24.1874171 C18.9438899,24.4058974 18.6525829,24.5224203 18.3758412,24.5224203 C18.1136648,24.5224203 17.8660538,24.4350281 17.6767042,24.2456785 L17.6767042,24.2456785 Z M15.0840713,27.3917949 C14.6325453,27.0422264 14.5597186,26.3722201 14.9238524,25.9206942 C15.2734209,25.4691682 15.9288618,25.3963415 16.3949531,25.7604753 C16.846479,26.1100438 16.9193058,26.78005 16.555172,27.231576 C16.351257,27.479187 16.0453846,27.6248405 15.7395122,27.6248405 C15.5064665,27.6248405 15.2734209,27.5374484 15.0840713,27.3917949 L15.0840713,27.3917949 Z M12.6953533,30.6835647 C12.229262,30.363127 12.1127392,29.6931207 12.4477423,29.2270294 C12.7681801,28.7609381 13.423621,28.6444153 13.9042777,28.964853 C14.3849343,29.3144215 14.4868918,29.9552971 14.1518887,30.4359537 C13.9479737,30.7272608 13.627536,30.8729143 13.3070982,30.8729143 C13.0886179,30.8729143 12.8847029,30.8146529 12.6953533,30.6835647 L12.6953533,30.6835647 Z M10.5105503,34.1209881 C10.0153283,33.8151157 9.8696748,33.1742402 10.1609819,32.6790181 C10.4814196,32.1983615 11.1222952,32.0381426 11.6175172,32.344015 C12.0981739,32.6498874 12.2583927,33.2761976 11.9525203,33.785985 C11.7486054,34.1064228 11.4136023,34.281207 11.0640338,34.281207 C10.8746842,34.281207 10.6853346,34.2375109 10.5105503,34.1209881 L10.5105503,34.1209881 Z M8.54422764,37.6894997 C8.03444028,37.412758 7.84509068,36.7718824 8.10726704,36.2620951 C8.38400876,35.7523077 9.0248843,35.5629581 9.53467167,35.8396998 C10.044459,36.1018762 10.2338086,36.7427517 9.95706692,37.2525391 C9.76771732,37.6166729 9.40358349,37.8205879 9.03944966,37.8205879 C8.86466542,37.8205879 8.70444653,37.7768918 8.54422764,37.6894997 L8.54422764,37.6894997 Z M6.79638524,41.3745341 C6.27203252,41.1269231 6.03898687,40.5006129 6.28659787,39.9762602 C6.51964353,39.4519074 7.14595372,39.2188618 7.67030644,39.4664728 C8.19465916,39.6995184 8.42770482,40.3258286 8.18009381,40.8501814 L8.19465916,40.8501814 C8.00530957,41.2288806 7.62661038,41.4619262 7.23334584,41.4619262 C7.08769231,41.4619262 6.92747342,41.4327955 6.79638524,41.3745341 L6.79638524,41.3745341 Z M5.28158849,45.1469606 C4.74267042,44.9284803 4.46592871,44.3313008 4.68440901,43.7778174 C4.88832395,43.2388993 5.48550344,42.976723 6.03898687,43.1806379 C6.57790494,43.3991182 6.8400813,43.9962977 6.63616635,44.5352158 C6.47594747,44.957611 6.08268293,45.205222 5.66028768,45.205222 C5.5291995,45.205222 5.41267667,45.1906567 5.28158849,45.1469606 L5.28158849,45.1469606 Z M3.9998374,49.0067792 C3.44635397,48.831995 3.14048155,48.2493809 3.31526579,47.6813321 C3.49005003,47.142414 4.08722952,46.8365416 4.62614759,47.0113258 C5.17963102,47.1715447 5.48550344,47.7687242 5.3107192,48.3222076 C5.16506567,48.7591682 4.75723577,49.0504753 4.30570982,49.0504753 C4.20375235,49.0504753 4.10179487,49.0504753 3.9998374,49.0067792 L3.9998374,49.0067792 Z M2.95113196,52.9394246 C2.39764853,52.8083365 2.04808005,52.2402877 2.19373358,51.6722389 C2.33938712,51.1041901 2.9074359,50.769187 3.46091932,50.9148405 C4.01440275,51.0459287 4.36397123,51.6139775 4.2183177,52.1820263 C4.11636023,52.6626829 3.67939962,52.9685553 3.19874296,52.9685553 C3.1259162,52.9685553 3.03852408,52.9685553 2.95113196,52.9394246 L2.95113196,52.9394246 Z M2.15003752,56.9448968 C1.58198874,56.828374 1.21785491,56.2748906 1.31981238,55.7068418 C1.42176986,55.138793 1.96068793,54.7746592 2.52873671,54.8766166 C3.09678549,54.9785741 3.47548468,55.5174922 3.38809256,56.085541 C3.28613508,56.5953283 2.84917448,56.9448968 2.33938712,56.9448968 L2.15003752,56.9448968 L2.15003752,56.9448968 Z M1.61111945,60.9649343 C1.02850532,60.9066729 0.620675422,60.3677548 0.693502189,59.7997061 C0.751763602,59.2170919 1.29068168,58.809262 1.85873046,58.8820888 C2.42677924,58.9549156 2.84917448,59.4792683 2.77634772,60.0473171 C2.70352095,60.5862351 2.251995,60.9794997 1.74220763,60.9794997 L1.61111945,60.9649343 L1.61111945,60.9649343 Z M1.29068168,65.0286679 C0.722632896,64.9995372 0.285672295,64.4897498 0.314803002,63.9217011 C0.343933709,63.3390869 0.853721076,62.9021263 1.42176986,62.931257 C2.00438399,62.9603877 2.44134459,63.4701751 2.41221388,64.0382239 C2.36851782,64.6062727 1.91699187,65.0286679 1.36350844,65.0286679 L1.29068168,65.0286679 L1.29068168,65.0286679 Z" id="Fill-9" fill="#132161" sketch:type="MSShapeGroup"></path>
                <path d="M62.4069043,1.69851157 C62.3632083,1.13046279 62.8001689,0.620675422 63.382783,0.591544715 C63.9653971,0.562414009 64.4606191,0.999374609 64.4897498,1.56742339 C64.5334459,2.13547217 64.0964853,2.64525954 63.5138712,2.67439024 L63.4556098,2.67439024 C62.9021263,2.67439024 62.436035,2.251995 62.4069043,1.69851157 L62.4069043,1.69851157 Z M58.1101251,2.17916823 C58.0372983,1.61111945 58.4451282,1.08676673 59.013177,1.01393996 C59.5957911,0.941113196 60.1055785,1.34894309 60.1929706,1.91699187 C60.2657974,2.48504065 59.8579675,3.02395872 59.2899187,3.09678549 L59.1442652,3.09678549 C58.6199124,3.09678549 58.1683865,2.7180863 58.1101251,2.17916823 L58.1101251,2.17916823 Z M53.8570419,2.95113196 C53.7405191,2.38308318 54.1192183,1.82959975 54.687267,1.71307692 C55.2553158,1.5965541 55.7942339,1.97525328 55.9107567,2.54330206 C56.0127142,3.11135084 55.6485804,3.66483427 55.0805316,3.7813571 L55.0950969,3.7813571 L54.8766166,3.79592245 C54.39596,3.79592245 53.9589994,3.44635397 53.8570419,2.95113196 L53.8570419,2.95113196 Z M49.6622201,3.98527205 C49.5165666,3.43178862 49.8370044,2.84917448 50.4050532,2.70352095 C50.9585366,2.55786742 51.5411507,2.89287054 51.6868043,3.44635397 C51.8324578,4.01440275 51.4974547,4.58245153 50.9439712,4.72810507 C50.8565791,4.75723577 50.7546216,4.77180113 50.6672295,4.77180113 C50.2011382,4.77180113 49.778743,4.45136335 49.6622201,3.98527205 L49.6622201,3.98527205 Z M45.5402251,5.29615385 C45.3508755,4.74267042 45.656748,4.16005629 46.195666,3.97070669 C46.7491495,3.79592245 47.3317636,4.07266417 47.5211132,4.62614759 C47.7104628,5.17963102 47.4191557,5.76224515 46.8656723,5.95159475 C46.7637148,5.99529081 46.647192,6.00985616 46.5306692,6.00985616 C46.0937086,6.00985616 45.6858787,5.73311445 45.5402251,5.29615385 L45.5402251,5.29615385 Z M41.5056223,6.86921201 C41.287142,6.33029393 41.5493183,5.71854909 42.0882364,5.50006879 C42.6125891,5.28158849 43.2388993,5.54376485 43.4573796,6.06811757 C43.6758599,6.60703565 43.4136836,7.21878049 42.8747655,7.43726079 C42.7436773,7.4955222 42.6125891,7.52465291 42.4815009,7.52465291 C42.073671,7.52465291 41.6804065,7.2770419 41.5056223,6.86921201 L41.5056223,6.86921201 Z M37.6021076,8.70444653 C37.3544966,8.19465916 37.5584115,7.56834897 38.0827642,7.30617261 C38.5925516,7.0585616 39.2188618,7.2770419 39.4810381,7.78682927 C39.7286492,8.31118199 39.5247342,8.93749218 39.0003815,9.18510319 C38.854728,9.27249531 38.6945091,9.30162602 38.5342902,9.30162602 C38.155591,9.30162602 37.7768918,9.08314572 37.6021076,8.70444653 L37.6021076,8.70444653 Z M33.8151157,10.8018574 C33.5238086,10.29207 33.6985929,9.6511945 34.2083802,9.37445278 C34.7036023,9.08314572 35.3444778,9.25792996 35.6357849,9.75315197 C35.9270919,10.2629393 35.7377423,10.8892495 35.2425203,11.1805566 C35.0677361,11.2825141 34.9075172,11.3262101 34.7181676,11.3262101 C34.3540338,11.3262101 34.0044653,11.1368605 33.8151157,10.8018574 L33.8151157,10.8018574 Z M30.1737774,13.1323139 C29.8533396,12.6516573 29.9844278,11.9962164 30.4650844,11.6757786 C30.9457411,11.3553408 31.5866166,11.5009944 31.9216198,11.9670857 C32.2420575,12.4477423 32.096404,13.1031832 31.6157473,13.423621 C31.4409631,13.5401438 31.2370482,13.5984053 31.0476986,13.5984053 C30.6981301,13.5984053 30.3776923,13.423621 30.1737774,13.1323139 L30.1737774,13.1323139 Z M26.6780926,15.6812508 C26.3285241,15.2297248 26.4159162,14.5742839 26.8820075,14.2247154 L26.8965729,14.2247154 C27.3480988,13.875147 28.0035397,13.9625391 28.3531082,14.414065 C28.7026767,14.8801563 28.6152846,15.5355972 28.1637586,15.8997311 C27.974409,16.0308193 27.7413634,16.103646 27.5228831,16.103646 C27.2024453,16.103646 26.8965729,15.9725578 26.6780926,15.6812508 L26.6780926,15.6812508 Z" id="Fill-10" fill="#132161" sketch:type="MSShapeGroup"></path>
                <path d="M71.9035147,2.67439024 C71.3209006,2.63069418 70.88394,2.13547217 70.9130707,1.56742339 C70.9422014,0.984809256 71.4519887,0.547848655 72.0200375,0.576979362 C72.6026517,0.620675422 73.0396123,1.11589744 73.0104816,1.69851157 C72.9813508,2.23742964 72.5006942,2.67439024 71.9617761,2.67439024 L71.9035147,2.67439024 L71.9035147,2.67439024 Z M75.9818136,3.05308943 C75.4137649,2.98026266 75.005935,2.45590994 75.0787617,1.88786116 C75.1515885,1.31981238 75.6759412,0.911982489 76.24399,0.970243902 C76.8266041,1.04307067 77.234434,1.56742339 77.1616073,2.13547217 C77.0887805,2.67439024 76.6518199,3.06765478 76.1129018,3.06765478 L75.9818136,3.05308943 L75.9818136,3.05308943 Z M80.0455472,3.69396498 C79.4774984,3.57744215 79.1133646,3.03852408 79.2153221,2.4704753 C79.3172795,1.90242652 79.870763,1.52372733 80.4388118,1.64025016 L80.4533771,1.64025016 C81.0068605,1.74220763 81.3855597,2.29569106 81.2690369,2.86373984 C81.1816448,3.35896185 80.7301188,3.70853033 80.2494622,3.70853033 C80.1766354,3.70853033 80.118374,3.70853033 80.0455472,3.69396498 L80.0455472,3.69396498 Z M84.0655847,4.58245153 C83.497536,4.436798 83.1770982,3.86874922 83.3081864,3.31526579 C83.4538399,2.74721701 84.036454,2.41221388 84.5899375,2.55786742 C85.1434209,2.70352095 85.4929894,3.27156973 85.3473358,3.82505316 C85.2162477,4.30570982 84.7938524,4.61158224 84.3277611,4.61158224 C84.240369,4.61158224 84.1529769,4.61158224 84.0655847,4.58245153 L84.0655847,4.58245153 Z M88.0273609,5.73311445 C87.4593121,5.55833021 87.168005,4.96115072 87.3427892,4.40766729 C87.5175735,3.85418386 88.114753,3.5628768 88.653671,3.73766104 C89.2217198,3.91244528 89.5130269,4.50962477 89.3382427,5.06310819 C89.1925891,5.50006879 88.7847592,5.79137586 88.3477986,5.79137586 C88.2312758,5.79137586 88.114753,5.76224515 88.0273609,5.73311445 L88.0273609,5.73311445 Z M91.8871795,7.11682301 C91.3482614,6.91290807 91.1006504,6.30116323 91.3045654,5.76224515 C91.5084803,5.22332708 92.1202251,4.96115072 92.6591432,5.17963102 C93.1980613,5.39811132 93.474803,6.00985616 93.2563227,6.54877423 C93.0961038,6.95660413 92.6882739,7.20421513 92.280444,7.20421513 C92.1493558,7.20421513 92.0182677,7.17508443 91.8871795,7.11682301 L91.8871795,7.11682301 Z M95.6741714,8.76270794 C95.1498186,8.51509694 94.9313383,7.88878674 95.164384,7.37899937 C95.411995,6.8400813 96.0383052,6.621601 96.5626579,6.86921201 C97.0870106,7.11682301 97.3054909,7.74313321 97.0578799,8.26748593 C96.8830957,8.64618512 96.5189619,8.86466542 96.111132,8.86466542 C95.9654784,8.86466542 95.8198249,8.83553471 95.6741714,8.76270794 L95.6741714,8.76270794 Z M99.3446404,10.6416385 C98.834853,10.3503315 98.6455034,9.72402126 98.9222452,9.2142339 C99.2135522,8.70444653 99.8398624,8.51509694 100.34965,8.806404 C100.859437,9.08314572 101.048787,9.72402126 100.772045,10.2338086 C100.582695,10.5833771 100.218562,10.7727267 99.8398624,10.7727267 C99.6650782,10.7727267 99.5048593,10.7290306 99.3446404,10.6416385 L99.3446404,10.6416385 Z M102.884021,12.7390494 C102.388799,12.4186116 102.257711,11.7777361 102.563583,11.2970794 C102.869456,10.8018574 103.524897,10.6562039 104.005553,10.9620763 C104.500775,11.2825141 104.631864,11.9233896 104.325991,12.4186116 C104.122076,12.7390494 103.787073,12.8992683 103.437505,12.8992683 C103.248155,12.8992683 103.04424,12.8555722 102.884021,12.7390494 L102.884021,12.7390494 Z M106.277749,15.0549406 C105.811657,14.7199375 105.7097,14.0644966 106.059268,13.5838399 C106.394271,13.1177486 107.035147,13.0157911 107.515804,13.3653596 C107.981895,13.7003627 108.083852,14.3558036 107.748849,14.8218949 C107.544934,15.113202 107.224497,15.2588555 106.889493,15.2588555 C106.685578,15.2588555 106.467098,15.1860288 106.277749,15.0549406 L106.277749,15.0549406 Z M109.540388,17.5893121 C109.088862,17.2106129 109.0306,16.555172 109.394734,16.103646 C109.758868,15.6521201 110.428874,15.5938587 110.865835,15.9725578 L110.8804,15.9725578 C111.317361,16.3366917 111.375622,16.9921326 110.996923,17.4436585 C110.807573,17.6912695 110.501701,17.8223577 110.195829,17.8223577 C109.962783,17.8223577 109.729737,17.749531 109.540388,17.5893121 L109.540388,17.5893121 Z M112.613677,20.3130331 C112.191282,19.9052033 112.176717,19.235197 112.569981,18.8273671 C112.963246,18.4049719 113.633252,18.3758412 114.055647,18.783671 C114.478043,19.1769356 114.492608,19.8323765 114.099343,20.2547717 C113.880863,20.473252 113.604121,20.5897749 113.32738,20.5897749 C113.079769,20.5897749 112.817592,20.5023827 112.613677,20.3130331 L112.613677,20.3130331 Z M115.526748,23.2115385 C115.118918,22.7891432 115.148049,22.119137 115.570444,21.7404378 C115.992839,21.3326079 116.662846,21.3617386 117.05611,21.7695685 C117.449375,22.2065291 117.434809,22.86197 117.012414,23.2552345 C116.808499,23.4445841 116.546323,23.5465416 116.298712,23.5465416 C116.007405,23.5465416 115.730663,23.4300188 115.526748,23.2115385 L115.526748,23.2115385 Z M118.250469,26.2993934 C117.886335,25.8624328 117.944597,25.1924265 118.381557,24.8137273 C118.833083,24.4641588 119.488524,24.5224203 119.867223,24.9593809 C120.216792,25.4109068 120.15853,26.0663477 119.72157,26.4304816 C119.53222,26.5907004 119.284609,26.6780926 119.051563,26.6780926 C118.745691,26.6780926 118.454384,26.5470044 118.250469,26.2993934 L118.250469,26.2993934 Z M120.770275,29.5474672 C120.420707,29.0813759 120.53723,28.425935 121.003321,28.0763665 C121.469412,27.7413634 122.124853,27.8433208 122.459856,28.3094121 C122.794859,28.7755034 122.692902,29.4455097 122.226811,29.7805128 C122.052026,29.911601 121.833546,29.9844278 121.615066,29.9844278 C121.294628,29.9844278 120.97419,29.8242089 120.770275,29.5474672 L120.770275,29.5474672 Z M123.071601,32.9411945 C122.765729,32.4605378 122.911382,31.8196623 123.406604,31.5137899 C123.901826,31.1933521 124.542702,31.3390056 124.848574,31.8196623 C125.169012,32.3148843 125.008793,32.9703252 124.528136,33.2761976 C124.353352,33.3781551 124.149437,33.4364165 123.960088,33.4364165 C123.610519,33.4364165 123.275516,33.2616323 123.071601,32.9411945 L123.071601,32.9411945 Z M125.183577,36.4805754 C124.906836,35.9853533 125.08162,35.3444778 125.591407,35.0531707 C126.101194,34.776429 126.727505,34.9657786 127.004246,35.475566 C127.295553,35.9853533 127.106204,36.6116635 126.596417,36.9029706 C126.436198,36.9903627 126.275979,37.0194934 126.101194,37.0194934 C125.737061,37.0194934 125.372927,36.8301438 125.183577,36.4805754 L125.183577,36.4805754 Z M127.047942,40.1510444 C126.800331,39.6266917 127.033377,38.9858161 127.543164,38.7527705 C128.067517,38.5051595 128.693827,38.7236398 128.941438,39.2479925 C129.189049,39.7723452 128.970569,40.3986554 128.446216,40.6462664 C128.300563,40.7190932 128.140344,40.7482239 127.99469,40.7482239 C127.601426,40.7482239 127.222727,40.5151782 127.047942,40.1510444 L127.047942,40.1510444 Z M128.679262,43.9089056 C128.460782,43.3699875 128.722958,42.7582427 129.276442,42.5543277 C129.800794,42.3504128 130.412539,42.6125891 130.631019,43.1515072 C130.834934,43.6904253 130.587323,44.2876048 130.048405,44.5060851 C129.917317,44.5497811 129.786229,44.5789118 129.655141,44.5789118 C129.232745,44.5789118 128.839481,44.3167355 128.679262,43.9089056 L128.679262,43.9089056 Z M130.077536,47.7687242 C129.888186,47.2298061 130.194059,46.6326266 130.747542,46.4578424 C131.301026,46.2830582 131.88364,46.5743652 132.072989,47.142414 C132.247774,47.6813321 131.941901,48.2785116 131.388418,48.4532958 C131.28646,48.4824265 131.184503,48.5115572 131.06798,48.5115572 C130.631019,48.5115572 130.223189,48.2202502 130.077536,47.7687242 L130.077536,47.7687242 Z M131.228199,51.7305003 C131.082545,51.1624515 131.417548,50.5944028 131.985597,50.4633146 C132.539081,50.317661 133.107129,50.6526642 133.252783,51.2061476 C133.398437,51.7741964 133.063433,52.3422452 132.495385,52.4878987 C132.407992,52.502464 132.335166,52.5170294 132.233208,52.5170294 C131.767117,52.5170294 131.344722,52.211157 131.228199,51.7305003 L131.228199,51.7305003 Z M132.116685,55.7359725 C132.014728,55.1679237 132.378862,54.6290056 132.946911,54.5270482 C133.514959,54.4105253 134.068443,54.7892245 134.1704,55.3572733 C134.286923,55.9253221 133.908224,56.4642402 133.340175,56.580763 L133.150826,56.5953283 C132.641038,56.5953283 132.204078,56.2457598 132.116685,55.7359725 L132.116685,55.7359725 Z M132.757561,59.8142714 C132.684734,59.2316573 133.092564,58.7073046 133.660613,58.6344778 C134.243227,58.561651 134.76758,58.9694809 134.840407,59.5375297 C134.898668,60.1201438 134.505403,60.6444966 133.922789,60.7173233 L133.791701,60.7173233 C133.281914,60.7173233 132.830388,60.3386241 132.757561,59.8142714 L132.757561,59.8142714 Z M133.150826,63.9071357 C133.107129,63.3245216 133.54409,62.8292996 134.126704,62.8001689 C134.709318,62.7564728 135.189975,63.1934334 135.233671,63.7760475 C135.277367,64.3586617 134.840407,64.8393183 134.257792,64.8830144 L134.184966,64.8830144 C133.631482,64.8830144 133.179956,64.4606191 133.150826,63.9071357 L133.150826,63.9071357 Z" id="Fill-11" fill="#132161" sketch:type="MSShapeGroup"></path>
                <path d="M134.126704,73.2726579 C133.54409,73.2435272 133.107129,72.7483052 133.150826,72.1656911 C133.179956,71.5830769 133.675178,71.1461163 134.257792,71.175247 C134.840407,71.2189431 135.277367,71.7141651 135.233671,72.2967792 C135.20454,72.8502627 134.738449,73.2726579 134.184966,73.2726579 L134.126704,73.2726579 L134.126704,73.2726579 Z M133.660613,77.4237836 C133.092564,77.3655222 132.684734,76.8411695 132.757561,76.2585553 C132.844953,75.6759412 133.35474,75.2681113 133.937355,75.3555034 C134.505403,75.4283302 134.913233,75.9526829 134.840407,76.5207317 C134.76758,77.0450844 134.330619,77.438349 133.791701,77.438349 L133.660613,77.4237836 L133.660613,77.4237836 Z M132.961476,81.5457786 C132.393427,81.4438211 132.014728,80.8903377 132.116685,80.3222889 C132.233208,79.7542402 132.772126,79.3901063 133.340175,79.4920638 C133.908224,79.5940213 134.301488,80.1475047 134.184966,80.7155535 C134.083008,81.2253408 133.646048,81.5749093 133.150826,81.5749093 L132.961476,81.5457786 L132.961476,81.5457786 Z M131.985597,85.6095122 C131.417548,85.478424 131.082545,84.9103752 131.228199,84.3423265 C131.373852,83.7742777 131.941901,83.4392745 132.50995,83.5849281 C133.063433,83.7305816 133.413002,84.2986304 133.252783,84.8666792 C133.13626,85.3327705 132.713865,85.6532083 132.233208,85.6532083 C132.160381,85.6532083 132.072989,85.6386429 131.985597,85.6095122 L131.985597,85.6095122 Z M130.747542,89.6149844 C130.208624,89.4402001 129.902752,88.8430206 130.077536,88.3041026 C130.266886,87.7360538 130.8495,87.4447467 131.402983,87.619531 C131.941901,87.7943152 132.262339,88.3914947 132.072989,88.9304128 C131.927336,89.3819387 131.519506,89.6732458 131.082545,89.6732458 C130.966023,89.6732458 130.864065,89.6441151 130.747542,89.6149844 L130.747542,89.6149844 Z M129.276442,93.5330644 C128.737523,93.3145841 128.475347,92.7174046 128.679262,92.1784866 C128.897742,91.6250031 129.509487,91.3628268 130.048405,91.5813071 C130.587323,91.785222 130.8495,92.3969669 130.631019,92.9358849 C130.470801,93.3437148 130.077536,93.5913258 129.669706,93.5913258 C129.538618,93.5913258 129.40753,93.5767605 129.276442,93.5330644 L129.276442,93.5330644 Z M127.543164,97.3346216 C127.033377,97.0870106 126.800331,96.4752658 127.047942,95.9509131 C127.295553,95.4265604 127.921864,95.2080801 128.446216,95.4411257 C128.970569,95.6887367 129.189049,96.3150469 128.941438,96.8393996 C128.766654,97.2180988 128.387955,97.4365791 127.99469,97.4365791 C127.849037,97.4365791 127.703383,97.4074484 127.543164,97.3346216 L127.543164,97.3346216 Z M125.591407,101.048787 C125.08162,100.75748 124.89227,100.131169 125.169012,99.6213821 C125.460319,99.1115947 126.086629,98.9222452 126.596417,99.2135522 C127.106204,99.4902939 127.295553,100.116604 127.004246,100.626391 C126.814897,100.97596 126.465328,101.179875 126.086629,101.179875 C125.92641,101.179875 125.751626,101.121614 125.591407,101.048787 L125.591407,101.048787 Z M123.406604,104.602733 C122.911382,104.282295 122.765729,103.655985 123.071601,103.160763 C123.392039,102.665541 124.032914,102.519887 124.528136,102.840325 C125.008793,103.146198 125.154447,103.787073 124.848574,104.282295 C124.644659,104.602733 124.309656,104.762952 123.960088,104.762952 C123.770738,104.762952 123.581388,104.719256 123.406604,104.602733 L123.406604,104.602733 Z M120.988755,108.025591 C120.522664,107.676023 120.420707,107.020582 120.75571,106.569056 C121.105278,106.088399 121.760719,105.986442 122.226811,106.33601 C122.692902,106.671013 122.794859,107.326454 122.459856,107.792545 C122.255941,108.069287 121.935503,108.214941 121.615066,108.214941 C121.396585,108.214941 121.178105,108.156679 120.988755,108.025591 L120.988755,108.025591 Z M118.381557,111.28823 C117.930031,110.909531 117.87177,110.25409 118.235904,109.802564 L118.235904,109.817129 C118.600038,109.365604 119.270044,109.292777 119.72157,109.671476 C120.15853,110.03561 120.216792,110.705616 119.852658,111.142577 C119.648743,111.390188 119.342871,111.521276 119.051563,111.521276 C118.803952,111.521276 118.570907,111.448449 118.381557,111.28823 L118.381557,111.28823 Z M115.570444,114.376085 C115.133483,113.982821 115.118918,113.32738 115.512183,112.890419 C115.920013,112.468024 116.575453,112.453458 116.997849,112.846723 C117.420244,113.254553 117.434809,113.909994 117.041545,114.332389 C116.83763,114.550869 116.560888,114.652827 116.284146,114.652827 C116.02197,114.652827 115.759794,114.565435 115.570444,114.376085 L115.570444,114.376085 Z M112.555416,117.289156 C112.162151,116.86676 112.176717,116.21132 112.613677,115.80349 C113.036073,115.410225 113.691513,115.42479 114.084778,115.861751 C114.492608,116.269581 114.463477,116.939587 114.041082,117.332852 C113.837167,117.522201 113.574991,117.609593 113.312814,117.609593 C113.036073,117.609593 112.773896,117.507636 112.555416,117.289156 L112.555416,117.289156 Z M109.380169,120.012877 C109.016035,119.561351 109.074296,118.90591 109.525822,118.527211 C109.962783,118.163077 110.618224,118.221338 110.996923,118.672864 C111.361057,119.109825 111.302795,119.765266 110.85127,120.143965 C110.66192,120.304184 110.428874,120.377011 110.195829,120.377011 C109.889956,120.377011 109.584084,120.260488 109.380169,120.012877 L109.380169,120.012877 Z M106.044703,122.518118 C105.7097,122.037461 105.811657,121.396585 106.277749,121.061582 L106.277749,121.047017 C106.74384,120.712014 107.399281,120.813971 107.734284,121.280063 C108.083852,121.760719 107.96733,122.401595 107.515804,122.736598 C107.326454,122.882251 107.107974,122.940513 106.889493,122.940513 C106.569056,122.940513 106.248618,122.794859 106.044703,122.518118 L106.044703,122.518118 Z M102.549018,124.804878 C102.243146,124.324221 102.388799,123.66878 102.869456,123.362908 L102.869456,123.377473 C103.364678,123.057036 104.005553,123.202689 104.311426,123.697911 C104.631864,124.164003 104.48621,124.819443 104.005553,125.139881 C103.830769,125.241839 103.626854,125.3001 103.437505,125.3001 C103.087936,125.3001 102.752933,125.125316 102.549018,124.804878 L102.549018,124.804878 Z M98.9222452,126.887724 C98.6455034,126.377936 98.834853,125.737061 99.3446404,125.460319 C99.8398624,125.183577 100.480738,125.372927 100.772045,125.882714 C101.048787,126.392502 100.859437,127.018812 100.34965,127.295553 C100.189431,127.382946 100.014647,127.426642 99.8398624,127.426642 C99.4757286,127.426642 99.1115947,127.237292 98.9222452,126.887724 L98.9222452,126.887724 Z M95.1789493,128.722958 C94.9313383,128.198605 95.164384,127.572295 95.6741714,127.33925 C96.1985241,127.077073 96.8248343,127.310119 97.0724453,127.834472 C97.3200563,128.358824 97.0870106,128.985134 96.5772233,129.232745 C96.4315697,129.291007 96.2713508,129.334703 96.1256973,129.334703 C95.7324328,129.334703 95.3537336,129.101657 95.1789493,128.722958 L95.1789493,128.722958 Z M91.3191307,130.325147 C91.1006504,129.786229 91.3773921,129.174484 91.9163102,128.970569 L91.9163102,128.956004 C92.4552283,128.752089 93.0669731,129.014265 93.2708881,129.553183 C93.474803,130.092101 93.227192,130.703846 92.6882739,130.922326 L92.6882739,130.907761 C92.5571857,130.966023 92.4260976,130.980588 92.2950094,130.980588 C91.8726141,130.980588 91.4793496,130.732977 91.3191307,130.325147 L91.3191307,130.325147 Z M87.3719199,131.679725 C87.1971357,131.126241 87.4884428,130.543627 88.0419262,130.354278 C88.5954096,130.179493 89.1925891,130.485366 89.3673734,131.024284 C89.556723,131.592333 89.2508505,132.174947 88.6973671,132.349731 C88.5954096,132.378862 88.4788868,132.407992 88.3769293,132.407992 C87.9254034,132.407992 87.5175735,132.131251 87.3719199,131.679725 L87.3719199,131.679725 Z M83.3373171,132.786692 C83.2062289,132.218643 83.5266667,131.650594 84.0947154,131.504941 C84.6627642,131.359287 85.230813,131.69429 85.3619012,132.262339 C85.5221201,132.830388 85.1725516,133.398437 84.6190682,133.529525 C84.531676,133.558655 84.4442839,133.573221 84.3568918,133.573221 C83.8908005,133.573221 83.4684053,133.252783 83.3373171,132.786692 L83.3373171,132.786692 Z M79.2444528,133.631482 C79.1424953,133.048868 79.5066291,132.50995 80.0746779,132.407992 C80.6427267,132.29147 81.1962101,132.670169 81.312733,133.238218 C81.4146904,133.806266 81.0359912,134.345184 80.4825078,134.461707 L80.2785929,134.476273 C79.7833709,134.476273 79.3464103,134.126704 79.2444528,133.631482 L79.2444528,133.631482 Z M75.1078924,134.214096 C75.0350657,133.646048 75.4428956,133.107129 76.0109443,133.048868 C76.5935585,132.976041 77.1179112,133.369306 77.190738,133.95192 C77.2635647,134.519969 76.8557348,135.044321 76.2731207,135.117148 L76.1420325,135.131714 C75.6322452,135.131714 75.1807192,134.738449 75.1078924,134.214096 L75.1078924,134.214096 Z M70.9422014,134.534534 C70.9130707,133.966485 71.3500313,133.456698 71.9326454,133.427567 C72.5006942,133.398437 73.0104816,133.835397 73.0396123,134.418011 C73.068743,134.98606 72.6317824,135.481282 72.0491682,135.524978 L71.9909068,135.524978 C71.4374234,135.524978 70.9713321,135.088018 70.9422014,134.534534 L70.9422014,134.534534 Z" id="Fill-12" fill="#132161" sketch:type="MSShapeGroup"></path>
                <path d="M0.329368355,72.3259099 C0.285672295,71.7432958 0.722632896,71.2480738 1.30524703,71.2043777 C1.88786116,71.175247 2.38308318,71.626773 2.41221388,72.1948218 C2.45590994,72.7628705 2.01894934,73.2726579 1.43633521,73.3017886 L1.36350844,73.3017886 C0.810025016,73.3017886 0.358499062,72.8793934 0.329368355,72.3259099 L0.329368355,72.3259099 Z M0.722632896,76.5498624 C0.649806129,75.9818136 1.05763602,75.4574609 1.64025016,75.3846341 C2.20829894,75.3118074 2.73265166,75.7050719 2.80547842,76.2876861 C2.87830519,76.8557348 2.4704753,77.3946529 1.88786116,77.4529143 L1.77133834,77.4674797 C1.23242026,77.4674797 0.780894309,77.0742151 0.722632896,76.5498624 L0.722632896,76.5498624 Z M1.39263915,80.7446842 C1.27611632,80.1766354 1.64025016,79.623152 2.20829894,79.5211945 C2.77634772,79.419237 3.32983114,79.7833709 3.44635397,80.3514196 C3.54831144,80.9194684 3.16961226,81.4729518 2.61612883,81.5749093 L2.41221388,81.60404 C1.93155722,81.60404 1.48003127,81.2544715 1.39263915,80.7446842 L1.39263915,80.7446842 Z M2.31025641,84.8958099 C2.16460288,84.3277611 2.499606,83.7597123 3.06765478,83.6140588 C3.62113821,83.4684053 4.18918699,83.8034084 4.33484053,84.3714572 C4.48049406,84.9395059 4.14549093,85.5075547 3.57744215,85.6386429 C3.49005003,85.6677736 3.41722326,85.682339 3.31526579,85.682339 C2.84917448,85.682339 2.42677924,85.3619012 2.31025641,84.8958099 L2.31025641,84.8958099 Z M3.49005003,88.9741088 C3.31526579,88.4206254 3.60657286,87.8234459 4.16005629,87.6486617 C4.71353971,87.4738774 5.3107192,87.7651845 5.48550344,88.3186679 C5.66028768,88.8721513 5.36898061,89.4693308 4.81549719,89.6441151 C4.71353971,89.6732458 4.59701689,89.7023765 4.49505941,89.7023765 C4.04353346,89.7023765 3.63570356,89.4110694 3.49005003,88.9741088 L3.49005003,88.9741088 Z M4.93202001,92.9650156 C4.71353971,92.4260976 4.97571607,91.8143527 5.51463415,91.5958724 C6.05355222,91.3773921 6.66529706,91.6395685 6.86921201,92.1784866 C7.08769231,92.7174046 6.82551595,93.3291495 6.28659787,93.5476298 C6.17007505,93.5913258 6.03898687,93.6204565 5.90789869,93.6204565 C5.48550344,93.6204565 5.0922389,93.3728455 4.93202001,92.9650156 L4.93202001,92.9650156 Z M6.621601,96.853965 C6.35942464,96.3296123 6.59247029,95.7033021 7.11682301,95.4556911 C7.64117573,95.2080801 8.26748593,95.4265604 8.51509694,95.9509131 C8.76270794,96.4752658 8.52966229,97.101576 8.00530957,97.349187 C7.85965604,97.4220138 7.7140025,97.4511445 7.56834897,97.4511445 C7.17508443,97.4511445 6.79638524,97.2326642 6.621601,96.853965 L6.621601,96.853965 Z M8.54422764,100.626391 L8.54422764,100.626391 C8.26748593,100.116604 8.45683552,99.4757286 8.96662289,99.1989869 C9.4618449,98.9222452 10.1027205,99.1115947 10.3794622,99.6213821 C10.6562039,100.116604 10.4814196,100.75748 9.97163227,101.034221 C9.81141338,101.121614 9.63662914,101.16531 9.4618449,101.16531 C9.08314572,101.16531 8.73357724,100.97596 8.54422764,100.626391 L8.54422764,100.626391 Z M10.6998999,104.282295 C10.3940275,103.787073 10.5396811,103.146198 11.0203377,102.82576 C11.5155597,102.519887 12.1564353,102.665541 12.476873,103.146198 C12.7827455,103.64142 12.6370919,104.282295 12.1564353,104.602733 C11.981651,104.70469 11.7777361,104.762952 11.5883865,104.762952 C11.238818,104.762952 10.9038149,104.588168 10.6998999,104.282295 L10.6998999,104.282295 Z M13.1031832,107.77798 C12.7536148,107.326454 12.8555722,106.656448 13.3362289,106.321445 C13.7877548,105.986442 14.4431957,106.088399 14.7927642,106.55449 C15.1277674,107.020582 15.0258099,107.676023 14.5597186,108.025591 C14.370369,108.156679 14.1518887,108.214941 13.9334084,108.214941 C13.6129706,108.214941 13.3070982,108.069287 13.1031832,107.77798 L13.1031832,107.77798 Z M15.6958161,111.128011 C15.3316823,110.691051 15.3899437,110.021044 15.8414697,109.656911 C16.2784303,109.292777 16.9484365,109.365604 17.3125704,109.802564 C17.6767042,110.25409 17.6184428,110.909531 17.1669168,111.273665 C16.9775672,111.433884 16.7445216,111.521276 16.4969106,111.521276 C16.2056035,111.521276 15.8997311,111.390188 15.6958161,111.128011 L15.6958161,111.128011 Z M18.5069293,114.317824 C18.1136648,113.895428 18.1282301,113.225422 18.5506254,112.846723 C18.9730206,112.438893 19.6430269,112.468024 20.0362914,112.890419 C20.429556,113.312814 20.4004253,113.968255 19.9925954,114.376085 C19.7886804,114.565435 19.5265041,114.652827 19.2643277,114.652827 C18.987586,114.652827 18.7108443,114.536304 18.5069293,114.317824 L18.5069293,114.317824 Z M21.5073921,117.318286 C21.0849969,116.925022 21.0704315,116.269581 21.4636961,115.847186 C21.8569606,115.410225 22.5269669,115.39566 22.9347967,115.788924 C23.3717573,116.196754 23.3863227,116.852195 22.9930582,117.27459 C22.7745779,117.493071 22.4978361,117.609593 22.2210944,117.609593 C21.9734834,117.609593 21.7113071,117.507636 21.5073921,117.318286 L21.5073921,117.318286 Z M24.6826391,120.1294 C24.2456785,119.765266 24.1874171,119.09526 24.551551,118.658299 C24.9302502,118.206773 25.5856911,118.148512 26.0226517,118.527211 C26.4741776,118.891345 26.532439,119.546785 26.1683052,119.998311 C25.9643902,120.245922 25.6585178,120.377011 25.3672108,120.377011 C25.1195997,120.377011 24.8865541,120.304184 24.6826391,120.1294 L24.6826391,120.1294 Z M28.0472358,122.736598 L28.0326704,122.736598 C27.5811445,122.401595 27.4646216,121.746154 27.8141901,121.280063 C28.1491932,120.813971 28.8046341,120.712014 29.2707255,121.047017 C29.7513821,121.38202 29.8387742,122.037461 29.5037711,122.518118 C29.2998562,122.794859 28.9939837,122.940513 28.6589806,122.940513 C28.4550657,122.940513 28.22202,122.867686 28.0472358,122.736598 L28.0472358,122.736598 Z M31.5574859,125.125316 C31.0622639,124.819443 30.9166104,124.164003 31.2370482,123.683346 C31.5429206,123.188124 32.1837961,123.057036 32.6790181,123.362908 C33.1742402,123.66878 33.3053283,124.324221 32.9994559,124.804878 C32.795541,125.125316 32.4605378,125.3001 32.1255347,125.3001 C31.9216198,125.3001 31.7322702,125.241839 31.5574859,125.125316 L31.5574859,125.125316 Z M35.2133896,127.295553 C34.7036023,127.018812 34.5142527,126.377936 34.7909944,125.882714 C35.0677361,125.372927 35.7086116,125.183577 36.218399,125.460319 C36.7281864,125.751626 36.917536,126.377936 36.6262289,126.887724 C36.4368793,127.237292 36.0873108,127.426642 35.7086116,127.426642 C35.5483927,127.426642 35.3736085,127.382946 35.2133896,127.295553 L35.2133896,127.295553 Z M39.0003815,129.232745 C38.4760288,128.985134 38.2429831,128.358824 38.4905941,127.834472 C38.7382051,127.310119 39.3645153,127.077073 39.888868,127.33925 C40.4132208,127.586861 40.6317011,128.198605 40.3986554,128.737523 C40.2093058,129.116223 39.8306066,129.334703 39.4373421,129.334703 C39.2916886,129.334703 39.1314697,129.305572 39.0003815,129.232745 L39.0003815,129.232745 Z M42.9038962,130.922326 C42.3649781,130.703846 42.0882364,130.092101 42.3067167,129.553183 C42.525197,129.014265 43.1223765,128.766654 43.6612946,128.970569 C44.2002126,129.174484 44.462389,129.786229 44.258474,130.325147 C44.0982552,130.747542 43.6904253,130.995153 43.2825954,130.995153 C43.1515072,130.995153 43.020419,130.966023 42.9038962,130.922326 L42.9038962,130.922326 Z M46.894803,132.364296 C46.3413196,132.189512 46.0354472,131.592333 46.2247967,131.038849 C46.399581,130.485366 46.9821951,130.194059 47.5356785,130.368843 C48.1037273,130.543627 48.3950344,131.140807 48.2202502,131.679725 C48.0600313,132.131251 47.6522014,132.407992 47.2152408,132.407992 C47.1132833,132.407992 46.9967605,132.393427 46.894803,132.364296 L46.894803,132.364296 Z M50.9731019,133.54409 C50.4050532,133.398437 50.07005,132.830388 50.2157036,132.262339 C50.3613571,131.708856 50.9294059,131.359287 51.4828893,131.519506 C52.0509381,131.650594 52.3859412,132.218643 52.254853,132.786692 C52.1237649,133.267348 51.7013696,133.573221 51.2352783,133.573221 C51.1478862,133.573221 51.0604941,133.558655 50.9731019,133.54409 L50.9731019,133.54409 Z M55.1242276,134.476273 C54.5416135,134.35975 54.1774797,133.806266 54.2794371,133.238218 C54.39596,132.670169 54.9494434,132.29147 55.5174922,132.407992 C56.0709756,132.50995 56.4496748,133.063433 56.333152,133.631482 C56.2457598,134.126704 55.8087992,134.476273 55.3135772,134.476273 L55.1242276,134.476273 L55.1242276,134.476273 Z M59.3190494,135.131714 C58.7364353,135.044321 58.3286054,134.534534 58.4014321,133.95192 C58.4742589,133.383871 58.9986116,132.976041 59.5666604,133.048868 C60.1347092,133.107129 60.5571044,133.646048 60.4842777,134.214096 C60.4114509,134.753014 59.959925,135.131714 59.4501376,135.131714 L59.3190494,135.131714 L59.3190494,135.131714 Z M63.5284365,135.524978 C62.9603877,135.495847 62.5234271,134.98606 62.5525578,134.418011 C62.5816886,133.835397 63.0914759,133.398437 63.6595247,133.427567 C64.2421388,133.456698 64.6790994,133.966485 64.6354034,134.534534 C64.6062727,135.102583 64.1547467,135.524978 63.6012633,135.524978 L63.5284365,135.524978 L63.5284365,135.524978 Z" id="Fill-13" fill="#132161" sketch:type="MSShapeGroup"></path>
                <path d="M1.23242026,69.0924015 C0.955678549,69.0924015 0.693502189,68.990444 0.504152595,68.8010944 C0.300237649,68.5971795 0.198280175,68.3204378 0.198280175,68.0436961 C0.198280175,67.7815197 0.314803002,67.504778 0.504152595,67.3154284 C0.897417136,66.9221639 1.5965541,66.9221639 1.98981864,67.3154284 C2.17916823,67.504778 2.29569106,67.7815197 2.29569106,68.0436961 C2.29569106,68.3204378 2.17916823,68.5971795 1.98981864,68.8010944 C1.78590369,68.990444 1.50916198,69.0924015 1.23242026,69.0924015" id="Fill-14" fill="#132161" sketch:type="MSShapeGroup"></path>
                <path d="M67.7815197,135.903677 C67.4902126,135.903677 67.2426016,135.787154 67.0386867,135.597805 C66.8347717,135.39389 66.7328143,135.131714 66.7328143,134.854972 C66.7328143,134.57823 66.8493371,134.316054 67.0386867,134.112139 C67.4319512,133.718874 68.1310882,133.718874 68.5243527,134.112139 C68.7137023,134.316054 68.8302251,134.57823 68.8302251,134.854972 C68.8302251,135.131714 68.7282677,135.39389 68.5243527,135.597805 C68.3204378,135.787154 68.0582614,135.903677 67.7815197,135.903677" id="Fill-15" fill="#132161" sketch:type="MSShapeGroup"></path>
                <path d="M67.7815197,2.2811257 C67.4902126,2.2811257 67.2426016,2.16460288 67.0386867,1.97525328 C66.8347717,1.77133834 66.7328143,1.50916198 66.7328143,1.23242026 C66.7328143,0.955678549 66.8493371,0.693502189 67.0386867,0.489587242 C67.4319512,0.0963227017 68.1310882,0.0963227017 68.5243527,0.489587242 C68.7137023,0.693502189 68.8302251,0.955678549 68.8302251,1.23242026 C68.8302251,1.50916198 68.7282677,1.77133834 68.5243527,1.97525328 C68.3204378,2.16460288 68.0582614,2.2811257 67.7815197,2.2811257" id="Fill-16" fill="#132161" sketch:type="MSShapeGroup"></path>
                <path d="M134.316054,69.0924015 C134.039312,69.0924015 133.777136,68.990444 133.573221,68.8010944 C133.383871,68.5971795 133.267348,68.3204378 133.267348,68.0436961 C133.267348,67.7815197 133.383871,67.504778 133.573221,67.3154284 C133.966485,66.9221639 134.680188,66.9221639 135.058887,67.3154284 C135.248236,67.504778 135.364759,67.7815197 135.364759,68.0436961 C135.364759,68.3350031 135.248236,68.5971795 135.058887,68.8010944 C134.869537,68.990444 134.592795,69.0924015 134.316054,69.0924015" id="Fill-17" fill="#132161" sketch:type="MSShapeGroup"></path>
                <path d="M24.5224203,18.5214947 C24.1728518,18.5214947 23.8669794,18.3904065 23.6339337,18.1573609 C23.4008881,17.9243152 23.2697999,17.5893121 23.2697999,17.2543089 C23.2697999,16.9338712 23.4008881,16.6134334 23.6339337,16.3658224 C24.100025,15.8997311 24.9156848,15.8997311 25.3963415,16.3658224 C25.6148218,16.6134334 25.7604753,16.9338712 25.7604753,17.2543089 C25.7604753,17.5893121 25.6293871,17.9243152 25.3963415,18.1573609 C25.1632958,18.3904065 24.8574234,18.5214947 24.5224203,18.5214947" id="Fill-18" fill="#132161" sketch:type="MSShapeGroup"></path>
                <g id="space-typo" transform="translate(22.113821, 27.642276)" fill="#132060" sketch:type="MSShapeGroup">
                    <path d="M64.2530894,5.46370857 L70.0937961,5.46370857 C70.3851032,5.46370857 70.6181488,5.21609756 70.6181488,4.89565979 L70.6181488,1.54562852 C70.6181488,1.2397561 70.3851032,0.992145091 70.0937961,0.992145091 L64.0054784,0.992145091 L63.9909131,1.00671044 C59.1260851,1.25432145 55.2517011,5.59479675 55.2517011,10.8965854 C55.2517011,16.2857661 59.2571732,20.6699375 64.2239587,20.8010256 L64.2676548,20.8010256 L70.0937961,20.8447217 C70.3851032,20.8447217 70.6181488,20.5971107 70.6181488,20.2912383 L70.6181488,17.0722952 C70.6181488,16.7664228 70.3851032,16.5188118 70.0937961,16.5188118 L64.2676548,16.5188118 C62.0537211,16.5188118 60.2621826,14.0427017 60.2621826,10.9839775 C60.2621826,7.93981864 62.0537211,5.46370857 64.2530894,5.46370857" id="Fill-19"></path>
                    <path d="M25.2907692,1.03584115 L25.2470732,1.03584115 L18.6926642,0.992145091 C18.4013571,0.992145091 18.1683114,1.2397561 18.1683114,1.54562852 L18.1683114,4.75000625 C18.1683114,5.07044403 18.4013571,5.31805503 18.6926642,5.31805503 L25.2470732,5.31805503 C27.4464415,5.31805503 29.23798,7.7941651 29.23798,10.838324 C29.23798,13.8970482 27.4464415,16.3731582 25.2470732,16.3731582 L18.6926642,16.3731582 C18.4013571,16.3731582 18.1683114,16.6207692 18.1683114,16.941207 L18.1683114,25.9862914 C18.1683114,26.2775985 18.4304878,26.5252095 18.7654909,26.5252095 L22.3340025,26.5252095 C22.6690056,26.5252095 22.931182,26.2775985 22.931182,25.9862914 L22.931182,20.8447217 L25.4946842,20.8447217 L25.5092495,20.8301563 C30.3740775,20.5825453 34.2484615,16.24207 34.2484615,10.9402814 C34.2484615,5.55110069 30.2575547,1.16692933 25.2907692,1.03584115" id="Fill-20"></path>
                    <path d="M81.0906379,5.46370857 L87.6450469,5.46370857 C87.936354,5.46370857 88.1693996,5.21609756 88.1693996,4.89565979 L88.1693996,1.54562852 C88.1693996,1.2397561 87.936354,0.992145091 87.6450469,0.992145091 L80.8430269,0.992145091 L80.8284615,1.00671044 C75.9636335,1.25432145 72.0892495,5.59479675 72.0892495,10.8965854 C72.0892495,16.2857661 76.0801563,20.6699375 81.0469418,20.8010256 L81.0906379,20.8010256 L87.6450469,20.8447217 C87.936354,20.8447217 88.1693996,20.5971107 88.1693996,20.2912383 L88.1693996,17.0722952 C88.1693996,16.7664228 87.936354,16.5188118 87.6450469,16.5188118 L81.0906379,16.5188118 C78.8767042,16.5188118 77.0997311,14.0427017 77.0997311,10.9985428 C77.0997311,7.93981864 78.8767042,5.46370857 81.0906379,5.46370857" id="Fill-21"></path>
                    <path d="M87.1206942,8.53699812 C87.3974359,8.53699812 87.6304816,8.75547842 87.6304816,9.03222014 L87.6304816,12.0035522 C87.6304816,12.2802939 87.3974359,12.4987742 87.1206942,12.4987742 L80.6973734,12.4987742 C80.4206316,12.4987742 80.187586,12.2802939 80.187586,12.0035522 L80.187586,9.03222014 C80.187586,8.75547842 80.4206316,8.53699812 80.6973734,8.53699812 L87.1206942,8.53699812" id="Fill-22"></path>
                    <path d="M49.4546904,30.1665478 C43.7596373,30.1665478 39.1424203,34.9439837 39.1424203,40.8429518 C39.1424203,46.7273546 43.7596373,51.5047905 49.4546904,51.5047905 C55.1351782,51.5047905 59.7523952,46.7273546 59.7523952,40.8429518 C59.7523952,34.9439837 55.1351782,30.1665478 49.4546904,30.1665478 L49.4546904,30.1665478 Z M49.4546904,47.033227 C46.5416198,47.033227 44.1820325,44.2658099 44.1820325,40.8429518 C44.1820325,37.4200938 46.5416198,34.6381113 49.4546904,34.6381113 C52.3531957,34.6381113 54.712783,37.4200938 54.712783,40.8429518 C54.712783,44.2658099 52.3531957,47.033227 49.4546904,47.033227 L49.4546904,47.033227 Z" id="Fill-23"></path>
                    <path d="M26.7473046,30.1665478 C21.0668168,30.1665478 16.4495997,34.9439837 16.4495997,40.8429518 C16.4495997,46.7273546 21.0668168,51.5047905 26.7473046,51.5047905 C32.4423577,51.5047905 37.0595747,46.7273546 37.0595747,40.8429518 C37.0595747,34.9439837 32.4423577,30.1665478 26.7473046,30.1665478 L26.7473046,30.1665478 Z M26.7473046,47.033227 C23.8487992,47.033227 21.489212,44.2658099 21.489212,40.8429518 C21.489212,37.4200938 23.8487992,34.6381113 26.7473046,34.6381113 C29.6603752,34.6381113 32.0199625,37.4200938 32.0199625,40.8429518 C32.0199625,44.2658099 29.6603752,47.033227 26.7473046,47.033227 L26.7473046,47.033227 Z" id="Fill-24"></path>
                    <path d="M67.6031207,50.3832583 C67.6031207,50.7328268 67.326379,51.0095685 66.9913759,51.0095685 L63.3209068,51.0095685 C62.9859037,51.0095685 62.709162,50.7328268 62.709162,50.3832583 L62.709162,39.2553283 C62.709162,38.9057598 62.9859037,38.6290181 63.3209068,38.6290181 L66.9913759,38.6290181 C67.326379,38.6290181 67.6031207,38.9057598 67.6031207,39.2553283 L67.6031207,50.3832583" id="Fill-25"></path>
                    <path d="M78.0610444,50.3832583 C78.0610444,50.7328268 77.798868,51.0095685 77.4492996,51.0095685 L73.7788305,51.0095685 C73.4438274,51.0095685 73.1670857,50.7328268 73.1670857,50.3832583 L73.1670857,39.2553283 C73.1670857,38.9057598 73.4438274,38.6290181 73.7788305,38.6290181 L77.4492996,38.6290181 C77.798868,38.6290181 78.0610444,38.9057598 78.0610444,39.2553283 L78.0610444,50.3832583" id="Fill-26"></path>
                    <path d="M86.0865541,33.4146216 C83.9017511,30.8802502 79.488449,30.6763352 79.488449,30.6763352 L63.3937336,30.6763352 C63.0587305,30.6763352 62.7819887,30.9239462 62.7819887,31.244384 L62.7819887,34.6818074 C62.7819887,35.0022452 63.0587305,35.2644215 63.3937336,35.2644215 L74.5216635,35.2644215 L74.579925,35.2498562 C75.6286304,35.2498562 77.6386492,35.2352908 78.5125704,35.2644215 C79.7506254,35.2935522 81.0760725,35.5557286 82.372389,36.8374797 C83.6687054,38.1192308 83.6395747,40.6390369 83.6395747,40.6390369 L83.6395747,50.4560851 C83.6395747,50.7619575 83.9163164,51.0095685 84.2513196,51.0095685 L87.9217886,51.0095685 C88.2567917,51.0095685 88.5335335,50.7619575 88.5335335,50.4560851 L88.5335335,40.6390369 C88.5335335,38.2066229 88.2713571,35.9344278 86.0865541,33.4146216" id="Fill-27"></path>
                    <path d="M13.8569669,35.2644215 C14.2065353,35.2644215 14.483277,35.0022452 14.483277,34.6818074 L14.483277,31.244384 C14.483277,30.9239462 14.2065353,30.6763352 13.8569669,30.6763352 L11.9926016,30.6763352 C11.9926016,30.6763352 7.57929956,30.8802502 5.39449656,33.4146216 C3.20969356,35.9344278 2.9475172,38.2066229 2.9475172,40.6390369 L2.9475172,50.4560851 C2.9475172,50.7619575 3.22425891,51.0095685 3.55926204,51.0095685 L7.22973108,51.0095685 C7.56473421,51.0095685 7.84147592,50.7619575 7.84147592,50.4560851 L7.84147592,40.6390369 C7.84147592,40.6390369 7.81234522,38.1337961 9.10866166,36.8374797 C10.4049781,35.5557286 11.7304253,35.2935522 12.9539149,35.2644215 L13.8569669,35.2644215" id="Fill-28"></path>
                    <path d="M13.7987054,10.5907129 C13.4782677,10.2557098 11.5410757,8.91569731 8.99213884,8.31851782 C6.45776735,7.72133834 5.58384615,6.7017636 5.75863039,6.14828018 C5.91884928,5.6093621 6.29754847,5.18696685 6.93842402,5.18696685 L11.7012946,5.18696685 L11.7012946,5.1724015 L13.6530519,5.1724015 C13.9589243,5.1724015 14.2065353,4.92479049 14.2065353,4.63348343 L14.2065353,1.35627892 C14.2065353,1.0504065 13.9589243,0.817360851 13.6530519,0.817360851 L11.7012946,0.817360851 L6.13732958,0.802795497 C6.13732958,0.802795497 2.02989994,0.846491557 0.893802376,5.18696685 C0.64619137,6.10458412 0.893802376,7.44459662 0.893802376,7.44459662 C0.893802376,7.44459662 1.21424015,9.67309568 3.74861163,11.0131082 C6.29754847,12.3676861 7.88517198,12.2948593 9.42909944,13.2853033 C10.5360663,14.013571 10.2447592,15.1205378 10.1282364,15.455541 C10.0262789,15.7759787 9.48736085,16.3731582 8.77365854,16.4751157 C8.42409006,16.5333771 7.33168856,16.5479425 6.34124453,16.5625078 L4.79731707,16.5625078 L4.46231395,16.5479425 L1.40358974,16.5625078 C1.09771732,16.5625078 0.850106316,16.7955535 0.850106316,17.1014259 L0.850106316,20.4223265 C0.850106316,20.7136335 1.09771732,20.9612445 1.40358974,20.9612445 L9.80779862,20.9612445 C9.80779862,20.9612445 13.3471795,20.9612445 14.7745841,17.3344715 C16.2456848,13.6203064 14.1337086,10.9111507 13.7987054,10.5907129" id="Fill-29"></path>
                    <path d="M52.4114572,6.94937461 C52.4114572,6.06088806 52.4260225,4.63348343 50.6927455,2.66716073 C49.5857786,1.41454034 47.459237,0.831926204 45.9881363,0.744534084 L37.5402314,0.744534084 C37.234359,0.744534084 36.986748,0.992145091 36.986748,1.29801751 L36.986748,4.58978737 C36.986748,4.89565979 37.234359,5.14327079 37.5402314,5.14327079 L45.2016073,5.14327079 C47.6922827,5.14327079 47.5029331,7.18242026 47.5029331,7.18242026 L47.5029331,17.0868605 L43.5120263,17.0868605 C43.0313696,17.0868605 41.7350532,17.2762101 41.5311382,14.4505316 C41.40005,12.5861664 42.6818011,12.3385553 43.6139837,12.32399 C43.7450719,12.3385553 43.8615947,12.32399 43.9635522,12.32399 L45.1287805,12.32399 C45.4346529,12.32399 45.6822639,12.076379 45.6822639,11.7850719 L45.6822639,8.46417136 C45.6822639,8.15829894 45.4346529,7.91068793 45.1287805,7.91068793 L43.9635522,7.91068793 C43.9052908,7.91068793 43.8470294,7.92525328 43.8033333,7.93981864 L42.0117949,7.93981864 C38.9093746,7.93981864 37.1324015,11.1441964 36.986748,11.6685491 C36.8265291,12.1929018 36.6517448,12.1492058 36.739137,15.455541 C36.8847905,21.5438587 43.5120263,20.8738524 43.5120263,20.8738524 L51.8579737,20.8738524 C52.1638462,20.8738524 52.4114572,20.6262414 52.4114572,20.320369 L52.4114572,6.94937461" id="Fill-30"></path>
                </g>
            </g>
        </g>
    </g>
</svg>